<svg width="1115" height="113" viewBox="0 0 1115 113" fill="none" xmlns="http://www.w3.org/2000/svg">
<rect x="0.246094" y="0.869141" width="558" height="112" fill="#8CB1C8"/>
<rect x="558.246" y="0.869141" width="278.75" height="112" fill="#5958B2"/>
<rect x="836.246" y="0.869141" width="139.375" height="112" fill="#16375D"/>
<rect x="975.246" y="0.869141" width="69.69" height="112" fill="#042245"/>
<rect x="1045.25" y="0.869141" width="69.69" height="112" fill="#D8E0F3"/>
<path d="M43.0281 61.5751H41.8761C41.9301 62.2411 42.0741 62.7811 42.3261 63.2311C42.5601 63.6811 42.8841 64.0591 43.2801 64.3291C43.6761 64.6171 44.1441 64.8151 44.6661 64.9411C45.1881 65.0671 45.7461 65.1211 46.3401 65.1211C46.8621 65.1211 47.3661 65.0311 47.8521 64.8331C48.3381 64.6531 48.7521 64.3831 49.1301 64.0231C49.5081 63.6631 49.7961 63.2131 50.0301 62.6911C50.2461 62.1691 50.3541 61.5751 50.3541 60.9091C50.3541 60.2611 50.2641 59.6671 50.0661 59.1451C49.8681 58.6231 49.5801 58.1911 49.2201 57.8311C48.8601 57.4711 48.4281 57.2011 47.9421 57.0031C47.4561 56.8051 46.9161 56.7151 46.3401 56.7151C46.0521 56.7151 45.8001 56.7331 45.5661 56.7511C45.3321 56.7691 45.0981 56.8231 44.8821 56.8771C44.6661 56.9491 44.4501 57.0391 44.2521 57.1471C44.0361 57.2551 43.8021 57.3811 43.5501 57.5431L44.3421 53.2771H49.6701V52.3051H43.3701L42.3441 58.8751L43.2981 59.0011C43.6401 58.5511 44.0541 58.2091 44.5041 57.9931C44.9541 57.7951 45.4761 57.6871 46.0521 57.6871C46.5381 57.6871 46.9701 57.7591 47.3661 57.9211C47.7441 58.0831 48.0861 58.2991 48.3561 58.5871C48.6261 58.8751 48.8241 59.2171 48.9861 59.6131C49.1301 60.0091 49.2021 60.4411 49.2021 60.9091C49.2021 61.3591 49.1301 61.7911 49.0041 62.1691C48.8601 62.5651 48.6621 62.9071 48.3921 63.1951C48.1221 63.5011 47.8161 63.7351 47.4381 63.8971C47.0601 64.0591 46.6281 64.1491 46.1601 64.1491C45.3321 64.1491 44.6301 63.9331 44.0721 63.5011C43.4961 63.0871 43.1541 62.4391 43.0281 61.5751ZM56.252 52.1791C55.334 52.1791 54.596 52.3591 54.038 52.7371C53.48 53.1151 53.048 53.6011 52.742 54.1951C52.436 54.8071 52.22 55.4911 52.112 56.2651C52.004 57.0391 51.95 57.8131 51.95 58.6231C51.95 59.5051 52.004 60.3331 52.13 61.1071C52.256 61.8991 52.472 62.5831 52.796 63.1771C53.102 63.7711 53.552 64.2571 54.11 64.5991C54.668 64.9411 55.37 65.1211 56.252 65.1211C57.134 65.1211 57.836 64.9411 58.394 64.5991C58.952 64.2571 59.384 63.7891 59.708 63.1951C60.014 62.6011 60.23 61.9351 60.356 61.1611C60.482 60.3871 60.536 59.5951 60.536 58.7491C60.536 58.2631 60.518 57.7591 60.482 57.2371C60.446 56.7151 60.374 56.2111 60.266 55.7251C60.158 55.2391 60.014 54.7891 59.816 54.3571C59.618 53.9251 59.348 53.5471 59.042 53.2231C58.718 52.8991 58.322 52.6471 57.872 52.4491C57.422 52.2691 56.882 52.1791 56.252 52.1791ZM59.384 58.6231C59.384 59.2531 59.348 59.9011 59.276 60.5671C59.204 61.2331 59.06 61.8271 58.844 62.3491C58.628 62.8711 58.322 63.3031 57.908 63.6451C57.494 63.9871 56.936 64.1491 56.252 64.1491C55.64 64.1491 55.136 64.0231 54.74 63.7531C54.326 63.5011 54.002 63.1411 53.768 62.6731C53.534 62.2051 53.354 61.6291 53.264 60.9631C53.156 60.2971 53.102 59.5591 53.102 58.7491C53.102 58.0471 53.156 57.3631 53.246 56.6971C53.336 56.0311 53.48 55.4191 53.714 54.8971C53.948 54.3751 54.254 53.9431 54.668 53.6191C55.064 53.3131 55.586 53.1511 56.216 53.1511C56.882 53.1511 57.44 53.3131 57.854 53.6191C58.268 53.9251 58.574 54.3391 58.808 54.8611C59.042 55.3831 59.186 55.9591 59.276 56.6071C59.348 57.2731 59.384 57.9391 59.384 58.6231ZM72.338 52.1791L65.192 65.1211H66.128L73.274 52.1791H72.338ZM68.414 55.2931C68.414 54.8791 68.342 54.5011 68.18 54.1231C68.018 53.7631 67.82 53.4391 67.55 53.1691C67.28 52.8991 66.956 52.7011 66.596 52.5391C66.218 52.3771 65.84 52.3051 65.426 52.3051C65.012 52.3051 64.634 52.3771 64.274 52.5391C63.914 52.7011 63.608 52.9171 63.338 53.1871C63.068 53.4571 62.852 53.7811 62.69 54.1411C62.528 54.5011 62.456 54.8791 62.456 55.2931C62.456 55.7071 62.528 56.0851 62.69 56.4451C62.852 56.8051 63.068 57.1111 63.338 57.3811C63.608 57.6511 63.914 57.8671 64.274 58.0291C64.634 58.1911 65.012 58.2631 65.426 58.2631C65.84 58.2631 66.218 58.1911 66.596 58.0291C66.956 57.8671 67.28 57.6511 67.55 57.3811C67.82 57.1111 68.018 56.8051 68.18 56.4451C68.342 56.0851 68.414 55.7071 68.414 55.2931ZM65.426 57.2371C65.156 57.2371 64.922 57.1831 64.688 57.0751C64.454 56.9851 64.238 56.8411 64.058 56.6611C63.878 56.4811 63.734 56.2651 63.644 56.0311C63.536 55.7971 63.482 55.5631 63.482 55.2931C63.482 55.0231 63.536 54.7711 63.644 54.5371C63.734 54.3031 63.878 54.0871 64.058 53.9071C64.238 53.7271 64.454 53.5831 64.688 53.4751C64.922 53.3851 65.156 53.3311 65.426 53.3311C65.696 53.3311 65.948 53.3851 66.182 53.4931C66.416 53.6011 66.632 53.7451 66.812 53.9251C66.992 54.1051 67.136 54.3031 67.244 54.5371C67.334 54.7711 67.388 55.0231 67.388 55.2931C67.388 55.5631 67.334 55.7971 67.226 56.0311C67.118 56.2651 66.974 56.4811 66.794 56.6611C66.614 56.8411 66.416 56.9851 66.182 57.0751C65.948 57.1831 65.696 57.2371 65.426 57.2371ZM73.094 58.9111C72.68 58.9111 72.302 58.9831 71.942 59.1451C71.582 59.3071 71.276 59.5051 71.006 59.7751C70.736 60.0451 70.52 60.3691 70.358 60.7291C70.196 61.0891 70.106 61.4671 70.106 61.8811C70.106 62.2951 70.178 62.6731 70.34 63.0331C70.502 63.4111 70.718 63.7171 70.988 63.9871C71.258 64.2571 71.564 64.4731 71.942 64.6351C72.302 64.7971 72.68 64.8691 73.094 64.8691C73.508 64.8691 73.886 64.7971 74.246 64.6351C74.606 64.4731 74.912 64.2571 75.182 63.9871C75.452 63.7171 75.65 63.4111 75.812 63.0331C75.956 62.6731 76.028 62.2951 76.028 61.8811C76.028 61.4671 75.956 61.0891 75.812 60.7291C75.65 60.3691 75.452 60.0451 75.182 59.7751C74.912 59.5051 74.606 59.3071 74.246 59.1451C73.886 58.9831 73.508 58.9111 73.094 58.9111ZM73.076 59.9371C73.346 59.9371 73.598 59.9911 73.832 60.0811C74.066 60.1891 74.264 60.3331 74.444 60.5131C74.606 60.6931 74.75 60.8911 74.858 61.1251C74.948 61.3591 75.002 61.6111 75.002 61.8811C75.002 62.1511 74.948 62.3851 74.858 62.6191C74.75 62.8531 74.606 63.0691 74.444 63.2491C74.264 63.4291 74.066 63.5731 73.832 63.6811C73.598 63.7891 73.346 63.8431 73.076 63.8431C72.824 63.8431 72.59 63.7891 72.356 63.6811C72.122 63.5911 71.906 63.4471 71.726 63.2671C71.546 63.0871 71.402 62.8711 71.294 62.6371C71.186 62.4031 71.132 62.1691 71.132 61.9171C71.132 61.6471 71.186 61.3951 71.294 61.1611C71.384 60.9271 71.528 60.7111 71.708 60.5311C71.87 60.3511 72.086 60.2071 72.32 60.0991C72.554 59.9911 72.806 59.9371 73.076 59.9371Z" fill="black"/>
<path d="M1075.11 55.2931H1076.3C1076.17 54.2671 1075.78 53.4931 1075.11 52.9711C1074.45 52.4491 1073.6 52.1791 1072.59 52.1791C1071.66 52.1791 1070.9 52.3951 1070.31 52.8271C1069.71 53.2591 1069.24 53.8171 1068.9 54.4831C1068.56 55.1491 1068.31 55.8871 1068.18 56.6971C1068.06 57.5071 1067.98 58.2991 1067.98 59.0551C1067.98 60.1711 1068.09 61.1071 1068.33 61.8811C1068.56 62.6551 1068.87 63.2851 1069.26 63.7711C1069.66 64.2571 1070.13 64.5991 1070.67 64.7971C1071.21 65.0131 1071.8 65.1211 1072.43 65.1211C1073.73 65.1211 1074.73 64.7611 1075.44 64.0231C1076.14 63.2851 1076.5 62.2771 1076.5 60.9991C1076.5 59.7211 1076.16 58.7311 1075.45 57.9931C1074.75 57.2731 1073.74 56.9131 1072.47 56.9131C1072 56.9131 1071.6 56.9671 1071.26 57.0751C1070.92 57.2011 1070.63 57.3451 1070.38 57.5251C1070.13 57.7231 1069.91 57.9391 1069.71 58.1731C1069.51 58.4071 1069.32 58.6591 1069.14 58.8931C1069.19 58.2991 1069.24 57.6511 1069.33 56.9851C1069.42 56.3191 1069.59 55.6891 1069.82 55.1131C1070.05 54.5551 1070.41 54.0871 1070.86 53.7091C1071.31 53.3311 1071.93 53.1511 1072.7 53.1511C1073.38 53.1511 1073.92 53.3491 1074.32 53.7271C1074.72 54.1231 1074.99 54.6451 1075.11 55.2931ZM1072.43 57.8851C1073.42 57.8851 1074.16 58.1551 1074.64 58.6771C1075.11 59.2171 1075.35 59.9731 1075.35 60.9631C1075.35 61.3411 1075.29 61.7191 1075.2 62.0971C1075.09 62.4751 1074.93 62.8171 1074.7 63.1231C1074.46 63.4291 1074.18 63.6811 1073.82 63.8611C1073.44 64.0591 1072.99 64.1491 1072.45 64.1491C1071.93 64.1491 1071.48 64.0591 1071.12 63.8611C1070.76 63.6631 1070.47 63.4291 1070.23 63.1231C1070 62.8171 1069.82 62.4931 1069.73 62.1151C1069.62 61.7551 1069.57 61.3951 1069.57 61.0351C1069.57 60.6031 1069.64 60.1891 1069.77 59.8111C1069.89 59.4331 1070.09 59.1091 1070.34 58.8211C1070.58 58.5331 1070.88 58.2991 1071.24 58.1371C1071.58 57.9751 1071.98 57.8851 1072.43 57.8851ZM1088.34 52.1791L1081.19 65.1211H1082.13L1089.27 52.1791H1088.34ZM1084.41 55.2931C1084.41 54.8791 1084.34 54.5011 1084.18 54.1231C1084.02 53.7631 1083.82 53.4391 1083.55 53.1691C1083.28 52.8991 1082.95 52.7011 1082.59 52.5391C1082.22 52.3771 1081.84 52.3051 1081.42 52.3051C1081.01 52.3051 1080.63 52.3771 1080.27 52.5391C1079.91 52.7011 1079.61 52.9171 1079.34 53.1871C1079.07 53.4571 1078.85 53.7811 1078.69 54.1411C1078.53 54.5011 1078.45 54.8791 1078.45 55.2931C1078.45 55.7071 1078.53 56.0851 1078.69 56.4451C1078.85 56.8051 1079.07 57.1111 1079.34 57.3811C1079.61 57.6511 1079.91 57.8671 1080.27 58.0291C1080.63 58.1911 1081.01 58.2631 1081.42 58.2631C1081.84 58.2631 1082.22 58.1911 1082.59 58.0291C1082.95 57.8671 1083.28 57.6511 1083.55 57.3811C1083.82 57.1111 1084.02 56.8051 1084.18 56.4451C1084.34 56.0851 1084.41 55.7071 1084.41 55.2931ZM1081.42 57.2371C1081.15 57.2371 1080.92 57.1831 1080.69 57.0751C1080.45 56.9851 1080.24 56.8411 1080.06 56.6611C1079.88 56.4811 1079.73 56.2651 1079.64 56.0311C1079.53 55.7971 1079.48 55.5631 1079.48 55.2931C1079.48 55.0231 1079.53 54.7711 1079.64 54.5371C1079.73 54.3031 1079.88 54.0871 1080.06 53.9071C1080.24 53.7271 1080.45 53.5831 1080.69 53.4751C1080.92 53.3851 1081.15 53.3311 1081.42 53.3311C1081.69 53.3311 1081.95 53.3851 1082.18 53.4931C1082.41 53.6011 1082.63 53.7451 1082.81 53.9251C1082.99 54.1051 1083.13 54.3031 1083.24 54.5371C1083.33 54.7711 1083.39 55.0231 1083.39 55.2931C1083.39 55.5631 1083.33 55.7971 1083.22 56.0311C1083.12 56.2651 1082.97 56.4811 1082.79 56.6611C1082.61 56.8411 1082.41 56.9851 1082.18 57.0751C1081.95 57.1831 1081.69 57.2371 1081.42 57.2371ZM1089.09 58.9111C1088.68 58.9111 1088.3 58.9831 1087.94 59.1451C1087.58 59.3071 1087.27 59.5051 1087 59.7751C1086.73 60.0451 1086.52 60.3691 1086.36 60.7291C1086.19 61.0891 1086.1 61.4671 1086.1 61.8811C1086.1 62.2951 1086.18 62.6731 1086.34 63.0331C1086.5 63.4111 1086.72 63.7171 1086.99 63.9871C1087.26 64.2571 1087.56 64.4731 1087.94 64.6351C1088.3 64.7971 1088.68 64.8691 1089.09 64.8691C1089.51 64.8691 1089.88 64.7971 1090.24 64.6351C1090.6 64.4731 1090.91 64.2571 1091.18 63.9871C1091.45 63.7171 1091.65 63.4111 1091.81 63.0331C1091.95 62.6731 1092.03 62.2951 1092.03 61.8811C1092.03 61.4671 1091.95 61.0891 1091.81 60.7291C1091.65 60.3691 1091.45 60.0451 1091.18 59.7751C1090.91 59.5051 1090.6 59.3071 1090.24 59.1451C1089.88 58.9831 1089.51 58.9111 1089.09 58.9111ZM1089.07 59.9371C1089.34 59.9371 1089.6 59.9911 1089.83 60.0811C1090.06 60.1891 1090.26 60.3331 1090.44 60.5131C1090.6 60.6931 1090.75 60.8911 1090.86 61.1251C1090.95 61.3591 1091 61.6111 1091 61.8811C1091 62.1511 1090.95 62.3851 1090.86 62.6191C1090.75 62.8531 1090.6 63.0691 1090.44 63.2491C1090.26 63.4291 1090.06 63.5731 1089.83 63.6811C1089.6 63.7891 1089.34 63.8431 1089.07 63.8431C1088.82 63.8431 1088.59 63.7891 1088.35 63.6811C1088.12 63.5911 1087.9 63.4471 1087.72 63.2671C1087.54 63.0871 1087.4 62.8711 1087.29 62.6371C1087.18 62.4031 1087.13 62.1691 1087.13 61.9171C1087.13 61.6471 1087.18 61.3951 1087.29 61.1611C1087.38 60.9271 1087.53 60.7111 1087.71 60.5311C1087.87 60.3511 1088.08 60.2071 1088.32 60.0991C1088.55 59.9911 1088.8 59.9371 1089.07 59.9371Z" fill="black"/>
<path d="M599.488 56.3371H600.712C600.694 55.9051 600.748 55.4911 600.874 55.1131C601 54.7351 601.198 54.3931 601.45 54.1051C601.684 53.8171 601.99 53.5831 602.332 53.4031C602.674 53.2411 603.052 53.1511 603.466 53.1511C603.862 53.1511 604.222 53.2051 604.564 53.3131C604.906 53.4391 605.194 53.6011 605.446 53.8351C605.698 54.0691 605.896 54.3391 606.04 54.6631C606.184 54.9871 606.256 55.3471 606.256 55.7611C606.256 56.2651 606.166 56.6971 605.986 57.0391C605.806 57.3811 605.554 57.7051 605.248 57.9751C604.942 58.2451 604.582 58.4971 604.168 58.7311C603.754 58.9651 603.322 59.2351 602.872 59.5051C602.422 59.7931 601.954 60.1171 601.486 60.4771C601 60.8371 600.55 61.2691 600.1 61.7731C599.686 62.2411 599.434 62.7271 599.308 63.2131C599.182 63.6991 599.128 64.2571 599.11 64.8691H607.408V63.8971H600.334C600.352 63.5911 600.406 63.3211 600.496 63.0691C600.586 62.8351 600.712 62.6011 600.874 62.4031C601.036 62.2051 601.198 62.0071 601.396 61.8271L601.99 61.3411C602.296 61.1071 602.656 60.8731 603.052 60.6571C603.448 60.4411 603.844 60.2071 604.258 59.9731C604.672 59.7391 605.068 59.5051 605.464 59.2351C605.842 58.9651 606.202 58.6771 606.508 58.3351C606.814 57.9931 607.048 57.6151 607.246 57.1831C607.426 56.7511 607.516 56.2471 607.516 55.6891C607.516 55.2031 607.426 54.7531 607.264 54.3211C607.102 53.8891 606.85 53.5111 606.526 53.2051C606.184 52.8991 605.788 52.6471 605.302 52.4491C604.816 52.2691 604.24 52.1791 603.61 52.1791C602.98 52.1791 602.422 52.2691 601.918 52.4671C601.396 52.6651 600.964 52.9531 600.604 53.3131C600.244 53.6911 599.974 54.1231 599.776 54.6271C599.578 55.1491 599.488 55.7071 599.488 56.3371ZM610.03 61.5751H608.878C608.932 62.2411 609.076 62.7811 609.328 63.2311C609.562 63.6811 609.886 64.0591 610.282 64.3291C610.678 64.6171 611.146 64.8151 611.668 64.9411C612.19 65.0671 612.748 65.1211 613.342 65.1211C613.864 65.1211 614.368 65.0311 614.854 64.8331C615.34 64.6531 615.754 64.3831 616.132 64.0231C616.51 63.6631 616.798 63.2131 617.032 62.6911C617.248 62.1691 617.356 61.5751 617.356 60.9091C617.356 60.2611 617.266 59.6671 617.068 59.1451C616.87 58.6231 616.582 58.1911 616.222 57.8311C615.862 57.4711 615.43 57.2011 614.944 57.0031C614.458 56.8051 613.918 56.7151 613.342 56.7151C613.054 56.7151 612.802 56.7331 612.568 56.7511C612.334 56.7691 612.1 56.8231 611.884 56.8771C611.668 56.9491 611.452 57.0391 611.254 57.1471C611.038 57.2551 610.804 57.3811 610.552 57.5431L611.344 53.2771H616.672V52.3051H610.372L609.346 58.8751L610.3 59.0011C610.642 58.5511 611.056 58.2091 611.506 57.9931C611.956 57.7951 612.478 57.6871 613.054 57.6871C613.54 57.6871 613.972 57.7591 614.368 57.9211C614.746 58.0831 615.088 58.2991 615.358 58.5871C615.628 58.8751 615.826 59.2171 615.988 59.6131C616.132 60.0091 616.204 60.4411 616.204 60.9091C616.204 61.3591 616.132 61.7911 616.006 62.1691C615.862 62.5651 615.664 62.9071 615.394 63.1951C615.124 63.5011 614.818 63.7351 614.44 63.8971C614.062 64.0591 613.63 64.1491 613.162 64.1491C612.334 64.1491 611.632 63.9331 611.074 63.5011C610.498 63.0871 610.156 62.4391 610.03 61.5751ZM629.338 52.1791L622.192 65.1211H623.128L630.274 52.1791H629.338ZM625.414 55.2931C625.414 54.8791 625.342 54.5011 625.18 54.1231C625.018 53.7631 624.82 53.4391 624.55 53.1691C624.28 52.8991 623.956 52.7011 623.596 52.5391C623.218 52.3771 622.84 52.3051 622.426 52.3051C622.012 52.3051 621.634 52.3771 621.274 52.5391C620.914 52.7011 620.608 52.9171 620.338 53.1871C620.068 53.4571 619.852 53.7811 619.69 54.1411C619.528 54.5011 619.456 54.8791 619.456 55.2931C619.456 55.7071 619.528 56.0851 619.69 56.4451C619.852 56.8051 620.068 57.1111 620.338 57.3811C620.608 57.6511 620.914 57.8671 621.274 58.0291C621.634 58.1911 622.012 58.2631 622.426 58.2631C622.84 58.2631 623.218 58.1911 623.596 58.0291C623.956 57.8671 624.28 57.6511 624.55 57.3811C624.82 57.1111 625.018 56.8051 625.18 56.4451C625.342 56.0851 625.414 55.7071 625.414 55.2931ZM622.426 57.2371C622.156 57.2371 621.922 57.1831 621.688 57.0751C621.454 56.9851 621.238 56.8411 621.058 56.6611C620.878 56.4811 620.734 56.2651 620.644 56.0311C620.536 55.7971 620.482 55.5631 620.482 55.2931C620.482 55.0231 620.536 54.7711 620.644 54.5371C620.734 54.3031 620.878 54.0871 621.058 53.9071C621.238 53.7271 621.454 53.5831 621.688 53.4751C621.922 53.3851 622.156 53.3311 622.426 53.3311C622.696 53.3311 622.948 53.3851 623.182 53.4931C623.416 53.6011 623.632 53.7451 623.812 53.9251C623.992 54.1051 624.136 54.3031 624.244 54.5371C624.334 54.7711 624.388 55.0231 624.388 55.2931C624.388 55.5631 624.334 55.7971 624.226 56.0311C624.118 56.2651 623.974 56.4811 623.794 56.6611C623.614 56.8411 623.416 56.9851 623.182 57.0751C622.948 57.1831 622.696 57.2371 622.426 57.2371ZM630.094 58.9111C629.68 58.9111 629.302 58.9831 628.942 59.1451C628.582 59.3071 628.276 59.5051 628.006 59.7751C627.736 60.0451 627.52 60.3691 627.358 60.7291C627.196 61.0891 627.106 61.4671 627.106 61.8811C627.106 62.2951 627.178 62.6731 627.34 63.0331C627.502 63.4111 627.718 63.7171 627.988 63.9871C628.258 64.2571 628.564 64.4731 628.942 64.6351C629.302 64.7971 629.68 64.8691 630.094 64.8691C630.508 64.8691 630.886 64.7971 631.246 64.6351C631.606 64.4731 631.912 64.2571 632.182 63.9871C632.452 63.7171 632.65 63.4111 632.812 63.0331C632.956 62.6731 633.028 62.2951 633.028 61.8811C633.028 61.4671 632.956 61.0891 632.812 60.7291C632.65 60.3691 632.452 60.0451 632.182 59.7751C631.912 59.5051 631.606 59.3071 631.246 59.1451C630.886 58.9831 630.508 58.9111 630.094 58.9111ZM630.076 59.9371C630.346 59.9371 630.598 59.9911 630.832 60.0811C631.066 60.1891 631.264 60.3331 631.444 60.5131C631.606 60.6931 631.75 60.8911 631.858 61.1251C631.948 61.3591 632.002 61.6111 632.002 61.8811C632.002 62.1511 631.948 62.3851 631.858 62.6191C631.75 62.8531 631.606 63.0691 631.444 63.2491C631.264 63.4291 631.066 63.5731 630.832 63.6811C630.598 63.7891 630.346 63.8431 630.076 63.8431C629.824 63.8431 629.59 63.7891 629.356 63.6811C629.122 63.5911 628.906 63.4471 628.726 63.2671C628.546 63.0871 628.402 62.8711 628.294 62.6371C628.186 62.4031 628.132 62.1691 628.132 61.9171C628.132 61.6471 628.186 61.3951 628.294 61.1611C628.384 60.9271 628.528 60.7111 628.708 60.5311C628.87 60.3511 629.086 60.2071 629.32 60.0991C629.554 59.9911 629.806 59.9371 630.076 59.9371Z" fill="white"/>
<path d="M879.406 54.6811V55.4371H882.682V64.8691H883.834V52.1791H882.916C882.826 52.7191 882.682 53.1511 882.484 53.4571C882.286 53.7811 882.034 54.0331 881.746 54.1951C881.44 54.3571 881.098 54.4831 880.72 54.5371C880.324 54.5911 879.892 54.6451 879.406 54.6811ZM891.226 57.8131V58.7491C891.784 58.7131 892.306 58.7311 892.792 58.7851C893.278 58.8571 893.71 58.9831 894.088 59.1811C894.448 59.3791 894.736 59.6491 894.952 59.9911C895.168 60.3331 895.294 60.7651 895.312 61.2871C895.33 61.6651 895.258 62.0251 895.114 62.3671C894.952 62.7091 894.736 63.0151 894.466 63.2851C894.178 63.5551 893.836 63.7531 893.44 63.9151C893.044 64.0771 892.612 64.1491 892.162 64.1491C891.226 64.1491 890.47 63.8971 889.894 63.3931C889.3 62.9071 889.012 62.1691 889.012 61.1971H887.86C887.932 61.9351 888.076 62.5651 888.274 63.0511C888.472 63.5551 888.76 63.9511 889.12 64.2571C889.48 64.5631 889.93 64.7971 890.47 64.9231C891.01 65.0491 891.64 65.1211 892.378 65.1211C893.026 65.1031 893.602 64.9951 894.124 64.7791C894.628 64.5811 895.06 64.2931 895.402 63.9511C895.744 63.6091 896.014 63.1951 896.194 62.7451C896.374 62.2951 896.464 61.7911 896.464 61.2691C896.464 60.9811 896.428 60.6751 896.374 60.3691C896.32 60.0631 896.194 59.7571 896.032 59.4691C895.87 59.1991 895.636 58.9291 895.348 58.6951C895.042 58.4611 894.664 58.2811 894.214 58.1371C894.826 57.8671 895.276 57.5071 895.582 57.0211C895.87 56.5351 896.014 55.9771 896.014 55.3111C896.014 54.7891 895.924 54.3211 895.726 53.9251C895.528 53.5291 895.276 53.2051 894.952 52.9351C894.628 52.6831 894.25 52.4851 893.818 52.3591C893.368 52.2331 892.9 52.1791 892.396 52.1791C891.874 52.1791 891.352 52.2331 890.866 52.3231C890.362 52.4311 889.912 52.6651 889.516 53.0251C889.102 53.4211 888.796 53.8531 888.598 54.3031C888.4 54.7711 888.292 55.2931 888.292 55.8691H889.444C889.444 55.4731 889.516 55.1131 889.642 54.7711C889.768 54.4471 889.966 54.1591 890.2 53.9071C890.434 53.6731 890.722 53.4751 891.064 53.3491C891.388 53.2231 891.748 53.1511 892.162 53.1511C892.522 53.1511 892.864 53.1871 893.206 53.2771C893.53 53.3671 893.818 53.4931 894.07 53.6731C894.304 53.8531 894.502 54.0871 894.646 54.3571C894.79 54.6451 894.862 54.9871 894.862 55.3831C894.862 55.8691 894.772 56.2831 894.592 56.5891C894.412 56.8951 894.16 57.1471 893.854 57.3271C893.53 57.5251 893.152 57.6511 892.702 57.7051C892.252 57.7771 891.766 57.8131 891.226 57.8131ZM908.338 52.1791L901.192 65.1211H902.128L909.274 52.1791H908.338ZM904.414 55.2931C904.414 54.8791 904.342 54.5011 904.18 54.1231C904.018 53.7631 903.82 53.4391 903.55 53.1691C903.28 52.8991 902.956 52.7011 902.596 52.5391C902.218 52.3771 901.84 52.3051 901.426 52.3051C901.012 52.3051 900.634 52.3771 900.274 52.5391C899.914 52.7011 899.608 52.9171 899.338 53.1871C899.068 53.4571 898.852 53.7811 898.69 54.1411C898.528 54.5011 898.456 54.8791 898.456 55.2931C898.456 55.7071 898.528 56.0851 898.69 56.4451C898.852 56.8051 899.068 57.1111 899.338 57.3811C899.608 57.6511 899.914 57.8671 900.274 58.0291C900.634 58.1911 901.012 58.2631 901.426 58.2631C901.84 58.2631 902.218 58.1911 902.596 58.0291C902.956 57.8671 903.28 57.6511 903.55 57.3811C903.82 57.1111 904.018 56.8051 904.18 56.4451C904.342 56.0851 904.414 55.7071 904.414 55.2931ZM901.426 57.2371C901.156 57.2371 900.922 57.1831 900.688 57.0751C900.454 56.9851 900.238 56.8411 900.058 56.6611C899.878 56.4811 899.734 56.2651 899.644 56.0311C899.536 55.7971 899.482 55.5631 899.482 55.2931C899.482 55.0231 899.536 54.7711 899.644 54.5371C899.734 54.3031 899.878 54.0871 900.058 53.9071C900.238 53.7271 900.454 53.5831 900.688 53.4751C900.922 53.3851 901.156 53.3311 901.426 53.3311C901.696 53.3311 901.948 53.3851 902.182 53.4931C902.416 53.6011 902.632 53.7451 902.812 53.9251C902.992 54.1051 903.136 54.3031 903.244 54.5371C903.334 54.7711 903.388 55.0231 903.388 55.2931C903.388 55.5631 903.334 55.7971 903.226 56.0311C903.118 56.2651 902.974 56.4811 902.794 56.6611C902.614 56.8411 902.416 56.9851 902.182 57.0751C901.948 57.1831 901.696 57.2371 901.426 57.2371ZM909.094 58.9111C908.68 58.9111 908.302 58.9831 907.942 59.1451C907.582 59.3071 907.276 59.5051 907.006 59.7751C906.736 60.0451 906.52 60.3691 906.358 60.7291C906.196 61.0891 906.106 61.4671 906.106 61.8811C906.106 62.2951 906.178 62.6731 906.34 63.0331C906.502 63.4111 906.718 63.7171 906.988 63.9871C907.258 64.2571 907.564 64.4731 907.942 64.6351C908.302 64.7971 908.68 64.8691 909.094 64.8691C909.508 64.8691 909.886 64.7971 910.246 64.6351C910.606 64.4731 910.912 64.2571 911.182 63.9871C911.452 63.7171 911.65 63.4111 911.812 63.0331C911.956 62.6731 912.028 62.2951 912.028 61.8811C912.028 61.4671 911.956 61.0891 911.812 60.7291C911.65 60.3691 911.452 60.0451 911.182 59.7751C910.912 59.5051 910.606 59.3071 910.246 59.1451C909.886 58.9831 909.508 58.9111 909.094 58.9111ZM909.076 59.9371C909.346 59.9371 909.598 59.9911 909.832 60.0811C910.066 60.1891 910.264 60.3331 910.444 60.5131C910.606 60.6931 910.75 60.8911 910.858 61.1251C910.948 61.3591 911.002 61.6111 911.002 61.8811C911.002 62.1511 910.948 62.3851 910.858 62.6191C910.75 62.8531 910.606 63.0691 910.444 63.2491C910.264 63.4291 910.066 63.5731 909.832 63.6811C909.598 63.7891 909.346 63.8431 909.076 63.8431C908.824 63.8431 908.59 63.7891 908.356 63.6811C908.122 63.5911 907.906 63.4471 907.726 63.2671C907.546 63.0871 907.402 62.8711 907.294 62.6371C907.186 62.4031 907.132 62.1691 907.132 61.9171C907.132 61.6471 907.186 61.3951 907.294 61.1611C907.384 60.9271 907.528 60.7111 907.708 60.5311C907.87 60.3511 908.086 60.2071 908.32 60.0991C908.554 59.9911 908.806 59.9371 909.076 59.9371Z" fill="white"/>
<path d="M1005.11 55.2931H1006.3C1006.17 54.2671 1005.78 53.4931 1005.11 52.9711C1004.45 52.4491 1003.6 52.1791 1002.59 52.1791C1001.66 52.1791 1000.9 52.3951 1000.31 52.8271C999.712 53.2591 999.244 53.8171 998.902 54.4831C998.56 55.1491 998.308 55.8871 998.182 56.6971C998.056 57.5071 997.984 58.2991 997.984 59.0551C997.984 60.1711 998.092 61.1071 998.326 61.8811C998.56 62.6551 998.866 63.2851 999.262 63.7711C999.658 64.2571 1000.13 64.5991 1000.67 64.7971C1001.21 65.0131 1001.8 65.1211 1002.43 65.1211C1003.73 65.1211 1004.73 64.7611 1005.44 64.0231C1006.14 63.2851 1006.5 62.2771 1006.5 60.9991C1006.5 59.7211 1006.16 58.7311 1005.45 57.9931C1004.75 57.2731 1003.74 56.9131 1002.47 56.9131C1002 56.9131 1001.6 56.9671 1001.26 57.0751C1000.92 57.2011 1000.63 57.3451 1000.38 57.5251C1000.13 57.7231 999.91 57.9391 999.712 58.1731C999.514 58.4071 999.316 58.6591 999.136 58.8931C999.19 58.2991 999.244 57.6511 999.334 56.9851C999.424 56.3191 999.586 55.6891 999.82 55.1131C1000.05 54.5551 1000.41 54.0871 1000.86 53.7091C1001.31 53.3311 1001.93 53.1511 1002.7 53.1511C1003.38 53.1511 1003.92 53.3491 1004.32 53.7271C1004.72 54.1231 1004.99 54.6451 1005.11 55.2931ZM1002.43 57.8851C1003.42 57.8851 1004.16 58.1551 1004.64 58.6771C1005.11 59.2171 1005.35 59.9731 1005.35 60.9631C1005.35 61.3411 1005.29 61.7191 1005.2 62.0971C1005.09 62.4751 1004.93 62.8171 1004.7 63.1231C1004.46 63.4291 1004.18 63.6811 1003.82 63.8611C1003.44 64.0591 1002.99 64.1491 1002.45 64.1491C1001.93 64.1491 1001.48 64.0591 1001.12 63.8611C1000.76 63.6631 1000.47 63.4291 1000.23 63.1231C1000 62.8171 999.82 62.4931 999.73 62.1151C999.622 61.7551 999.568 61.3951 999.568 61.0351C999.568 60.6031 999.64 60.1891 999.766 59.8111C999.892 59.4331 1000.09 59.1091 1000.34 58.8211C1000.58 58.5331 1000.88 58.2991 1001.24 58.1371C1001.58 57.9751 1001.98 57.8851 1002.43 57.8851ZM1018.34 52.1791L1011.19 65.1211H1012.13L1019.27 52.1791H1018.34ZM1014.41 55.2931C1014.41 54.8791 1014.34 54.5011 1014.18 54.1231C1014.02 53.7631 1013.82 53.4391 1013.55 53.1691C1013.28 52.8991 1012.95 52.7011 1012.59 52.5391C1012.22 52.3771 1011.84 52.3051 1011.42 52.3051C1011.01 52.3051 1010.63 52.3771 1010.27 52.5391C1009.91 52.7011 1009.61 52.9171 1009.34 53.1871C1009.07 53.4571 1008.85 53.7811 1008.69 54.1411C1008.53 54.5011 1008.45 54.8791 1008.45 55.2931C1008.45 55.7071 1008.53 56.0851 1008.69 56.4451C1008.85 56.8051 1009.07 57.1111 1009.34 57.3811C1009.61 57.6511 1009.91 57.8671 1010.27 58.0291C1010.63 58.1911 1011.01 58.2631 1011.42 58.2631C1011.84 58.2631 1012.22 58.1911 1012.59 58.0291C1012.95 57.8671 1013.28 57.6511 1013.55 57.3811C1013.82 57.1111 1014.02 56.8051 1014.18 56.4451C1014.34 56.0851 1014.41 55.7071 1014.41 55.2931ZM1011.42 57.2371C1011.15 57.2371 1010.92 57.1831 1010.69 57.0751C1010.45 56.9851 1010.24 56.8411 1010.06 56.6611C1009.88 56.4811 1009.73 56.2651 1009.64 56.0311C1009.53 55.7971 1009.48 55.5631 1009.48 55.2931C1009.48 55.0231 1009.53 54.7711 1009.64 54.5371C1009.73 54.3031 1009.88 54.0871 1010.06 53.9071C1010.24 53.7271 1010.45 53.5831 1010.69 53.4751C1010.92 53.3851 1011.15 53.3311 1011.42 53.3311C1011.69 53.3311 1011.95 53.3851 1012.18 53.4931C1012.41 53.6011 1012.63 53.7451 1012.81 53.9251C1012.99 54.1051 1013.13 54.3031 1013.24 54.5371C1013.33 54.7711 1013.39 55.0231 1013.39 55.2931C1013.39 55.5631 1013.33 55.7971 1013.22 56.0311C1013.12 56.2651 1012.97 56.4811 1012.79 56.6611C1012.61 56.8411 1012.41 56.9851 1012.18 57.0751C1011.95 57.1831 1011.69 57.2371 1011.42 57.2371ZM1019.09 58.9111C1018.68 58.9111 1018.3 58.9831 1017.94 59.1451C1017.58 59.3071 1017.27 59.5051 1017 59.7751C1016.73 60.0451 1016.52 60.3691 1016.36 60.7291C1016.19 61.0891 1016.1 61.4671 1016.1 61.8811C1016.1 62.2951 1016.18 62.6731 1016.34 63.0331C1016.5 63.4111 1016.72 63.7171 1016.99 63.9871C1017.26 64.2571 1017.56 64.4731 1017.94 64.6351C1018.3 64.7971 1018.68 64.8691 1019.09 64.8691C1019.51 64.8691 1019.88 64.7971 1020.24 64.6351C1020.6 64.4731 1020.91 64.2571 1021.18 63.9871C1021.45 63.7171 1021.65 63.4111 1021.81 63.0331C1021.95 62.6731 1022.03 62.2951 1022.03 61.8811C1022.03 61.4671 1021.95 61.0891 1021.81 60.7291C1021.65 60.3691 1021.45 60.0451 1021.18 59.7751C1020.91 59.5051 1020.6 59.3071 1020.24 59.1451C1019.88 58.9831 1019.51 58.9111 1019.09 58.9111ZM1019.07 59.9371C1019.34 59.9371 1019.6 59.9911 1019.83 60.0811C1020.06 60.1891 1020.26 60.3331 1020.44 60.5131C1020.6 60.6931 1020.75 60.8911 1020.86 61.1251C1020.95 61.3591 1021 61.6111 1021 61.8811C1021 62.1511 1020.95 62.3851 1020.86 62.6191C1020.75 62.8531 1020.6 63.0691 1020.44 63.2491C1020.26 63.4291 1020.06 63.5731 1019.83 63.6811C1019.6 63.7891 1019.34 63.8431 1019.07 63.8431C1018.82 63.8431 1018.59 63.7891 1018.35 63.6811C1018.12 63.5911 1017.9 63.4471 1017.72 63.2671C1017.54 63.0871 1017.4 62.8711 1017.29 62.6371C1017.18 62.4031 1017.13 62.1691 1017.13 61.9171C1017.13 61.6471 1017.18 61.3951 1017.29 61.1611C1017.38 60.9271 1017.53 60.7111 1017.71 60.5311C1017.87 60.3511 1018.08 60.2071 1018.32 60.0991C1018.55 59.9911 1018.8 59.9371 1019.07 59.9371Z" fill="white"/>
</svg>
