<svg width="1003" height="325" viewBox="0 0 1003 325" fill="none" xmlns="http://www.w3.org/2000/svg">
<rect x="0.246094" y="0.869141" width="324" height="324" fill="#8CB1C8"/>
<rect x="339.246" y="0.869141" width="324" height="324" fill="#5958B2"/>
<rect x="678.246" y="0.869141" width="324" height="324" fill="#16375D"/>
<path d="M125.75 170.869L126.326 166.765H128.324V165.703H126.488L126.848 163.183H128.792V162.121H126.992L127.55 158.305H126.488L125.93 162.121H123.482L124.058 158.305H122.978L122.402 162.121H120.242V163.183H122.258L121.88 165.703H119.738V166.765H121.718L121.106 170.869H122.168L122.78 166.765H125.246L124.688 170.869H125.75ZM125.426 165.703H122.942L123.338 163.183H125.786L125.426 165.703ZM132.26 164.047C131.54 164.317 131 164.749 130.622 165.343C130.244 165.937 130.046 166.621 130.046 167.377C130.046 168.007 130.172 168.547 130.406 169.015C130.64 169.483 130.964 169.879 131.342 170.185C131.72 170.491 132.134 170.725 132.62 170.887C133.088 171.049 133.556 171.121 134.006 171.121C134.672 171.121 135.284 171.031 135.842 170.869C136.4 170.707 136.868 170.455 137.264 170.131C137.642 169.807 137.948 169.411 138.164 168.925C138.362 168.439 138.47 167.899 138.47 167.269C138.47 166.531 138.272 165.883 137.876 165.325C137.462 164.767 136.922 164.371 136.22 164.119C136.832 163.813 137.282 163.435 137.552 162.967C137.822 162.499 137.948 161.941 137.948 161.275C137.948 160.735 137.84 160.267 137.624 159.871C137.408 159.493 137.12 159.169 136.76 158.917C136.4 158.665 135.986 158.485 135.536 158.359C135.068 158.233 134.6 158.179 134.114 158.179C133.61 158.161 133.142 158.233 132.71 158.395C132.26 158.557 131.882 158.773 131.558 159.043C131.234 159.331 130.982 159.673 130.784 160.051C130.586 160.429 130.496 160.843 130.496 161.275C130.496 161.653 130.532 161.977 130.604 162.229C130.658 162.499 130.766 162.733 130.91 162.931C131.054 163.129 131.234 163.327 131.468 163.489C131.684 163.669 131.954 163.849 132.26 164.047ZM134.222 159.151C135.104 159.151 135.752 159.331 136.166 159.673C136.58 160.033 136.796 160.537 136.796 161.185C136.796 161.635 136.742 162.031 136.616 162.337C136.49 162.643 136.31 162.913 136.094 163.111C135.878 163.309 135.626 163.453 135.32 163.543C135.014 163.633 134.69 163.687 134.348 163.687C134.006 163.687 133.664 163.633 133.34 163.543C133.016 163.453 132.728 163.327 132.476 163.147C132.224 162.967 132.026 162.733 131.882 162.445C131.72 162.175 131.648 161.833 131.648 161.437C131.648 161.059 131.72 160.735 131.846 160.447C131.972 160.159 132.17 159.925 132.404 159.727C132.638 159.529 132.908 159.385 133.214 159.295C133.52 159.205 133.862 159.151 134.222 159.151ZM134.276 164.659C134.69 164.659 135.086 164.713 135.464 164.821C135.842 164.929 136.166 165.091 136.436 165.307C136.706 165.541 136.922 165.811 137.084 166.135C137.246 166.477 137.318 166.855 137.318 167.305C137.318 167.719 137.246 168.115 137.102 168.457C136.94 168.799 136.742 169.105 136.472 169.357C136.202 169.609 135.878 169.807 135.518 169.933C135.158 170.077 134.762 170.149 134.348 170.149C133.862 170.149 133.43 170.077 133.052 169.933C132.656 169.789 132.332 169.591 132.062 169.339C131.792 169.105 131.576 168.817 131.432 168.475C131.27 168.133 131.198 167.773 131.198 167.377C131.198 166.909 131.27 166.495 131.432 166.153C131.594 165.811 131.81 165.541 132.08 165.307C132.35 165.091 132.674 164.929 133.052 164.821C133.43 164.713 133.826 164.659 134.276 164.659ZM149.912 161.671H151.172C151.064 161.005 150.866 160.411 150.596 159.889C150.308 159.385 149.948 158.953 149.516 158.611C149.066 158.269 148.562 157.999 148.004 157.819C147.428 157.657 146.816 157.567 146.15 157.567C145.286 157.567 144.494 157.693 143.756 157.927C143.018 158.179 142.388 158.575 141.848 159.115C141.308 159.673 140.894 160.375 140.588 161.239C140.282 162.103 140.12 163.147 140.12 164.389C140.12 165.307 140.228 166.189 140.426 166.999C140.624 167.827 140.966 168.547 141.416 169.177C141.866 169.807 142.442 170.293 143.144 170.653C143.846 171.031 144.71 171.211 145.7 171.211C146.564 171.211 147.32 171.085 147.968 170.833C148.598 170.599 149.156 170.257 149.606 169.843C150.056 169.429 150.416 168.925 150.686 168.367C150.956 167.809 151.172 167.233 151.316 166.603H150.038C149.912 167.125 149.75 167.593 149.516 168.025C149.282 168.457 148.994 168.835 148.652 169.141C148.31 169.465 147.896 169.717 147.446 169.897C146.996 170.077 146.492 170.167 145.934 170.167C145.052 170.167 144.314 170.005 143.72 169.663C143.126 169.321 142.658 168.889 142.316 168.331C141.974 167.791 141.722 167.179 141.578 166.477C141.416 165.775 141.344 165.073 141.344 164.353C141.344 163.579 141.434 162.859 141.614 162.157C141.776 161.473 142.046 160.861 142.424 160.339C142.784 159.817 143.252 159.385 143.81 159.079C144.368 158.773 145.052 158.611 145.826 158.611C146.924 158.611 147.824 158.845 148.508 159.313C149.192 159.781 149.66 160.573 149.912 161.671ZM158.384 157.909H153.704V170.869H158.996C159.608 170.869 160.184 170.797 160.706 170.671C161.228 170.545 161.66 170.347 162.038 170.059C162.416 169.771 162.704 169.393 162.92 168.925C163.118 168.457 163.226 167.881 163.226 167.215C163.226 166.351 163.01 165.631 162.578 165.055C162.128 164.479 161.462 164.119 160.562 163.993V163.957C160.832 163.903 161.084 163.813 161.336 163.687C161.57 163.561 161.786 163.399 161.984 163.165C162.182 162.949 162.326 162.679 162.452 162.337C162.578 162.013 162.632 161.617 162.632 161.167C162.632 160.681 162.56 160.249 162.398 159.835C162.236 159.439 162.002 159.097 161.66 158.809C161.318 158.521 160.868 158.305 160.328 158.143C159.788 157.981 159.14 157.909 158.384 157.909ZM158.024 163.633H154.928V158.953H157.754C158.42 158.953 158.996 158.989 159.464 159.061C159.914 159.151 160.292 159.277 160.58 159.439C160.868 159.619 161.084 159.853 161.21 160.123C161.336 160.411 161.408 160.753 161.408 161.167C161.408 161.563 161.354 161.905 161.246 162.211C161.12 162.517 160.94 162.787 160.67 162.985C160.4 163.201 160.058 163.363 159.626 163.471C159.194 163.579 158.654 163.633 158.024 163.633ZM158.042 169.825H154.928V164.677H158.186C158.762 164.677 159.284 164.713 159.752 164.767C160.22 164.839 160.616 164.965 160.958 165.145C161.3 165.325 161.552 165.577 161.732 165.901C161.912 166.243 162.002 166.675 162.002 167.215C162.002 167.773 161.93 168.223 161.768 168.565C161.606 168.907 161.354 169.177 161.03 169.357C160.706 169.555 160.292 169.681 159.806 169.735C159.302 169.789 158.708 169.825 158.042 169.825ZM166.412 160.681V161.437H169.688V170.869H170.84V158.179H169.922C169.832 158.719 169.688 159.151 169.49 159.457C169.292 159.781 169.04 160.033 168.752 160.195C168.446 160.357 168.104 160.483 167.726 160.537C167.33 160.591 166.898 160.645 166.412 160.681ZM184.91 161.671H186.17C186.062 161.005 185.864 160.411 185.594 159.889C185.306 159.385 184.946 158.953 184.514 158.611C184.064 158.269 183.56 157.999 183.002 157.819C182.426 157.657 181.814 157.567 181.148 157.567C180.284 157.567 179.492 157.693 178.754 157.927C178.016 158.179 177.386 158.575 176.846 159.115C176.306 159.673 175.892 160.375 175.586 161.239C175.28 162.103 175.118 163.147 175.118 164.389C175.118 165.307 175.226 166.189 175.424 166.999C175.622 167.827 175.964 168.547 176.414 169.177C176.864 169.807 177.44 170.293 178.142 170.653C178.844 171.031 179.708 171.211 180.698 171.211C181.562 171.211 182.318 171.085 182.966 170.833C183.596 170.599 184.154 170.257 184.604 169.843C185.054 169.429 185.414 168.925 185.684 168.367C185.954 167.809 186.17 167.233 186.314 166.603H185.036C184.91 167.125 184.748 167.593 184.514 168.025C184.28 168.457 183.992 168.835 183.65 169.141C183.308 169.465 182.894 169.717 182.444 169.897C181.994 170.077 181.49 170.167 180.932 170.167C180.05 170.167 179.312 170.005 178.718 169.663C178.124 169.321 177.656 168.889 177.314 168.331C176.972 167.791 176.72 167.179 176.576 166.477C176.414 165.775 176.342 165.073 176.342 164.353C176.342 163.579 176.432 162.859 176.612 162.157C176.774 161.473 177.044 160.861 177.422 160.339C177.782 159.817 178.25 159.385 178.808 159.079C179.366 158.773 180.05 158.611 180.824 158.611C181.922 158.611 182.822 158.845 183.506 159.313C184.19 159.781 184.658 160.573 184.91 161.671ZM190.25 164.047C189.53 164.317 188.99 164.749 188.612 165.343C188.234 165.937 188.036 166.621 188.036 167.377C188.036 168.007 188.162 168.547 188.396 169.015C188.63 169.483 188.954 169.879 189.332 170.185C189.71 170.491 190.124 170.725 190.61 170.887C191.078 171.049 191.546 171.121 191.996 171.121C192.662 171.121 193.274 171.031 193.832 170.869C194.39 170.707 194.858 170.455 195.254 170.131C195.632 169.807 195.938 169.411 196.154 168.925C196.352 168.439 196.46 167.899 196.46 167.269C196.46 166.531 196.262 165.883 195.866 165.325C195.452 164.767 194.912 164.371 194.21 164.119C194.822 163.813 195.272 163.435 195.542 162.967C195.812 162.499 195.938 161.941 195.938 161.275C195.938 160.735 195.83 160.267 195.614 159.871C195.398 159.493 195.11 159.169 194.75 158.917C194.39 158.665 193.976 158.485 193.526 158.359C193.058 158.233 192.59 158.179 192.104 158.179C191.6 158.161 191.132 158.233 190.7 158.395C190.25 158.557 189.872 158.773 189.548 159.043C189.224 159.331 188.972 159.673 188.774 160.051C188.576 160.429 188.486 160.843 188.486 161.275C188.486 161.653 188.522 161.977 188.594 162.229C188.648 162.499 188.756 162.733 188.9 162.931C189.044 163.129 189.224 163.327 189.458 163.489C189.674 163.669 189.944 163.849 190.25 164.047ZM192.212 159.151C193.094 159.151 193.742 159.331 194.156 159.673C194.57 160.033 194.786 160.537 194.786 161.185C194.786 161.635 194.732 162.031 194.606 162.337C194.48 162.643 194.3 162.913 194.084 163.111C193.868 163.309 193.616 163.453 193.31 163.543C193.004 163.633 192.68 163.687 192.338 163.687C191.996 163.687 191.654 163.633 191.33 163.543C191.006 163.453 190.718 163.327 190.466 163.147C190.214 162.967 190.016 162.733 189.872 162.445C189.71 162.175 189.638 161.833 189.638 161.437C189.638 161.059 189.71 160.735 189.836 160.447C189.962 160.159 190.16 159.925 190.394 159.727C190.628 159.529 190.898 159.385 191.204 159.295C191.51 159.205 191.852 159.151 192.212 159.151ZM192.266 164.659C192.68 164.659 193.076 164.713 193.454 164.821C193.832 164.929 194.156 165.091 194.426 165.307C194.696 165.541 194.912 165.811 195.074 166.135C195.236 166.477 195.308 166.855 195.308 167.305C195.308 167.719 195.236 168.115 195.092 168.457C194.93 168.799 194.732 169.105 194.462 169.357C194.192 169.609 193.868 169.807 193.508 169.933C193.148 170.077 192.752 170.149 192.338 170.149C191.852 170.149 191.42 170.077 191.042 169.933C190.646 169.789 190.322 169.591 190.052 169.339C189.782 169.105 189.566 168.817 189.422 168.475C189.26 168.133 189.188 167.773 189.188 167.377C189.188 166.909 189.26 166.495 189.422 166.153C189.584 165.811 189.8 165.541 190.07 165.307C190.34 165.091 190.664 164.929 191.042 164.821C191.42 164.713 191.816 164.659 192.266 164.659Z" fill="black"/>
<path d="M472.727 173.869L473.303 169.765H475.301V168.703H473.465L473.825 166.183H475.769V165.121H473.969L474.527 161.305H473.465L472.907 165.121H470.459L471.035 161.305H469.955L469.379 165.121H467.219V166.183H469.235L468.857 168.703H466.715V169.765H468.695L468.083 173.869H469.145L469.757 169.765H472.223L471.665 173.869H472.727ZM472.403 168.703H469.919L470.315 166.183H472.763L472.403 168.703ZM478.012 170.575H476.86C476.914 171.241 477.058 171.781 477.31 172.231C477.544 172.681 477.868 173.059 478.264 173.329C478.66 173.617 479.128 173.815 479.65 173.941C480.172 174.067 480.73 174.121 481.324 174.121C481.846 174.121 482.35 174.031 482.836 173.833C483.322 173.653 483.736 173.383 484.114 173.023C484.492 172.663 484.78 172.213 485.014 171.691C485.23 171.169 485.338 170.575 485.338 169.909C485.338 169.261 485.248 168.667 485.05 168.145C484.852 167.623 484.564 167.191 484.204 166.831C483.844 166.471 483.412 166.201 482.926 166.003C482.44 165.805 481.9 165.715 481.324 165.715C481.036 165.715 480.784 165.733 480.55 165.751C480.316 165.769 480.082 165.823 479.866 165.877C479.65 165.949 479.434 166.039 479.236 166.147C479.02 166.255 478.786 166.381 478.534 166.543L479.326 162.277H484.654V161.305H478.354L477.328 167.875L478.282 168.001C478.624 167.551 479.038 167.209 479.488 166.993C479.938 166.795 480.46 166.687 481.036 166.687C481.522 166.687 481.954 166.759 482.35 166.921C482.728 167.083 483.07 167.299 483.34 167.587C483.61 167.875 483.808 168.217 483.97 168.613C484.114 169.009 484.186 169.441 484.186 169.909C484.186 170.359 484.114 170.791 483.988 171.169C483.844 171.565 483.646 171.907 483.376 172.195C483.106 172.501 482.8 172.735 482.422 172.897C482.044 173.059 481.612 173.149 481.144 173.149C480.316 173.149 479.614 172.933 479.056 172.501C478.48 172.087 478.138 171.439 478.012 170.575ZM488.356 171.079H487.186C487.24 171.601 487.366 172.051 487.564 172.429C487.762 172.807 488.032 173.131 488.356 173.383C488.68 173.635 489.058 173.815 489.49 173.941C489.922 174.067 490.39 174.121 490.876 174.121C491.542 174.121 492.172 173.977 492.73 173.707C493.288 173.437 493.792 173.023 494.206 172.465C494.62 171.907 494.926 171.223 495.16 170.413C495.394 169.603 495.502 168.667 495.502 167.587C495.502 166.705 495.43 165.859 495.286 165.085C495.142 164.311 494.908 163.627 494.566 163.051C494.224 162.475 493.756 162.025 493.198 161.683C492.622 161.341 491.902 161.179 491.056 161.179C490.354 161.179 489.76 161.287 489.256 161.485C488.734 161.701 488.32 161.989 487.978 162.367C487.636 162.745 487.384 163.195 487.222 163.699C487.06 164.221 486.97 164.779 486.97 165.373C486.97 165.985 487.06 166.543 487.258 167.047C487.438 167.551 487.708 167.983 488.05 168.343C488.392 168.703 488.788 168.973 489.274 169.171C489.76 169.369 490.3 169.459 490.894 169.459C491.65 169.459 492.316 169.297 492.892 168.955C493.45 168.613 493.936 168.127 494.314 167.479L494.35 167.515C494.332 168.091 494.278 168.703 494.188 169.351C494.098 170.017 493.918 170.629 493.684 171.187C493.432 171.745 493.09 172.213 492.64 172.591C492.19 172.969 491.578 173.149 490.822 173.149C490.12 173.149 489.562 172.969 489.166 172.627C488.752 172.285 488.482 171.763 488.356 171.079ZM491.056 162.151C491.938 162.169 492.64 162.475 493.144 163.051C493.648 163.645 493.9 164.401 493.9 165.337C493.9 165.769 493.846 166.165 493.72 166.543C493.594 166.921 493.396 167.263 493.162 167.551C492.91 167.839 492.604 168.073 492.262 168.235C491.902 168.397 491.506 168.487 491.056 168.487C490.12 168.487 489.4 168.217 488.896 167.677C488.374 167.137 488.122 166.381 488.122 165.409C488.122 164.419 488.374 163.627 488.86 163.051C489.346 162.475 490.084 162.169 491.056 162.151ZM498.016 170.575H496.864C496.918 171.241 497.062 171.781 497.314 172.231C497.548 172.681 497.872 173.059 498.268 173.329C498.664 173.617 499.132 173.815 499.654 173.941C500.176 174.067 500.734 174.121 501.328 174.121C501.85 174.121 502.354 174.031 502.84 173.833C503.326 173.653 503.74 173.383 504.118 173.023C504.496 172.663 504.784 172.213 505.018 171.691C505.234 171.169 505.342 170.575 505.342 169.909C505.342 169.261 505.252 168.667 505.054 168.145C504.856 167.623 504.568 167.191 504.208 166.831C503.848 166.471 503.416 166.201 502.93 166.003C502.444 165.805 501.904 165.715 501.328 165.715C501.04 165.715 500.788 165.733 500.554 165.751C500.32 165.769 500.086 165.823 499.87 165.877C499.654 165.949 499.438 166.039 499.24 166.147C499.024 166.255 498.79 166.381 498.538 166.543L499.33 162.277H504.658V161.305H498.358L497.332 167.875L498.286 168.001C498.628 167.551 499.042 167.209 499.492 166.993C499.942 166.795 500.464 166.687 501.04 166.687C501.526 166.687 501.958 166.759 502.354 166.921C502.732 167.083 503.074 167.299 503.344 167.587C503.614 167.875 503.812 168.217 503.974 168.613C504.118 169.009 504.19 169.441 504.19 169.909C504.19 170.359 504.118 170.791 503.992 171.169C503.848 171.565 503.65 171.907 503.38 172.195C503.11 172.501 502.804 172.735 502.426 172.897C502.048 173.059 501.616 173.149 501.148 173.149C500.32 173.149 499.618 172.933 499.06 172.501C498.484 172.087 498.142 171.439 498.016 170.575ZM509.242 167.047C508.522 167.317 507.982 167.749 507.604 168.343C507.226 168.937 507.028 169.621 507.028 170.377C507.028 171.007 507.154 171.547 507.388 172.015C507.622 172.483 507.946 172.879 508.324 173.185C508.702 173.491 509.116 173.725 509.602 173.887C510.07 174.049 510.538 174.121 510.988 174.121C511.654 174.121 512.266 174.031 512.824 173.869C513.382 173.707 513.85 173.455 514.246 173.131C514.624 172.807 514.93 172.411 515.146 171.925C515.344 171.439 515.452 170.899 515.452 170.269C515.452 169.531 515.254 168.883 514.858 168.325C514.444 167.767 513.904 167.371 513.202 167.119C513.814 166.813 514.264 166.435 514.534 165.967C514.804 165.499 514.93 164.941 514.93 164.275C514.93 163.735 514.822 163.267 514.606 162.871C514.39 162.493 514.102 162.169 513.742 161.917C513.382 161.665 512.968 161.485 512.518 161.359C512.05 161.233 511.582 161.179 511.096 161.179C510.592 161.161 510.124 161.233 509.692 161.395C509.242 161.557 508.864 161.773 508.54 162.043C508.216 162.331 507.964 162.673 507.766 163.051C507.568 163.429 507.478 163.843 507.478 164.275C507.478 164.653 507.514 164.977 507.586 165.229C507.64 165.499 507.748 165.733 507.892 165.931C508.036 166.129 508.216 166.327 508.45 166.489C508.666 166.669 508.936 166.849 509.242 167.047ZM511.204 162.151C512.086 162.151 512.734 162.331 513.148 162.673C513.562 163.033 513.778 163.537 513.778 164.185C513.778 164.635 513.724 165.031 513.598 165.337C513.472 165.643 513.292 165.913 513.076 166.111C512.86 166.309 512.608 166.453 512.302 166.543C511.996 166.633 511.672 166.687 511.33 166.687C510.988 166.687 510.646 166.633 510.322 166.543C509.998 166.453 509.71 166.327 509.458 166.147C509.206 165.967 509.008 165.733 508.864 165.445C508.702 165.175 508.63 164.833 508.63 164.437C508.63 164.059 508.702 163.735 508.828 163.447C508.954 163.159 509.152 162.925 509.386 162.727C509.62 162.529 509.89 162.385 510.196 162.295C510.502 162.205 510.844 162.151 511.204 162.151ZM511.258 167.659C511.672 167.659 512.068 167.713 512.446 167.821C512.824 167.929 513.148 168.091 513.418 168.307C513.688 168.541 513.904 168.811 514.066 169.135C514.228 169.477 514.3 169.855 514.3 170.305C514.3 170.719 514.228 171.115 514.084 171.457C513.922 171.799 513.724 172.105 513.454 172.357C513.184 172.609 512.86 172.807 512.5 172.933C512.14 173.077 511.744 173.149 511.33 173.149C510.844 173.149 510.412 173.077 510.034 172.933C509.638 172.789 509.314 172.591 509.044 172.339C508.774 172.105 508.558 171.817 508.414 171.475C508.252 171.133 508.18 170.773 508.18 170.377C508.18 169.909 508.252 169.495 508.414 169.153C508.576 168.811 508.792 168.541 509.062 168.307C509.332 168.091 509.656 167.929 510.034 167.821C510.412 167.713 510.808 167.659 511.258 167.659ZM522.376 160.909H517.696V173.869H522.988C523.6 173.869 524.176 173.797 524.698 173.671C525.22 173.545 525.652 173.347 526.03 173.059C526.408 172.771 526.696 172.393 526.912 171.925C527.11 171.457 527.218 170.881 527.218 170.215C527.218 169.351 527.002 168.631 526.57 168.055C526.12 167.479 525.454 167.119 524.554 166.993V166.957C524.824 166.903 525.076 166.813 525.328 166.687C525.562 166.561 525.778 166.399 525.976 166.165C526.174 165.949 526.318 165.679 526.444 165.337C526.57 165.013 526.624 164.617 526.624 164.167C526.624 163.681 526.552 163.249 526.39 162.835C526.228 162.439 525.994 162.097 525.652 161.809C525.31 161.521 524.86 161.305 524.32 161.143C523.78 160.981 523.132 160.909 522.376 160.909ZM522.016 166.633H518.92V161.953H521.746C522.412 161.953 522.988 161.989 523.456 162.061C523.906 162.151 524.284 162.277 524.572 162.439C524.86 162.619 525.076 162.853 525.202 163.123C525.328 163.411 525.4 163.753 525.4 164.167C525.4 164.563 525.346 164.905 525.238 165.211C525.112 165.517 524.932 165.787 524.662 165.985C524.392 166.201 524.05 166.363 523.618 166.471C523.186 166.579 522.646 166.633 522.016 166.633ZM522.034 172.825H518.92V167.677H522.178C522.754 167.677 523.276 167.713 523.744 167.767C524.212 167.839 524.608 167.965 524.95 168.145C525.292 168.325 525.544 168.577 525.724 168.901C525.904 169.243 525.994 169.675 525.994 170.215C525.994 170.773 525.922 171.223 525.76 171.565C525.598 171.907 525.346 172.177 525.022 172.357C524.698 172.555 524.284 172.681 523.798 172.735C523.294 172.789 522.7 172.825 522.034 172.825ZM529.486 165.337H530.71C530.692 164.905 530.746 164.491 530.872 164.113C530.998 163.735 531.196 163.393 531.448 163.105C531.682 162.817 531.988 162.583 532.33 162.403C532.672 162.241 533.05 162.151 533.464 162.151C533.86 162.151 534.22 162.205 534.562 162.313C534.904 162.439 535.192 162.601 535.444 162.835C535.696 163.069 535.894 163.339 536.038 163.663C536.182 163.987 536.254 164.347 536.254 164.761C536.254 165.265 536.164 165.697 535.984 166.039C535.804 166.381 535.552 166.705 535.246 166.975C534.94 167.245 534.58 167.497 534.166 167.731C533.752 167.965 533.32 168.235 532.87 168.505C532.42 168.793 531.952 169.117 531.484 169.477C530.998 169.837 530.548 170.269 530.098 170.773C529.684 171.241 529.432 171.727 529.306 172.213C529.18 172.699 529.126 173.257 529.108 173.869H537.406V172.897H530.332C530.35 172.591 530.404 172.321 530.494 172.069C530.584 171.835 530.71 171.601 530.872 171.403C531.034 171.205 531.196 171.007 531.394 170.827L531.988 170.341C532.294 170.107 532.654 169.873 533.05 169.657C533.446 169.441 533.842 169.207 534.256 168.973C534.67 168.739 535.066 168.505 535.462 168.235C535.84 167.965 536.2 167.677 536.506 167.335C536.812 166.993 537.046 166.615 537.244 166.183C537.424 165.751 537.514 165.247 537.514 164.689C537.514 164.203 537.424 163.753 537.262 163.321C537.1 162.889 536.848 162.511 536.524 162.205C536.182 161.899 535.786 161.647 535.3 161.449C534.814 161.269 534.238 161.179 533.608 161.179C532.978 161.179 532.42 161.269 531.916 161.467C531.394 161.665 530.962 161.953 530.602 162.313C530.242 162.691 529.972 163.123 529.774 163.627C529.576 164.149 529.486 164.707 529.486 165.337Z" fill="white"/>
<path d="M810.742 173.869L811.318 169.765H813.316V168.703H811.48L811.84 166.183H813.784V165.121H811.984L812.542 161.305H811.48L810.922 165.121H808.474L809.05 161.305H807.97L807.394 165.121H805.234V166.183H807.25L806.872 168.703H804.73V169.765H806.71L806.098 173.869H807.16L807.772 169.765H810.238L809.68 173.869H810.742ZM810.418 168.703H807.934L808.33 166.183H810.778L810.418 168.703ZM816.406 163.681V164.437H819.682V173.869H820.834V161.179H819.916C819.826 161.719 819.682 162.151 819.484 162.457C819.286 162.781 819.034 163.033 818.746 163.195C818.44 163.357 818.098 163.483 817.72 163.537C817.324 163.591 816.892 163.645 816.406 163.681ZM832.114 164.293H833.302C833.176 163.267 832.78 162.493 832.114 161.971C831.448 161.449 830.602 161.179 829.594 161.179C828.658 161.179 827.902 161.395 827.308 161.827C826.714 162.259 826.246 162.817 825.904 163.483C825.562 164.149 825.31 164.887 825.184 165.697C825.058 166.507 824.986 167.299 824.986 168.055C824.986 169.171 825.094 170.107 825.328 170.881C825.562 171.655 825.868 172.285 826.264 172.771C826.66 173.257 827.128 173.599 827.668 173.797C828.208 174.013 828.802 174.121 829.432 174.121C830.728 174.121 831.736 173.761 832.438 173.023C833.14 172.285 833.5 171.277 833.5 169.999C833.5 168.721 833.158 167.731 832.456 166.993C831.754 166.273 830.746 165.913 829.468 165.913C829 165.913 828.604 165.967 828.262 166.075C827.92 166.201 827.632 166.345 827.38 166.525C827.128 166.723 826.912 166.939 826.714 167.173C826.516 167.407 826.318 167.659 826.138 167.893C826.192 167.299 826.246 166.651 826.336 165.985C826.426 165.319 826.588 164.689 826.822 164.113C827.056 163.555 827.416 163.087 827.866 162.709C828.316 162.331 828.928 162.151 829.702 162.151C830.386 162.151 830.926 162.349 831.322 162.727C831.718 163.123 831.988 163.645 832.114 164.293ZM829.432 166.885C830.422 166.885 831.16 167.155 831.646 167.677C832.114 168.217 832.348 168.973 832.348 169.963C832.348 170.341 832.294 170.719 832.204 171.097C832.096 171.475 831.934 171.817 831.7 172.123C831.466 172.429 831.178 172.681 830.818 172.861C830.44 173.059 829.99 173.149 829.45 173.149C828.928 173.149 828.478 173.059 828.118 172.861C827.758 172.663 827.47 172.429 827.236 172.123C827.002 171.817 826.822 171.493 826.732 171.115C826.624 170.755 826.57 170.395 826.57 170.035C826.57 169.603 826.642 169.189 826.768 168.811C826.894 168.433 827.092 168.109 827.344 167.821C827.578 167.533 827.884 167.299 828.244 167.137C828.586 166.975 828.982 166.885 829.432 166.885ZM838.228 166.813V167.749C838.786 167.713 839.308 167.731 839.794 167.785C840.28 167.857 840.712 167.983 841.09 168.181C841.45 168.379 841.738 168.649 841.954 168.991C842.17 169.333 842.296 169.765 842.314 170.287C842.332 170.665 842.26 171.025 842.116 171.367C841.954 171.709 841.738 172.015 841.468 172.285C841.18 172.555 840.838 172.753 840.442 172.915C840.046 173.077 839.614 173.149 839.164 173.149C838.228 173.149 837.472 172.897 836.896 172.393C836.302 171.907 836.014 171.169 836.014 170.197H834.862C834.934 170.935 835.078 171.565 835.276 172.051C835.474 172.555 835.762 172.951 836.122 173.257C836.482 173.563 836.932 173.797 837.472 173.923C838.012 174.049 838.642 174.121 839.38 174.121C840.028 174.103 840.604 173.995 841.126 173.779C841.63 173.581 842.062 173.293 842.404 172.951C842.746 172.609 843.016 172.195 843.196 171.745C843.376 171.295 843.466 170.791 843.466 170.269C843.466 169.981 843.43 169.675 843.376 169.369C843.322 169.063 843.196 168.757 843.034 168.469C842.872 168.199 842.638 167.929 842.35 167.695C842.044 167.461 841.666 167.281 841.216 167.137C841.828 166.867 842.278 166.507 842.584 166.021C842.872 165.535 843.016 164.977 843.016 164.311C843.016 163.789 842.926 163.321 842.728 162.925C842.53 162.529 842.278 162.205 841.954 161.935C841.63 161.683 841.252 161.485 840.82 161.359C840.37 161.233 839.902 161.179 839.398 161.179C838.876 161.179 838.354 161.233 837.868 161.323C837.364 161.431 836.914 161.665 836.518 162.025C836.104 162.421 835.798 162.853 835.6 163.303C835.402 163.771 835.294 164.293 835.294 164.869H836.446C836.446 164.473 836.518 164.113 836.644 163.771C836.77 163.447 836.968 163.159 837.202 162.907C837.436 162.673 837.724 162.475 838.066 162.349C838.39 162.223 838.75 162.151 839.164 162.151C839.524 162.151 839.866 162.187 840.208 162.277C840.532 162.367 840.82 162.493 841.072 162.673C841.306 162.853 841.504 163.087 841.648 163.357C841.792 163.645 841.864 163.987 841.864 164.383C841.864 164.869 841.774 165.283 841.594 165.589C841.414 165.895 841.162 166.147 840.856 166.327C840.532 166.525 840.154 166.651 839.704 166.705C839.254 166.777 838.768 166.813 838.228 166.813ZM853.396 162.385V161.305H845.314V162.457H852.01C851.398 163.195 850.804 164.041 850.228 164.977C849.652 165.931 849.13 166.903 848.68 167.911C848.23 168.919 847.852 169.927 847.546 170.953C847.24 171.979 847.042 172.951 846.988 173.869H848.248C848.284 173.239 848.41 172.483 848.608 171.601C848.806 170.719 849.094 169.747 849.508 168.721C849.922 167.695 850.444 166.651 851.074 165.553C851.704 164.473 852.478 163.411 853.396 162.385ZM856.036 170.575H854.884C854.938 171.241 855.082 171.781 855.334 172.231C855.568 172.681 855.892 173.059 856.288 173.329C856.684 173.617 857.152 173.815 857.674 173.941C858.196 174.067 858.754 174.121 859.348 174.121C859.87 174.121 860.374 174.031 860.86 173.833C861.346 173.653 861.76 173.383 862.138 173.023C862.516 172.663 862.804 172.213 863.038 171.691C863.254 171.169 863.362 170.575 863.362 169.909C863.362 169.261 863.272 168.667 863.074 168.145C862.876 167.623 862.588 167.191 862.228 166.831C861.868 166.471 861.436 166.201 860.95 166.003C860.464 165.805 859.924 165.715 859.348 165.715C859.06 165.715 858.808 165.733 858.574 165.751C858.34 165.769 858.106 165.823 857.89 165.877C857.674 165.949 857.458 166.039 857.26 166.147C857.044 166.255 856.81 166.381 856.558 166.543L857.35 162.277H862.678V161.305H856.378L855.352 167.875L856.306 168.001C856.648 167.551 857.062 167.209 857.512 166.993C857.962 166.795 858.484 166.687 859.06 166.687C859.546 166.687 859.978 166.759 860.374 166.921C860.752 167.083 861.094 167.299 861.364 167.587C861.634 167.875 861.832 168.217 861.994 168.613C862.138 169.009 862.21 169.441 862.21 169.909C862.21 170.359 862.138 170.791 862.012 171.169C861.868 171.565 861.67 171.907 861.4 172.195C861.13 172.501 860.824 172.735 860.446 172.897C860.068 173.059 859.636 173.149 859.168 173.149C858.34 173.149 857.638 172.933 857.08 172.501C856.504 172.087 856.162 171.439 856.036 170.575ZM870.142 160.909H865.714V173.869H870.142C870.574 173.869 871.006 173.851 871.42 173.797C871.834 173.761 872.248 173.689 872.644 173.563C873.022 173.455 873.4 173.293 873.76 173.095C874.102 172.897 874.426 172.627 874.732 172.285C875.038 171.961 875.29 171.601 875.488 171.205C875.686 170.827 875.83 170.413 875.956 169.981C876.082 169.567 876.172 169.135 876.226 168.685C876.28 168.235 876.298 167.803 876.298 167.371C876.298 166.939 876.262 166.471 876.208 165.949C876.136 165.445 876.028 164.941 875.866 164.437C875.704 163.951 875.47 163.465 875.2 163.015C874.93 162.565 874.57 162.187 874.138 161.881C873.832 161.665 873.526 161.485 873.22 161.359C872.896 161.233 872.572 161.125 872.23 161.053C871.888 160.999 871.546 160.945 871.204 160.927C870.862 160.909 870.502 160.909 870.142 160.909ZM869.872 172.825H866.938V161.953H869.872C870.412 161.953 870.952 161.989 871.474 162.043C871.996 162.097 872.464 162.241 872.842 162.439C873.292 162.673 873.67 162.979 873.958 163.339C874.246 163.717 874.48 164.113 874.642 164.545C874.804 164.995 874.93 165.445 874.984 165.931C875.038 166.417 875.074 166.903 875.074 167.371C875.074 167.821 875.038 168.271 874.984 168.757C874.912 169.243 874.804 169.693 874.642 170.125C874.48 170.575 874.246 170.971 873.976 171.349C873.706 171.727 873.346 172.015 872.914 172.231C872.41 172.501 871.924 172.663 871.438 172.717C870.952 172.789 870.43 172.825 869.872 172.825Z" fill="white"/>
</svg>
