<svg width="1003" height="325" viewBox="0 0 1003 325" fill="none" xmlns="http://www.w3.org/2000/svg">
<rect x="0.246094" y="0.869141" width="324" height="324" fill="#48788C"/>
<rect x="339.246" y="0.869141" width="324" height="324" fill="#403EA5"/>
<rect x="678.246" y="0.869141" width="324" height="324" fill="#042245"/>
<path d="M130.742 170.869L131.318 166.765H133.316V165.703H131.48L131.84 163.183H133.784V162.121H131.984L132.542 158.305H131.48L130.922 162.121H128.474L129.05 158.305H127.97L127.394 162.121H125.234V163.183H127.25L126.872 165.703H124.73V166.765H126.71L126.098 170.869H127.16L127.772 166.765H130.238L129.68 170.869H130.742ZM130.418 165.703H127.934L128.33 163.183H130.778L130.418 165.703ZM134.894 166.747V167.737H140.69V170.869H141.842V167.737H143.606V166.765H141.842V158.305H140.798L134.894 166.747ZM140.69 160.033V166.765H136.028L140.69 160.033ZM147.254 164.047C146.534 164.317 145.994 164.749 145.616 165.343C145.238 165.937 145.04 166.621 145.04 167.377C145.04 168.007 145.166 168.547 145.4 169.015C145.634 169.483 145.958 169.879 146.336 170.185C146.714 170.491 147.128 170.725 147.614 170.887C148.082 171.049 148.55 171.121 149 171.121C149.666 171.121 150.278 171.031 150.836 170.869C151.394 170.707 151.862 170.455 152.258 170.131C152.636 169.807 152.942 169.411 153.158 168.925C153.356 168.439 153.464 167.899 153.464 167.269C153.464 166.531 153.266 165.883 152.87 165.325C152.456 164.767 151.916 164.371 151.214 164.119C151.826 163.813 152.276 163.435 152.546 162.967C152.816 162.499 152.942 161.941 152.942 161.275C152.942 160.735 152.834 160.267 152.618 159.871C152.402 159.493 152.114 159.169 151.754 158.917C151.394 158.665 150.98 158.485 150.53 158.359C150.062 158.233 149.594 158.179 149.108 158.179C148.604 158.161 148.136 158.233 147.704 158.395C147.254 158.557 146.876 158.773 146.552 159.043C146.228 159.331 145.976 159.673 145.778 160.051C145.58 160.429 145.49 160.843 145.49 161.275C145.49 161.653 145.526 161.977 145.598 162.229C145.652 162.499 145.76 162.733 145.904 162.931C146.048 163.129 146.228 163.327 146.462 163.489C146.678 163.669 146.948 163.849 147.254 164.047ZM149.216 159.151C150.098 159.151 150.746 159.331 151.16 159.673C151.574 160.033 151.79 160.537 151.79 161.185C151.79 161.635 151.736 162.031 151.61 162.337C151.484 162.643 151.304 162.913 151.088 163.111C150.872 163.309 150.62 163.453 150.314 163.543C150.008 163.633 149.684 163.687 149.342 163.687C149 163.687 148.658 163.633 148.334 163.543C148.01 163.453 147.722 163.327 147.47 163.147C147.218 162.967 147.02 162.733 146.876 162.445C146.714 162.175 146.642 161.833 146.642 161.437C146.642 161.059 146.714 160.735 146.84 160.447C146.966 160.159 147.164 159.925 147.398 159.727C147.632 159.529 147.902 159.385 148.208 159.295C148.514 159.205 148.856 159.151 149.216 159.151ZM149.27 164.659C149.684 164.659 150.08 164.713 150.458 164.821C150.836 164.929 151.16 165.091 151.43 165.307C151.7 165.541 151.916 165.811 152.078 166.135C152.24 166.477 152.312 166.855 152.312 167.305C152.312 167.719 152.24 168.115 152.096 168.457C151.934 168.799 151.736 169.105 151.466 169.357C151.196 169.609 150.872 169.807 150.512 169.933C150.152 170.077 149.756 170.149 149.342 170.149C148.856 170.149 148.424 170.077 148.046 169.933C147.65 169.789 147.326 169.591 147.056 169.339C146.786 169.105 146.57 168.817 146.426 168.475C146.264 168.133 146.192 167.773 146.192 167.377C146.192 166.909 146.264 166.495 146.426 166.153C146.588 165.811 146.804 165.541 147.074 165.307C147.344 165.091 147.668 164.929 148.046 164.821C148.424 164.713 148.82 164.659 149.27 164.659ZM163.394 159.385V158.305H155.312V159.457H162.008C161.396 160.195 160.802 161.041 160.226 161.977C159.65 162.931 159.128 163.903 158.678 164.911C158.228 165.919 157.85 166.927 157.544 167.953C157.238 168.979 157.04 169.951 156.986 170.869H158.246C158.282 170.239 158.408 169.483 158.606 168.601C158.804 167.719 159.092 166.747 159.506 165.721C159.92 164.695 160.442 163.651 161.072 162.553C161.702 161.473 162.476 160.411 163.394 159.385ZM167.258 164.047C166.538 164.317 165.998 164.749 165.62 165.343C165.242 165.937 165.044 166.621 165.044 167.377C165.044 168.007 165.17 168.547 165.404 169.015C165.638 169.483 165.962 169.879 166.34 170.185C166.718 170.491 167.132 170.725 167.618 170.887C168.086 171.049 168.554 171.121 169.004 171.121C169.67 171.121 170.282 171.031 170.84 170.869C171.398 170.707 171.866 170.455 172.262 170.131C172.64 169.807 172.946 169.411 173.162 168.925C173.36 168.439 173.468 167.899 173.468 167.269C173.468 166.531 173.27 165.883 172.874 165.325C172.46 164.767 171.92 164.371 171.218 164.119C171.83 163.813 172.28 163.435 172.55 162.967C172.82 162.499 172.946 161.941 172.946 161.275C172.946 160.735 172.838 160.267 172.622 159.871C172.406 159.493 172.118 159.169 171.758 158.917C171.398 158.665 170.984 158.485 170.534 158.359C170.066 158.233 169.598 158.179 169.112 158.179C168.608 158.161 168.14 158.233 167.708 158.395C167.258 158.557 166.88 158.773 166.556 159.043C166.232 159.331 165.98 159.673 165.782 160.051C165.584 160.429 165.494 160.843 165.494 161.275C165.494 161.653 165.53 161.977 165.602 162.229C165.656 162.499 165.764 162.733 165.908 162.931C166.052 163.129 166.232 163.327 166.466 163.489C166.682 163.669 166.952 163.849 167.258 164.047ZM169.22 159.151C170.102 159.151 170.75 159.331 171.164 159.673C171.578 160.033 171.794 160.537 171.794 161.185C171.794 161.635 171.74 162.031 171.614 162.337C171.488 162.643 171.308 162.913 171.092 163.111C170.876 163.309 170.624 163.453 170.318 163.543C170.012 163.633 169.688 163.687 169.346 163.687C169.004 163.687 168.662 163.633 168.338 163.543C168.014 163.453 167.726 163.327 167.474 163.147C167.222 162.967 167.024 162.733 166.88 162.445C166.718 162.175 166.646 161.833 166.646 161.437C166.646 161.059 166.718 160.735 166.844 160.447C166.97 160.159 167.168 159.925 167.402 159.727C167.636 159.529 167.906 159.385 168.212 159.295C168.518 159.205 168.86 159.151 169.22 159.151ZM169.274 164.659C169.688 164.659 170.084 164.713 170.462 164.821C170.84 164.929 171.164 165.091 171.434 165.307C171.704 165.541 171.92 165.811 172.082 166.135C172.244 166.477 172.316 166.855 172.316 167.305C172.316 167.719 172.244 168.115 172.1 168.457C171.938 168.799 171.74 169.105 171.47 169.357C171.2 169.609 170.876 169.807 170.516 169.933C170.156 170.077 169.76 170.149 169.346 170.149C168.86 170.149 168.428 170.077 168.05 169.933C167.654 169.789 167.33 169.591 167.06 169.339C166.79 169.105 166.574 168.817 166.43 168.475C166.268 168.133 166.196 167.773 166.196 167.377C166.196 166.909 166.268 166.495 166.43 166.153C166.592 165.811 166.808 165.541 167.078 165.307C167.348 165.091 167.672 164.929 168.05 164.821C168.428 164.713 168.824 164.659 169.274 164.659ZM177.26 164.047C176.54 164.317 176 164.749 175.622 165.343C175.244 165.937 175.046 166.621 175.046 167.377C175.046 168.007 175.172 168.547 175.406 169.015C175.64 169.483 175.964 169.879 176.342 170.185C176.72 170.491 177.134 170.725 177.62 170.887C178.088 171.049 178.556 171.121 179.006 171.121C179.672 171.121 180.284 171.031 180.842 170.869C181.4 170.707 181.868 170.455 182.264 170.131C182.642 169.807 182.948 169.411 183.164 168.925C183.362 168.439 183.47 167.899 183.47 167.269C183.47 166.531 183.272 165.883 182.876 165.325C182.462 164.767 181.922 164.371 181.22 164.119C181.832 163.813 182.282 163.435 182.552 162.967C182.822 162.499 182.948 161.941 182.948 161.275C182.948 160.735 182.84 160.267 182.624 159.871C182.408 159.493 182.12 159.169 181.76 158.917C181.4 158.665 180.986 158.485 180.536 158.359C180.068 158.233 179.6 158.179 179.114 158.179C178.61 158.161 178.142 158.233 177.71 158.395C177.26 158.557 176.882 158.773 176.558 159.043C176.234 159.331 175.982 159.673 175.784 160.051C175.586 160.429 175.496 160.843 175.496 161.275C175.496 161.653 175.532 161.977 175.604 162.229C175.658 162.499 175.766 162.733 175.91 162.931C176.054 163.129 176.234 163.327 176.468 163.489C176.684 163.669 176.954 163.849 177.26 164.047ZM179.222 159.151C180.104 159.151 180.752 159.331 181.166 159.673C181.58 160.033 181.796 160.537 181.796 161.185C181.796 161.635 181.742 162.031 181.616 162.337C181.49 162.643 181.31 162.913 181.094 163.111C180.878 163.309 180.626 163.453 180.32 163.543C180.014 163.633 179.69 163.687 179.348 163.687C179.006 163.687 178.664 163.633 178.34 163.543C178.016 163.453 177.728 163.327 177.476 163.147C177.224 162.967 177.026 162.733 176.882 162.445C176.72 162.175 176.648 161.833 176.648 161.437C176.648 161.059 176.72 160.735 176.846 160.447C176.972 160.159 177.17 159.925 177.404 159.727C177.638 159.529 177.908 159.385 178.214 159.295C178.52 159.205 178.862 159.151 179.222 159.151ZM179.276 164.659C179.69 164.659 180.086 164.713 180.464 164.821C180.842 164.929 181.166 165.091 181.436 165.307C181.706 165.541 181.922 165.811 182.084 166.135C182.246 166.477 182.318 166.855 182.318 167.305C182.318 167.719 182.246 168.115 182.102 168.457C181.94 168.799 181.742 169.105 181.472 169.357C181.202 169.609 180.878 169.807 180.518 169.933C180.158 170.077 179.762 170.149 179.348 170.149C178.862 170.149 178.43 170.077 178.052 169.933C177.656 169.789 177.332 169.591 177.062 169.339C176.792 169.105 176.576 168.817 176.432 168.475C176.27 168.133 176.198 167.773 176.198 167.377C176.198 166.909 176.27 166.495 176.432 166.153C176.594 165.811 176.81 165.541 177.08 165.307C177.35 165.091 177.674 164.929 178.052 164.821C178.43 164.713 178.826 164.659 179.276 164.659ZM194.912 161.671H196.172C196.064 161.005 195.866 160.411 195.596 159.889C195.308 159.385 194.948 158.953 194.516 158.611C194.066 158.269 193.562 157.999 193.004 157.819C192.428 157.657 191.816 157.567 191.15 157.567C190.286 157.567 189.494 157.693 188.756 157.927C188.018 158.179 187.388 158.575 186.848 159.115C186.308 159.673 185.894 160.375 185.588 161.239C185.282 162.103 185.12 163.147 185.12 164.389C185.12 165.307 185.228 166.189 185.426 166.999C185.624 167.827 185.966 168.547 186.416 169.177C186.866 169.807 187.442 170.293 188.144 170.653C188.846 171.031 189.71 171.211 190.7 171.211C191.564 171.211 192.32 171.085 192.968 170.833C193.598 170.599 194.156 170.257 194.606 169.843C195.056 169.429 195.416 168.925 195.686 168.367C195.956 167.809 196.172 167.233 196.316 166.603H195.038C194.912 167.125 194.75 167.593 194.516 168.025C194.282 168.457 193.994 168.835 193.652 169.141C193.31 169.465 192.896 169.717 192.446 169.897C191.996 170.077 191.492 170.167 190.934 170.167C190.052 170.167 189.314 170.005 188.72 169.663C188.126 169.321 187.658 168.889 187.316 168.331C186.974 167.791 186.722 167.179 186.578 166.477C186.416 165.775 186.344 165.073 186.344 164.353C186.344 163.579 186.434 162.859 186.614 162.157C186.776 161.473 187.046 160.861 187.424 160.339C187.784 159.817 188.252 159.385 188.81 159.079C189.368 158.773 190.052 158.611 190.826 158.611C191.924 158.611 192.824 158.845 193.508 159.313C194.192 159.781 194.66 160.573 194.912 161.671Z" fill="white"/>
<path d="M471.725 173.869L472.301 169.765H474.299V168.703H472.463L472.823 166.183H474.767V165.121H472.967L473.525 161.305H472.463L471.905 165.121H469.457L470.033 161.305H468.953L468.377 165.121H466.217V166.183H468.233L467.855 168.703H465.713V169.765H467.693L467.081 173.869H468.143L468.755 169.765H471.221L470.663 173.869H471.725ZM471.401 168.703H468.917L469.313 166.183H471.761L471.401 168.703ZM475.877 169.747V170.737H481.673V173.869H482.825V170.737H484.589V169.765H482.825V161.305H481.781L475.877 169.747ZM481.673 163.033V169.765H477.011L481.673 163.033ZM490.234 161.179C489.316 161.179 488.578 161.359 488.02 161.737C487.462 162.115 487.03 162.601 486.724 163.195C486.418 163.807 486.202 164.491 486.094 165.265C485.986 166.039 485.932 166.813 485.932 167.623C485.932 168.505 485.986 169.333 486.112 170.107C486.238 170.899 486.454 171.583 486.778 172.177C487.084 172.771 487.534 173.257 488.092 173.599C488.65 173.941 489.352 174.121 490.234 174.121C491.116 174.121 491.818 173.941 492.376 173.599C492.934 173.257 493.366 172.789 493.69 172.195C493.996 171.601 494.212 170.935 494.338 170.161C494.464 169.387 494.518 168.595 494.518 167.749C494.518 167.263 494.5 166.759 494.464 166.237C494.428 165.715 494.356 165.211 494.248 164.725C494.14 164.239 493.996 163.789 493.798 163.357C493.6 162.925 493.33 162.547 493.024 162.223C492.7 161.899 492.304 161.647 491.854 161.449C491.404 161.269 490.864 161.179 490.234 161.179ZM493.366 167.623C493.366 168.253 493.33 168.901 493.258 169.567C493.186 170.233 493.042 170.827 492.826 171.349C492.61 171.871 492.304 172.303 491.89 172.645C491.476 172.987 490.918 173.149 490.234 173.149C489.622 173.149 489.118 173.023 488.722 172.753C488.308 172.501 487.984 172.141 487.75 171.673C487.516 171.205 487.336 170.629 487.246 169.963C487.138 169.297 487.084 168.559 487.084 167.749C487.084 167.047 487.138 166.363 487.228 165.697C487.318 165.031 487.462 164.419 487.696 163.897C487.93 163.375 488.236 162.943 488.65 162.619C489.046 162.313 489.568 162.151 490.198 162.151C490.864 162.151 491.422 162.313 491.836 162.619C492.25 162.925 492.556 163.339 492.79 163.861C493.024 164.383 493.168 164.959 493.258 165.607C493.33 166.273 493.366 166.939 493.366 167.623ZM499.21 166.813V167.749C499.768 167.713 500.29 167.731 500.776 167.785C501.262 167.857 501.694 167.983 502.072 168.181C502.432 168.379 502.72 168.649 502.936 168.991C503.152 169.333 503.278 169.765 503.296 170.287C503.314 170.665 503.242 171.025 503.098 171.367C502.936 171.709 502.72 172.015 502.45 172.285C502.162 172.555 501.82 172.753 501.424 172.915C501.028 173.077 500.596 173.149 500.146 173.149C499.21 173.149 498.454 172.897 497.878 172.393C497.284 171.907 496.996 171.169 496.996 170.197H495.844C495.916 170.935 496.06 171.565 496.258 172.051C496.456 172.555 496.744 172.951 497.104 173.257C497.464 173.563 497.914 173.797 498.454 173.923C498.994 174.049 499.624 174.121 500.362 174.121C501.01 174.103 501.586 173.995 502.108 173.779C502.612 173.581 503.044 173.293 503.386 172.951C503.728 172.609 503.998 172.195 504.178 171.745C504.358 171.295 504.448 170.791 504.448 170.269C504.448 169.981 504.412 169.675 504.358 169.369C504.304 169.063 504.178 168.757 504.016 168.469C503.854 168.199 503.62 167.929 503.332 167.695C503.026 167.461 502.648 167.281 502.198 167.137C502.81 166.867 503.26 166.507 503.566 166.021C503.854 165.535 503.998 164.977 503.998 164.311C503.998 163.789 503.908 163.321 503.71 162.925C503.512 162.529 503.26 162.205 502.936 161.935C502.612 161.683 502.234 161.485 501.802 161.359C501.352 161.233 500.884 161.179 500.38 161.179C499.858 161.179 499.336 161.233 498.85 161.323C498.346 161.431 497.896 161.665 497.5 162.025C497.086 162.421 496.78 162.853 496.582 163.303C496.384 163.771 496.276 164.293 496.276 164.869H497.428C497.428 164.473 497.5 164.113 497.626 163.771C497.752 163.447 497.95 163.159 498.184 162.907C498.418 162.673 498.706 162.475 499.048 162.349C499.372 162.223 499.732 162.151 500.146 162.151C500.506 162.151 500.848 162.187 501.19 162.277C501.514 162.367 501.802 162.493 502.054 162.673C502.288 162.853 502.486 163.087 502.63 163.357C502.774 163.645 502.846 163.987 502.846 164.383C502.846 164.869 502.756 165.283 502.576 165.589C502.396 165.895 502.144 166.147 501.838 166.327C501.514 166.525 501.136 166.651 500.686 166.705C500.236 166.777 499.75 166.813 499.21 166.813ZM515.314 160.909H506.692V173.869H515.494V172.825H507.916V167.677H514.594V166.633H507.916V161.953H515.314V160.909ZM522.988 160.909H521.602L516.508 173.869H517.768L519.298 169.801H525.202L526.696 173.869H527.956L522.988 160.909ZM522.25 161.953L524.788 168.757H519.712L522.25 161.953ZM530.026 170.575H528.874C528.928 171.241 529.072 171.781 529.324 172.231C529.558 172.681 529.882 173.059 530.278 173.329C530.674 173.617 531.142 173.815 531.664 173.941C532.186 174.067 532.744 174.121 533.338 174.121C533.86 174.121 534.364 174.031 534.85 173.833C535.336 173.653 535.75 173.383 536.128 173.023C536.506 172.663 536.794 172.213 537.028 171.691C537.244 171.169 537.352 170.575 537.352 169.909C537.352 169.261 537.262 168.667 537.064 168.145C536.866 167.623 536.578 167.191 536.218 166.831C535.858 166.471 535.426 166.201 534.94 166.003C534.454 165.805 533.914 165.715 533.338 165.715C533.05 165.715 532.798 165.733 532.564 165.751C532.33 165.769 532.096 165.823 531.88 165.877C531.664 165.949 531.448 166.039 531.25 166.147C531.034 166.255 530.8 166.381 530.548 166.543L531.34 162.277H536.668V161.305H530.368L529.342 167.875L530.296 168.001C530.638 167.551 531.052 167.209 531.502 166.993C531.952 166.795 532.474 166.687 533.05 166.687C533.536 166.687 533.968 166.759 534.364 166.921C534.742 167.083 535.084 167.299 535.354 167.587C535.624 167.875 535.822 168.217 535.984 168.613C536.128 169.009 536.2 169.441 536.2 169.909C536.2 170.359 536.128 170.791 536.002 171.169C535.858 171.565 535.66 171.907 535.39 172.195C535.12 172.501 534.814 172.735 534.436 172.897C534.058 173.059 533.626 173.149 533.158 173.149C532.33 173.149 531.628 172.933 531.07 172.501C530.494 172.087 530.152 171.439 530.026 170.575Z" fill="white"/>
<path d="M813.73 173.869L814.306 169.765H816.304V168.703H814.468L814.828 166.183H816.772V165.121H814.972L815.53 161.305H814.468L813.91 165.121H811.462L812.038 161.305H810.958L810.382 165.121H808.222V166.183H810.238L809.86 168.703H807.718V169.765H809.698L809.086 173.869H810.148L810.76 169.765H813.226L812.668 173.869H813.73ZM813.406 168.703H810.922L811.318 166.183H813.766L813.406 168.703ZM822.238 161.179C821.32 161.179 820.582 161.359 820.024 161.737C819.466 162.115 819.034 162.601 818.728 163.195C818.422 163.807 818.206 164.491 818.098 165.265C817.99 166.039 817.936 166.813 817.936 167.623C817.936 168.505 817.99 169.333 818.116 170.107C818.242 170.899 818.458 171.583 818.782 172.177C819.088 172.771 819.538 173.257 820.096 173.599C820.654 173.941 821.356 174.121 822.238 174.121C823.12 174.121 823.822 173.941 824.38 173.599C824.938 173.257 825.37 172.789 825.694 172.195C826 171.601 826.216 170.935 826.342 170.161C826.468 169.387 826.522 168.595 826.522 167.749C826.522 167.263 826.504 166.759 826.468 166.237C826.432 165.715 826.36 165.211 826.252 164.725C826.144 164.239 826 163.789 825.802 163.357C825.604 162.925 825.334 162.547 825.028 162.223C824.704 161.899 824.308 161.647 823.858 161.449C823.408 161.269 822.868 161.179 822.238 161.179ZM825.37 167.623C825.37 168.253 825.334 168.901 825.262 169.567C825.19 170.233 825.046 170.827 824.83 171.349C824.614 171.871 824.308 172.303 823.894 172.645C823.48 172.987 822.922 173.149 822.238 173.149C821.626 173.149 821.122 173.023 820.726 172.753C820.312 172.501 819.988 172.141 819.754 171.673C819.52 171.205 819.34 170.629 819.25 169.963C819.142 169.297 819.088 168.559 819.088 167.749C819.088 167.047 819.142 166.363 819.232 165.697C819.322 165.031 819.466 164.419 819.7 163.897C819.934 163.375 820.24 162.943 820.654 162.619C821.05 162.313 821.572 162.151 822.202 162.151C822.868 162.151 823.426 162.313 823.84 162.619C824.254 162.925 824.56 163.339 824.794 163.861C825.028 164.383 825.172 164.959 825.262 165.607C825.334 166.273 825.37 166.939 825.37 167.623ZM827.884 169.747V170.737H833.68V173.869H834.832V170.737H836.596V169.765H834.832V161.305H833.788L827.884 169.747ZM833.68 163.033V169.765H829.018L833.68 163.033ZM838.48 165.337H839.704C839.686 164.905 839.74 164.491 839.866 164.113C839.992 163.735 840.19 163.393 840.442 163.105C840.676 162.817 840.982 162.583 841.324 162.403C841.666 162.241 842.044 162.151 842.458 162.151C842.854 162.151 843.214 162.205 843.556 162.313C843.898 162.439 844.186 162.601 844.438 162.835C844.69 163.069 844.888 163.339 845.032 163.663C845.176 163.987 845.248 164.347 845.248 164.761C845.248 165.265 845.158 165.697 844.978 166.039C844.798 166.381 844.546 166.705 844.24 166.975C843.934 167.245 843.574 167.497 843.16 167.731C842.746 167.965 842.314 168.235 841.864 168.505C841.414 168.793 840.946 169.117 840.478 169.477C839.992 169.837 839.542 170.269 839.092 170.773C838.678 171.241 838.426 171.727 838.3 172.213C838.174 172.699 838.12 173.257 838.102 173.869H846.4V172.897H839.326C839.344 172.591 839.398 172.321 839.488 172.069C839.578 171.835 839.704 171.601 839.866 171.403C840.028 171.205 840.19 171.007 840.388 170.827L840.982 170.341C841.288 170.107 841.648 169.873 842.044 169.657C842.44 169.441 842.836 169.207 843.25 168.973C843.664 168.739 844.06 168.505 844.456 168.235C844.834 167.965 845.194 167.677 845.5 167.335C845.806 166.993 846.04 166.615 846.238 166.183C846.418 165.751 846.508 165.247 846.508 164.689C846.508 164.203 846.418 163.753 846.256 163.321C846.094 162.889 845.842 162.511 845.518 162.205C845.176 161.899 844.78 161.647 844.294 161.449C843.808 161.269 843.232 161.179 842.602 161.179C841.972 161.179 841.414 161.269 840.91 161.467C840.388 161.665 839.956 161.953 839.596 162.313C839.236 162.691 838.966 163.123 838.768 163.627C838.57 164.149 838.48 164.707 838.48 165.337ZM848.482 165.337H849.706C849.688 164.905 849.742 164.491 849.868 164.113C849.994 163.735 850.192 163.393 850.444 163.105C850.678 162.817 850.984 162.583 851.326 162.403C851.668 162.241 852.046 162.151 852.46 162.151C852.856 162.151 853.216 162.205 853.558 162.313C853.9 162.439 854.188 162.601 854.44 162.835C854.692 163.069 854.89 163.339 855.034 163.663C855.178 163.987 855.25 164.347 855.25 164.761C855.25 165.265 855.16 165.697 854.98 166.039C854.8 166.381 854.548 166.705 854.242 166.975C853.936 167.245 853.576 167.497 853.162 167.731C852.748 167.965 852.316 168.235 851.866 168.505C851.416 168.793 850.948 169.117 850.48 169.477C849.994 169.837 849.544 170.269 849.094 170.773C848.68 171.241 848.428 171.727 848.302 172.213C848.176 172.699 848.122 173.257 848.104 173.869H856.402V172.897H849.328C849.346 172.591 849.4 172.321 849.49 172.069C849.58 171.835 849.706 171.601 849.868 171.403C850.03 171.205 850.192 171.007 850.39 170.827L850.984 170.341C851.29 170.107 851.65 169.873 852.046 169.657C852.442 169.441 852.838 169.207 853.252 168.973C853.666 168.739 854.062 168.505 854.458 168.235C854.836 167.965 855.196 167.677 855.502 167.335C855.808 166.993 856.042 166.615 856.24 166.183C856.42 165.751 856.51 165.247 856.51 164.689C856.51 164.203 856.42 163.753 856.258 163.321C856.096 162.889 855.844 162.511 855.52 162.205C855.178 161.899 854.782 161.647 854.296 161.449C853.81 161.269 853.234 161.179 852.604 161.179C851.974 161.179 851.416 161.269 850.912 161.467C850.39 161.665 849.958 161.953 849.598 162.313C849.238 162.691 848.968 163.123 848.77 163.627C848.572 164.149 848.482 164.707 848.482 165.337ZM857.89 169.747V170.737H863.686V173.869H864.838V170.737H866.602V169.765H864.838V161.305H863.794L857.89 169.747ZM863.686 163.033V169.765H859.024L863.686 163.033ZM869.026 170.575H867.874C867.928 171.241 868.072 171.781 868.324 172.231C868.558 172.681 868.882 173.059 869.278 173.329C869.674 173.617 870.142 173.815 870.664 173.941C871.186 174.067 871.744 174.121 872.338 174.121C872.86 174.121 873.364 174.031 873.85 173.833C874.336 173.653 874.75 173.383 875.128 173.023C875.506 172.663 875.794 172.213 876.028 171.691C876.244 171.169 876.352 170.575 876.352 169.909C876.352 169.261 876.262 168.667 876.064 168.145C875.866 167.623 875.578 167.191 875.218 166.831C874.858 166.471 874.426 166.201 873.94 166.003C873.454 165.805 872.914 165.715 872.338 165.715C872.05 165.715 871.798 165.733 871.564 165.751C871.33 165.769 871.096 165.823 870.88 165.877C870.664 165.949 870.448 166.039 870.25 166.147C870.034 166.255 869.8 166.381 869.548 166.543L870.34 162.277H875.668V161.305H869.368L868.342 167.875L869.296 168.001C869.638 167.551 870.052 167.209 870.502 166.993C870.952 166.795 871.474 166.687 872.05 166.687C872.536 166.687 872.968 166.759 873.364 166.921C873.742 167.083 874.084 167.299 874.354 167.587C874.624 167.875 874.822 168.217 874.984 168.613C875.128 169.009 875.2 169.441 875.2 169.909C875.2 170.359 875.128 170.791 875.002 171.169C874.858 171.565 874.66 171.907 874.39 172.195C874.12 172.501 873.814 172.735 873.436 172.897C873.058 173.059 872.626 173.149 872.158 173.149C871.33 173.149 870.628 172.933 870.07 172.501C869.494 172.087 869.152 171.439 869.026 170.575Z" fill="white"/>
</svg>
