<svg width="664" height="325" viewBox="0 0 664 325" fill="none" xmlns="http://www.w3.org/2000/svg">
<rect x="0.246094" y="0.869141" width="324" height="324" fill="#042245"/>
<path d="M133.73 170.869L134.306 166.765H136.304V165.703H134.468L134.828 163.183H136.772V162.121H134.972L135.53 158.305H134.468L133.91 162.121H131.462L132.038 158.305H130.958L130.382 162.121H128.222V163.183H130.238L129.86 165.703H127.718V166.765H129.698L129.086 170.869H130.148L130.76 166.765H133.226L132.668 170.869H133.73ZM133.406 165.703H130.922L131.318 163.183H133.766L133.406 165.703ZM142.238 158.179C141.32 158.179 140.582 158.359 140.024 158.737C139.466 159.115 139.034 159.601 138.728 160.195C138.422 160.807 138.206 161.491 138.098 162.265C137.99 163.039 137.936 163.813 137.936 164.623C137.936 165.505 137.99 166.333 138.116 167.107C138.242 167.899 138.458 168.583 138.782 169.177C139.088 169.771 139.538 170.257 140.096 170.599C140.654 170.941 141.356 171.121 142.238 171.121C143.12 171.121 143.822 170.941 144.38 170.599C144.938 170.257 145.37 169.789 145.694 169.195C146 168.601 146.216 167.935 146.342 167.161C146.468 166.387 146.522 165.595 146.522 164.749C146.522 164.263 146.504 163.759 146.468 163.237C146.432 162.715 146.36 162.211 146.252 161.725C146.144 161.239 146 160.789 145.802 160.357C145.604 159.925 145.334 159.547 145.028 159.223C144.704 158.899 144.308 158.647 143.858 158.449C143.408 158.269 142.868 158.179 142.238 158.179ZM145.37 164.623C145.37 165.253 145.334 165.901 145.262 166.567C145.19 167.233 145.046 167.827 144.83 168.349C144.614 168.871 144.308 169.303 143.894 169.645C143.48 169.987 142.922 170.149 142.238 170.149C141.626 170.149 141.122 170.023 140.726 169.753C140.312 169.501 139.988 169.141 139.754 168.673C139.52 168.205 139.34 167.629 139.25 166.963C139.142 166.297 139.088 165.559 139.088 164.749C139.088 164.047 139.142 163.363 139.232 162.697C139.322 162.031 139.466 161.419 139.7 160.897C139.934 160.375 140.24 159.943 140.654 159.619C141.05 159.313 141.572 159.151 142.202 159.151C142.868 159.151 143.426 159.313 143.84 159.619C144.254 159.925 144.56 160.339 144.794 160.861C145.028 161.383 145.172 161.959 145.262 162.607C145.334 163.273 145.37 163.939 145.37 164.623ZM147.884 166.747V167.737H153.68V170.869H154.832V167.737H156.596V166.765H154.832V158.305H153.788L147.884 166.747ZM153.68 160.033V166.765H149.018L153.68 160.033ZM158.48 162.337H159.704C159.686 161.905 159.74 161.491 159.866 161.113C159.992 160.735 160.19 160.393 160.442 160.105C160.676 159.817 160.982 159.583 161.324 159.403C161.666 159.241 162.044 159.151 162.458 159.151C162.854 159.151 163.214 159.205 163.556 159.313C163.898 159.439 164.186 159.601 164.438 159.835C164.69 160.069 164.888 160.339 165.032 160.663C165.176 160.987 165.248 161.347 165.248 161.761C165.248 162.265 165.158 162.697 164.978 163.039C164.798 163.381 164.546 163.705 164.24 163.975C163.934 164.245 163.574 164.497 163.16 164.731C162.746 164.965 162.314 165.235 161.864 165.505C161.414 165.793 160.946 166.117 160.478 166.477C159.992 166.837 159.542 167.269 159.092 167.773C158.678 168.241 158.426 168.727 158.3 169.213C158.174 169.699 158.12 170.257 158.102 170.869H166.4V169.897H159.326C159.344 169.591 159.398 169.321 159.488 169.069C159.578 168.835 159.704 168.601 159.866 168.403C160.028 168.205 160.19 168.007 160.388 167.827L160.982 167.341C161.288 167.107 161.648 166.873 162.044 166.657C162.44 166.441 162.836 166.207 163.25 165.973C163.664 165.739 164.06 165.505 164.456 165.235C164.834 164.965 165.194 164.677 165.5 164.335C165.806 163.993 166.04 163.615 166.238 163.183C166.418 162.751 166.508 162.247 166.508 161.689C166.508 161.203 166.418 160.753 166.256 160.321C166.094 159.889 165.842 159.511 165.518 159.205C165.176 158.899 164.78 158.647 164.294 158.449C163.808 158.269 163.232 158.179 162.602 158.179C161.972 158.179 161.414 158.269 160.91 158.467C160.388 158.665 159.956 158.953 159.596 159.313C159.236 159.691 158.966 160.123 158.768 160.627C158.57 161.149 158.48 161.707 158.48 162.337ZM168.482 162.337H169.706C169.688 161.905 169.742 161.491 169.868 161.113C169.994 160.735 170.192 160.393 170.444 160.105C170.678 159.817 170.984 159.583 171.326 159.403C171.668 159.241 172.046 159.151 172.46 159.151C172.856 159.151 173.216 159.205 173.558 159.313C173.9 159.439 174.188 159.601 174.44 159.835C174.692 160.069 174.89 160.339 175.034 160.663C175.178 160.987 175.25 161.347 175.25 161.761C175.25 162.265 175.16 162.697 174.98 163.039C174.8 163.381 174.548 163.705 174.242 163.975C173.936 164.245 173.576 164.497 173.162 164.731C172.748 164.965 172.316 165.235 171.866 165.505C171.416 165.793 170.948 166.117 170.48 166.477C169.994 166.837 169.544 167.269 169.094 167.773C168.68 168.241 168.428 168.727 168.302 169.213C168.176 169.699 168.122 170.257 168.104 170.869H176.402V169.897H169.328C169.346 169.591 169.4 169.321 169.49 169.069C169.58 168.835 169.706 168.601 169.868 168.403C170.03 168.205 170.192 168.007 170.39 167.827L170.984 167.341C171.29 167.107 171.65 166.873 172.046 166.657C172.442 166.441 172.838 166.207 173.252 165.973C173.666 165.739 174.062 165.505 174.458 165.235C174.836 164.965 175.196 164.677 175.502 164.335C175.808 163.993 176.042 163.615 176.24 163.183C176.42 162.751 176.51 162.247 176.51 161.689C176.51 161.203 176.42 160.753 176.258 160.321C176.096 159.889 175.844 159.511 175.52 159.205C175.178 158.899 174.782 158.647 174.296 158.449C173.81 158.269 173.234 158.179 172.604 158.179C171.974 158.179 171.416 158.269 170.912 158.467C170.39 158.665 169.958 158.953 169.598 159.313C169.238 159.691 168.968 160.123 168.77 160.627C168.572 161.149 168.482 161.707 168.482 162.337ZM177.89 166.747V167.737H183.686V170.869H184.838V167.737H186.602V166.765H184.838V158.305H183.794L177.89 166.747ZM183.686 160.033V166.765H179.024L183.686 160.033ZM189.026 167.575H187.874C187.928 168.241 188.072 168.781 188.324 169.231C188.558 169.681 188.882 170.059 189.278 170.329C189.674 170.617 190.142 170.815 190.664 170.941C191.186 171.067 191.744 171.121 192.338 171.121C192.86 171.121 193.364 171.031 193.85 170.833C194.336 170.653 194.75 170.383 195.128 170.023C195.506 169.663 195.794 169.213 196.028 168.691C196.244 168.169 196.352 167.575 196.352 166.909C196.352 166.261 196.262 165.667 196.064 165.145C195.866 164.623 195.578 164.191 195.218 163.831C194.858 163.471 194.426 163.201 193.94 163.003C193.454 162.805 192.914 162.715 192.338 162.715C192.05 162.715 191.798 162.733 191.564 162.751C191.33 162.769 191.096 162.823 190.88 162.877C190.664 162.949 190.448 163.039 190.25 163.147C190.034 163.255 189.8 163.381 189.548 163.543L190.34 159.277H195.668V158.305H189.368L188.342 164.875L189.296 165.001C189.638 164.551 190.052 164.209 190.502 163.993C190.952 163.795 191.474 163.687 192.05 163.687C192.536 163.687 192.968 163.759 193.364 163.921C193.742 164.083 194.084 164.299 194.354 164.587C194.624 164.875 194.822 165.217 194.984 165.613C195.128 166.009 195.2 166.441 195.2 166.909C195.2 167.359 195.128 167.791 195.002 168.169C194.858 168.565 194.66 168.907 194.39 169.195C194.12 169.501 193.814 169.735 193.436 169.897C193.058 170.059 192.626 170.149 192.158 170.149C191.33 170.149 190.628 169.933 190.07 169.501C189.494 169.087 189.152 168.439 189.026 167.575Z" fill="white"/>
<rect x="339.246" y="0.869141" width="324" height="324" fill="#D8E0F3"/>
<path d="M470.74 173.869L471.316 169.765H473.314V168.703H471.478L471.838 166.183H473.782V165.121H471.982L472.54 161.305H471.478L470.92 165.121H468.472L469.048 161.305H467.968L467.392 165.121H465.232V166.183H467.248L466.87 168.703H464.728V169.765H466.708L466.096 173.869H467.158L467.77 169.765H470.236L469.678 173.869H470.74ZM470.416 168.703H467.932L468.328 166.183H470.776L470.416 168.703ZM480.13 160.909H475.702V173.869H480.13C480.562 173.869 480.994 173.851 481.408 173.797C481.822 173.761 482.236 173.689 482.632 173.563C483.01 173.455 483.388 173.293 483.748 173.095C484.09 172.897 484.414 172.627 484.72 172.285C485.026 171.961 485.278 171.601 485.476 171.205C485.674 170.827 485.818 170.413 485.944 169.981C486.07 169.567 486.16 169.135 486.214 168.685C486.268 168.235 486.286 167.803 486.286 167.371C486.286 166.939 486.25 166.471 486.196 165.949C486.124 165.445 486.016 164.941 485.854 164.437C485.692 163.951 485.458 163.465 485.188 163.015C484.918 162.565 484.558 162.187 484.126 161.881C483.82 161.665 483.514 161.485 483.208 161.359C482.884 161.233 482.56 161.125 482.218 161.053C481.876 160.999 481.534 160.945 481.192 160.927C480.85 160.909 480.49 160.909 480.13 160.909ZM479.86 172.825H476.926V161.953H479.86C480.4 161.953 480.94 161.989 481.462 162.043C481.984 162.097 482.452 162.241 482.83 162.439C483.28 162.673 483.658 162.979 483.946 163.339C484.234 163.717 484.468 164.113 484.63 164.545C484.792 164.995 484.918 165.445 484.972 165.931C485.026 166.417 485.062 166.903 485.062 167.371C485.062 167.821 485.026 168.271 484.972 168.757C484.9 169.243 484.792 169.693 484.63 170.125C484.468 170.575 484.234 170.971 483.964 171.349C483.694 171.727 483.334 172.015 482.902 172.231C482.398 172.501 481.912 172.663 481.426 172.717C480.94 172.789 480.418 172.825 479.86 172.825ZM490.24 167.047C489.52 167.317 488.98 167.749 488.602 168.343C488.224 168.937 488.026 169.621 488.026 170.377C488.026 171.007 488.152 171.547 488.386 172.015C488.62 172.483 488.944 172.879 489.322 173.185C489.7 173.491 490.114 173.725 490.6 173.887C491.068 174.049 491.536 174.121 491.986 174.121C492.652 174.121 493.264 174.031 493.822 173.869C494.38 173.707 494.848 173.455 495.244 173.131C495.622 172.807 495.928 172.411 496.144 171.925C496.342 171.439 496.45 170.899 496.45 170.269C496.45 169.531 496.252 168.883 495.856 168.325C495.442 167.767 494.902 167.371 494.2 167.119C494.812 166.813 495.262 166.435 495.532 165.967C495.802 165.499 495.928 164.941 495.928 164.275C495.928 163.735 495.82 163.267 495.604 162.871C495.388 162.493 495.1 162.169 494.74 161.917C494.38 161.665 493.966 161.485 493.516 161.359C493.048 161.233 492.58 161.179 492.094 161.179C491.59 161.161 491.122 161.233 490.69 161.395C490.24 161.557 489.862 161.773 489.538 162.043C489.214 162.331 488.962 162.673 488.764 163.051C488.566 163.429 488.476 163.843 488.476 164.275C488.476 164.653 488.512 164.977 488.584 165.229C488.638 165.499 488.746 165.733 488.89 165.931C489.034 166.129 489.214 166.327 489.448 166.489C489.664 166.669 489.934 166.849 490.24 167.047ZM492.202 162.151C493.084 162.151 493.732 162.331 494.146 162.673C494.56 163.033 494.776 163.537 494.776 164.185C494.776 164.635 494.722 165.031 494.596 165.337C494.47 165.643 494.29 165.913 494.074 166.111C493.858 166.309 493.606 166.453 493.3 166.543C492.994 166.633 492.67 166.687 492.328 166.687C491.986 166.687 491.644 166.633 491.32 166.543C490.996 166.453 490.708 166.327 490.456 166.147C490.204 165.967 490.006 165.733 489.862 165.445C489.7 165.175 489.628 164.833 489.628 164.437C489.628 164.059 489.7 163.735 489.826 163.447C489.952 163.159 490.15 162.925 490.384 162.727C490.618 162.529 490.888 162.385 491.194 162.295C491.5 162.205 491.842 162.151 492.202 162.151ZM492.256 167.659C492.67 167.659 493.066 167.713 493.444 167.821C493.822 167.929 494.146 168.091 494.416 168.307C494.686 168.541 494.902 168.811 495.064 169.135C495.226 169.477 495.298 169.855 495.298 170.305C495.298 170.719 495.226 171.115 495.082 171.457C494.92 171.799 494.722 172.105 494.452 172.357C494.182 172.609 493.858 172.807 493.498 172.933C493.138 173.077 492.742 173.149 492.328 173.149C491.842 173.149 491.41 173.077 491.032 172.933C490.636 172.789 490.312 172.591 490.042 172.339C489.772 172.105 489.556 171.817 489.412 171.475C489.25 171.133 489.178 170.773 489.178 170.377C489.178 169.909 489.25 169.495 489.412 169.153C489.574 168.811 489.79 168.541 490.06 168.307C490.33 168.091 490.654 167.929 491.032 167.821C491.41 167.713 491.806 167.659 492.256 167.659ZM507.316 160.909H498.694V173.869H507.496V172.825H499.918V167.677H506.596V166.633H499.918V161.953H507.316V160.909ZM513.244 161.179C512.326 161.179 511.588 161.359 511.03 161.737C510.472 162.115 510.04 162.601 509.734 163.195C509.428 163.807 509.212 164.491 509.104 165.265C508.996 166.039 508.942 166.813 508.942 167.623C508.942 168.505 508.996 169.333 509.122 170.107C509.248 170.899 509.464 171.583 509.788 172.177C510.094 172.771 510.544 173.257 511.102 173.599C511.66 173.941 512.362 174.121 513.244 174.121C514.126 174.121 514.828 173.941 515.386 173.599C515.944 173.257 516.376 172.789 516.7 172.195C517.006 171.601 517.222 170.935 517.348 170.161C517.474 169.387 517.528 168.595 517.528 167.749C517.528 167.263 517.51 166.759 517.474 166.237C517.438 165.715 517.366 165.211 517.258 164.725C517.15 164.239 517.006 163.789 516.808 163.357C516.61 162.925 516.34 162.547 516.034 162.223C515.71 161.899 515.314 161.647 514.864 161.449C514.414 161.269 513.874 161.179 513.244 161.179ZM516.376 167.623C516.376 168.253 516.34 168.901 516.268 169.567C516.196 170.233 516.052 170.827 515.836 171.349C515.62 171.871 515.314 172.303 514.9 172.645C514.486 172.987 513.928 173.149 513.244 173.149C512.632 173.149 512.128 173.023 511.732 172.753C511.318 172.501 510.994 172.141 510.76 171.673C510.526 171.205 510.346 170.629 510.256 169.963C510.148 169.297 510.094 168.559 510.094 167.749C510.094 167.047 510.148 166.363 510.238 165.697C510.328 165.031 510.472 164.419 510.706 163.897C510.94 163.375 511.246 162.943 511.66 162.619C512.056 162.313 512.578 162.151 513.208 162.151C513.874 162.151 514.432 162.313 514.846 162.619C515.26 162.925 515.566 163.339 515.8 163.861C516.034 164.383 516.178 164.959 516.268 165.607C516.34 166.273 516.376 166.939 516.376 167.623ZM527.926 160.909H519.574V173.869H520.798V167.677H527.278V166.633H520.798V161.953H527.926V160.909ZM532.222 166.813V167.749C532.78 167.713 533.302 167.731 533.788 167.785C534.274 167.857 534.706 167.983 535.084 168.181C535.444 168.379 535.732 168.649 535.948 168.991C536.164 169.333 536.29 169.765 536.308 170.287C536.326 170.665 536.254 171.025 536.11 171.367C535.948 171.709 535.732 172.015 535.462 172.285C535.174 172.555 534.832 172.753 534.436 172.915C534.04 173.077 533.608 173.149 533.158 173.149C532.222 173.149 531.466 172.897 530.89 172.393C530.296 171.907 530.008 171.169 530.008 170.197H528.856C528.928 170.935 529.072 171.565 529.27 172.051C529.468 172.555 529.756 172.951 530.116 173.257C530.476 173.563 530.926 173.797 531.466 173.923C532.006 174.049 532.636 174.121 533.374 174.121C534.022 174.103 534.598 173.995 535.12 173.779C535.624 173.581 536.056 173.293 536.398 172.951C536.74 172.609 537.01 172.195 537.19 171.745C537.37 171.295 537.46 170.791 537.46 170.269C537.46 169.981 537.424 169.675 537.37 169.369C537.316 169.063 537.19 168.757 537.028 168.469C536.866 168.199 536.632 167.929 536.344 167.695C536.038 167.461 535.66 167.281 535.21 167.137C535.822 166.867 536.272 166.507 536.578 166.021C536.866 165.535 537.01 164.977 537.01 164.311C537.01 163.789 536.92 163.321 536.722 162.925C536.524 162.529 536.272 162.205 535.948 161.935C535.624 161.683 535.246 161.485 534.814 161.359C534.364 161.233 533.896 161.179 533.392 161.179C532.87 161.179 532.348 161.233 531.862 161.323C531.358 161.431 530.908 161.665 530.512 162.025C530.098 162.421 529.792 162.853 529.594 163.303C529.396 163.771 529.288 164.293 529.288 164.869H530.44C530.44 164.473 530.512 164.113 530.638 163.771C530.764 163.447 530.962 163.159 531.196 162.907C531.43 162.673 531.718 162.475 532.06 162.349C532.384 162.223 532.744 162.151 533.158 162.151C533.518 162.151 533.86 162.187 534.202 162.277C534.526 162.367 534.814 162.493 535.066 162.673C535.3 162.853 535.498 163.087 535.642 163.357C535.786 163.645 535.858 163.987 535.858 164.383C535.858 164.869 535.768 165.283 535.588 165.589C535.408 165.895 535.156 166.147 534.85 166.327C534.526 166.525 534.148 166.651 533.698 166.705C533.248 166.777 532.762 166.813 532.222 166.813Z" fill="#042245"/>
</svg>
