<svg width="1116" height="113" viewBox="0 0 1116 113" fill="none" xmlns="http://www.w3.org/2000/svg">
<rect x="0.910156" y="0.675781" width="314.348" height="112" fill="#0081B9"/>
<rect x="254.217" y="0.675781" width="262.203" height="112" fill="#FE9041"/>
<rect x="516.92" y="1.17578" width="325.937" height="111" fill="white" stroke="#A9A9A9"/>
<rect x="764.559" y="0.675781" width="140.324" height="112" fill="#083B4A"/>
<rect x="904.882" y="0.675781" width="70.1645" height="112" fill="#A9A9A9"/>
<rect x="975.359" y="0.675781" width="70.1645" height="112" fill="#EAEAEA"/>
<rect x="1045.84" y="0.675781" width="70.1645" height="112" fill="#1591FD"/>
<rect x="1045.84" y="0.675781" width="70.1645" height="112" fill="#EA5252"/>
<path d="M113.404 54.1438C113.404 53.5198 113.5 52.9558 113.692 52.4518C113.884 51.9358 114.16 51.4978 114.52 51.1378C114.88 50.7658 115.312 50.4838 115.816 50.2918C116.332 50.0878 116.902 49.9858 117.526 49.9858C118.162 49.9858 118.72 50.0818 119.2 50.2738C119.692 50.4538 120.1 50.6998 120.424 51.0118C120.76 51.3238 121.012 51.6958 121.18 52.1278C121.348 52.5598 121.432 53.0158 121.432 53.4958C121.432 54.0598 121.336 54.5578 121.144 54.9898C120.964 55.4218 120.718 55.8058 120.406 56.1418C120.106 56.4778 119.758 56.7778 119.362 57.0418C118.978 57.3058 118.582 57.5578 118.174 57.7978C117.766 58.0258 117.364 58.2478 116.968 58.4638C116.572 58.6798 116.218 58.9078 115.906 59.1478C115.702 59.3038 115.504 59.4718 115.312 59.6518C115.12 59.8198 114.946 60.0058 114.79 60.2098C114.634 60.4138 114.508 60.6418 114.412 60.8938C114.316 61.1338 114.262 61.4038 114.25 61.7038H121.324V62.6758H113.026C113.038 62.0638 113.104 61.5118 113.224 61.0198C113.344 60.5278 113.608 60.0478 114.016 59.5798C114.46 59.0758 114.916 58.6438 115.384 58.2838C115.864 57.9238 116.332 57.6058 116.788 57.3298C117.244 57.0418 117.676 56.7838 118.084 56.5558C118.492 56.3158 118.852 56.0578 119.164 55.7818C119.476 55.5058 119.722 55.1938 119.902 54.8458C120.082 54.4978 120.172 54.0718 120.172 53.5678C120.172 53.1598 120.1 52.7938 119.956 52.4698C119.812 52.1458 119.614 51.8698 119.362 51.6418C119.11 51.4138 118.816 51.2458 118.48 51.1378C118.144 51.0178 117.778 50.9578 117.382 50.9578C116.962 50.9578 116.578 51.0478 116.23 51.2278C115.894 51.3958 115.6 51.6238 115.348 51.9118C115.108 52.1998 114.922 52.5358 114.79 52.9198C114.658 53.3038 114.604 53.7118 114.628 54.1438H113.404ZM123.946 59.3818C124.066 60.2458 124.408 60.8938 124.972 61.3258C125.548 61.7458 126.25 61.9558 127.078 61.9558C127.546 61.9558 127.966 61.8718 128.338 61.7038C128.722 61.5358 129.046 61.3078 129.31 61.0198C129.574 60.7198 129.772 60.3778 129.904 59.9938C130.048 59.5978 130.12 59.1718 130.12 58.7158C130.12 58.2478 130.042 57.8158 129.886 57.4198C129.742 57.0238 129.532 56.6818 129.256 56.3938C128.992 56.1058 128.662 55.8838 128.266 55.7278C127.882 55.5718 127.45 55.4938 126.97 55.4938C126.394 55.4938 125.878 55.6018 125.422 55.8178C124.966 56.0218 124.564 56.3518 124.216 56.8078L123.262 56.6818L124.288 50.1118H130.588V51.0838H125.26L124.468 55.3498C124.72 55.1938 124.948 55.0618 125.152 54.9538C125.368 54.8458 125.584 54.7618 125.8 54.7018C126.016 54.6298 126.238 54.5818 126.466 54.5578C126.706 54.5338 126.97 54.5218 127.258 54.5218C127.834 54.5218 128.368 54.6178 128.86 54.8098C129.352 55.0018 129.778 55.2778 130.138 55.6378C130.498 55.9978 130.774 56.4418 130.966 56.9698C131.17 57.4858 131.272 58.0678 131.272 58.7158C131.272 59.3878 131.158 59.9878 130.93 60.5158C130.714 61.0318 130.42 61.4698 130.048 61.8298C129.676 62.1898 129.244 62.4658 128.752 62.6578C128.272 62.8378 127.774 62.9278 127.258 62.9278C126.658 62.9278 126.094 62.8678 125.566 62.7478C125.05 62.6278 124.594 62.4298 124.198 62.1538C123.802 61.8658 123.478 61.4998 123.226 61.0558C122.986 60.5998 122.842 60.0418 122.794 59.3818H123.946ZM144.01 56.7178C144.418 56.7178 144.802 56.7958 145.162 56.9518C145.522 57.1078 145.834 57.3238 146.098 57.5998C146.362 57.8638 146.566 58.1758 146.71 58.5358C146.866 58.8958 146.944 59.2798 146.944 59.6878C146.944 60.0958 146.866 60.4858 146.71 60.8578C146.566 61.2178 146.362 61.5358 146.098 61.8118C145.834 62.0758 145.522 62.2858 145.162 62.4418C144.802 62.5978 144.418 62.6758 144.01 62.6758C143.602 62.6758 143.212 62.5978 142.84 62.4418C142.48 62.2858 142.162 62.0758 141.886 61.8118C141.622 61.5358 141.412 61.2178 141.256 60.8578C141.1 60.4858 141.022 60.0958 141.022 59.6878C141.022 59.2798 141.1 58.8958 141.256 58.5358C141.424 58.1758 141.64 57.8638 141.904 57.5998C142.18 57.3238 142.498 57.1078 142.858 56.9518C143.218 56.7958 143.602 56.7178 144.01 56.7178ZM143.992 57.7438C143.716 57.7438 143.458 57.7978 143.218 57.9058C142.99 58.0138 142.786 58.1578 142.606 58.3378C142.438 58.5178 142.3 58.7278 142.192 58.9678C142.096 59.2078 142.048 59.4598 142.048 59.7238C142.048 59.9758 142.102 60.2218 142.21 60.4618C142.318 60.6898 142.462 60.8938 142.642 61.0738C142.822 61.2538 143.026 61.3978 143.254 61.5058C143.494 61.6018 143.74 61.6498 143.992 61.6498C144.256 61.6498 144.502 61.5958 144.73 61.4878C144.97 61.3798 145.174 61.2358 145.342 61.0558C145.522 60.8758 145.66 60.6718 145.756 60.4438C145.864 60.2038 145.918 59.9518 145.918 59.6878C145.918 59.4238 145.864 59.1778 145.756 58.9498C145.66 58.7098 145.522 58.4998 145.342 58.3198C145.174 58.1398 144.97 58.0018 144.73 57.9058C144.502 57.7978 144.256 57.7438 143.992 57.7438ZM139.33 53.0998C139.33 53.5078 139.252 53.8918 139.096 54.2518C138.94 54.6118 138.724 54.9298 138.448 55.2058C138.184 55.4698 137.866 55.6798 137.494 55.8358C137.134 55.9918 136.75 56.0698 136.342 56.0698C135.934 56.0698 135.55 55.9918 135.19 55.8358C134.83 55.6798 134.512 55.4698 134.236 55.2058C133.972 54.9298 133.762 54.6118 133.606 54.2518C133.45 53.8918 133.372 53.5078 133.372 53.0998C133.372 52.6918 133.45 52.3078 133.606 51.9478C133.762 51.5878 133.972 51.2758 134.236 51.0118C134.512 50.7358 134.83 50.5198 135.19 50.3638C135.55 50.1958 135.934 50.1118 136.342 50.1118C136.75 50.1118 137.134 50.1898 137.494 50.3458C137.866 50.5018 138.184 50.7178 138.448 50.9938C138.724 51.2578 138.94 51.5758 139.096 51.9478C139.252 52.3078 139.33 52.6918 139.33 53.0998ZM136.342 55.0438C136.606 55.0438 136.852 54.9958 137.08 54.8998C137.32 54.7918 137.53 54.6478 137.71 54.4678C137.89 54.2878 138.034 54.0838 138.142 53.8558C138.25 53.6158 138.304 53.3638 138.304 53.0998C138.304 52.8358 138.25 52.5898 138.142 52.3618C138.046 52.1218 137.908 51.9118 137.728 51.7318C137.548 51.5518 137.338 51.4078 137.098 51.2998C136.858 51.1918 136.606 51.1378 136.342 51.1378C136.078 51.1378 135.826 51.1918 135.586 51.2998C135.358 51.3958 135.154 51.5338 134.974 51.7138C134.794 51.8938 134.65 52.1038 134.542 52.3438C134.446 52.5838 134.398 52.8358 134.398 53.0998C134.398 53.3638 134.446 53.6158 134.542 53.8558C134.65 54.0838 134.794 54.2878 134.974 54.4678C135.154 54.6478 135.358 54.7918 135.586 54.8998C135.826 54.9958 136.078 55.0438 136.342 55.0438ZM137.044 62.9278H136.108L143.254 49.9858H144.19L137.044 62.9278Z" fill="#083B4A"/>
<path d="M368.438 54.1438C368.438 53.5198 368.534 52.9558 368.726 52.4518C368.918 51.9358 369.194 51.4978 369.554 51.1378C369.914 50.7658 370.346 50.4838 370.85 50.2918C371.366 50.0878 371.936 49.9858 372.56 49.9858C373.196 49.9858 373.754 50.0818 374.234 50.2738C374.726 50.4538 375.134 50.6998 375.458 51.0118C375.794 51.3238 376.046 51.6958 376.214 52.1278C376.382 52.5598 376.466 53.0158 376.466 53.4958C376.466 54.0598 376.37 54.5578 376.178 54.9898C375.998 55.4218 375.752 55.8058 375.44 56.1418C375.14 56.4778 374.792 56.7778 374.396 57.0418C374.012 57.3058 373.616 57.5578 373.208 57.7978C372.8 58.0258 372.398 58.2478 372.002 58.4638C371.606 58.6798 371.252 58.9078 370.94 59.1478C370.736 59.3038 370.538 59.4718 370.346 59.6518C370.154 59.8198 369.98 60.0058 369.824 60.2098C369.668 60.4138 369.542 60.6418 369.446 60.8938C369.35 61.1338 369.296 61.4038 369.284 61.7038H376.358V62.6758H368.06C368.072 62.0638 368.138 61.5118 368.258 61.0198C368.378 60.5278 368.642 60.0478 369.05 59.5798C369.494 59.0758 369.95 58.6438 370.418 58.2838C370.898 57.9238 371.366 57.6058 371.822 57.3298C372.278 57.0418 372.71 56.7838 373.118 56.5558C373.526 56.3158 373.886 56.0578 374.198 55.7818C374.51 55.5058 374.756 55.1938 374.936 54.8458C375.116 54.4978 375.206 54.0718 375.206 53.5678C375.206 53.1598 375.134 52.7938 374.99 52.4698C374.846 52.1458 374.648 51.8698 374.396 51.6418C374.144 51.4138 373.85 51.2458 373.514 51.1378C373.178 51.0178 372.812 50.9578 372.416 50.9578C371.996 50.9578 371.612 51.0478 371.264 51.2278C370.928 51.3958 370.634 51.6238 370.382 51.9118C370.142 52.1998 369.956 52.5358 369.824 52.9198C369.692 53.3038 369.638 53.7118 369.662 54.1438H368.438ZM378.98 59.3818C379.1 60.2458 379.442 60.8938 380.006 61.3258C380.582 61.7458 381.284 61.9558 382.112 61.9558C382.58 61.9558 383 61.8718 383.372 61.7038C383.756 61.5358 384.08 61.3078 384.344 61.0198C384.608 60.7198 384.806 60.3778 384.938 59.9938C385.082 59.5978 385.154 59.1718 385.154 58.7158C385.154 58.2478 385.076 57.8158 384.92 57.4198C384.776 57.0238 384.566 56.6818 384.29 56.3938C384.026 56.1058 383.696 55.8838 383.3 55.7278C382.916 55.5718 382.484 55.4938 382.004 55.4938C381.428 55.4938 380.912 55.6018 380.456 55.8178C380 56.0218 379.598 56.3518 379.25 56.8078L378.296 56.6818L379.322 50.1118H385.622V51.0838H380.294L379.502 55.3498C379.754 55.1938 379.982 55.0618 380.186 54.9538C380.402 54.8458 380.618 54.7618 380.834 54.7018C381.05 54.6298 381.272 54.5818 381.5 54.5578C381.74 54.5338 382.004 54.5218 382.292 54.5218C382.868 54.5218 383.402 54.6178 383.894 54.8098C384.386 55.0018 384.812 55.2778 385.172 55.6378C385.532 55.9978 385.808 56.4418 386 56.9698C386.204 57.4858 386.306 58.0678 386.306 58.7158C386.306 59.3878 386.192 59.9878 385.964 60.5158C385.748 61.0318 385.454 61.4698 385.082 61.8298C384.71 62.1898 384.278 62.4658 383.786 62.6578C383.306 62.8378 382.808 62.9278 382.292 62.9278C381.692 62.9278 381.128 62.8678 380.6 62.7478C380.084 62.6278 379.628 62.4298 379.232 62.1538C378.836 61.8658 378.512 61.4998 378.26 61.0558C378.02 60.5998 377.876 60.0418 377.828 59.3818H378.98ZM399.044 56.7178C399.452 56.7178 399.836 56.7958 400.196 56.9518C400.556 57.1078 400.868 57.3238 401.132 57.5998C401.396 57.8638 401.6 58.1758 401.744 58.5358C401.9 58.8958 401.978 59.2798 401.978 59.6878C401.978 60.0958 401.9 60.4858 401.744 60.8578C401.6 61.2178 401.396 61.5358 401.132 61.8118C400.868 62.0758 400.556 62.2858 400.196 62.4418C399.836 62.5978 399.452 62.6758 399.044 62.6758C398.636 62.6758 398.246 62.5978 397.874 62.4418C397.514 62.2858 397.196 62.0758 396.92 61.8118C396.656 61.5358 396.446 61.2178 396.29 60.8578C396.134 60.4858 396.056 60.0958 396.056 59.6878C396.056 59.2798 396.134 58.8958 396.29 58.5358C396.458 58.1758 396.674 57.8638 396.938 57.5998C397.214 57.3238 397.532 57.1078 397.892 56.9518C398.252 56.7958 398.636 56.7178 399.044 56.7178ZM399.026 57.7438C398.75 57.7438 398.492 57.7978 398.252 57.9058C398.024 58.0138 397.82 58.1578 397.64 58.3378C397.472 58.5178 397.334 58.7278 397.226 58.9678C397.13 59.2078 397.082 59.4598 397.082 59.7238C397.082 59.9758 397.136 60.2218 397.244 60.4618C397.352 60.6898 397.496 60.8938 397.676 61.0738C397.856 61.2538 398.06 61.3978 398.288 61.5058C398.528 61.6018 398.774 61.6498 399.026 61.6498C399.29 61.6498 399.536 61.5958 399.764 61.4878C400.004 61.3798 400.208 61.2358 400.376 61.0558C400.556 60.8758 400.694 60.6718 400.79 60.4438C400.898 60.2038 400.952 59.9518 400.952 59.6878C400.952 59.4238 400.898 59.1778 400.79 58.9498C400.694 58.7098 400.556 58.4998 400.376 58.3198C400.208 58.1398 400.004 58.0018 399.764 57.9058C399.536 57.7978 399.29 57.7438 399.026 57.7438ZM394.364 53.0998C394.364 53.5078 394.286 53.8918 394.13 54.2518C393.974 54.6118 393.758 54.9298 393.482 55.2058C393.218 55.4698 392.9 55.6798 392.528 55.8358C392.168 55.9918 391.784 56.0698 391.376 56.0698C390.968 56.0698 390.584 55.9918 390.224 55.8358C389.864 55.6798 389.546 55.4698 389.27 55.2058C389.006 54.9298 388.796 54.6118 388.64 54.2518C388.484 53.8918 388.406 53.5078 388.406 53.0998C388.406 52.6918 388.484 52.3078 388.64 51.9478C388.796 51.5878 389.006 51.2758 389.27 51.0118C389.546 50.7358 389.864 50.5198 390.224 50.3638C390.584 50.1958 390.968 50.1118 391.376 50.1118C391.784 50.1118 392.168 50.1898 392.528 50.3458C392.9 50.5018 393.218 50.7178 393.482 50.9938C393.758 51.2578 393.974 51.5758 394.13 51.9478C394.286 52.3078 394.364 52.6918 394.364 53.0998ZM391.376 55.0438C391.64 55.0438 391.886 54.9958 392.114 54.8998C392.354 54.7918 392.564 54.6478 392.744 54.4678C392.924 54.2878 393.068 54.0838 393.176 53.8558C393.284 53.6158 393.338 53.3638 393.338 53.0998C393.338 52.8358 393.284 52.5898 393.176 52.3618C393.08 52.1218 392.942 51.9118 392.762 51.7318C392.582 51.5518 392.372 51.4078 392.132 51.2998C391.892 51.1918 391.64 51.1378 391.376 51.1378C391.112 51.1378 390.86 51.1918 390.62 51.2998C390.392 51.3958 390.188 51.5338 390.008 51.7138C389.828 51.8938 389.684 52.1038 389.576 52.3438C389.48 52.5838 389.432 52.8358 389.432 53.0998C389.432 53.3638 389.48 53.6158 389.576 53.8558C389.684 54.0838 389.828 54.2878 390.008 54.4678C390.188 54.6478 390.392 54.7918 390.62 54.8998C390.86 54.9958 391.112 55.0438 391.376 55.0438ZM392.078 62.9278H391.142L398.288 49.9858H399.224L392.078 62.9278Z" fill="#083B4A"/>
<path d="M999.291 59.3818C999.411 60.2458 999.753 60.8938 1000.32 61.3258C1000.89 61.7458 1001.59 61.9558 1002.42 61.9558C1002.89 61.9558 1003.31 61.8718 1003.68 61.7038C1004.07 61.5358 1004.39 61.3078 1004.65 61.0198C1004.92 60.7198 1005.12 60.3778 1005.25 59.9938C1005.39 59.5978 1005.46 59.1718 1005.46 58.7158C1005.46 58.2478 1005.39 57.8158 1005.23 57.4198C1005.09 57.0238 1004.88 56.6818 1004.6 56.3938C1004.34 56.1058 1004.01 55.8838 1003.61 55.7278C1003.23 55.5718 1002.79 55.4938 1002.31 55.4938C1001.74 55.4938 1001.22 55.6018 1000.77 55.8178C1000.31 56.0218 999.909 56.3518 999.561 56.8078L998.607 56.6818L999.633 50.1118H1005.93V51.0838H1000.6L999.813 55.3498C1000.06 55.1938 1000.29 55.0618 1000.5 54.9538C1000.71 54.8458 1000.93 54.7618 1001.14 54.7018C1001.36 54.6298 1001.58 54.5818 1001.81 54.5578C1002.05 54.5338 1002.31 54.5218 1002.6 54.5218C1003.18 54.5218 1003.71 54.6178 1004.2 54.8098C1004.7 55.0018 1005.12 55.2778 1005.48 55.6378C1005.84 55.9978 1006.12 56.4418 1006.31 56.9698C1006.51 57.4858 1006.62 58.0678 1006.62 58.7158C1006.62 59.3878 1006.5 59.9878 1006.27 60.5158C1006.06 61.0318 1005.76 61.4698 1005.39 61.8298C1005.02 62.1898 1004.59 62.4658 1004.1 62.6578C1003.62 62.8378 1003.12 62.9278 1002.6 62.9278C1002 62.9278 1001.44 62.8678 1000.91 62.7478C1000.39 62.6278 999.939 62.4298 999.543 62.1538C999.147 61.8658 998.823 61.4998 998.571 61.0558C998.331 60.5998 998.187 60.0418 998.139 59.3818H999.291ZM1019.35 56.7178C1019.76 56.7178 1020.15 56.7958 1020.51 56.9518C1020.87 57.1078 1021.18 57.3238 1021.44 57.5998C1021.71 57.8638 1021.91 58.1758 1022.05 58.5358C1022.21 58.8958 1022.29 59.2798 1022.29 59.6878C1022.29 60.0958 1022.21 60.4858 1022.05 60.8578C1021.91 61.2178 1021.71 61.5358 1021.44 61.8118C1021.18 62.0758 1020.87 62.2858 1020.51 62.4418C1020.15 62.5978 1019.76 62.6758 1019.35 62.6758C1018.95 62.6758 1018.56 62.5978 1018.18 62.4418C1017.82 62.2858 1017.51 62.0758 1017.23 61.8118C1016.97 61.5358 1016.76 61.2178 1016.6 60.8578C1016.44 60.4858 1016.37 60.0958 1016.37 59.6878C1016.37 59.2798 1016.44 58.8958 1016.6 58.5358C1016.77 58.1758 1016.98 57.8638 1017.25 57.5998C1017.52 57.3238 1017.84 57.1078 1018.2 56.9518C1018.56 56.7958 1018.95 56.7178 1019.35 56.7178ZM1019.34 57.7438C1019.06 57.7438 1018.8 57.7978 1018.56 57.9058C1018.33 58.0138 1018.13 58.1578 1017.95 58.3378C1017.78 58.5178 1017.64 58.7278 1017.54 58.9678C1017.44 59.2078 1017.39 59.4598 1017.39 59.7238C1017.39 59.9758 1017.45 60.2218 1017.55 60.4618C1017.66 60.6898 1017.81 60.8938 1017.99 61.0738C1018.17 61.2538 1018.37 61.3978 1018.6 61.5058C1018.84 61.6018 1019.08 61.6498 1019.34 61.6498C1019.6 61.6498 1019.85 61.5958 1020.07 61.4878C1020.31 61.3798 1020.52 61.2358 1020.69 61.0558C1020.87 60.8758 1021 60.6718 1021.1 60.4438C1021.21 60.2038 1021.26 59.9518 1021.26 59.6878C1021.26 59.4238 1021.21 59.1778 1021.1 58.9498C1021 58.7098 1020.87 58.4998 1020.69 58.3198C1020.52 58.1398 1020.31 58.0018 1020.07 57.9058C1019.85 57.7978 1019.6 57.7438 1019.34 57.7438ZM1014.67 53.0998C1014.67 53.5078 1014.6 53.8918 1014.44 54.2518C1014.28 54.6118 1014.07 54.9298 1013.79 55.2058C1013.53 55.4698 1013.21 55.6798 1012.84 55.8358C1012.48 55.9918 1012.09 56.0698 1011.69 56.0698C1011.28 56.0698 1010.89 55.9918 1010.53 55.8358C1010.17 55.6798 1009.86 55.4698 1009.58 55.2058C1009.32 54.9298 1009.11 54.6118 1008.95 54.2518C1008.79 53.8918 1008.72 53.5078 1008.72 53.0998C1008.72 52.6918 1008.79 52.3078 1008.95 51.9478C1009.11 51.5878 1009.32 51.2758 1009.58 51.0118C1009.86 50.7358 1010.17 50.5198 1010.53 50.3638C1010.89 50.1958 1011.28 50.1118 1011.69 50.1118C1012.09 50.1118 1012.48 50.1898 1012.84 50.3458C1013.21 50.5018 1013.53 50.7178 1013.79 50.9938C1014.07 51.2578 1014.28 51.5758 1014.44 51.9478C1014.6 52.3078 1014.67 52.6918 1014.67 53.0998ZM1011.69 55.0438C1011.95 55.0438 1012.2 54.9958 1012.42 54.8998C1012.66 54.7918 1012.87 54.6478 1013.05 54.4678C1013.23 54.2878 1013.38 54.0838 1013.49 53.8558C1013.59 53.6158 1013.65 53.3638 1013.65 53.0998C1013.65 52.8358 1013.59 52.5898 1013.49 52.3618C1013.39 52.1218 1013.25 51.9118 1013.07 51.7318C1012.89 51.5518 1012.68 51.4078 1012.44 51.2998C1012.2 51.1918 1011.95 51.1378 1011.69 51.1378C1011.42 51.1378 1011.17 51.1918 1010.93 51.2998C1010.7 51.3958 1010.5 51.5338 1010.32 51.7138C1010.14 51.8938 1009.99 52.1038 1009.89 52.3438C1009.79 52.5838 1009.74 52.8358 1009.74 53.0998C1009.74 53.3638 1009.79 53.6158 1009.89 53.8558C1009.99 54.0838 1010.14 54.2878 1010.32 54.4678C1010.5 54.6478 1010.7 54.7918 1010.93 54.8998C1011.17 54.9958 1011.42 55.0438 1011.69 55.0438ZM1012.39 62.9278H1011.45L1018.6 49.9858H1019.53L1012.39 62.9278Z" fill="black"/>
<path d="M1069.77 59.3818C1069.89 60.2458 1070.23 60.8938 1070.79 61.3258C1071.37 61.7458 1072.07 61.9558 1072.9 61.9558C1073.37 61.9558 1073.79 61.8718 1074.16 61.7038C1074.54 61.5358 1074.87 61.3078 1075.13 61.0198C1075.4 60.7198 1075.59 60.3778 1075.73 59.9938C1075.87 59.5978 1075.94 59.1718 1075.94 58.7158C1075.94 58.2478 1075.86 57.8158 1075.71 57.4198C1075.56 57.0238 1075.35 56.6818 1075.08 56.3938C1074.81 56.1058 1074.48 55.8838 1074.09 55.7278C1073.7 55.5718 1073.27 55.4938 1072.79 55.4938C1072.22 55.4938 1071.7 55.6018 1071.24 55.8178C1070.79 56.0218 1070.39 56.3518 1070.04 56.8078L1069.08 56.6818L1070.11 50.1118H1076.41V51.0838H1071.08L1070.29 55.3498C1070.54 55.1938 1070.77 55.0618 1070.97 54.9538C1071.19 54.8458 1071.41 54.7618 1071.62 54.7018C1071.84 54.6298 1072.06 54.5818 1072.29 54.5578C1072.53 54.5338 1072.79 54.5218 1073.08 54.5218C1073.66 54.5218 1074.19 54.6178 1074.68 54.8098C1075.17 55.0018 1075.6 55.2778 1075.96 55.6378C1076.32 55.9978 1076.6 56.4418 1076.79 56.9698C1076.99 57.4858 1077.09 58.0678 1077.09 58.7158C1077.09 59.3878 1076.98 59.9878 1076.75 60.5158C1076.54 61.0318 1076.24 61.4698 1075.87 61.8298C1075.5 62.1898 1075.07 62.4658 1074.57 62.6578C1074.09 62.8378 1073.6 62.9278 1073.08 62.9278C1072.48 62.9278 1071.92 62.8678 1071.39 62.7478C1070.87 62.6278 1070.42 62.4298 1070.02 62.1538C1069.62 61.8658 1069.3 61.4998 1069.05 61.0558C1068.81 60.5998 1068.66 60.0418 1068.62 59.3818H1069.77ZM1089.83 56.7178C1090.24 56.7178 1090.62 56.7958 1090.98 56.9518C1091.34 57.1078 1091.66 57.3238 1091.92 57.5998C1092.18 57.8638 1092.39 58.1758 1092.53 58.5358C1092.69 58.8958 1092.77 59.2798 1092.77 59.6878C1092.77 60.0958 1092.69 60.4858 1092.53 60.8578C1092.39 61.2178 1092.18 61.5358 1091.92 61.8118C1091.66 62.0758 1091.34 62.2858 1090.98 62.4418C1090.62 62.5978 1090.24 62.6758 1089.83 62.6758C1089.42 62.6758 1089.03 62.5978 1088.66 62.4418C1088.3 62.2858 1087.98 62.0758 1087.71 61.8118C1087.44 61.5358 1087.23 61.2178 1087.08 60.8578C1086.92 60.4858 1086.84 60.0958 1086.84 59.6878C1086.84 59.2798 1086.92 58.8958 1087.08 58.5358C1087.25 58.1758 1087.46 57.8638 1087.73 57.5998C1088 57.3238 1088.32 57.1078 1088.68 56.9518C1089.04 56.7958 1089.42 56.7178 1089.83 56.7178ZM1089.81 57.7438C1089.54 57.7438 1089.28 57.7978 1089.04 57.9058C1088.81 58.0138 1088.61 58.1578 1088.43 58.3378C1088.26 58.5178 1088.12 58.7278 1088.01 58.9678C1087.92 59.2078 1087.87 59.4598 1087.87 59.7238C1087.87 59.9758 1087.92 60.2218 1088.03 60.4618C1088.14 60.6898 1088.28 60.8938 1088.46 61.0738C1088.64 61.2538 1088.85 61.3978 1089.08 61.5058C1089.32 61.6018 1089.56 61.6498 1089.81 61.6498C1090.08 61.6498 1090.32 61.5958 1090.55 61.4878C1090.79 61.3798 1091 61.2358 1091.16 61.0558C1091.34 60.8758 1091.48 60.6718 1091.58 60.4438C1091.69 60.2038 1091.74 59.9518 1091.74 59.6878C1091.74 59.4238 1091.69 59.1778 1091.58 58.9498C1091.48 58.7098 1091.34 58.4998 1091.16 58.3198C1091 58.1398 1090.79 58.0018 1090.55 57.9058C1090.32 57.7978 1090.08 57.7438 1089.81 57.7438ZM1085.15 53.0998C1085.15 53.5078 1085.07 53.8918 1084.92 54.2518C1084.76 54.6118 1084.55 54.9298 1084.27 55.2058C1084.01 55.4698 1083.69 55.6798 1083.32 55.8358C1082.96 55.9918 1082.57 56.0698 1082.16 56.0698C1081.76 56.0698 1081.37 55.9918 1081.01 55.8358C1080.65 55.6798 1080.33 55.4698 1080.06 55.2058C1079.79 54.9298 1079.58 54.6118 1079.43 54.2518C1079.27 53.8918 1079.19 53.5078 1079.19 53.0998C1079.19 52.6918 1079.27 52.3078 1079.43 51.9478C1079.58 51.5878 1079.79 51.2758 1080.06 51.0118C1080.33 50.7358 1080.65 50.5198 1081.01 50.3638C1081.37 50.1958 1081.76 50.1118 1082.16 50.1118C1082.57 50.1118 1082.96 50.1898 1083.32 50.3458C1083.69 50.5018 1084.01 50.7178 1084.27 50.9938C1084.55 51.2578 1084.76 51.5758 1084.92 51.9478C1085.07 52.3078 1085.15 52.6918 1085.15 53.0998ZM1082.16 55.0438C1082.43 55.0438 1082.67 54.9958 1082.9 54.8998C1083.14 54.7918 1083.35 54.6478 1083.53 54.4678C1083.71 54.2878 1083.86 54.0838 1083.96 53.8558C1084.07 53.6158 1084.13 53.3638 1084.13 53.0998C1084.13 52.8358 1084.07 52.5898 1083.96 52.3618C1083.87 52.1218 1083.73 51.9118 1083.55 51.7318C1083.37 51.5518 1083.16 51.4078 1082.92 51.2998C1082.68 51.1918 1082.43 51.1378 1082.16 51.1378C1081.9 51.1378 1081.65 51.1918 1081.41 51.2998C1081.18 51.3958 1080.98 51.5338 1080.8 51.7138C1080.62 51.8938 1080.47 52.1038 1080.36 52.3438C1080.27 52.5838 1080.22 52.8358 1080.22 53.0998C1080.22 53.3638 1080.27 53.6158 1080.36 53.8558C1080.47 54.0838 1080.62 54.2878 1080.8 54.4678C1080.98 54.6478 1081.18 54.7918 1081.41 54.8998C1081.65 54.9958 1081.9 55.0438 1082.16 55.0438ZM1082.87 62.9278H1081.93L1089.08 49.9858H1090.01L1082.87 62.9278Z" fill="black"/>
<path d="M628.43 54.1438C628.43 53.5198 628.526 52.9558 628.718 52.4518C628.91 51.9358 629.186 51.4978 629.546 51.1378C629.906 50.7658 630.338 50.4838 630.842 50.2918C631.358 50.0878 631.928 49.9858 632.552 49.9858C633.188 49.9858 633.746 50.0818 634.226 50.2738C634.718 50.4538 635.126 50.6998 635.45 51.0118C635.786 51.3238 636.038 51.6958 636.206 52.1278C636.374 52.5598 636.458 53.0158 636.458 53.4958C636.458 54.0598 636.362 54.5578 636.17 54.9898C635.99 55.4218 635.744 55.8058 635.432 56.1418C635.132 56.4778 634.784 56.7778 634.388 57.0418C634.004 57.3058 633.608 57.5578 633.2 57.7978C632.792 58.0258 632.39 58.2478 631.994 58.4638C631.598 58.6798 631.244 58.9078 630.932 59.1478C630.728 59.3038 630.53 59.4718 630.338 59.6518C630.146 59.8198 629.972 60.0058 629.816 60.2098C629.66 60.4138 629.534 60.6418 629.438 60.8938C629.342 61.1338 629.288 61.4038 629.276 61.7038H636.35V62.6758H628.052C628.064 62.0638 628.13 61.5118 628.25 61.0198C628.37 60.5278 628.634 60.0478 629.042 59.5798C629.486 59.0758 629.942 58.6438 630.41 58.2838C630.89 57.9238 631.358 57.6058 631.814 57.3298C632.27 57.0418 632.702 56.7838 633.11 56.5558C633.518 56.3158 633.878 56.0578 634.19 55.7818C634.502 55.5058 634.748 55.1938 634.928 54.8458C635.108 54.4978 635.198 54.0718 635.198 53.5678C635.198 53.1598 635.126 52.7938 634.982 52.4698C634.838 52.1458 634.64 51.8698 634.388 51.6418C634.136 51.4138 633.842 51.2458 633.506 51.1378C633.17 51.0178 632.804 50.9578 632.408 50.9578C631.988 50.9578 631.604 51.0478 631.256 51.2278C630.92 51.3958 630.626 51.6238 630.374 51.9118C630.134 52.1998 629.948 52.5358 629.816 52.9198C629.684 53.3038 629.63 53.7118 629.654 54.1438H628.43ZM638.972 59.3818C639.092 60.2458 639.434 60.8938 639.998 61.3258C640.574 61.7458 641.276 61.9558 642.104 61.9558C642.572 61.9558 642.992 61.8718 643.364 61.7038C643.748 61.5358 644.072 61.3078 644.336 61.0198C644.6 60.7198 644.798 60.3778 644.93 59.9938C645.074 59.5978 645.146 59.1718 645.146 58.7158C645.146 58.2478 645.068 57.8158 644.912 57.4198C644.768 57.0238 644.558 56.6818 644.282 56.3938C644.018 56.1058 643.688 55.8838 643.292 55.7278C642.908 55.5718 642.476 55.4938 641.996 55.4938C641.42 55.4938 640.904 55.6018 640.448 55.8178C639.992 56.0218 639.59 56.3518 639.242 56.8078L638.288 56.6818L639.314 50.1118H645.614V51.0838H640.286L639.494 55.3498C639.746 55.1938 639.974 55.0618 640.178 54.9538C640.394 54.8458 640.61 54.7618 640.826 54.7018C641.042 54.6298 641.264 54.5818 641.492 54.5578C641.732 54.5338 641.996 54.5218 642.284 54.5218C642.86 54.5218 643.394 54.6178 643.886 54.8098C644.378 55.0018 644.804 55.2778 645.164 55.6378C645.524 55.9978 645.8 56.4418 645.992 56.9698C646.196 57.4858 646.298 58.0678 646.298 58.7158C646.298 59.3878 646.184 59.9878 645.956 60.5158C645.74 61.0318 645.446 61.4698 645.074 61.8298C644.702 62.1898 644.27 62.4658 643.778 62.6578C643.298 62.8378 642.8 62.9278 642.284 62.9278C641.684 62.9278 641.12 62.8678 640.592 62.7478C640.076 62.6278 639.62 62.4298 639.224 62.1538C638.828 61.8658 638.504 61.4998 638.252 61.0558C638.012 60.5998 637.868 60.0418 637.82 59.3818H638.972ZM659.036 56.7178C659.444 56.7178 659.828 56.7958 660.188 56.9518C660.548 57.1078 660.86 57.3238 661.124 57.5998C661.388 57.8638 661.592 58.1758 661.736 58.5358C661.892 58.8958 661.97 59.2798 661.97 59.6878C661.97 60.0958 661.892 60.4858 661.736 60.8578C661.592 61.2178 661.388 61.5358 661.124 61.8118C660.86 62.0758 660.548 62.2858 660.188 62.4418C659.828 62.5978 659.444 62.6758 659.036 62.6758C658.628 62.6758 658.238 62.5978 657.866 62.4418C657.506 62.2858 657.188 62.0758 656.912 61.8118C656.648 61.5358 656.438 61.2178 656.282 60.8578C656.126 60.4858 656.048 60.0958 656.048 59.6878C656.048 59.2798 656.126 58.8958 656.282 58.5358C656.45 58.1758 656.666 57.8638 656.93 57.5998C657.206 57.3238 657.524 57.1078 657.884 56.9518C658.244 56.7958 658.628 56.7178 659.036 56.7178ZM659.018 57.7438C658.742 57.7438 658.484 57.7978 658.244 57.9058C658.016 58.0138 657.812 58.1578 657.632 58.3378C657.464 58.5178 657.326 58.7278 657.218 58.9678C657.122 59.2078 657.074 59.4598 657.074 59.7238C657.074 59.9758 657.128 60.2218 657.236 60.4618C657.344 60.6898 657.488 60.8938 657.668 61.0738C657.848 61.2538 658.052 61.3978 658.28 61.5058C658.52 61.6018 658.766 61.6498 659.018 61.6498C659.282 61.6498 659.528 61.5958 659.756 61.4878C659.996 61.3798 660.2 61.2358 660.368 61.0558C660.548 60.8758 660.686 60.6718 660.782 60.4438C660.89 60.2038 660.944 59.9518 660.944 59.6878C660.944 59.4238 660.89 59.1778 660.782 58.9498C660.686 58.7098 660.548 58.4998 660.368 58.3198C660.2 58.1398 659.996 58.0018 659.756 57.9058C659.528 57.7978 659.282 57.7438 659.018 57.7438ZM654.356 53.0998C654.356 53.5078 654.278 53.8918 654.122 54.2518C653.966 54.6118 653.75 54.9298 653.474 55.2058C653.21 55.4698 652.892 55.6798 652.52 55.8358C652.16 55.9918 651.776 56.0698 651.368 56.0698C650.96 56.0698 650.576 55.9918 650.216 55.8358C649.856 55.6798 649.538 55.4698 649.262 55.2058C648.998 54.9298 648.788 54.6118 648.632 54.2518C648.476 53.8918 648.398 53.5078 648.398 53.0998C648.398 52.6918 648.476 52.3078 648.632 51.9478C648.788 51.5878 648.998 51.2758 649.262 51.0118C649.538 50.7358 649.856 50.5198 650.216 50.3638C650.576 50.1958 650.96 50.1118 651.368 50.1118C651.776 50.1118 652.16 50.1898 652.52 50.3458C652.892 50.5018 653.21 50.7178 653.474 50.9938C653.75 51.2578 653.966 51.5758 654.122 51.9478C654.278 52.3078 654.356 52.6918 654.356 53.0998ZM651.368 55.0438C651.632 55.0438 651.878 54.9958 652.106 54.8998C652.346 54.7918 652.556 54.6478 652.736 54.4678C652.916 54.2878 653.06 54.0838 653.168 53.8558C653.276 53.6158 653.33 53.3638 653.33 53.0998C653.33 52.8358 653.276 52.5898 653.168 52.3618C653.072 52.1218 652.934 51.9118 652.754 51.7318C652.574 51.5518 652.364 51.4078 652.124 51.2998C651.884 51.1918 651.632 51.1378 651.368 51.1378C651.104 51.1378 650.852 51.1918 650.612 51.2998C650.384 51.3958 650.18 51.5338 650 51.7138C649.82 51.8938 649.676 52.1038 649.568 52.3438C649.472 52.5838 649.424 52.8358 649.424 53.0998C649.424 53.3638 649.472 53.6158 649.568 53.8558C649.676 54.0838 649.82 54.2878 650 54.4678C650.18 54.6478 650.384 54.7918 650.612 54.8998C650.852 54.9958 651.104 55.0438 651.368 55.0438ZM652.07 62.9278H651.134L658.28 49.9858H659.216L652.07 62.9278Z" fill="#083B4A"/>
<path d="M822.034 53.2438H818.758V52.4878C819.238 52.4518 819.67 52.4038 820.054 52.3438C820.45 52.2838 820.792 52.1698 821.08 52.0018C821.38 51.8338 821.626 51.5938 821.818 51.2818C822.022 50.9578 822.172 50.5258 822.268 49.9858H823.186V62.6758H822.034V53.2438ZM834.736 56.4298C834.736 55.7458 834.694 55.0798 834.61 54.4318C834.538 53.7718 834.388 53.1838 834.16 52.6678C833.932 52.1518 833.608 51.7378 833.188 51.4258C832.78 51.1138 832.24 50.9578 831.568 50.9578C830.932 50.9578 830.41 51.1198 830.002 51.4438C829.606 51.7558 829.294 52.1758 829.066 52.7038C828.838 53.2318 828.676 53.8318 828.58 54.5038C828.496 55.1758 828.454 55.8598 828.454 56.5558C828.454 57.3718 828.502 58.1158 828.598 58.7878C828.706 59.4478 828.88 60.0118 829.12 60.4798C829.36 60.9478 829.678 61.3138 830.074 61.5778C830.482 61.8298 830.992 61.9558 831.604 61.9558C832.288 61.9558 832.834 61.7878 833.242 61.4518C833.662 61.1158 833.98 60.6838 834.196 60.1558C834.412 59.6278 834.556 59.0338 834.628 58.3738C834.7 57.7138 834.736 57.0658 834.736 56.4298ZM831.604 49.9858C832.228 49.9858 832.768 50.0818 833.224 50.2738C833.68 50.4538 834.064 50.7058 834.376 51.0298C834.7 51.3538 834.958 51.7318 835.15 52.1638C835.354 52.5958 835.51 53.0578 835.618 53.5498C835.726 54.0298 835.798 54.5278 835.834 55.0438C835.87 55.5598 835.888 56.0638 835.888 56.5558C835.888 57.3958 835.828 58.1998 835.708 58.9678C835.588 59.7358 835.366 60.4138 835.042 61.0018C834.73 61.5898 834.298 62.0578 833.746 62.4058C833.194 62.7538 832.48 62.9278 831.604 62.9278C830.728 62.9278 830.008 62.7538 829.444 62.4058C828.892 62.0578 828.454 61.5898 828.13 61.0018C827.818 60.4018 827.602 59.7118 827.482 58.9318C827.362 58.1398 827.302 57.3058 827.302 56.4298C827.302 55.6258 827.356 54.8398 827.464 54.0718C827.572 53.3038 827.776 52.6198 828.076 52.0198C828.388 51.4078 828.826 50.9158 829.39 50.5438C829.954 50.1718 830.692 49.9858 831.604 49.9858ZM848.446 56.7178C848.854 56.7178 849.238 56.7958 849.598 56.9518C849.958 57.1078 850.27 57.3238 850.534 57.5998C850.798 57.8638 851.002 58.1758 851.146 58.5358C851.302 58.8958 851.38 59.2798 851.38 59.6878C851.38 60.0958 851.302 60.4858 851.146 60.8578C851.002 61.2178 850.798 61.5358 850.534 61.8118C850.27 62.0758 849.958 62.2858 849.598 62.4418C849.238 62.5978 848.854 62.6758 848.446 62.6758C848.038 62.6758 847.648 62.5978 847.276 62.4418C846.916 62.2858 846.598 62.0758 846.322 61.8118C846.058 61.5358 845.848 61.2178 845.692 60.8578C845.536 60.4858 845.458 60.0958 845.458 59.6878C845.458 59.2798 845.536 58.8958 845.692 58.5358C845.86 58.1758 846.076 57.8638 846.34 57.5998C846.616 57.3238 846.934 57.1078 847.294 56.9518C847.654 56.7958 848.038 56.7178 848.446 56.7178ZM848.428 57.7438C848.152 57.7438 847.894 57.7978 847.654 57.9058C847.426 58.0138 847.222 58.1578 847.042 58.3378C846.874 58.5178 846.736 58.7278 846.628 58.9678C846.532 59.2078 846.484 59.4598 846.484 59.7238C846.484 59.9758 846.538 60.2218 846.646 60.4618C846.754 60.6898 846.898 60.8938 847.078 61.0738C847.258 61.2538 847.462 61.3978 847.69 61.5058C847.93 61.6018 848.176 61.6498 848.428 61.6498C848.692 61.6498 848.938 61.5958 849.166 61.4878C849.406 61.3798 849.61 61.2358 849.778 61.0558C849.958 60.8758 850.096 60.6718 850.192 60.4438C850.3 60.2038 850.354 59.9518 850.354 59.6878C850.354 59.4238 850.3 59.1778 850.192 58.9498C850.096 58.7098 849.958 58.4998 849.778 58.3198C849.61 58.1398 849.406 58.0018 849.166 57.9058C848.938 57.7978 848.692 57.7438 848.428 57.7438ZM843.766 53.0998C843.766 53.5078 843.688 53.8918 843.532 54.2518C843.376 54.6118 843.16 54.9298 842.884 55.2058C842.62 55.4698 842.302 55.6798 841.93 55.8358C841.57 55.9918 841.186 56.0698 840.778 56.0698C840.37 56.0698 839.986 55.9918 839.626 55.8358C839.266 55.6798 838.948 55.4698 838.672 55.2058C838.408 54.9298 838.198 54.6118 838.042 54.2518C837.886 53.8918 837.808 53.5078 837.808 53.0998C837.808 52.6918 837.886 52.3078 838.042 51.9478C838.198 51.5878 838.408 51.2758 838.672 51.0118C838.948 50.7358 839.266 50.5198 839.626 50.3638C839.986 50.1958 840.37 50.1118 840.778 50.1118C841.186 50.1118 841.57 50.1898 841.93 50.3458C842.302 50.5018 842.62 50.7178 842.884 50.9938C843.16 51.2578 843.376 51.5758 843.532 51.9478C843.688 52.3078 843.766 52.6918 843.766 53.0998ZM840.778 55.0438C841.042 55.0438 841.288 54.9958 841.516 54.8998C841.756 54.7918 841.966 54.6478 842.146 54.4678C842.326 54.2878 842.47 54.0838 842.578 53.8558C842.686 53.6158 842.74 53.3638 842.74 53.0998C842.74 52.8358 842.686 52.5898 842.578 52.3618C842.482 52.1218 842.344 51.9118 842.164 51.7318C841.984 51.5518 841.774 51.4078 841.534 51.2998C841.294 51.1918 841.042 51.1378 840.778 51.1378C840.514 51.1378 840.262 51.1918 840.022 51.2998C839.794 51.3958 839.59 51.5338 839.41 51.7138C839.23 51.8938 839.086 52.1038 838.978 52.3438C838.882 52.5838 838.834 52.8358 838.834 53.0998C838.834 53.3638 838.882 53.6158 838.978 53.8558C839.086 54.0838 839.23 54.2878 839.41 54.4678C839.59 54.6478 839.794 54.7918 840.022 54.8998C840.262 54.9958 840.514 55.0438 840.778 55.0438ZM841.48 62.9278H840.544L847.69 49.9858H848.626L841.48 62.9278Z" fill="white"/>
<path d="M928.814 59.3818C928.934 60.2458 929.276 60.8938 929.84 61.3258C930.416 61.7458 931.118 61.9558 931.946 61.9558C932.414 61.9558 932.834 61.8718 933.206 61.7038C933.59 61.5358 933.914 61.3078 934.178 61.0198C934.442 60.7198 934.64 60.3778 934.772 59.9938C934.916 59.5978 934.988 59.1718 934.988 58.7158C934.988 58.2478 934.91 57.8158 934.754 57.4198C934.61 57.0238 934.4 56.6818 934.124 56.3938C933.86 56.1058 933.53 55.8838 933.134 55.7278C932.75 55.5718 932.318 55.4938 931.838 55.4938C931.262 55.4938 930.746 55.6018 930.29 55.8178C929.834 56.0218 929.432 56.3518 929.084 56.8078L928.13 56.6818L929.156 50.1118H935.456V51.0838H930.128L929.336 55.3498C929.588 55.1938 929.816 55.0618 930.02 54.9538C930.236 54.8458 930.452 54.7618 930.668 54.7018C930.884 54.6298 931.106 54.5818 931.334 54.5578C931.574 54.5338 931.838 54.5218 932.126 54.5218C932.702 54.5218 933.236 54.6178 933.728 54.8098C934.22 55.0018 934.646 55.2778 935.006 55.6378C935.366 55.9978 935.642 56.4418 935.834 56.9698C936.038 57.4858 936.14 58.0678 936.14 58.7158C936.14 59.3878 936.026 59.9878 935.798 60.5158C935.582 61.0318 935.288 61.4698 934.916 61.8298C934.544 62.1898 934.112 62.4658 933.62 62.6578C933.14 62.8378 932.642 62.9278 932.126 62.9278C931.526 62.9278 930.962 62.8678 930.434 62.7478C929.918 62.6278 929.462 62.4298 929.066 62.1538C928.67 61.8658 928.346 61.4998 928.094 61.0558C927.854 60.5998 927.71 60.0418 927.662 59.3818H928.814ZM948.878 56.7178C949.286 56.7178 949.67 56.7958 950.03 56.9518C950.39 57.1078 950.702 57.3238 950.966 57.5998C951.23 57.8638 951.434 58.1758 951.578 58.5358C951.734 58.8958 951.812 59.2798 951.812 59.6878C951.812 60.0958 951.734 60.4858 951.578 60.8578C951.434 61.2178 951.23 61.5358 950.966 61.8118C950.702 62.0758 950.39 62.2858 950.03 62.4418C949.67 62.5978 949.286 62.6758 948.878 62.6758C948.47 62.6758 948.08 62.5978 947.708 62.4418C947.348 62.2858 947.03 62.0758 946.754 61.8118C946.49 61.5358 946.28 61.2178 946.124 60.8578C945.968 60.4858 945.89 60.0958 945.89 59.6878C945.89 59.2798 945.968 58.8958 946.124 58.5358C946.292 58.1758 946.508 57.8638 946.772 57.5998C947.048 57.3238 947.366 57.1078 947.726 56.9518C948.086 56.7958 948.47 56.7178 948.878 56.7178ZM948.86 57.7438C948.584 57.7438 948.326 57.7978 948.086 57.9058C947.858 58.0138 947.654 58.1578 947.474 58.3378C947.306 58.5178 947.168 58.7278 947.06 58.9678C946.964 59.2078 946.916 59.4598 946.916 59.7238C946.916 59.9758 946.97 60.2218 947.078 60.4618C947.186 60.6898 947.33 60.8938 947.51 61.0738C947.69 61.2538 947.894 61.3978 948.122 61.5058C948.362 61.6018 948.608 61.6498 948.86 61.6498C949.124 61.6498 949.37 61.5958 949.598 61.4878C949.838 61.3798 950.042 61.2358 950.21 61.0558C950.39 60.8758 950.528 60.6718 950.624 60.4438C950.732 60.2038 950.786 59.9518 950.786 59.6878C950.786 59.4238 950.732 59.1778 950.624 58.9498C950.528 58.7098 950.39 58.4998 950.21 58.3198C950.042 58.1398 949.838 58.0018 949.598 57.9058C949.37 57.7978 949.124 57.7438 948.86 57.7438ZM944.198 53.0998C944.198 53.5078 944.12 53.8918 943.964 54.2518C943.808 54.6118 943.592 54.9298 943.316 55.2058C943.052 55.4698 942.734 55.6798 942.362 55.8358C942.002 55.9918 941.618 56.0698 941.21 56.0698C940.802 56.0698 940.418 55.9918 940.058 55.8358C939.698 55.6798 939.38 55.4698 939.104 55.2058C938.84 54.9298 938.63 54.6118 938.474 54.2518C938.318 53.8918 938.24 53.5078 938.24 53.0998C938.24 52.6918 938.318 52.3078 938.474 51.9478C938.63 51.5878 938.84 51.2758 939.104 51.0118C939.38 50.7358 939.698 50.5198 940.058 50.3638C940.418 50.1958 940.802 50.1118 941.21 50.1118C941.618 50.1118 942.002 50.1898 942.362 50.3458C942.734 50.5018 943.052 50.7178 943.316 50.9938C943.592 51.2578 943.808 51.5758 943.964 51.9478C944.12 52.3078 944.198 52.6918 944.198 53.0998ZM941.21 55.0438C941.474 55.0438 941.72 54.9958 941.948 54.8998C942.188 54.7918 942.398 54.6478 942.578 54.4678C942.758 54.2878 942.902 54.0838 943.01 53.8558C943.118 53.6158 943.172 53.3638 943.172 53.0998C943.172 52.8358 943.118 52.5898 943.01 52.3618C942.914 52.1218 942.776 51.9118 942.596 51.7318C942.416 51.5518 942.206 51.4078 941.966 51.2998C941.726 51.1918 941.474 51.1378 941.21 51.1378C940.946 51.1378 940.694 51.1918 940.454 51.2998C940.226 51.3958 940.022 51.5338 939.842 51.7138C939.662 51.8938 939.518 52.1038 939.41 52.3438C939.314 52.5838 939.266 52.8358 939.266 53.0998C939.266 53.3638 939.314 53.6158 939.41 53.8558C939.518 54.0838 939.662 54.2878 939.842 54.4678C940.022 54.6478 940.226 54.7918 940.454 54.8998C940.694 54.9958 940.946 55.0438 941.21 55.0438ZM941.912 62.9278H940.976L948.122 49.9858H949.058L941.912 62.9278Z" fill="white"/>
</svg>
