<svg width="836" height="271" viewBox="0 0 836 271" fill="none" xmlns="http://www.w3.org/2000/svg">
<rect x="565" y="0.117188" width="270.162" height="270.162" fill="#EAEAEA"/>
<path d="M669.637 138.324H667.639L667.063 142.428H666.001L666.559 138.324H664.093L663.481 142.428H662.419L663.031 138.324H661.051V137.262H663.193L663.571 134.742H661.555V133.68H663.715L664.291 129.864H665.371L664.795 133.68H667.243L667.801 129.864H668.863L668.305 133.68H670.105V134.742H668.161L667.801 137.262H669.637V138.324ZM664.651 134.742L664.255 137.262H666.739L667.099 134.742H664.651ZM672.025 142.428V129.468H680.647V130.512H673.249V135.192H679.927V136.236H673.249V141.384H680.827V142.428H672.025ZM681.841 142.428L686.935 129.468H688.321L693.289 142.428H692.029L690.535 138.36H684.631L683.101 142.428H681.841ZM685.045 137.316H690.121L687.583 130.512L685.045 137.316ZM695.035 142.428V129.468H703.657V130.512H696.259V135.192H702.937V136.236H696.259V141.384H703.837V142.428H695.035ZM704.851 142.428L709.945 129.468H711.331L716.299 142.428H715.039L713.545 138.36H707.641L706.111 142.428H704.851ZM708.055 137.316H713.131L710.593 130.512L708.055 137.316ZM718.045 142.428V129.468H726.667V130.512H719.269V135.192H725.947V136.236H719.269V141.384H726.847V142.428H718.045ZM727.861 142.428L732.955 129.468H734.341L739.309 142.428H738.049L736.555 138.36H730.651L729.121 142.428H727.861ZM731.065 137.316H736.141L733.603 130.512L731.065 137.316Z" fill="#083B4A"/>
<rect x="282.016" y="0.117188" width="270.162" height="270.162" fill="#A9A9A9"/>
<rect y="0.117188" width="270.162" height="270.162" fill="#1591FD"/>
<rect y="0.117188" width="270.162" height="270.162" fill="#EA5252"/>
<path d="M387.088 139.501H385.09L384.514 143.605H383.452L384.01 139.501H381.544L380.932 143.605H379.87L380.482 139.501H378.502V138.439H380.644L381.022 135.919H379.006V134.857H381.166L381.742 131.041H382.822L382.246 134.857H384.694L385.252 131.041H386.314L385.756 134.857H387.556V135.919H385.612L385.252 138.439H387.088V139.501ZM382.102 135.919L381.706 138.439H384.19L384.55 135.919H382.102ZM388.288 143.605L393.382 130.645H394.768L399.736 143.605H398.476L396.982 139.537H391.078L389.548 143.605H388.288ZM391.492 138.493H396.568L394.03 131.689L391.492 138.493ZM402.147 140.815C402.279 141.499 402.543 142.015 402.939 142.363C403.347 142.711 403.905 142.885 404.613 142.885C405.369 142.885 405.969 142.699 406.413 142.327C406.869 141.955 407.217 141.487 407.457 140.923C407.709 140.359 407.877 139.753 407.961 139.105C408.057 138.445 408.117 137.827 408.141 137.251L408.105 137.215C407.721 137.863 407.241 138.355 406.665 138.691C406.101 139.027 405.441 139.195 404.685 139.195C404.085 139.195 403.545 139.099 403.065 138.907C402.585 138.715 402.171 138.439 401.823 138.079C401.487 137.719 401.223 137.287 401.031 136.783C400.851 136.279 400.761 135.721 400.761 135.109C400.761 134.509 400.845 133.957 401.013 133.453C401.181 132.937 401.433 132.493 401.769 132.121C402.105 131.737 402.525 131.443 403.029 131.239C403.545 131.023 404.151 130.915 404.847 130.915C405.699 130.915 406.407 131.083 406.971 131.419C407.547 131.755 408.003 132.211 408.339 132.787C408.687 133.363 408.933 134.041 409.077 134.821C409.221 135.601 409.293 136.435 409.293 137.323C409.293 138.403 409.179 139.351 408.951 140.167C408.723 140.971 408.399 141.649 407.979 142.201C407.571 142.753 407.085 143.167 406.521 143.443C405.957 143.719 405.339 143.857 404.667 143.857C404.175 143.857 403.713 143.797 403.281 143.677C402.849 143.557 402.471 143.371 402.147 143.119C401.823 142.867 401.559 142.549 401.355 142.165C401.151 141.781 401.025 141.331 400.977 140.815H402.147ZM404.847 131.887C403.875 131.911 403.143 132.211 402.651 132.787C402.159 133.363 401.913 134.149 401.913 135.145C401.913 136.117 402.165 136.873 402.669 137.413C403.185 137.953 403.911 138.223 404.847 138.223C405.291 138.223 405.687 138.139 406.035 137.971C406.395 137.803 406.695 137.575 406.935 137.287C407.187 136.999 407.373 136.669 407.493 136.297C407.625 135.913 407.691 135.505 407.691 135.073C407.691 134.137 407.439 133.381 406.935 132.805C406.431 132.217 405.735 131.911 404.847 131.887ZM410.295 143.605L415.389 130.645H416.775L421.743 143.605H420.483L418.989 139.537H413.085L411.555 143.605H410.295ZM413.499 138.493H418.575L416.037 131.689L413.499 138.493ZM424.155 140.815C424.287 141.499 424.551 142.015 424.947 142.363C425.355 142.711 425.913 142.885 426.621 142.885C427.377 142.885 427.977 142.699 428.421 142.327C428.877 141.955 429.225 141.487 429.465 140.923C429.717 140.359 429.885 139.753 429.969 139.105C430.065 138.445 430.125 137.827 430.149 137.251L430.113 137.215C429.729 137.863 429.249 138.355 428.673 138.691C428.109 139.027 427.449 139.195 426.693 139.195C426.093 139.195 425.553 139.099 425.073 138.907C424.593 138.715 424.179 138.439 423.831 138.079C423.495 137.719 423.231 137.287 423.039 136.783C422.859 136.279 422.769 135.721 422.769 135.109C422.769 134.509 422.853 133.957 423.021 133.453C423.189 132.937 423.441 132.493 423.777 132.121C424.113 131.737 424.533 131.443 425.037 131.239C425.553 131.023 426.159 130.915 426.855 130.915C427.707 130.915 428.415 131.083 428.979 131.419C429.555 131.755 430.011 132.211 430.347 132.787C430.695 133.363 430.941 134.041 431.085 134.821C431.229 135.601 431.301 136.435 431.301 137.323C431.301 138.403 431.187 139.351 430.959 140.167C430.731 140.971 430.407 141.649 429.987 142.201C429.579 142.753 429.093 143.167 428.529 143.443C427.965 143.719 427.347 143.857 426.675 143.857C426.183 143.857 425.721 143.797 425.289 143.677C424.857 143.557 424.479 143.371 424.155 143.119C423.831 142.867 423.567 142.549 423.363 142.165C423.159 141.781 423.033 141.331 422.985 140.815H424.155ZM426.855 131.887C425.883 131.911 425.151 132.211 424.659 132.787C424.167 133.363 423.921 134.149 423.921 135.145C423.921 136.117 424.173 136.873 424.677 137.413C425.193 137.953 425.919 138.223 426.855 138.223C427.299 138.223 427.695 138.139 428.043 137.971C428.403 137.803 428.703 137.575 428.943 137.287C429.195 136.999 429.381 136.669 429.501 136.297C429.633 135.913 429.699 135.505 429.699 135.073C429.699 134.137 429.447 133.381 428.943 132.805C428.439 132.217 427.743 131.911 426.855 131.887ZM432.303 143.605L437.397 130.645H438.783L443.751 143.605H442.491L440.997 139.537H435.093L433.563 143.605H432.303ZM435.507 138.493H440.583L438.045 131.689L435.507 138.493ZM446.163 140.815C446.295 141.499 446.559 142.015 446.955 142.363C447.363 142.711 447.921 142.885 448.629 142.885C449.385 142.885 449.985 142.699 450.429 142.327C450.885 141.955 451.233 141.487 451.473 140.923C451.725 140.359 451.893 139.753 451.977 139.105C452.073 138.445 452.133 137.827 452.157 137.251L452.121 137.215C451.737 137.863 451.257 138.355 450.681 138.691C450.117 139.027 449.457 139.195 448.701 139.195C448.101 139.195 447.561 139.099 447.081 138.907C446.601 138.715 446.187 138.439 445.839 138.079C445.503 137.719 445.239 137.287 445.047 136.783C444.867 136.279 444.777 135.721 444.777 135.109C444.777 134.509 444.861 133.957 445.029 133.453C445.197 132.937 445.449 132.493 445.785 132.121C446.121 131.737 446.541 131.443 447.045 131.239C447.561 131.023 448.167 130.915 448.863 130.915C449.715 130.915 450.423 131.083 450.987 131.419C451.563 131.755 452.019 132.211 452.355 132.787C452.703 133.363 452.949 134.041 453.093 134.821C453.237 135.601 453.309 136.435 453.309 137.323C453.309 138.403 453.195 139.351 452.967 140.167C452.739 140.971 452.415 141.649 451.995 142.201C451.587 142.753 451.101 143.167 450.537 143.443C449.973 143.719 449.355 143.857 448.683 143.857C448.191 143.857 447.729 143.797 447.297 143.677C446.865 143.557 446.487 143.371 446.163 143.119C445.839 142.867 445.575 142.549 445.371 142.165C445.167 141.781 445.041 141.331 444.993 140.815H446.163ZM448.863 131.887C447.891 131.911 447.159 132.211 446.667 132.787C446.175 133.363 445.929 134.149 445.929 135.145C445.929 136.117 446.181 136.873 446.685 137.413C447.201 137.953 447.927 138.223 448.863 138.223C449.307 138.223 449.703 138.139 450.051 137.971C450.411 137.803 450.711 137.575 450.951 137.287C451.203 136.999 451.389 136.669 451.509 136.297C451.641 135.913 451.707 135.505 451.707 135.073C451.707 134.137 451.455 133.381 450.951 132.805C450.447 132.217 449.751 131.911 448.863 131.887Z" fill="white"/>
<path d="M107.156 139.501H105.158L104.582 143.605H103.52L104.078 139.501H101.612L101 143.605H99.9375L100.55 139.501H98.5695V138.439H100.712L101.09 135.919H99.0735V134.857H101.234L101.81 131.041H102.89L102.314 134.857H104.762L105.32 131.041H106.382L105.824 134.857H107.624V135.919H105.68L105.32 138.439H107.156V139.501ZM102.17 135.919L101.774 138.439H104.258L104.618 135.919H102.17ZM109.543 143.605V130.645H118.165V131.689H110.767V136.369H117.445V137.413H110.767V142.561H118.345V143.605H109.543ZM119.359 143.605L124.453 130.645H125.839L130.807 143.605H129.547L128.053 139.537H122.149L120.619 143.605H119.359ZM122.563 138.493H127.639L125.101 131.689L122.563 138.493ZM132.877 140.311C132.997 141.175 133.339 141.823 133.903 142.255C134.479 142.675 135.181 142.885 136.009 142.885C136.477 142.885 136.897 142.801 137.269 142.633C137.653 142.465 137.977 142.237 138.241 141.949C138.505 141.649 138.703 141.307 138.835 140.923C138.979 140.527 139.051 140.101 139.051 139.645C139.051 139.177 138.973 138.745 138.817 138.349C138.673 137.953 138.463 137.611 138.187 137.323C137.923 137.035 137.593 136.813 137.197 136.657C136.813 136.501 136.381 136.423 135.901 136.423C135.325 136.423 134.809 136.531 134.353 136.747C133.897 136.951 133.495 137.281 133.147 137.737L132.193 137.611L133.219 131.041H139.519V132.013H134.191L133.399 136.279C133.651 136.123 133.879 135.991 134.083 135.883C134.299 135.775 134.515 135.691 134.731 135.631C134.947 135.559 135.169 135.511 135.397 135.487C135.637 135.463 135.901 135.451 136.189 135.451C136.765 135.451 137.299 135.547 137.791 135.739C138.283 135.931 138.709 136.207 139.069 136.567C139.429 136.927 139.705 137.371 139.897 137.899C140.101 138.415 140.203 138.997 140.203 139.645C140.203 140.317 140.089 140.917 139.861 141.445C139.645 141.961 139.351 142.399 138.979 142.759C138.607 143.119 138.175 143.395 137.683 143.587C137.203 143.767 136.705 143.857 136.189 143.857C135.589 143.857 135.025 143.797 134.497 143.677C133.981 143.557 133.525 143.359 133.129 143.083C132.733 142.795 132.409 142.429 132.157 141.985C131.917 141.529 131.773 140.971 131.725 140.311H132.877ZM142.339 135.073C142.339 134.449 142.435 133.885 142.627 133.381C142.819 132.865 143.095 132.427 143.455 132.067C143.815 131.695 144.247 131.413 144.751 131.221C145.267 131.017 145.837 130.915 146.461 130.915C147.097 130.915 147.655 131.011 148.135 131.203C148.627 131.383 149.035 131.629 149.359 131.941C149.695 132.253 149.947 132.625 150.115 133.057C150.283 133.489 150.367 133.945 150.367 134.425C150.367 134.989 150.271 135.487 150.079 135.919C149.899 136.351 149.653 136.735 149.341 137.071C149.041 137.407 148.693 137.707 148.297 137.971C147.913 138.235 147.517 138.487 147.109 138.727C146.701 138.955 146.299 139.177 145.903 139.393C145.507 139.609 145.153 139.837 144.841 140.077C144.637 140.233 144.439 140.401 144.247 140.581C144.055 140.749 143.881 140.935 143.725 141.139C143.569 141.343 143.443 141.571 143.347 141.823C143.251 142.063 143.197 142.333 143.185 142.633H150.259V143.605H141.961C141.973 142.993 142.039 142.441 142.159 141.949C142.279 141.457 142.543 140.977 142.951 140.509C143.395 140.005 143.851 139.573 144.319 139.213C144.799 138.853 145.267 138.535 145.723 138.259C146.179 137.971 146.611 137.713 147.019 137.485C147.427 137.245 147.787 136.987 148.099 136.711C148.411 136.435 148.657 136.123 148.837 135.775C149.017 135.427 149.107 135.001 149.107 134.497C149.107 134.089 149.035 133.723 148.891 133.399C148.747 133.075 148.549 132.799 148.297 132.571C148.045 132.343 147.751 132.175 147.415 132.067C147.079 131.947 146.713 131.887 146.317 131.887C145.897 131.887 145.513 131.977 145.165 132.157C144.829 132.325 144.535 132.553 144.283 132.841C144.043 133.129 143.857 133.465 143.725 133.849C143.593 134.233 143.539 134.641 143.563 135.073H142.339ZM152.881 140.311C153.001 141.175 153.343 141.823 153.907 142.255C154.483 142.675 155.185 142.885 156.013 142.885C156.481 142.885 156.901 142.801 157.273 142.633C157.657 142.465 157.981 142.237 158.245 141.949C158.509 141.649 158.707 141.307 158.839 140.923C158.983 140.527 159.055 140.101 159.055 139.645C159.055 139.177 158.977 138.745 158.821 138.349C158.677 137.953 158.467 137.611 158.191 137.323C157.927 137.035 157.597 136.813 157.201 136.657C156.817 136.501 156.385 136.423 155.905 136.423C155.329 136.423 154.813 136.531 154.357 136.747C153.901 136.951 153.499 137.281 153.151 137.737L152.197 137.611L153.223 131.041H159.523V132.013H154.195L153.403 136.279C153.655 136.123 153.883 135.991 154.087 135.883C154.303 135.775 154.519 135.691 154.735 135.631C154.951 135.559 155.173 135.511 155.401 135.487C155.641 135.463 155.905 135.451 156.193 135.451C156.769 135.451 157.303 135.547 157.795 135.739C158.287 135.931 158.713 136.207 159.073 136.567C159.433 136.927 159.709 137.371 159.901 137.899C160.105 138.415 160.207 138.997 160.207 139.645C160.207 140.317 160.093 140.917 159.865 141.445C159.649 141.961 159.355 142.399 158.983 142.759C158.611 143.119 158.179 143.395 157.687 143.587C157.207 143.767 156.709 143.857 156.193 143.857C155.593 143.857 155.029 143.797 154.501 143.677C153.985 143.557 153.529 143.359 153.133 143.083C152.737 142.795 152.413 142.429 152.161 141.985C151.921 141.529 151.777 140.971 151.729 140.311H152.881ZM162.343 135.073C162.343 134.449 162.439 133.885 162.631 133.381C162.823 132.865 163.099 132.427 163.459 132.067C163.819 131.695 164.251 131.413 164.755 131.221C165.271 131.017 165.841 130.915 166.465 130.915C167.101 130.915 167.659 131.011 168.139 131.203C168.631 131.383 169.039 131.629 169.363 131.941C169.699 132.253 169.951 132.625 170.119 133.057C170.287 133.489 170.371 133.945 170.371 134.425C170.371 134.989 170.275 135.487 170.083 135.919C169.903 136.351 169.657 136.735 169.345 137.071C169.045 137.407 168.697 137.707 168.301 137.971C167.917 138.235 167.521 138.487 167.113 138.727C166.705 138.955 166.303 139.177 165.907 139.393C165.511 139.609 165.157 139.837 164.845 140.077C164.641 140.233 164.443 140.401 164.251 140.581C164.059 140.749 163.885 140.935 163.729 141.139C163.573 141.343 163.447 141.571 163.351 141.823C163.255 142.063 163.201 142.333 163.189 142.633H170.263V143.605H161.965C161.977 142.993 162.043 142.441 162.163 141.949C162.283 141.457 162.547 140.977 162.955 140.509C163.399 140.005 163.855 139.573 164.323 139.213C164.803 138.853 165.271 138.535 165.727 138.259C166.183 137.971 166.615 137.713 167.023 137.485C167.431 137.245 167.791 136.987 168.103 136.711C168.415 136.435 168.661 136.123 168.841 135.775C169.021 135.427 169.111 135.001 169.111 134.497C169.111 134.089 169.039 133.723 168.895 133.399C168.751 133.075 168.553 132.799 168.301 132.571C168.049 132.343 167.755 132.175 167.419 132.067C167.083 131.947 166.717 131.887 166.321 131.887C165.901 131.887 165.517 131.977 165.169 132.157C164.833 132.325 164.539 132.553 164.287 132.841C164.047 133.129 163.861 133.465 163.729 133.849C163.597 134.233 163.543 134.641 163.567 135.073H162.343Z" fill="white"/>
</svg>
