<svg width="1118" height="271" viewBox="0 0 1118 271" fill="none" xmlns="http://www.w3.org/2000/svg">
<rect x="565" y="0.617188" width="269.577" height="269.577" fill="#083B4A"/>
<path d="M672.34 139.319H670.342L669.766 143.423H668.704L669.262 139.319H666.796L666.184 143.423H665.122L665.734 139.319H663.754V138.257H665.896L666.274 135.737H664.258V134.675H666.418L666.994 130.859H668.074L667.498 134.675H669.946L670.504 130.859H671.566L671.008 134.675H672.808V135.737H670.864L670.504 138.257H672.34V139.319ZM667.354 135.737L666.958 138.257H669.442L669.802 135.737H667.354ZM681.406 137.177C681.406 136.493 681.364 135.827 681.28 135.179C681.208 134.519 681.058 133.931 680.83 133.415C680.602 132.899 680.278 132.485 679.858 132.173C679.45 131.861 678.91 131.705 678.238 131.705C677.602 131.705 677.08 131.867 676.672 132.191C676.276 132.503 675.964 132.923 675.736 133.451C675.508 133.979 675.346 134.579 675.25 135.251C675.166 135.923 675.124 136.607 675.124 137.303C675.124 138.119 675.172 138.863 675.268 139.535C675.376 140.195 675.55 140.759 675.79 141.227C676.03 141.695 676.348 142.061 676.744 142.325C677.152 142.577 677.662 142.703 678.274 142.703C678.958 142.703 679.504 142.535 679.912 142.199C680.332 141.863 680.65 141.431 680.866 140.903C681.082 140.375 681.226 139.781 681.298 139.121C681.37 138.461 681.406 137.813 681.406 137.177ZM678.274 130.733C678.898 130.733 679.438 130.829 679.894 131.021C680.35 131.201 680.734 131.453 681.046 131.777C681.37 132.101 681.628 132.479 681.82 132.911C682.024 133.343 682.18 133.805 682.288 134.297C682.396 134.777 682.468 135.275 682.504 135.791C682.54 136.307 682.558 136.811 682.558 137.303C682.558 138.143 682.498 138.947 682.378 139.715C682.258 140.483 682.036 141.161 681.712 141.749C681.4 142.337 680.968 142.805 680.416 143.153C679.864 143.501 679.15 143.675 678.274 143.675C677.398 143.675 676.678 143.501 676.114 143.153C675.562 142.805 675.124 142.337 674.8 141.749C674.488 141.149 674.272 140.459 674.152 139.679C674.032 138.887 673.972 138.053 673.972 137.177C673.972 136.373 674.026 135.587 674.134 134.819C674.242 134.051 674.446 133.367 674.746 132.767C675.058 132.155 675.496 131.663 676.06 131.291C676.624 130.919 677.362 130.733 678.274 130.733ZM688.294 137.213C687.85 137.213 687.442 137.267 687.07 137.375C686.698 137.483 686.374 137.651 686.098 137.879C685.822 138.095 685.606 138.377 685.45 138.725C685.294 139.061 685.216 139.463 685.216 139.931C685.216 140.327 685.288 140.693 685.432 141.029C685.588 141.365 685.798 141.659 686.062 141.911C686.338 142.151 686.668 142.343 687.052 142.487C687.448 142.631 687.886 142.703 688.366 142.703C688.786 142.703 689.176 142.637 689.536 142.505C689.896 142.361 690.208 142.163 690.472 141.911C690.748 141.659 690.958 141.359 691.102 141.011C691.258 140.663 691.336 140.279 691.336 139.859C691.336 139.415 691.258 139.031 691.102 138.707C690.946 138.371 690.73 138.095 690.454 137.879C690.178 137.651 689.854 137.483 689.482 137.375C689.11 137.267 688.714 137.213 688.294 137.213ZM688.24 131.705C687.88 131.705 687.544 131.753 687.232 131.849C686.92 131.945 686.644 132.089 686.404 132.281C686.176 132.473 685.996 132.713 685.864 133.001C685.732 133.289 685.666 133.619 685.666 133.991C685.666 134.387 685.738 134.729 685.882 135.017C686.038 135.293 686.242 135.521 686.494 135.701C686.746 135.881 687.034 136.019 687.358 136.115C687.682 136.199 688.018 136.241 688.366 136.241C688.714 136.241 689.038 136.199 689.338 136.115C689.638 136.019 689.896 135.869 690.112 135.665C690.328 135.461 690.496 135.203 690.616 134.891C690.748 134.579 690.814 134.195 690.814 133.739C690.814 133.091 690.604 132.593 690.184 132.245C689.764 131.885 689.116 131.705 688.24 131.705ZM686.278 136.601C685.966 136.409 685.696 136.229 685.468 136.061C685.252 135.881 685.072 135.689 684.928 135.485C684.784 135.281 684.676 135.053 684.604 134.801C684.544 134.537 684.514 134.213 684.514 133.829C684.514 133.397 684.61 132.989 684.802 132.605C684.994 132.221 685.252 131.891 685.576 131.615C685.9 131.327 686.278 131.105 686.71 130.949C687.154 130.793 687.628 130.721 688.132 130.733C688.612 130.733 689.08 130.793 689.536 130.913C690.004 131.033 690.418 131.219 690.778 131.471C691.138 131.723 691.426 132.047 691.642 132.443C691.858 132.827 691.966 133.289 691.966 133.829C691.966 134.489 691.828 135.053 691.552 135.521C691.288 135.989 690.85 136.373 690.238 136.673C690.934 136.925 691.48 137.327 691.876 137.879C692.284 138.431 692.488 139.079 692.488 139.823C692.488 140.447 692.38 140.999 692.164 141.479C691.96 141.959 691.66 142.361 691.264 142.685C690.88 143.009 690.412 143.255 689.86 143.423C689.308 143.591 688.696 143.675 688.024 143.675C687.568 143.675 687.1 143.597 686.62 143.441C686.152 143.285 685.726 143.051 685.342 142.739C684.97 142.427 684.664 142.037 684.424 141.569C684.184 141.101 684.064 140.555 684.064 139.931C684.064 139.175 684.25 138.503 684.622 137.915C685.006 137.315 685.558 136.877 686.278 136.601ZM697.252 136.367C697.792 136.367 698.284 136.337 698.728 136.277C699.172 136.205 699.55 136.079 699.862 135.899C700.186 135.707 700.438 135.455 700.618 135.143C700.798 134.831 700.888 134.429 700.888 133.937C700.888 133.541 700.816 133.205 700.672 132.929C700.528 132.641 700.33 132.407 700.078 132.227C699.838 132.047 699.55 131.915 699.214 131.831C698.89 131.747 698.548 131.705 698.188 131.705C697.78 131.705 697.408 131.771 697.072 131.903C696.748 132.035 696.466 132.227 696.226 132.479C695.986 132.719 695.8 133.007 695.668 133.343C695.536 133.667 695.47 134.027 695.47 134.423H694.318C694.318 133.847 694.414 133.331 694.606 132.875C694.81 132.407 695.122 131.975 695.542 131.579C695.938 131.219 696.382 130.991 696.874 130.895C697.378 130.787 697.894 130.733 698.422 130.733C698.926 130.733 699.394 130.799 699.826 130.931C700.27 131.051 700.654 131.243 700.978 131.507C701.302 131.759 701.56 132.083 701.752 132.479C701.944 132.875 702.04 133.337 702.04 133.865C702.04 134.525 701.89 135.095 701.59 135.575C701.302 136.055 700.852 136.427 700.24 136.691C700.696 136.835 701.068 137.027 701.356 137.267C701.656 137.495 701.89 137.753 702.058 138.041C702.226 138.317 702.34 138.611 702.4 138.923C702.46 139.235 702.49 139.535 702.49 139.823C702.49 140.351 702.4 140.843 702.22 141.299C702.04 141.755 701.776 142.157 701.428 142.505C701.08 142.853 700.648 143.135 700.132 143.351C699.628 143.555 699.052 143.663 698.404 143.675C697.672 143.675 697.036 143.609 696.496 143.477C695.956 143.345 695.506 143.129 695.146 142.829C694.786 142.517 694.504 142.115 694.3 141.623C694.096 141.119 693.958 140.495 693.886 139.751H695.038C695.038 140.723 695.326 141.461 695.902 141.965C696.49 142.457 697.252 142.703 698.188 142.703C698.644 142.703 699.07 142.625 699.466 142.469C699.862 142.313 700.198 142.103 700.474 141.839C700.762 141.575 700.978 141.269 701.122 140.921C701.278 140.573 701.35 140.213 701.338 139.841C701.314 139.325 701.194 138.899 700.978 138.563C700.762 138.215 700.468 137.945 700.096 137.753C699.736 137.549 699.31 137.417 698.818 137.357C698.326 137.285 697.804 137.267 697.252 137.303V136.367ZM705.958 142.379H709.072C709.744 142.379 710.326 142.349 710.818 142.289C711.322 142.229 711.736 142.109 712.06 141.929C712.384 141.737 712.624 141.473 712.78 141.137C712.948 140.789 713.032 140.333 713.032 139.769C713.032 139.229 712.942 138.797 712.762 138.473C712.582 138.137 712.324 137.879 711.988 137.699C711.652 137.519 711.25 137.399 710.782 137.339C710.314 137.267 709.792 137.231 709.216 137.231H705.958V142.379ZM705.958 136.187H709.054C709.69 136.187 710.224 136.133 710.656 136.025C711.088 135.917 711.436 135.761 711.7 135.557C711.964 135.341 712.15 135.083 712.258 134.783C712.378 134.471 712.438 134.117 712.438 133.721C712.438 133.313 712.372 132.971 712.24 132.695C712.108 132.407 711.898 132.179 711.61 132.011C711.322 131.831 710.944 131.705 710.476 131.633C710.02 131.549 709.456 131.507 708.784 131.507H705.958V136.187ZM704.734 143.423V130.463H709.414C710.17 130.463 710.818 130.541 711.358 130.697C711.898 130.853 712.336 131.075 712.672 131.363C713.02 131.651 713.272 131.999 713.428 132.407C713.584 132.803 713.662 133.241 713.662 133.721C713.662 134.177 713.602 134.573 713.482 134.909C713.362 135.233 713.206 135.509 713.014 135.737C712.822 135.953 712.6 136.127 712.348 136.259C712.108 136.379 711.856 136.463 711.592 136.511V136.547C712.492 136.679 713.158 137.033 713.59 137.609C714.034 138.185 714.256 138.905 714.256 139.769C714.256 140.441 714.148 141.011 713.932 141.479C713.728 141.947 713.44 142.325 713.068 142.613C712.696 142.901 712.246 143.111 711.718 143.243C711.202 143.363 710.638 143.423 710.026 143.423H704.734ZM721.726 140.291H715.93V139.301L721.834 130.859H722.878V139.319H724.642V140.291H722.878V143.423H721.726V140.291ZM717.064 139.319H721.726V132.587L717.064 139.319ZM725.554 143.423L730.648 130.463H732.034L737.002 143.423H735.742L734.248 139.355H728.344L726.814 143.423H725.554ZM728.758 138.311H733.834L731.296 131.507L728.758 138.311Z" fill="white"/>
<rect x="848.441" y="1.11719" width="268.577" height="268.577" fill="white" stroke="#A9A9A9"/>
<path d="M957.289 139.318H955.291L954.715 143.422H953.653L954.211 139.318H951.745L951.133 143.422H950.071L950.683 139.318H948.703V138.256H950.845L951.223 135.736H949.207V134.674H951.367L951.943 130.858H953.023L952.447 134.674H954.895L955.453 130.858H956.515L955.957 134.674H957.757V135.736H955.813L955.453 138.256H957.289V139.318ZM952.303 135.736L951.907 138.256H954.391L954.751 135.736H952.303ZM959.551 143.422V130.462H967.903V131.506H960.775V136.186H967.255V137.23H960.775V143.422H959.551ZM969.553 143.422V130.462H977.905V131.506H970.777V136.186H977.257V137.23H970.777V143.422H969.553ZM979.555 143.422V130.462H987.907V131.506H980.779V136.186H987.259V137.23H980.779V143.422H979.555ZM989.557 143.422V130.462H997.909V131.506H990.781V136.186H997.261V137.23H990.781V143.422H989.557ZM999.559 143.422V130.462H1007.91V131.506H1000.78V136.186H1007.26V137.23H1000.78V143.422H999.559ZM1009.56 143.422V130.462H1017.91V131.506H1010.78V136.186H1017.26V137.23H1010.78V143.422H1009.56Z" fill="#A9A9A9"/>
<rect y="0.617188" width="269.577" height="269.577" fill="#0081B9"/>
<rect x="282.058" y="0.617188" width="269.577" height="269.577" fill="#FE9041"/>
<path d="M108.148 139.732H106.15L105.574 143.836H104.512L105.07 139.732H102.604L101.992 143.836H100.93L101.542 139.732H99.5617V138.67H101.704L102.082 136.15H100.066V135.088H102.226L102.802 131.272H103.882L103.306 135.088H105.754L106.312 131.272H107.374L106.816 135.088H108.616V136.15H106.672L106.312 138.67H108.148V139.732ZM103.162 136.15L102.766 138.67H105.25L105.61 136.15H103.162ZM117.214 137.59C117.214 136.906 117.172 136.24 117.088 135.592C117.016 134.932 116.866 134.344 116.638 133.828C116.41 133.312 116.086 132.898 115.666 132.586C115.258 132.274 114.718 132.118 114.046 132.118C113.41 132.118 112.888 132.28 112.48 132.604C112.084 132.916 111.772 133.336 111.544 133.864C111.316 134.392 111.154 134.992 111.058 135.664C110.974 136.336 110.932 137.02 110.932 137.716C110.932 138.532 110.98 139.276 111.076 139.948C111.184 140.608 111.358 141.172 111.598 141.64C111.838 142.108 112.156 142.474 112.552 142.738C112.96 142.99 113.47 143.116 114.082 143.116C114.766 143.116 115.312 142.948 115.72 142.612C116.14 142.276 116.458 141.844 116.674 141.316C116.89 140.788 117.034 140.194 117.106 139.534C117.178 138.874 117.214 138.226 117.214 137.59ZM114.082 131.146C114.706 131.146 115.246 131.242 115.702 131.434C116.158 131.614 116.542 131.866 116.854 132.19C117.178 132.514 117.436 132.892 117.628 133.324C117.832 133.756 117.988 134.218 118.096 134.71C118.204 135.19 118.276 135.688 118.312 136.204C118.348 136.72 118.366 137.224 118.366 137.716C118.366 138.556 118.306 139.36 118.186 140.128C118.066 140.896 117.844 141.574 117.52 142.162C117.208 142.75 116.776 143.218 116.224 143.566C115.672 143.914 114.958 144.088 114.082 144.088C113.206 144.088 112.486 143.914 111.922 143.566C111.37 143.218 110.932 142.75 110.608 142.162C110.296 141.562 110.08 140.872 109.96 140.092C109.84 139.3 109.78 138.466 109.78 137.59C109.78 136.786 109.834 136 109.942 135.232C110.05 134.464 110.254 133.78 110.554 133.18C110.866 132.568 111.304 132.076 111.868 131.704C112.432 131.332 113.17 131.146 114.082 131.146ZM127.216 137.59C127.216 136.906 127.174 136.24 127.09 135.592C127.018 134.932 126.868 134.344 126.64 133.828C126.412 133.312 126.088 132.898 125.668 132.586C125.26 132.274 124.72 132.118 124.048 132.118C123.412 132.118 122.89 132.28 122.482 132.604C122.086 132.916 121.774 133.336 121.546 133.864C121.318 134.392 121.156 134.992 121.06 135.664C120.976 136.336 120.934 137.02 120.934 137.716C120.934 138.532 120.982 139.276 121.078 139.948C121.186 140.608 121.36 141.172 121.6 141.64C121.84 142.108 122.158 142.474 122.554 142.738C122.962 142.99 123.472 143.116 124.084 143.116C124.768 143.116 125.314 142.948 125.722 142.612C126.142 142.276 126.46 141.844 126.676 141.316C126.892 140.788 127.036 140.194 127.108 139.534C127.18 138.874 127.216 138.226 127.216 137.59ZM124.084 131.146C124.708 131.146 125.248 131.242 125.704 131.434C126.16 131.614 126.544 131.866 126.856 132.19C127.18 132.514 127.438 132.892 127.63 133.324C127.834 133.756 127.99 134.218 128.098 134.71C128.206 135.19 128.278 135.688 128.314 136.204C128.35 136.72 128.368 137.224 128.368 137.716C128.368 138.556 128.308 139.36 128.188 140.128C128.068 140.896 127.846 141.574 127.522 142.162C127.21 142.75 126.778 143.218 126.226 143.566C125.674 143.914 124.96 144.088 124.084 144.088C123.208 144.088 122.488 143.914 121.924 143.566C121.372 143.218 120.934 142.75 120.61 142.162C120.298 141.562 120.082 140.872 119.962 140.092C119.842 139.3 119.782 138.466 119.782 137.59C119.782 136.786 119.836 136 119.944 135.232C120.052 134.464 120.256 133.78 120.556 133.18C120.868 132.568 121.306 132.076 121.87 131.704C122.434 131.332 123.172 131.146 124.084 131.146ZM134.104 137.626C133.66 137.626 133.252 137.68 132.88 137.788C132.508 137.896 132.184 138.064 131.908 138.292C131.632 138.508 131.416 138.79 131.26 139.138C131.104 139.474 131.026 139.876 131.026 140.344C131.026 140.74 131.098 141.106 131.242 141.442C131.398 141.778 131.608 142.072 131.872 142.324C132.148 142.564 132.478 142.756 132.862 142.9C133.258 143.044 133.696 143.116 134.176 143.116C134.596 143.116 134.986 143.05 135.346 142.918C135.706 142.774 136.018 142.576 136.282 142.324C136.558 142.072 136.768 141.772 136.912 141.424C137.068 141.076 137.146 140.692 137.146 140.272C137.146 139.828 137.068 139.444 136.912 139.12C136.756 138.784 136.54 138.508 136.264 138.292C135.988 138.064 135.664 137.896 135.292 137.788C134.92 137.68 134.524 137.626 134.104 137.626ZM134.05 132.118C133.69 132.118 133.354 132.166 133.042 132.262C132.73 132.358 132.454 132.502 132.214 132.694C131.986 132.886 131.806 133.126 131.674 133.414C131.542 133.702 131.476 134.032 131.476 134.404C131.476 134.8 131.548 135.142 131.692 135.43C131.848 135.706 132.052 135.934 132.304 136.114C132.556 136.294 132.844 136.432 133.168 136.528C133.492 136.612 133.828 136.654 134.176 136.654C134.524 136.654 134.848 136.612 135.148 136.528C135.448 136.432 135.706 136.282 135.922 136.078C136.138 135.874 136.306 135.616 136.426 135.304C136.558 134.992 136.624 134.608 136.624 134.152C136.624 133.504 136.414 133.006 135.994 132.658C135.574 132.298 134.926 132.118 134.05 132.118ZM132.088 137.014C131.776 136.822 131.506 136.642 131.278 136.474C131.062 136.294 130.882 136.102 130.738 135.898C130.594 135.694 130.486 135.466 130.414 135.214C130.354 134.95 130.324 134.626 130.324 134.242C130.324 133.81 130.42 133.402 130.612 133.018C130.804 132.634 131.062 132.304 131.386 132.028C131.71 131.74 132.088 131.518 132.52 131.362C132.964 131.206 133.438 131.134 133.942 131.146C134.422 131.146 134.89 131.206 135.346 131.326C135.814 131.446 136.228 131.632 136.588 131.884C136.948 132.136 137.236 132.46 137.452 132.856C137.668 133.24 137.776 133.702 137.776 134.242C137.776 134.902 137.638 135.466 137.362 135.934C137.098 136.402 136.66 136.786 136.048 137.086C136.744 137.338 137.29 137.74 137.686 138.292C138.094 138.844 138.298 139.492 138.298 140.236C138.298 140.86 138.19 141.412 137.974 141.892C137.77 142.372 137.47 142.774 137.074 143.098C136.69 143.422 136.222 143.668 135.67 143.836C135.118 144.004 134.506 144.088 133.834 144.088C133.378 144.088 132.91 144.01 132.43 143.854C131.962 143.698 131.536 143.464 131.152 143.152C130.78 142.84 130.474 142.45 130.234 141.982C129.994 141.514 129.874 140.968 129.874 140.344C129.874 139.588 130.06 138.916 130.432 138.328C130.816 137.728 131.368 137.29 132.088 137.014ZM144.519 134.404H141.243V133.648C141.723 133.612 142.155 133.564 142.539 133.504C142.935 133.444 143.277 133.33 143.565 133.162C143.865 132.994 144.111 132.754 144.303 132.442C144.507 132.118 144.657 131.686 144.753 131.146H145.671V143.836H144.519V134.404ZM151.767 142.792H154.881C155.553 142.792 156.135 142.762 156.627 142.702C157.131 142.642 157.545 142.522 157.869 142.342C158.193 142.15 158.433 141.886 158.589 141.55C158.757 141.202 158.841 140.746 158.841 140.182C158.841 139.642 158.751 139.21 158.571 138.886C158.391 138.55 158.133 138.292 157.797 138.112C157.461 137.932 157.059 137.812 156.591 137.752C156.123 137.68 155.601 137.644 155.025 137.644H151.767V142.792ZM151.767 136.6H154.863C155.499 136.6 156.033 136.546 156.465 136.438C156.897 136.33 157.245 136.174 157.509 135.97C157.773 135.754 157.959 135.496 158.067 135.196C158.187 134.884 158.247 134.53 158.247 134.134C158.247 133.726 158.181 133.384 158.049 133.108C157.917 132.82 157.707 132.592 157.419 132.424C157.131 132.244 156.753 132.118 156.285 132.046C155.829 131.962 155.265 131.92 154.593 131.92H151.767V136.6ZM150.543 143.836V130.876H155.223C155.979 130.876 156.627 130.954 157.167 131.11C157.707 131.266 158.145 131.488 158.481 131.776C158.829 132.064 159.081 132.412 159.237 132.82C159.393 133.216 159.471 133.654 159.471 134.134C159.471 134.59 159.411 134.986 159.291 135.322C159.171 135.646 159.015 135.922 158.823 136.15C158.631 136.366 158.409 136.54 158.157 136.672C157.917 136.792 157.665 136.876 157.401 136.924V136.96C158.301 137.092 158.967 137.446 159.399 138.022C159.843 138.598 160.065 139.318 160.065 140.182C160.065 140.854 159.957 141.424 159.741 141.892C159.537 142.36 159.249 142.738 158.877 143.026C158.505 143.314 158.055 143.524 157.527 143.656C157.011 143.776 156.447 143.836 155.835 143.836H150.543ZM163.215 141.046C163.347 141.73 163.611 142.246 164.007 142.594C164.415 142.942 164.973 143.116 165.681 143.116C166.437 143.116 167.037 142.93 167.481 142.558C167.937 142.186 168.285 141.718 168.525 141.154C168.777 140.59 168.945 139.984 169.029 139.336C169.125 138.676 169.185 138.058 169.209 137.482L169.173 137.446C168.789 138.094 168.309 138.586 167.733 138.922C167.169 139.258 166.509 139.426 165.753 139.426C165.153 139.426 164.613 139.33 164.133 139.138C163.653 138.946 163.239 138.67 162.891 138.31C162.555 137.95 162.291 137.518 162.099 137.014C161.919 136.51 161.829 135.952 161.829 135.34C161.829 134.74 161.913 134.188 162.081 133.684C162.249 133.168 162.501 132.724 162.837 132.352C163.173 131.968 163.593 131.674 164.097 131.47C164.613 131.254 165.219 131.146 165.915 131.146C166.767 131.146 167.475 131.314 168.039 131.65C168.615 131.986 169.071 132.442 169.407 133.018C169.755 133.594 170.001 134.272 170.145 135.052C170.289 135.832 170.361 136.666 170.361 137.554C170.361 138.634 170.247 139.582 170.019 140.398C169.791 141.202 169.467 141.88 169.047 142.432C168.639 142.984 168.153 143.398 167.589 143.674C167.025 143.95 166.407 144.088 165.735 144.088C165.243 144.088 164.781 144.028 164.349 143.908C163.917 143.788 163.539 143.602 163.215 143.35C162.891 143.098 162.627 142.78 162.423 142.396C162.219 142.012 162.093 141.562 162.045 141.046H163.215ZM165.915 132.118C164.943 132.142 164.211 132.442 163.719 133.018C163.227 133.594 162.981 134.38 162.981 135.376C162.981 136.348 163.233 137.104 163.737 137.644C164.253 138.184 164.979 138.454 165.915 138.454C166.359 138.454 166.755 138.37 167.103 138.202C167.463 138.034 167.763 137.806 168.003 137.518C168.255 137.23 168.441 136.9 168.561 136.528C168.693 136.144 168.759 135.736 168.759 135.304C168.759 134.368 168.507 133.612 168.003 133.036C167.499 132.448 166.803 132.142 165.915 132.118Z" fill="white"/>
<path d="M386.447 139.734H384.449L383.873 143.838H382.811L383.369 139.734H380.903L380.291 143.838H379.229L379.841 139.734H377.861V138.672H380.003L380.381 136.152H378.365V135.09H380.525L381.101 131.274H382.181L381.605 135.09H384.053L384.611 131.274H385.673L385.115 135.09H386.915V136.152H384.971L384.611 138.672H386.447V139.734ZM381.461 136.152L381.065 138.672H383.549L383.909 136.152H381.461ZM388.709 143.838V130.878H397.061V131.922H389.933V136.602H396.413V137.646H389.933V143.838H388.709ZM398.837 143.838V130.878H407.459V131.922H400.061V136.602H406.739V137.646H400.061V142.794H407.639V143.838H398.837ZM410.506 141.048C410.638 141.732 410.902 142.248 411.298 142.596C411.706 142.944 412.264 143.118 412.972 143.118C413.728 143.118 414.328 142.932 414.772 142.56C415.228 142.188 415.576 141.72 415.816 141.156C416.068 140.592 416.236 139.986 416.32 139.338C416.416 138.678 416.476 138.06 416.5 137.484L416.464 137.448C416.08 138.096 415.6 138.588 415.024 138.924C414.46 139.26 413.8 139.428 413.044 139.428C412.444 139.428 411.904 139.332 411.424 139.14C410.944 138.948 410.53 138.672 410.182 138.312C409.846 137.952 409.582 137.52 409.39 137.016C409.21 136.512 409.12 135.954 409.12 135.342C409.12 134.742 409.204 134.19 409.372 133.686C409.54 133.17 409.792 132.726 410.128 132.354C410.464 131.97 410.884 131.676 411.388 131.472C411.904 131.256 412.51 131.148 413.206 131.148C414.058 131.148 414.766 131.316 415.33 131.652C415.906 131.988 416.362 132.444 416.698 133.02C417.046 133.596 417.292 134.274 417.436 135.054C417.58 135.834 417.652 136.668 417.652 137.556C417.652 138.636 417.538 139.584 417.31 140.4C417.082 141.204 416.758 141.882 416.338 142.434C415.93 142.986 415.444 143.4 414.88 143.676C414.316 143.952 413.698 144.09 413.026 144.09C412.534 144.09 412.072 144.03 411.64 143.91C411.208 143.79 410.83 143.604 410.506 143.352C410.182 143.1 409.918 142.782 409.714 142.398C409.51 142.014 409.384 141.564 409.336 141.048H410.506ZM413.206 132.12C412.234 132.144 411.502 132.444 411.01 133.02C410.518 133.596 410.272 134.382 410.272 135.378C410.272 136.35 410.524 137.106 411.028 137.646C411.544 138.186 412.27 138.456 413.206 138.456C413.65 138.456 414.046 138.372 414.394 138.204C414.754 138.036 415.054 137.808 415.294 137.52C415.546 137.232 415.732 136.902 415.852 136.53C415.984 136.146 416.05 135.738 416.05 135.306C416.05 134.37 415.798 133.614 415.294 133.038C414.79 132.45 414.094 132.144 413.206 132.12ZM426.52 137.592C426.52 136.908 426.478 136.242 426.394 135.594C426.322 134.934 426.172 134.346 425.944 133.83C425.716 133.314 425.392 132.9 424.972 132.588C424.564 132.276 424.024 132.12 423.352 132.12C422.716 132.12 422.194 132.282 421.786 132.606C421.39 132.918 421.078 133.338 420.85 133.866C420.622 134.394 420.46 134.994 420.364 135.666C420.28 136.338 420.238 137.022 420.238 137.718C420.238 138.534 420.286 139.278 420.382 139.95C420.49 140.61 420.664 141.174 420.904 141.642C421.144 142.11 421.462 142.476 421.858 142.74C422.266 142.992 422.776 143.118 423.388 143.118C424.072 143.118 424.618 142.95 425.026 142.614C425.446 142.278 425.764 141.846 425.98 141.318C426.196 140.79 426.34 140.196 426.412 139.536C426.484 138.876 426.52 138.228 426.52 137.592ZM423.388 131.148C424.012 131.148 424.552 131.244 425.008 131.436C425.464 131.616 425.848 131.868 426.16 132.192C426.484 132.516 426.742 132.894 426.934 133.326C427.138 133.758 427.294 134.22 427.402 134.712C427.51 135.192 427.582 135.69 427.618 136.206C427.654 136.722 427.672 137.226 427.672 137.718C427.672 138.558 427.612 139.362 427.492 140.13C427.372 140.898 427.15 141.576 426.826 142.164C426.514 142.752 426.082 143.22 425.53 143.568C424.978 143.916 424.264 144.09 423.388 144.09C422.512 144.09 421.792 143.916 421.228 143.568C420.676 143.22 420.238 142.752 419.914 142.164C419.602 141.564 419.386 140.874 419.266 140.094C419.146 139.302 419.086 138.468 419.086 137.592C419.086 136.788 419.14 136.002 419.248 135.234C419.356 134.466 419.56 133.782 419.86 133.182C420.172 132.57 420.61 132.078 421.174 131.706C421.738 131.334 422.476 131.148 423.388 131.148ZM434.83 140.706H429.034V139.716L434.938 131.274H435.982V139.734H437.746V140.706H435.982V143.838H434.83V140.706ZM430.168 139.734H434.83V133.002L430.168 139.734ZM443.824 134.406H440.548V133.65C441.028 133.614 441.46 133.566 441.844 133.506C442.24 133.446 442.582 133.332 442.87 133.164C443.17 132.996 443.416 132.756 443.608 132.444C443.812 132.12 443.962 131.688 444.058 131.148H444.976V143.838H443.824V134.406Z" fill="white"/>
</svg>
