<svg width="776" height="302" viewBox="0 0 776 302" fill="none" xmlns="http://www.w3.org/2000/svg">
<path fill-rule="evenodd" clip-rule="evenodd" d="M330.116 12.1724L336.312 48.506C338.372 60.5892 321.46 65.6313 316.567 54.3925L322.11 51.9794C324.153 56.6711 331.213 54.5663 330.352 49.5221L324.157 13.1885L330.116 12.1724Z" fill="#042245"/>
<path fill-rule="evenodd" clip-rule="evenodd" d="M277.286 3.94857C287.701 -1.58522 300.248 -1.28521 310.386 4.74002C314.672 7.28719 319.566 8.63155 324.552 8.63155H326.922V14.6769H324.552C318.479 14.6769 312.518 13.0394 307.298 9.93684C298.974 4.99014 288.673 4.74384 280.123 9.28706L270.644 14.3234L267.808 8.98496L277.286 3.94857Z" fill="#042245"/>
<path fill-rule="evenodd" clip-rule="evenodd" d="M376.555 3.94857C366.14 -1.58522 353.593 -1.28521 343.455 4.74002C339.169 7.28719 334.276 8.63155 329.29 8.63155H326.919V14.6769H329.29C335.363 14.6769 341.323 13.0394 346.543 9.93684C354.867 4.99014 365.168 4.74384 373.719 9.28706L383.197 14.3234L386.034 8.98496L376.555 3.94857Z" fill="#042245"/>
<path fill-rule="evenodd" clip-rule="evenodd" d="M310.736 118.126L303.799 114.933L306.327 109.441L313.264 112.634C322.452 116.862 333.043 116.795 342.177 112.451L348.469 109.458L351.066 114.918L344.774 117.91C334.021 123.025 321.553 123.103 310.736 118.126Z" fill="#042245"/>
<path fill-rule="evenodd" clip-rule="evenodd" d="M378.083 69.2361C381.004 58.9744 393.336 54.0525 406.497 58.9516C416.538 62.6895 422.168 74.1651 420.632 85.3973C418.77 99.0193 405.813 108.601 391.85 106.888C378.15 105.206 372.071 98.6555 364.546 90.5464C362.257 88.0795 359.834 85.4683 357.022 82.8061C352.395 78.4259 348.287 74.7908 343.619 72.3007C338.852 69.7573 333.657 68.4833 326.912 68.4833V74.5286C332.807 74.5286 337 75.621 340.774 77.6345C344.648 79.7014 348.237 82.8138 352.866 87.1962C355.151 89.3597 357.274 91.6611 359.4 93.9664C367.191 102.413 375.031 110.914 391.113 112.888C408.165 114.981 424.286 103.304 426.622 86.216C428.453 72.8206 421.86 58.22 408.606 53.2861C393.511 47.6668 376.515 52.6651 372.269 67.581C371.012 71.9957 370.828 76.1702 371.962 80.1107C373.096 84.0513 375.471 87.4894 378.883 90.5603C381.799 93.1843 386.698 95.8009 391.989 96.2527C397.504 96.7236 403.425 94.8075 407.573 88.4131C412.03 81.5413 409.414 74.1951 404.721 70.4353C402.371 68.5521 399.315 67.3984 396.13 67.7456C392.85 68.103 389.868 70.006 387.733 73.4092L392.854 76.6223C394.137 74.5766 395.575 73.8872 396.785 73.7553C398.09 73.613 399.593 74.0731 400.941 75.1531C403.646 77.32 404.982 81.2988 402.501 85.1233C399.711 89.4252 396.069 90.5338 392.503 90.2293C388.714 89.9058 385.016 87.9469 382.927 86.0669C380.155 83.5717 378.526 81.0585 377.772 78.4388C377.018 75.819 377.062 72.8239 378.083 69.2361Z" fill="#042245"/>
<path fill-rule="evenodd" clip-rule="evenodd" d="M275.76 69.2361C272.839 58.9744 260.507 54.0525 247.346 58.9516C237.305 62.6895 231.675 74.1651 233.211 85.3973C235.073 99.0193 248.03 108.601 261.993 106.888C275.693 105.206 281.772 98.6555 289.297 90.5464C291.586 88.0795 294.009 85.4683 296.821 82.8061C301.448 78.4259 305.556 74.7908 310.224 72.3007C314.992 69.7573 320.187 68.4833 326.931 68.4833V74.5286C321.037 74.5286 316.844 75.621 313.069 77.6345C309.195 79.7014 305.607 82.8138 300.977 87.1962C298.692 89.3597 296.569 91.6611 294.443 93.9664C286.652 102.413 278.812 110.914 262.73 112.888C245.679 114.981 229.557 103.304 227.221 86.216C225.39 72.8206 231.984 58.22 245.237 53.2861C260.333 47.6668 277.328 52.6651 281.574 67.581C282.831 71.9957 283.015 76.1702 281.881 80.1107C280.747 84.0513 278.372 87.4894 274.96 90.5603C272.045 93.1843 267.145 95.8009 261.854 96.2527C256.339 96.7236 250.418 94.8075 246.27 88.4131C241.813 81.5413 244.429 74.1951 249.122 70.4353C251.473 68.5521 254.529 67.3984 257.713 67.7456C260.993 68.103 263.975 70.006 266.11 73.4092L260.99 76.6223C259.706 74.5766 258.268 73.8872 257.058 73.7553C255.753 73.613 254.25 74.0731 252.902 75.1531C250.198 77.32 248.861 81.2988 251.342 85.1233C254.132 89.4252 257.775 90.5338 261.34 90.2293C265.129 89.9058 268.827 87.9469 270.916 86.0669C273.688 83.5717 275.317 81.0585 276.071 78.4388C276.825 75.819 276.781 72.8239 275.76 69.2361Z" fill="#042245"/>
<path fill-rule="evenodd" clip-rule="evenodd" d="M422.529 106.679C422.503 110.638 421.129 114.401 419.589 117.315C416.601 122.967 410.971 126.957 404.164 128.941C397.358 130.924 389.623 130.815 382.832 128.5C375.297 125.93 370.617 121.396 366.771 115.764C364.82 112.907 363.1 109.792 361.317 106.469C361.083 106.033 360.848 105.592 360.611 105.149C359.064 102.255 357.443 99.2237 355.622 96.2518C352.23 90.7173 348.313 85.3075 343.673 81.2614C338.997 77.1848 333.445 74.3762 326.887 74.3762L326.887 80.4215C331.578 80.4215 335.774 82.3953 339.7 85.818C343.661 89.2713 347.199 94.0777 350.467 99.4107C352.188 102.219 353.718 105.079 355.271 107.984C355.51 108.431 355.75 108.878 355.99 109.327C357.776 112.654 359.628 116.024 361.779 119.173C366.136 125.553 371.776 131.117 380.881 134.221C388.878 136.948 397.885 137.067 405.855 134.745C413.824 132.423 421.002 127.576 424.933 120.14C426.738 116.726 428.54 111.986 428.575 106.719C428.61 101.348 426.799 95.5882 421.647 90.3774L417.348 94.6278C421.311 98.6361 422.555 102.825 422.529 106.679Z" fill="#042245"/>
<path fill-rule="evenodd" clip-rule="evenodd" d="M231.318 106.679C231.344 110.638 232.718 114.401 234.259 117.315C237.247 122.967 242.877 126.957 249.684 128.941C256.49 130.924 264.225 130.815 271.016 128.5C278.551 125.93 283.231 121.396 287.077 115.764C289.027 112.907 290.747 109.792 292.53 106.469C292.764 106.033 293 105.592 293.237 105.149C294.784 102.255 296.405 99.2237 298.226 96.2518C301.618 90.7173 305.534 85.3075 310.175 81.2614C314.851 77.1848 320.403 74.3762 326.96 74.3762L326.96 80.4215C322.27 80.4215 318.074 82.3953 314.148 85.818C310.187 89.2713 306.649 94.0777 303.38 99.4107C301.659 102.219 300.13 105.079 298.576 107.984C298.337 108.431 298.098 108.878 297.857 109.327C296.072 112.654 294.22 116.024 292.069 119.173C287.712 125.553 282.072 131.117 272.967 134.221C264.97 136.948 255.962 137.067 247.993 134.745C240.024 132.423 232.845 127.576 228.914 120.14C227.109 116.726 225.308 111.986 225.273 106.719C225.238 101.348 227.049 95.5882 232.201 90.3774L236.5 94.6278C232.537 98.6361 231.293 102.825 231.318 106.679Z" fill="#042245"/>
<path fill-rule="evenodd" clip-rule="evenodd" d="M415.525 138.259C414.127 142.531 411.148 146.101 408.609 147.933C397.596 155.881 381.489 155.964 369.537 147.88C362.943 143.42 359.62 137.815 357.39 131.37C356.259 128.101 355.419 124.643 354.572 120.968C354.461 120.485 354.35 119.999 354.237 119.509C353.505 116.31 352.739 112.959 351.763 109.613C349.89 103.189 346.527 96.0521 342.375 90.4575C340.298 87.6576 337.952 85.1483 335.406 83.3153C332.867 81.4869 329.957 80.2127 326.827 80.2127L326.827 86.258C328.286 86.258 329.979 86.8573 331.874 88.2214C333.763 89.5811 335.683 91.5834 337.521 94.0598C341.2 99.0181 344.264 105.493 345.959 111.305C346.881 114.468 347.605 117.629 348.34 120.84C348.453 121.334 348.567 121.829 348.681 122.325C349.529 126.005 350.43 129.743 351.677 133.347C354.203 140.648 358.182 147.498 366.15 152.888C380.081 162.31 398.959 162.353 412.147 152.835C415.647 150.309 419.447 145.713 421.27 140.139C423.138 134.43 422.937 127.617 418.174 121.174L413.313 124.767C416.743 129.407 416.879 134.121 415.525 138.259Z" fill="#042245"/>
<path fill-rule="evenodd" clip-rule="evenodd" d="M238.33 138.254C239.727 142.527 242.707 146.096 245.245 147.928C256.258 155.877 272.365 155.96 284.317 147.876C290.912 143.416 294.235 137.811 296.465 131.366C297.596 128.096 298.436 124.638 299.283 120.963C299.394 120.481 299.505 119.995 299.617 119.505C300.349 116.305 301.116 112.955 302.092 109.609C303.965 103.185 307.328 96.0477 311.479 90.4532C313.557 87.6532 315.902 85.1439 318.448 83.3109C320.988 81.4825 323.898 80.2084 327.028 80.2084L327.028 86.2536C325.568 86.2536 323.875 86.8529 321.98 88.217C320.092 89.5767 318.171 91.579 316.334 94.0555C312.655 99.0137 309.59 105.488 307.895 111.301C306.973 114.463 306.249 117.625 305.514 120.835C305.401 121.329 305.288 121.824 305.174 122.321C304.326 126 303.425 129.738 302.178 133.342C299.652 140.643 295.672 147.494 287.704 152.883C273.773 162.306 254.895 162.348 241.707 152.83C238.207 150.304 234.408 145.708 232.584 140.134C230.717 134.426 230.917 127.613 235.68 121.169L240.541 124.763C237.112 129.402 236.976 134.117 238.33 138.254Z" fill="#042245"/>
<path d="M0 136.505V131.887C3.54505 131.7 5.97061 130.907 7.27668 129.508C8.58276 128.015 9.28244 126.009 9.37573 123.49C9.56231 120.878 9.6556 117.94 9.6556 114.674V54.222C9.6556 52.3562 9.70224 50.5837 9.79553 48.9044C9.88883 47.1319 9.98212 45.546 10.0754 44.1466C8.39617 44.2399 6.71694 44.3332 5.0377 44.4265C3.35847 44.5198 1.67923 44.6131 0 44.7064V38.5492H31.4856V43.1671C28.0339 43.2604 25.6083 44.0533 24.209 45.546C22.9029 47.0386 22.1566 49.0444 21.97 51.5632C21.8767 54.0821 21.8301 57.0208 21.8301 60.3792V120.412C21.8301 122.931 21.7834 125.076 21.6901 126.849C21.6901 128.621 21.5968 130.114 21.4102 131.327L47.5783 130.907C53.4556 130.814 57.887 128.948 60.8723 125.31C63.9509 121.671 65.4902 115.747 65.4902 107.538H70.248L69.4084 136.505H0Z" fill="#042245"/>
<path d="M112.386 43.1671C108.935 43.2604 106.509 44.0533 105.11 45.546C103.804 47.0386 103.057 49.0444 102.871 51.5632C102.777 54.0821 102.731 57.0208 102.731 60.3792V119.852C102.731 122.371 102.684 124.563 102.591 126.429C102.591 128.202 102.497 129.694 102.311 130.907C103.99 130.814 105.669 130.721 107.349 130.627C109.028 130.534 110.707 130.441 112.386 130.347V136.505H80.9006V131.887C84.4457 131.7 86.8712 130.907 88.1773 129.508C89.4834 128.015 90.1831 126.009 90.2764 123.49C90.4629 120.878 90.5562 117.94 90.5562 114.674V54.222C90.5562 52.3562 90.6029 50.5837 90.6962 48.9044C90.7895 47.1319 90.8827 45.546 90.976 44.1466C89.2968 44.2399 87.6176 44.3332 85.9383 44.4265C84.2591 44.5198 82.5799 44.6131 80.9006 44.7064V38.5492H112.386V43.1671Z" fill="#042245"/>
<path d="M127.774 136.505V131.887C131.319 131.7 133.744 130.907 135.05 129.508C136.357 128.015 137.056 126.009 137.15 123.49C137.336 120.878 137.429 117.94 137.429 114.674V54.222C137.429 52.3562 137.476 50.5837 137.569 48.9044C137.663 47.1319 137.756 45.546 137.849 44.1466C136.17 44.2399 134.491 44.3332 132.811 44.4265C131.132 44.5198 129.453 44.6131 127.774 44.7064V38.5492C132.998 38.4559 138.269 38.3626 143.587 38.2693C148.997 38.176 154.408 38.2227 159.819 38.4092C168.868 38.5025 176.145 39.5754 181.649 41.6278C187.247 43.5869 191.351 46.4322 193.964 50.1639C196.576 53.8022 197.882 58.2335 197.882 63.4578C197.975 67.0962 197.275 70.8278 195.783 74.6527C194.383 78.3844 191.771 81.7428 187.946 84.7281C184.215 87.7134 178.804 89.9524 171.714 91.4451C173.58 92.7511 175.212 94.4304 176.612 96.4828C178.011 98.5352 179.597 100.914 181.369 103.62L190.885 118.593C192.471 121.112 194.01 123.397 195.503 125.45C196.996 127.409 198.721 128.995 200.681 130.207C202.64 131.327 205.065 131.887 207.957 131.887V136.505H190.325C187.62 134.079 185.334 131.653 183.468 129.228C181.696 126.802 179.83 124.05 177.871 120.972L168.495 105.998C167.282 104.039 165.883 101.8 164.297 99.2815C162.804 96.6694 161.079 94.477 159.12 92.7045C157.627 92.7978 156.041 92.8444 154.362 92.8444C152.776 92.8444 151.19 92.7978 149.604 92.7045V119.852C149.604 122.371 149.557 124.563 149.464 126.429C149.464 128.202 149.371 129.694 149.184 130.907C150.304 130.814 151.423 130.767 152.543 130.767C153.662 130.674 154.781 130.581 155.901 130.487C157.02 130.394 158.14 130.347 159.259 130.347V136.505H127.774ZM158.28 87.5269C163.411 87.3403 167.889 86.5007 171.714 85.008C175.632 83.5154 178.711 81.1364 180.95 77.8713C183.189 74.6061 184.308 70.3147 184.308 64.9971C184.308 61.4521 183.795 58.3735 182.769 55.7613C181.836 53.0559 180.343 50.8169 178.291 49.0444C176.238 47.2719 173.626 45.9658 170.454 45.1262C167.282 44.1933 163.551 43.7268 159.259 43.7268C155.808 43.7268 153.382 44.4265 151.983 45.8259C150.677 47.2252 149.93 49.1843 149.744 51.7032C149.65 54.1287 149.604 57.0208 149.604 60.3792V87.247C151.096 87.3403 152.496 87.4336 153.802 87.5269C155.201 87.6201 156.694 87.6201 158.28 87.5269Z" fill="#042245"/>
<path d="M0 136.505V131.887C3.54505 131.7 5.97061 130.907 7.27668 129.508C8.58276 128.015 9.28244 126.009 9.37573 123.49C9.56231 120.878 9.6556 117.94 9.6556 114.674V54.222C9.6556 52.3562 9.70224 50.5837 9.79553 48.9044C9.88883 47.1319 9.98212 45.546 10.0754 44.1466C8.39617 44.2399 6.71694 44.3332 5.0377 44.4265C3.35847 44.5198 1.67923 44.6131 0 44.7064V38.5492H31.4856V43.1671C28.0339 43.2604 25.6083 44.0533 24.209 45.546C22.9029 47.0386 22.1566 49.0444 21.97 51.5632C21.8767 54.0821 21.8301 57.0208 21.8301 60.3792V120.412C21.8301 122.931 21.7834 125.076 21.6901 126.849C21.6901 128.621 21.5968 130.114 21.4102 131.327L47.5783 130.907C53.4556 130.814 57.887 128.948 60.8723 125.31C63.9509 121.671 65.4902 115.747 65.4902 107.538H70.248L69.4084 136.505H0Z" stroke="white"/>
<path d="M112.386 43.1671C108.935 43.2604 106.509 44.0533 105.11 45.546C103.804 47.0386 103.057 49.0444 102.871 51.5632C102.777 54.0821 102.731 57.0208 102.731 60.3792V119.852C102.731 122.371 102.684 124.563 102.591 126.429C102.591 128.202 102.497 129.694 102.311 130.907C103.99 130.814 105.669 130.721 107.349 130.627C109.028 130.534 110.707 130.441 112.386 130.347V136.505H80.9006V131.887C84.4457 131.7 86.8712 130.907 88.1773 129.508C89.4834 128.015 90.1831 126.009 90.2764 123.49C90.4629 120.878 90.5562 117.94 90.5562 114.674V54.222C90.5562 52.3562 90.6029 50.5837 90.6962 48.9044C90.7895 47.1319 90.8827 45.546 90.976 44.1466C89.2968 44.2399 87.6176 44.3332 85.9383 44.4265C84.2591 44.5198 82.5799 44.6131 80.9006 44.7064V38.5492H112.386V43.1671Z" stroke="white"/>
<path d="M127.774 136.505V131.887C131.319 131.7 133.744 130.907 135.05 129.508C136.357 128.015 137.056 126.009 137.15 123.49C137.336 120.878 137.429 117.94 137.429 114.674V54.222C137.429 52.3562 137.476 50.5837 137.569 48.9044C137.663 47.1319 137.756 45.546 137.849 44.1466C136.17 44.2399 134.491 44.3332 132.811 44.4265C131.132 44.5198 129.453 44.6131 127.774 44.7064V38.5492C132.998 38.4559 138.269 38.3626 143.587 38.2693C148.997 38.176 154.408 38.2227 159.819 38.4092C168.868 38.5025 176.145 39.5754 181.649 41.6278C187.247 43.5869 191.351 46.4322 193.964 50.1639C196.576 53.8022 197.882 58.2335 197.882 63.4578C197.975 67.0962 197.275 70.8278 195.783 74.6527C194.383 78.3844 191.771 81.7428 187.946 84.7281C184.215 87.7134 178.804 89.9524 171.714 91.4451C173.58 92.7511 175.212 94.4304 176.612 96.4828C178.011 98.5352 179.597 100.914 181.369 103.62L190.885 118.593C192.471 121.112 194.01 123.397 195.503 125.45C196.996 127.409 198.721 128.995 200.681 130.207C202.64 131.327 205.065 131.887 207.957 131.887V136.505H190.325C187.62 134.079 185.334 131.653 183.468 129.228C181.696 126.802 179.83 124.05 177.871 120.972L168.495 105.998C167.282 104.039 165.883 101.8 164.297 99.2815C162.804 96.6694 161.079 94.477 159.12 92.7045C157.627 92.7978 156.041 92.8444 154.362 92.8444C152.776 92.8444 151.19 92.7978 149.604 92.7045V119.852C149.604 122.371 149.557 124.563 149.464 126.429C149.464 128.202 149.371 129.694 149.184 130.907C150.304 130.814 151.423 130.767 152.543 130.767C153.662 130.674 154.781 130.581 155.901 130.487C157.02 130.394 158.14 130.347 159.259 130.347V136.505H127.774ZM158.28 87.5269C163.411 87.3403 167.889 86.5007 171.714 85.008C175.632 83.5154 178.711 81.1364 180.95 77.8713C183.189 74.6061 184.308 70.3147 184.308 64.9971C184.308 61.4521 183.795 58.3735 182.769 55.7613C181.836 53.0559 180.343 50.8169 178.291 49.0444C176.238 47.2719 173.626 45.9658 170.454 45.1262C167.282 44.1933 163.551 43.7268 159.259 43.7268C155.808 43.7268 153.382 44.4265 151.983 45.8259C150.677 47.2252 149.93 49.1843 149.744 51.7032C149.65 54.1287 149.604 57.0208 149.604 60.3792V87.247C151.096 87.3403 152.496 87.4336 153.802 87.5269C155.201 87.6201 156.694 87.6201 158.28 87.5269Z" stroke="white"/>
<path fill-rule="evenodd" clip-rule="evenodd" d="M673.19 139.483L679.381 175.79C681.44 187.865 664.54 192.903 659.651 181.672L665.19 179.261C667.231 183.949 674.285 181.846 673.426 176.806L667.235 140.498L673.19 139.483Z" fill="#042245"/>
<path fill-rule="evenodd" clip-rule="evenodd" d="M620.397 131.266C630.805 125.736 643.343 126.036 653.474 132.056C657.756 134.602 662.646 135.945 667.628 135.945H669.997V141.986H667.628C661.56 141.986 655.604 140.35 650.387 137.249C642.07 132.306 631.776 132.06 623.232 136.6L613.76 141.633L610.926 136.298L620.397 131.266Z" fill="#042245"/>
<path fill-rule="evenodd" clip-rule="evenodd" d="M719.594 131.264C709.187 125.734 696.649 126.034 686.518 132.054C682.235 134.6 677.345 135.943 672.363 135.943H669.994V141.984H672.363C678.432 141.984 684.388 140.348 689.604 137.247C697.922 132.304 708.216 132.058 716.76 136.598L726.231 141.631L729.066 136.296L719.594 131.264Z" fill="#042245"/>
<path fill-rule="evenodd" clip-rule="evenodd" d="M653.824 245.359L646.892 242.169L649.418 236.681L656.35 239.871C665.531 244.097 676.115 244.03 685.242 239.688L691.529 236.698L694.124 242.153L687.837 245.144C677.092 250.254 664.633 250.333 653.824 245.359Z" fill="#042245"/>
<path fill-rule="evenodd" clip-rule="evenodd" d="M721.123 196.503C724.042 186.249 736.365 181.331 749.516 186.226C759.549 189.961 765.175 201.429 763.641 212.653C761.78 226.265 748.832 235.84 734.879 234.127C721.189 232.447 715.115 225.901 707.596 217.798C705.308 215.333 702.887 212.724 700.077 210.063C695.453 205.686 691.348 202.054 686.684 199.566C681.92 197.024 676.728 195.751 669.989 195.751V201.792C675.879 201.792 680.069 202.883 683.841 204.895C687.712 206.961 691.298 210.071 695.924 214.45C698.208 216.612 700.329 218.912 702.453 221.216C710.238 229.656 718.073 238.151 734.143 240.123C751.182 242.214 767.292 230.546 769.626 213.471C771.456 200.085 764.867 185.495 751.623 180.565C736.539 174.95 719.555 179.944 715.313 194.849C714.057 199.261 713.873 203.432 715.006 207.37C716.14 211.308 718.512 214.743 721.922 217.812C724.835 220.434 729.731 223.049 735.018 223.5C740.529 223.971 746.446 222.056 750.591 215.666C755.045 208.799 752.43 201.459 747.741 197.702C745.392 195.82 742.339 194.667 739.156 195.014C735.879 195.371 732.899 197.273 730.765 200.673L735.882 203.884C737.165 201.84 738.602 201.151 739.811 201.019C741.115 200.877 742.617 201.337 743.964 202.416C746.667 204.581 748.002 208.557 745.523 212.379C742.735 216.678 739.095 217.785 735.532 217.481C731.746 217.158 728.051 215.2 725.963 213.322C723.193 210.828 721.565 208.317 720.812 205.699C720.058 203.081 720.102 200.088 721.123 196.503Z" fill="#042245"/>
<path fill-rule="evenodd" clip-rule="evenodd" d="M618.874 196.503C615.955 186.249 603.632 181.331 590.481 186.226C580.448 189.961 574.822 201.429 576.356 212.653C578.217 226.265 591.165 235.84 605.118 234.127C618.808 232.447 624.882 225.901 632.401 217.798C634.689 215.333 637.11 212.724 639.92 210.063C644.544 205.686 648.649 202.054 653.313 199.566C658.077 197.024 663.269 195.751 670.008 195.751V201.792C664.118 201.792 659.928 202.883 656.157 204.895C652.285 206.961 648.699 210.071 644.073 214.45C641.79 216.612 639.668 218.912 637.544 221.216C629.759 229.656 621.924 238.151 605.854 240.123C588.815 242.214 572.705 230.546 570.371 213.471C568.541 200.085 575.13 185.495 588.374 180.565C603.458 174.95 620.442 179.944 624.684 194.849C625.94 199.261 626.124 203.432 624.991 207.37C623.858 211.308 621.485 214.743 618.075 217.812C615.162 220.434 610.266 223.049 604.979 223.5C599.468 223.971 593.551 222.056 589.406 215.666C584.952 208.799 587.567 201.459 592.256 197.702C594.605 195.82 597.659 194.667 600.841 195.014C604.118 195.371 607.098 197.273 609.232 200.673L604.115 203.884C602.832 201.84 601.396 201.151 600.186 201.019C598.882 200.877 597.38 201.337 596.033 202.416C593.33 204.581 591.995 208.557 594.474 212.379C597.262 216.678 600.902 217.785 604.465 217.481C608.251 217.158 611.946 215.2 614.034 213.322C616.804 210.828 618.432 208.317 619.185 205.699C619.939 203.081 619.895 200.088 618.874 196.503Z" fill="#042245"/>
<path fill-rule="evenodd" clip-rule="evenodd" d="M765.536 233.922C765.51 237.878 764.137 241.639 762.598 244.55C759.612 250.198 753.986 254.186 747.184 256.168C740.383 258.149 732.653 258.041 725.867 255.727C718.337 253.159 713.661 248.628 709.818 243C707.869 240.146 706.15 237.032 704.368 233.712C704.134 233.276 703.899 232.836 703.662 232.393C702.116 229.501 700.497 226.472 698.677 223.502C695.287 217.972 691.374 212.566 686.736 208.523C682.064 204.449 676.516 201.643 669.963 201.643L669.963 207.684C674.65 207.684 678.844 209.656 682.767 213.076C686.724 216.527 690.26 221.33 693.526 226.659C695.246 229.465 696.775 232.324 698.327 235.226C698.565 235.672 698.805 236.12 699.045 236.568C700.829 239.893 702.68 243.26 704.829 246.407C709.183 252.782 714.819 258.342 723.918 261.444C731.908 264.169 740.91 264.288 748.874 261.967C756.837 259.647 764.01 254.804 767.938 247.373C769.742 243.961 771.542 239.225 771.577 233.962C771.612 228.595 769.802 222.839 764.654 217.632L760.358 221.88C764.318 225.885 765.561 230.071 765.536 233.922Z" fill="#042245"/>
<path fill-rule="evenodd" clip-rule="evenodd" d="M574.464 233.922C574.49 237.878 575.863 241.639 577.402 244.55C580.388 250.198 586.014 254.186 592.816 256.168C599.617 258.149 607.346 258.041 614.132 255.727C621.662 253.159 626.338 248.628 630.182 243C632.131 240.146 633.849 237.032 635.631 233.712C635.865 233.276 636.1 232.836 636.337 232.393C637.883 229.501 639.503 226.472 641.323 223.502C644.712 217.972 648.626 212.566 653.263 208.523C657.935 204.449 663.483 201.643 670.036 201.643L670.036 207.684C665.349 207.684 661.156 209.656 657.233 213.076C653.275 216.527 649.739 221.33 646.473 226.659C644.754 229.465 643.225 232.324 641.673 235.226C641.434 235.672 641.195 236.12 640.954 236.568C639.17 239.893 637.319 243.26 635.17 246.407C630.817 252.782 625.18 258.342 616.082 261.444C608.091 264.169 599.09 264.288 591.126 261.967C583.163 259.647 575.989 254.804 572.061 247.373C570.258 243.961 568.457 239.225 568.423 233.962C568.388 228.595 570.197 222.839 575.346 217.632L579.642 221.88C575.681 225.885 574.438 230.071 574.464 233.922Z" fill="#042245"/>
<path fill-rule="evenodd" clip-rule="evenodd" d="M758.536 265.475C757.139 269.744 754.162 273.311 751.625 275.142C740.621 283.085 724.525 283.167 712.582 275.09C705.992 270.632 702.672 265.032 700.443 258.591C699.313 255.324 698.473 251.869 697.627 248.197C697.516 247.715 697.405 247.228 697.293 246.739C696.562 243.542 695.796 240.194 694.82 236.85C692.949 230.431 689.588 223.299 685.44 217.708C683.364 214.911 681.02 212.403 678.476 210.571C675.938 208.744 673.03 207.471 669.902 207.471L669.902 213.512C671.361 213.512 673.053 214.111 674.946 215.474C676.833 216.833 678.752 218.834 680.589 221.308C684.265 226.263 687.327 232.733 689.021 238.541C689.943 241.701 690.666 244.861 691.4 248.069C691.513 248.562 691.627 249.057 691.741 249.553C692.588 253.23 693.488 256.965 694.734 260.566C697.259 267.862 701.235 274.708 709.198 280.093C723.118 289.509 741.983 289.552 755.161 280.04C758.658 277.516 762.455 272.923 764.278 267.353C766.144 261.649 765.943 254.841 761.184 248.402L756.326 251.994C759.753 256.629 759.889 261.34 758.536 265.475Z" fill="#042245"/>
<path fill-rule="evenodd" clip-rule="evenodd" d="M581.468 265.473C582.865 269.742 585.842 273.309 588.379 275.14C599.383 283.082 615.479 283.165 627.422 275.087C634.012 270.63 637.332 265.029 639.561 258.589C640.691 255.322 641.53 251.866 642.376 248.194C642.487 247.712 642.599 247.226 642.711 246.736C643.442 243.539 644.208 240.191 645.183 236.848C647.055 230.429 650.416 223.297 654.564 217.706C656.64 214.908 658.984 212.401 661.528 210.569C664.066 208.742 666.974 207.469 670.102 207.469L670.102 213.51C668.643 213.51 666.951 214.108 665.058 215.472C663.171 216.83 661.252 218.831 659.415 221.306C655.739 226.26 652.677 232.73 650.983 238.539C650.061 241.699 649.338 244.858 648.604 248.066C648.491 248.56 648.377 249.054 648.263 249.55C647.416 253.227 646.515 256.962 645.269 260.564C642.745 267.86 638.769 274.705 630.806 280.091C616.886 289.506 598.021 289.549 584.843 280.038C581.346 277.514 577.549 272.921 575.726 267.351C573.86 261.647 574.061 254.838 578.82 248.4L583.678 251.991C580.251 256.627 580.115 261.338 581.468 265.473Z" fill="#042245"/>
<path d="M566.12 98.2105V93.5959C569.663 93.4095 572.086 92.6171 573.392 91.2187C574.697 89.7272 575.396 87.7229 575.489 85.2058C575.675 82.5956 575.769 79.6591 575.769 76.3963V15.9878C575.769 14.1233 575.815 12.352 575.909 10.674C576.002 8.90279 576.095 7.318 576.188 5.91966C574.51 6.01288 572.832 6.10611 571.154 6.19933C569.476 6.29255 567.798 6.38578 566.12 6.479V0.326275H597.583V4.94081C594.134 5.03404 591.71 5.82644 590.311 7.31801C589.006 8.80958 588.261 10.8139 588.074 13.3309C587.981 15.8479 587.934 18.7844 587.934 22.1405V82.1295C587.934 84.6465 587.888 86.7906 587.794 88.5619C587.794 90.3331 587.701 91.8247 587.515 93.0366L613.664 92.6171C619.537 92.5239 623.965 90.6594 626.948 87.0237C630.024 83.388 631.563 77.4683 631.563 69.2647H636.317L635.478 98.2105H566.12Z" fill="#042245"/>
<path d="M678.425 4.94081C674.975 5.03404 672.552 5.82644 671.153 7.31801C669.848 8.80958 669.102 10.8139 668.916 13.3309C668.823 15.8479 668.776 18.7844 668.776 22.1405V81.5701C668.776 84.0872 668.73 86.2779 668.636 88.1424C668.636 89.9136 668.543 91.4052 668.357 92.6171C670.035 92.5239 671.713 92.4306 673.391 92.3374C675.069 92.2442 676.747 92.151 678.425 92.0577V98.2105H646.962V93.5959C650.504 93.4095 652.928 92.6171 654.233 91.2187C655.538 89.7272 656.238 87.7229 656.331 85.2058C656.517 82.5956 656.611 79.6591 656.611 76.3963V15.9878C656.611 14.1233 656.657 12.352 656.75 10.674C656.844 8.90279 656.937 7.318 657.03 5.91966C655.352 6.01288 653.674 6.10611 651.996 6.19933C650.318 6.29255 648.64 6.38578 646.962 6.479V0.326275H678.425V4.94081Z" fill="#042245"/>
<path d="M693.801 98.2105V93.5959C697.344 93.4095 699.767 92.6171 701.072 91.2187C702.378 89.7272 703.077 87.7229 703.17 85.2058C703.356 82.5956 703.45 79.6591 703.45 76.3963V15.9878C703.45 14.1233 703.496 12.352 703.589 10.674C703.683 8.90279 703.776 7.318 703.869 5.91966C702.191 6.01288 700.513 6.10611 698.835 6.19933C697.157 6.29255 695.479 6.38578 693.801 6.479V0.326275C699.022 0.233053 704.289 0.139833 709.602 0.0466112C715.009 -0.0466106 720.416 -7.46758e-07 725.823 0.186443C734.866 0.279665 742.137 1.35173 747.637 3.40264C753.231 5.36032 757.333 8.20363 759.943 11.9325C762.553 15.5682 763.858 19.9963 763.858 25.2168C763.951 28.8525 763.252 32.5814 761.761 36.4036C760.362 40.1325 757.752 43.4885 753.93 46.4717C750.201 49.4548 744.794 51.6922 737.709 53.1837C739.574 54.4889 741.205 56.1669 742.603 58.2178C744.002 60.2687 745.586 62.6459 747.358 65.3493L756.866 80.3116C758.451 82.8287 759.989 85.1126 761.481 87.1635C762.973 89.1212 764.697 90.706 766.655 91.9179C768.613 93.0366 771.036 93.5959 773.926 93.5959V98.2105H756.307C753.604 95.7867 751.32 93.3629 749.455 90.9391C747.684 88.5153 745.819 85.7652 743.862 82.6888L734.493 67.7265C733.281 65.7688 731.883 63.5315 730.298 61.0145C728.806 58.4042 727.082 56.2135 725.124 54.4422C723.632 54.5355 722.048 54.5821 720.37 54.5821C718.785 54.5821 717.2 54.5355 715.615 54.4422V81.5701C715.615 84.0872 715.569 86.2779 715.475 88.1424C715.475 89.9136 715.382 91.4052 715.196 92.6171C716.314 92.5239 717.433 92.4772 718.552 92.4772C719.67 92.384 720.789 92.2908 721.908 92.1976C723.026 92.1044 724.145 92.0577 725.264 92.0577V98.2105H693.801ZM724.285 49.2684C729.412 49.0819 733.887 48.2429 737.709 46.7513C741.624 45.2598 744.701 42.8826 746.938 39.6198C749.176 36.357 750.294 32.0687 750.294 26.755C750.294 23.2125 749.781 20.1362 748.756 17.5259C747.824 14.8225 746.332 12.5851 744.281 10.8139C742.23 9.04263 739.62 7.73751 736.451 6.8985C733.281 5.96627 729.552 5.50015 725.264 5.50015C721.815 5.50015 719.391 6.19933 717.992 7.59768C716.687 8.99602 715.942 10.9537 715.755 13.4707C715.662 15.8945 715.615 18.7844 715.615 22.1405V48.9887C717.107 49.0819 718.505 49.1751 719.81 49.2684C721.209 49.3616 722.7 49.3616 724.285 49.2684Z" fill="#042245"/>
<path d="M566.12 98.2105V93.5959C569.663 93.4095 572.086 92.6171 573.392 91.2187C574.697 89.7272 575.396 87.7229 575.489 85.2058C575.675 82.5956 575.769 79.6591 575.769 76.3963V15.9878C575.769 14.1233 575.815 12.352 575.909 10.674C576.002 8.90279 576.095 7.318 576.188 5.91966C574.51 6.01288 572.832 6.10611 571.154 6.19933C569.476 6.29255 567.798 6.38578 566.12 6.479V0.326275H597.583V4.94081C594.134 5.03404 591.71 5.82644 590.311 7.31801C589.006 8.80958 588.261 10.8139 588.074 13.3309C587.981 15.8479 587.934 18.7844 587.934 22.1405V82.1295C587.934 84.6465 587.888 86.7906 587.794 88.5619C587.794 90.3331 587.701 91.8247 587.515 93.0366L613.664 92.6171C619.537 92.5239 623.965 90.6594 626.948 87.0237C630.024 83.388 631.563 77.4683 631.563 69.2647H636.317L635.478 98.2105H566.12Z" stroke="white"/>
<path d="M678.425 4.94081C674.975 5.03404 672.552 5.82644 671.153 7.31801C669.848 8.80958 669.102 10.8139 668.916 13.3309C668.823 15.8479 668.776 18.7844 668.776 22.1405V81.5701C668.776 84.0872 668.73 86.2779 668.636 88.1424C668.636 89.9136 668.543 91.4052 668.357 92.6171C670.035 92.5239 671.713 92.4306 673.391 92.3374C675.069 92.2442 676.747 92.151 678.425 92.0577V98.2105H646.962V93.5959C650.504 93.4095 652.928 92.6171 654.233 91.2187C655.538 89.7272 656.238 87.7229 656.331 85.2058C656.517 82.5956 656.611 79.6591 656.611 76.3963V15.9878C656.611 14.1233 656.657 12.352 656.75 10.674C656.844 8.90279 656.937 7.318 657.03 5.91966C655.352 6.01288 653.674 6.10611 651.996 6.19933C650.318 6.29255 648.64 6.38578 646.962 6.479V0.326275H678.425V4.94081Z" stroke="white"/>
<path d="M693.801 98.2105V93.5959C697.344 93.4095 699.767 92.6171 701.072 91.2187C702.378 89.7272 703.077 87.7229 703.17 85.2058C703.356 82.5956 703.45 79.6591 703.45 76.3963V15.9878C703.45 14.1233 703.496 12.352 703.589 10.674C703.683 8.90279 703.776 7.318 703.869 5.91966C702.191 6.01288 700.513 6.10611 698.835 6.19933C697.157 6.29255 695.479 6.38578 693.801 6.479V0.326275C699.022 0.233053 704.289 0.139833 709.602 0.0466112C715.009 -0.0466106 720.416 -7.46758e-07 725.823 0.186443C734.866 0.279665 742.137 1.35173 747.637 3.40264C753.231 5.36032 757.333 8.20363 759.943 11.9325C762.553 15.5682 763.858 19.9963 763.858 25.2168C763.951 28.8525 763.252 32.5814 761.761 36.4036C760.362 40.1325 757.752 43.4885 753.93 46.4717C750.201 49.4548 744.794 51.6922 737.709 53.1837C739.574 54.4889 741.205 56.1669 742.603 58.2178C744.002 60.2687 745.586 62.6459 747.358 65.3493L756.866 80.3116C758.451 82.8287 759.989 85.1126 761.481 87.1635C762.973 89.1212 764.697 90.706 766.655 91.9179C768.613 93.0366 771.036 93.5959 773.926 93.5959V98.2105H756.307C753.604 95.7867 751.32 93.3629 749.455 90.9391C747.684 88.5153 745.819 85.7652 743.862 82.6888L734.493 67.7265C733.281 65.7688 731.883 63.5315 730.298 61.0145C728.806 58.4042 727.082 56.2135 725.124 54.4422C723.632 54.5355 722.048 54.5821 720.37 54.5821C718.785 54.5821 717.2 54.5355 715.615 54.4422V81.5701C715.615 84.0872 715.569 86.2779 715.475 88.1424C715.475 89.9136 715.382 91.4052 715.196 92.6171C716.314 92.5239 717.433 92.4772 718.552 92.4772C719.67 92.384 720.789 92.2908 721.908 92.1976C723.026 92.1044 724.145 92.0577 725.264 92.0577V98.2105H693.801ZM724.285 49.2684C729.412 49.0819 733.887 48.2429 737.709 46.7513C741.624 45.2598 744.701 42.8826 746.938 39.6198C749.176 36.357 750.294 32.0687 750.294 26.755C750.294 23.2125 749.781 20.1362 748.756 17.5259C747.824 14.8225 746.332 12.5851 744.281 10.8139C742.23 9.04263 739.62 7.73751 736.451 6.8985C733.281 5.96627 729.552 5.50015 725.264 5.50015C721.815 5.50015 719.391 6.19933 717.992 7.59768C716.687 8.99602 715.942 10.9537 715.755 13.4707C715.662 15.8945 715.615 18.7844 715.615 22.1405V48.9887C717.107 49.0819 718.505 49.1751 719.81 49.2684C721.209 49.3616 722.7 49.3616 724.285 49.2684Z" stroke="white"/>
</svg>
