<svg width="29" height="24" viewBox="0 0 29 24" fill="none" xmlns="http://www.w3.org/2000/svg">
<path d="M2.71532 9.74111L6.83271 8.88932C7.06968 8.83645 7.30073 8.98918 7.34813 9.22416C7.35997 9.25353 7.35997 9.28878 7.35997 9.31815V22.4298H22.3662V9.31815C22.3662 9.07142 22.5617 8.87757 22.8046 8.87757C22.852 8.87757 22.8935 8.88344 22.929 8.89519L27.0109 9.74111L28.0299 5.05921L19.6766 1.77542C19.5285 2.84456 19.0249 3.80209 18.2903 4.52464C17.4076 5.39405 16.1931 5.92862 14.8601 5.92862C13.5272 5.92862 12.3186 5.39405 11.4359 4.52464C10.6954 3.80209 10.1918 2.84456 10.0496 1.77542L1.69634 5.05921L2.71532 9.74111ZM10.5473 0.723907C11.9928 0.976506 13.4324 1.09987 14.8601 1.09399C16.2997 1.09399 17.7394 0.970632 19.1849 0.723907C19.2619 0.706284 19.3508 0.712158 19.4396 0.74153L28.7052 4.37778C28.9007 4.46002 29.0192 4.66563 28.9718 4.87711L27.7751 10.352C27.7277 10.587 27.4967 10.7339 27.2597 10.6869L23.249 9.85272V22.8645C23.249 23.1054 23.0475 23.3051 22.8046 23.3051H6.92158C6.67868 23.3051 6.47725 23.1054 6.47725 22.8645V9.85272L2.47242 10.6869C2.23545 10.7339 1.99848 10.587 1.95109 10.352L0.754376 4.89473C0.701057 4.68325 0.813619 4.46002 1.02097 4.37778L10.2688 0.753279C10.3221 0.723907 10.3873 0.712158 10.4525 0.712158C10.4821 0.712158 10.5176 0.718033 10.5473 0.723907ZM18.7998 1.66968C17.4905 1.86354 16.1813 1.96928 14.8601 1.96928C13.5449 1.96928 12.2357 1.86941 10.9264 1.66968C11.0449 2.5391 11.4537 3.31452 12.0579 3.90783C12.7748 4.61863 13.7701 5.05334 14.8601 5.05334C15.9561 5.05334 16.9514 4.61863 17.6683 3.90783C18.2725 3.31452 18.6813 2.5391 18.7998 1.66968Z" fill="black"/>
</svg>
