<svg width="33" height="28" viewBox="0 0 33 28" fill="none" xmlns="http://www.w3.org/2000/svg">
<path d="M23.1619 26.728C22.8597 26.728 22.5575 26.5769 22.2553 26.4258L15.4562 21.1376H6.54183C3.52001 21.1376 1.10254 18.7202 1.10254 15.6984V6.78397C1.10254 3.76215 3.52001 1.34473 6.54183 1.34473H25.7304C28.7522 1.34473 31.1697 3.76215 31.1697 6.78397V15.6984C31.1697 18.7202 28.7522 21.1376 25.7304 21.1376H24.5217V25.2171C24.5217 25.8215 24.2195 26.2747 23.6151 26.5769C23.7662 26.728 23.464 26.728 23.1619 26.728ZM6.54183 4.21545C5.18201 4.21545 4.12436 5.2731 4.12436 6.63292V15.5473C4.12436 16.9071 5.18201 17.9648 6.54183 17.9648H16.0606C16.3627 17.9648 16.6649 18.1158 16.9671 18.2669L21.6509 21.8931V19.3246C21.6509 18.418 22.2553 17.8137 23.1619 17.8137H25.8815C27.2413 17.8137 28.299 16.756 28.299 15.3962V6.48182C28.299 5.122 27.2413 4.06435 25.8815 4.06435H6.54183V4.21545Z" fill="black" stroke="white" stroke-width="2"/>
<path d="M16.136 11.6488C16.589 11.6488 16.9562 11.2816 16.9562 10.8286C16.9562 10.3757 16.589 10.0085 16.136 10.0085C15.6831 10.0085 15.3159 10.3757 15.3159 10.8286C15.3159 11.2816 15.6831 11.6488 16.136 11.6488Z" fill="black"/>
<path d="M21.6878 11.6488C22.1407 11.6488 22.5079 11.2816 22.5079 10.8286C22.5079 10.3757 22.1407 10.0085 21.6878 10.0085C21.2349 10.0085 20.8677 10.3757 20.8677 10.8286C20.8677 11.2816 21.2349 11.6488 21.6878 11.6488Z" fill="black"/>
<path d="M10.5843 11.6488C11.0372 11.6488 11.4044 11.2816 11.4044 10.8286C11.4044 10.3757 11.0372 10.0085 10.5843 10.0085C10.1313 10.0085 9.76416 10.3757 9.76416 10.8286C9.76416 11.2816 10.1313 11.6488 10.5843 11.6488Z" fill="black"/>
</svg>
