<svg width="28" height="22" viewBox="0 0 28 22" fill="none" xmlns="http://www.w3.org/2000/svg">
<path d="M22.1127 2.46926L21.2782 2.02246C20.0048 1.34059 18.4779 1.32664 17.1922 1.98512V1.98512C16.5709 2.30332 15.8829 2.46926 15.1848 2.46926H14.2983C13.494 2.46926 12.7047 2.2524 12.0133 1.84152V1.84152C10.6706 1.04356 9.00894 1.00383 7.62967 1.7367L6.25098 2.46926M13.5089 8.36093V8.36093C14.0132 9.5195 15.7566 8.99973 15.5442 7.75411L14.6431 2.46926" stroke="#042245"/>
<path d="M14.2665 12.1824L14.8557 12.7226C16.0685 13.8347 17.0818 15.1463 17.8517 16.6005L18.3164 17.4782C18.6273 18.0654 19.0176 18.6069 19.4762 19.0875L19.6777 19.2986C20.262 19.9109 20.9713 20.3901 21.7574 20.7037L22.4686 20.9874C22.8565 21.1422 23.2753 21.2039 23.6914 21.1675L24.3373 21.1111C25.7544 20.9873 26.6718 19.5572 26.1935 18.2175V18.2175" stroke="#042245"/>
<path d="M14.464 12.1824L13.8748 12.7226C12.662 13.8347 11.6486 15.1463 10.8787 16.6005L10.414 17.4782C10.1032 18.0654 9.71292 18.6069 9.25425 19.0875L9.05277 19.2986C8.46846 19.9109 7.75915 20.3901 6.97306 20.7037L6.26188 20.9874C5.87396 21.1422 5.45516 21.2039 5.0391 21.1675L4.39321 21.1111C2.9761 20.9873 2.05869 19.5572 2.53697 18.2175V18.2175" stroke="#042245"/>
<path d="M14.1819 11.4675L14.7596 11.7605C16.3185 12.551 17.6468 13.7307 18.6158 15.1853L18.6964 15.3063C19.4085 16.3752 20.3312 17.2876 21.408 17.9877L22.1016 18.4387C22.3413 18.5946 22.6007 18.718 22.8729 18.8057V18.8057C23.8678 19.1261 24.9562 18.946 25.7948 18.3222L25.8314 18.2949C26.9387 17.4712 27.4215 16.0487 27.0444 14.7211L26.9022 14.2206" stroke="#042245"/>
<path d="M14.5476 11.4675L13.9699 11.7605C12.411 12.551 11.0827 13.7307 10.1137 15.1853L10.0331 15.3063C9.32097 16.3752 8.39832 17.2876 7.32154 17.9877L6.62791 18.4387C6.38815 18.5946 6.12876 18.718 5.85655 18.8057V18.8057C4.86168 19.1261 3.77327 18.946 2.93467 18.3222L2.89805 18.2949C1.79075 17.4712 1.30796 16.0487 1.6851 14.7211L1.82727 14.2206" stroke="#042245"/>
<path d="M14.2438 10.9863L14.5484 11.0651C16.5132 11.5734 18.3129 12.5817 19.7724 13.9919L20.5103 14.7049C20.8512 15.0343 21.2387 15.3116 21.6604 15.5281L22.2732 15.8425C23.1511 16.293 24.1831 16.3331 25.0933 15.9519V15.9519C25.7043 15.696 26.2257 15.2644 26.5912 14.7119L26.781 14.4251C27.3885 13.5067 27.6033 12.3833 27.3774 11.3056L27.3254 11.0576C27.1814 10.3708 26.8246 9.74671 26.3057 9.27422V9.27422C25.5741 8.60815 24.5847 8.30092 23.6045 8.43543L22.8571 8.53801C22.2093 8.62691 21.6276 8.98129 21.2516 9.51621V9.51621C20.9116 9.99991 20.766 10.5939 20.844 11.18L20.8587 11.2908C20.9619 12.0675 21.4534 12.7382 22.1629 13.0708L22.7962 13.3676C23.3111 13.6089 23.9227 13.495 24.3162 13.0845V13.0845C25.1028 12.2638 24.5599 10.8987 23.4246 10.8424L22.9333 10.8181" stroke="#042245"/>
<path d="M14.4866 10.9863L14.182 11.0651C12.2173 11.5734 10.4175 12.5817 8.95809 13.9919L8.22018 14.7049C7.87931 15.0343 7.49177 15.3116 7.07004 15.5281L6.45731 15.8425C5.57939 16.293 4.54738 16.3331 3.6372 15.9519V15.9519C3.02613 15.696 2.50478 15.2644 2.13924 14.7119L1.94951 14.4251C1.34193 13.5067 1.12714 12.3833 1.35307 11.3056L1.40504 11.0576C1.54903 10.3708 1.90586 9.74671 2.42482 9.27422V9.27422C3.15639 8.60815 4.14575 8.30092 5.12594 8.43543L5.87341 8.53801C6.52121 8.62691 7.10283 8.98129 7.47887 9.51621V9.51621C7.8189 9.99991 7.96443 10.5939 7.88651 11.18L7.87178 11.2908C7.76852 12.0675 7.27704 12.7382 6.56755 13.0708L5.9343 13.3676C5.41933 13.6089 4.80779 13.495 4.41424 13.0845V13.0845C3.62765 12.2638 4.17057 10.8987 5.30589 10.8424L5.79719 10.8181" stroke="#042245"/>
<path d="M10.812 16.7026L11.0208 16.7971C13.2825 17.8201 15.8816 17.7855 18.1152 16.7026V16.7026" stroke="#042245"/>
</svg>
