<svg width="19" height="25" viewBox="0 0 19 25" fill="none" xmlns="http://www.w3.org/2000/svg">
<path d="M0.957031 23.8775V24.3775H1.45703H17.5969H18.0827L18.0967 23.892L18.292 17.1562L18.3069 16.6417H17.7922H16.6858H16.1858V17.1417C16.1858 19.0103 15.8313 20.2411 15.2303 20.9513L15.2303 20.9513L15.2255 20.9572C14.647 21.6621 13.7722 22.056 12.5127 22.076L12.5127 22.076L6.98747 22.1646C6.99623 22.0017 7.00055 21.8285 7.00075 21.6455C7.02259 21.2244 7.03329 20.7205 7.03329 20.1354V6.17569C7.03329 5.40327 7.04397 4.72952 7.06514 4.15368C7.10341 3.6557 7.24648 3.30634 7.45681 3.06254C7.64734 2.86415 8.04381 2.69329 8.79207 2.67307L9.27856 2.65992V2.17325V1.09943V0.599426H8.77856H1.45703H0.957031V1.09943V2.53119V3.05974L1.48477 3.03042L2.65621 2.96534L3.26595 2.93147C3.25581 3.10522 3.24569 3.28821 3.23557 3.48041C3.21334 3.88084 3.2023 4.30207 3.2023 4.74392V18.8013C3.2023 19.5514 3.18086 20.2226 3.13849 20.8157L3.13788 20.8242L3.13756 20.8328C3.11911 21.3309 2.98492 21.6754 2.77851 21.9147C2.61031 22.09 2.21677 22.263 1.43075 22.3044L0.957031 22.3293V22.8037V23.8775Z" stroke="#042245"/>
</svg>
