<svg width="21" height="24" viewBox="0 0 21 24" fill="none" xmlns="http://www.w3.org/2000/svg">
<path d="M1.48605 3.456L5.89801 1.76717C8.36553 0.822636 11.1021 0.8651 13.5391 1.88573V1.88573C15.4154 2.67154 17.0162 3.99668 18.1386 5.69322L18.528 6.28177C20.2371 8.86526 20.8413 12.0253 20.2058 15.0571L20.0596 15.7545C19.6545 17.6868 18.6508 19.4422 17.1909 20.7714V20.7714C15.133 22.6451 12.3499 23.5093 9.59254 23.1309L7.77245 22.8812C5.76995 22.6063 3.97203 21.5109 2.8096 19.8573V19.8573C1.94826 18.6321 1.48605 17.1708 1.48605 15.6731L1.48605 15.5383C1.48605 11.1185 5.41843 7.73422 9.78889 8.39271L10.4111 8.48645C10.9784 8.57193 11.5221 8.77292 12.0086 9.07699V9.07699C16.0688 11.6146 13.3888 17.8793 8.74952 16.6953L7.70427 16.4285" stroke="black"/>
</svg>
