<svg width="437" height="171" viewBox="0 0 437 171" fill="none" xmlns="http://www.w3.org/2000/svg">
<path fill-rule="evenodd" clip-rule="evenodd" d="M329.995 12.5225L323.936 48.0519C321.922 59.8677 338.459 64.7982 343.244 53.8081L337.824 51.4484C335.826 56.0362 328.923 53.978 329.764 49.0455L335.822 13.5161L329.995 12.5225Z" fill="#042245"/>
<path fill-rule="evenodd" clip-rule="evenodd" d="M381.657 4.48032C371.472 -0.930996 359.203 -0.637627 349.289 5.25425C345.098 7.74504 340.313 9.05965 335.437 9.05965H333.119V14.9711H335.437C341.376 14.9711 347.204 13.3699 352.309 10.336C360.448 5.49883 370.522 5.25798 378.883 9.70065L388.152 14.6256L390.925 9.40523L381.657 4.48032Z" fill="#042245"/>
<path fill-rule="evenodd" clip-rule="evenodd" d="M284.586 4.47983C294.77 -0.931484 307.039 -0.638116 316.953 5.25376C321.144 7.74455 325.929 9.05916 330.805 9.05916H333.123V14.9707H330.805C324.866 14.9707 319.038 13.3694 313.933 10.3356C305.794 5.49835 295.721 5.25749 287.359 9.70016L278.091 14.6251L275.317 9.40474L284.586 4.47983Z" fill="#042245"/>
<path fill-rule="evenodd" clip-rule="evenodd" d="M348.946 116.131L355.73 113.009L353.259 107.639L346.475 110.761C337.49 114.895 327.133 114.83 318.202 110.582L312.049 107.655L309.51 112.994L315.662 115.92C326.177 120.921 338.369 120.998 348.946 116.131Z" fill="#042245"/>
<path fill-rule="evenodd" clip-rule="evenodd" d="M283.09 68.3226C280.234 58.2881 268.174 53.4751 255.305 58.2658C245.486 61.9209 239.981 73.1425 241.483 84.1261C243.303 97.4467 255.974 106.817 269.628 105.141C283.025 103.496 288.969 97.0909 296.327 89.1613C298.566 86.749 300.935 84.1956 303.685 81.5923C308.209 77.3091 312.227 73.7544 316.791 71.3194C321.453 68.8323 326.533 67.5866 333.128 67.5866V73.498C327.364 73.498 323.264 74.5662 319.573 76.5352C315.785 78.5563 312.276 81.5998 307.749 85.8853C305.514 88.0009 303.439 90.2513 301.359 92.5056C293.741 100.765 286.074 109.078 270.348 111.008C253.674 113.055 237.91 101.636 235.626 84.9268C233.835 71.8278 240.282 57.5504 253.243 52.7257C268.004 47.2308 284.624 52.1184 288.776 66.7042C290.004 71.0212 290.184 75.1032 289.075 78.9565C287.966 82.8099 285.644 86.1719 282.308 89.1749C279.457 91.7408 274.666 94.2995 269.492 94.7413C264.099 95.2018 258.309 93.3281 254.253 87.0752C249.894 80.3555 252.453 73.1719 257.042 69.4953C259.34 67.6538 262.329 66.5257 265.443 66.8651C268.65 67.2147 271.566 69.0756 273.654 72.4034L268.646 75.5453C267.391 73.545 265.985 72.8708 264.802 72.7418C263.526 72.6027 262.056 73.0526 260.738 74.1087C258.093 76.2276 256.786 80.1184 259.212 83.8582C261.941 88.0649 265.503 89.1489 268.989 88.8512C272.694 88.5348 276.31 86.6193 278.353 84.7809C281.064 82.3409 282.657 79.8834 283.394 77.3217C284.132 74.7598 284.089 71.8311 283.09 68.3226Z" fill="#042245"/>
<path fill-rule="evenodd" clip-rule="evenodd" d="M383.147 68.3226C386.003 58.2881 398.062 53.4751 410.932 58.2658C420.75 61.9209 426.256 73.1425 424.754 84.1261C422.933 97.4467 410.263 106.817 396.609 105.141C383.212 103.496 377.268 97.0909 369.91 89.1613C367.671 86.749 365.302 84.1956 362.552 81.5923C358.027 77.3091 354.01 73.7544 349.446 71.3194C344.784 68.8323 339.704 67.5866 333.108 67.5866V73.498C338.872 73.498 342.973 74.5662 346.663 76.5352C350.452 78.5563 353.961 81.5998 358.488 85.8853C360.723 88.0009 362.798 90.2513 364.878 92.5056C372.496 100.765 380.163 109.078 395.889 111.008C412.563 113.055 428.327 101.636 430.611 84.9268C432.402 71.8278 425.954 57.5504 412.994 52.7257C398.233 47.2308 381.613 52.1184 377.461 66.7042C376.232 71.0212 376.053 75.1032 377.162 78.9565C378.27 82.8099 380.593 86.1719 383.929 89.1749C386.78 91.7408 391.571 94.2995 396.745 94.7413C402.138 95.2018 407.928 93.3281 411.984 87.0752C416.343 80.3555 413.784 73.1719 409.195 69.4953C406.897 67.6538 403.908 66.5257 400.794 66.8651C397.587 67.2147 394.671 69.0756 392.583 72.4034L397.59 75.5453C398.846 73.545 400.251 72.8708 401.435 72.7418C402.711 72.6027 404.181 73.0526 405.499 74.1087C408.144 76.2276 409.45 80.1184 407.025 83.8582C404.296 88.0649 400.734 89.1489 397.248 88.8512C393.542 88.5348 389.926 86.6193 387.884 84.7809C385.173 82.3409 383.58 79.8834 382.842 77.3217C382.105 74.7598 382.148 71.8311 383.147 68.3226Z" fill="#042245"/>
<path fill-rule="evenodd" clip-rule="evenodd" d="M239.628 104.936C239.653 108.807 240.997 112.487 242.503 115.336C245.425 120.863 250.931 124.765 257.587 126.705C264.242 128.644 271.806 128.538 278.447 126.273C285.815 123.761 290.391 119.327 294.152 113.82C296.06 111.026 297.742 107.98 299.485 104.73C299.714 104.304 299.944 103.873 300.176 103.44C301.689 100.61 303.274 97.6455 305.055 94.7394C308.372 89.3274 312.201 84.0373 316.739 80.0807C321.312 76.0944 326.741 73.3479 333.153 73.3479L333.153 79.2594C328.567 79.2594 324.463 81.1895 320.624 84.5365C316.751 87.9133 313.291 92.6133 310.095 97.8283C308.412 100.575 306.916 103.372 305.397 106.212C305.164 106.648 304.93 107.086 304.694 107.525C302.948 110.779 301.137 114.074 299.034 117.153C294.774 123.392 289.258 128.832 280.355 131.868C272.535 134.535 263.727 134.651 255.933 132.38C248.141 130.11 241.121 125.37 237.277 118.099C235.512 114.76 233.75 110.125 233.717 104.975C233.682 99.7224 235.453 94.0905 240.491 88.9949L244.695 93.1513C240.819 97.0708 239.603 101.167 239.628 104.936Z" fill="#042245"/>
<path fill-rule="evenodd" clip-rule="evenodd" d="M426.606 104.936C426.581 108.807 425.237 112.487 423.731 115.336C420.809 120.863 415.303 124.765 408.647 126.705C401.992 128.644 394.428 128.538 387.787 126.273C380.419 123.761 375.843 119.327 372.082 113.82C370.174 111.026 368.492 107.98 366.749 104.73C366.52 104.304 366.29 103.873 366.058 103.44C364.545 100.61 362.96 97.6455 361.179 94.7394C357.862 89.3274 354.033 84.0373 349.495 80.0807C344.922 76.0944 339.493 73.3479 333.081 73.3479L333.081 79.2594C337.667 79.2594 341.771 81.1895 345.61 84.5365C349.483 87.9133 352.943 92.6133 356.139 97.8283C357.822 100.575 359.318 103.372 360.837 106.212C361.07 106.648 361.304 107.086 361.54 107.525C363.286 110.779 365.097 114.074 367.2 117.153C371.46 123.392 376.976 128.832 385.879 131.868C393.699 134.535 402.507 134.651 410.301 132.38C418.093 130.11 425.113 125.37 428.957 118.099C430.722 114.76 432.483 110.125 432.517 104.975C432.552 99.7224 430.781 94.0905 425.743 88.9949L421.539 93.1513C425.414 97.0708 426.631 101.167 426.606 104.936Z" fill="#042245"/>
<path fill-rule="evenodd" clip-rule="evenodd" d="M246.477 135.817C247.844 139.995 250.757 143.485 253.24 145.277C264.009 153.049 279.759 153.131 291.447 145.226C297.896 140.864 301.145 135.383 303.325 129.081C304.431 125.884 305.253 122.503 306.081 118.909C306.19 118.437 306.298 117.961 306.408 117.482C307.124 114.354 307.874 111.077 308.828 107.805C310.66 101.524 313.948 94.5446 318.008 89.0739C320.039 86.3359 322.333 83.8821 324.822 82.0898C327.306 80.3018 330.151 79.0558 333.212 79.0558L333.212 84.9673C331.785 84.9673 330.129 85.5534 328.276 86.8873C326.43 88.2168 324.552 90.1748 322.755 92.5965C319.157 97.445 316.16 103.776 314.503 109.46C313.601 112.552 312.893 115.644 312.175 118.784C312.064 119.267 311.953 119.751 311.841 120.236C311.013 123.834 310.131 127.489 308.912 131.014C306.442 138.153 302.551 144.852 294.759 150.122C281.136 159.336 262.676 159.378 249.78 150.071C246.358 147.6 242.642 143.106 240.859 137.655C239.032 132.073 239.229 125.411 243.886 119.11L248.64 122.624C245.286 127.161 245.153 131.771 246.477 135.817Z" fill="#042245"/>
<path fill-rule="evenodd" clip-rule="evenodd" d="M419.751 135.812C418.385 139.99 415.471 143.48 412.989 145.272C402.22 153.045 386.469 153.126 374.782 145.221C368.333 140.859 365.084 135.379 362.903 129.076C361.797 125.879 360.976 122.498 360.148 118.904C360.039 118.432 359.93 117.957 359.82 117.477C359.105 114.349 358.355 111.073 357.401 107.8C355.569 101.519 352.28 94.5398 348.221 89.069C346.189 86.331 343.896 83.8772 341.406 82.0849C338.923 80.2969 336.077 79.051 333.016 79.051L333.016 84.9625C334.444 84.9625 336.099 85.5485 337.952 86.8824C339.799 88.2119 341.677 90.1699 343.474 92.5916C347.071 97.4401 350.068 103.771 351.726 109.455C352.627 112.548 353.335 115.639 354.054 118.779C354.164 119.262 354.275 119.746 354.387 120.231C355.216 123.829 356.097 127.484 357.317 131.009C359.787 138.148 363.678 144.847 371.47 150.117C385.092 159.331 403.553 159.373 416.448 150.066C419.871 147.595 423.587 143.101 425.37 137.65C427.196 132.068 427 125.406 422.342 119.105L417.589 122.62C420.942 127.156 421.075 131.766 419.751 135.812Z" fill="#042245"/>
<path d="M203.354 126.509V121.994C199.888 121.811 197.516 121.036 196.239 119.667C194.962 118.208 194.278 116.246 194.186 113.783C194.004 111.229 193.913 108.355 193.913 105.162V46.0481C193.913 44.2236 193.867 42.4903 193.776 40.8482C193.685 39.1149 193.593 37.5641 193.502 36.1957C195.144 36.2869 196.786 36.3781 198.428 36.4694C200.07 36.5606 201.712 36.6518 203.354 36.743V30.7221H172.566V35.2378C175.941 35.329 178.313 36.1045 179.681 37.5641C180.959 39.0237 181.688 40.985 181.871 43.4481C181.962 45.9112 182.008 48.7849 182.008 52.069V110.773C182.008 113.236 182.053 115.334 182.144 117.067C182.144 118.801 182.236 120.26 182.418 121.446L156.829 121.036C151.082 120.945 146.749 119.12 143.83 115.562C140.819 112.004 139.314 106.212 139.314 98.1837H134.661L135.482 126.509H203.354Z" fill="#042245"/>
<path d="M93.4557 35.2378C96.8311 35.329 99.203 36.1045 100.571 37.5641C101.849 39.0237 102.578 40.985 102.761 43.4481C102.852 45.9112 102.898 48.7849 102.898 52.069V110.226C102.898 112.689 102.943 114.832 103.034 116.657C103.034 118.39 103.126 119.85 103.308 121.036C101.666 120.945 100.024 120.853 98.3819 120.762C96.7399 120.671 95.0978 120.58 93.4557 120.488V126.509H124.244V121.994C120.778 121.811 118.406 121.036 117.129 119.667C115.852 118.208 115.168 116.246 115.076 113.783C114.894 111.229 114.803 108.355 114.803 105.162V46.0481C114.803 44.2236 114.757 42.4903 114.666 40.8482C114.575 39.1149 114.483 37.5641 114.392 36.1957C116.034 36.2869 117.676 36.3781 119.318 36.4694C120.96 36.5606 122.602 36.6518 124.244 36.743V30.7221H93.4557V35.2378Z" fill="#042245"/>
<path d="M78.4088 126.509V121.994C74.9422 121.811 72.5703 121.036 71.2932 119.667C70.016 118.208 69.3318 116.246 69.2406 113.783C69.0582 111.229 68.9669 108.355 68.9669 105.162V46.0481C68.9669 44.2236 68.9213 42.4903 68.8301 40.8482C68.7389 39.1149 68.6476 37.5641 68.5564 36.1957C70.1985 36.2869 71.8405 36.3781 73.4826 36.4694C75.1247 36.5606 76.7667 36.6518 78.4088 36.743V30.7221C73.3002 30.6309 68.1459 30.5397 62.946 30.4484C57.6549 30.3572 52.3638 30.4028 47.0727 30.5853C38.2238 30.6765 31.1082 31.7256 25.7258 33.7326C20.2523 35.6483 16.2383 38.4307 13.684 42.0798C11.1297 45.6376 9.85251 49.9708 9.85251 55.0795C9.76129 58.6373 10.4455 62.2863 11.9051 66.0266C13.2735 69.6756 15.8278 72.9597 19.5681 75.879C23.2171 78.7982 28.5082 80.9876 35.4414 82.4472C33.6169 83.7244 32.0204 85.3665 30.652 87.3734C29.2836 89.3804 27.7328 91.7067 25.9995 94.3522L16.6945 108.994C15.1436 111.457 13.6384 113.692 12.1788 115.699C10.7192 117.615 9.03148 119.166 7.11572 120.352C5.19998 121.446 2.82812 121.994 0.00012207 121.994V126.509H17.2418C19.8874 124.137 22.1224 121.766 23.9469 119.394C25.6802 117.022 27.5047 114.331 29.4205 111.32L38.5887 96.6785C39.7746 94.7627 41.143 92.5733 42.6938 90.1102C44.1535 87.5559 45.8412 85.4121 47.7569 83.6788C49.2165 83.77 50.7673 83.8156 52.4094 83.8156C53.9603 83.8156 55.5111 83.77 57.0619 83.6788V110.226C57.0619 112.689 57.1075 114.832 57.1988 116.657C57.1988 118.39 57.29 119.85 57.4725 121.036C56.3777 120.945 55.283 120.899 54.1883 120.899C53.0936 120.808 51.9989 120.717 50.9042 120.625C49.8095 120.534 48.7148 120.488 47.6201 120.488V126.509H78.4088ZM48.5779 78.6157C43.5605 78.4333 39.1817 77.6123 35.4414 76.1526C31.6099 74.693 28.5994 72.3668 26.41 69.1739C24.2206 65.9809 23.1259 61.7846 23.1259 56.5847C23.1259 53.1181 23.6276 50.1076 24.6311 47.5533C25.5434 44.9078 27.003 42.7183 29.01 40.985C31.0169 39.2517 33.5713 37.9746 36.6729 37.1535C39.7746 36.2413 43.4237 35.7852 47.6201 35.7852C50.9954 35.7852 53.3673 36.4694 54.7357 37.8377C56.0128 39.2061 56.7426 41.1219 56.9251 43.585C57.0163 45.9569 57.0619 48.7849 57.0619 52.069V78.3421C55.6023 78.4333 54.2339 78.5245 52.9568 78.6157C51.5884 78.707 50.1288 78.707 48.5779 78.6157Z" fill="#042245"/>
<path d="M203.354 126.509V121.994C199.888 121.811 197.516 121.036 196.239 119.667C194.962 118.208 194.278 116.246 194.186 113.783C194.004 111.229 193.913 108.355 193.913 105.162V46.0481C193.913 44.2236 193.867 42.4903 193.776 40.8482C193.685 39.1149 193.593 37.5641 193.502 36.1957C195.144 36.2869 196.786 36.3781 198.428 36.4694C200.07 36.5606 201.712 36.6518 203.354 36.743V30.7221H172.566V35.2378C175.941 35.329 178.313 36.1045 179.681 37.5641C180.959 39.0237 181.688 40.985 181.871 43.4481C181.962 45.9112 182.008 48.7849 182.008 52.069V110.773C182.008 113.236 182.053 115.334 182.144 117.067C182.144 118.801 182.236 120.26 182.418 121.446L156.829 121.036C151.082 120.945 146.749 119.12 143.83 115.562C140.819 112.004 139.314 106.212 139.314 98.1837H134.661L135.482 126.509H203.354Z" stroke="white"/>
<path d="M93.4557 35.2378C96.8311 35.329 99.203 36.1045 100.571 37.5641C101.849 39.0237 102.578 40.985 102.761 43.4481C102.852 45.9112 102.898 48.7849 102.898 52.069V110.226C102.898 112.689 102.943 114.832 103.034 116.657C103.034 118.39 103.126 119.85 103.308 121.036C101.666 120.945 100.024 120.853 98.3819 120.762C96.7399 120.671 95.0978 120.58 93.4557 120.488V126.509H124.244V121.994C120.778 121.811 118.406 121.036 117.129 119.667C115.852 118.208 115.168 116.246 115.076 113.783C114.894 111.229 114.803 108.355 114.803 105.162V46.0481C114.803 44.2236 114.757 42.4903 114.666 40.8482C114.575 39.1149 114.483 37.5641 114.392 36.1957C116.034 36.2869 117.676 36.3781 119.318 36.4694C120.96 36.5606 122.602 36.6518 124.244 36.743V30.7221H93.4557V35.2378Z" stroke="white"/>
<path d="M78.4088 126.509V121.994C74.9422 121.811 72.5703 121.036 71.2932 119.667C70.016 118.208 69.3318 116.246 69.2406 113.783C69.0582 111.229 68.9669 108.355 68.9669 105.162V46.0481C68.9669 44.2236 68.9213 42.4903 68.8301 40.8482C68.7389 39.1149 68.6476 37.5641 68.5564 36.1957C70.1985 36.2869 71.8405 36.3781 73.4826 36.4694C75.1247 36.5606 76.7667 36.6518 78.4088 36.743V30.7221C73.3002 30.6309 68.1459 30.5397 62.946 30.4484C57.6549 30.3572 52.3638 30.4028 47.0727 30.5853C38.2238 30.6765 31.1082 31.7256 25.7258 33.7326C20.2523 35.6483 16.2383 38.4307 13.684 42.0798C11.1297 45.6376 9.85251 49.9708 9.85251 55.0795C9.76129 58.6373 10.4455 62.2863 11.9051 66.0266C13.2735 69.6756 15.8278 72.9597 19.5681 75.879C23.2171 78.7982 28.5082 80.9876 35.4414 82.4472C33.6169 83.7244 32.0204 85.3665 30.652 87.3734C29.2836 89.3804 27.7328 91.7067 25.9995 94.3522L16.6945 108.994C15.1436 111.457 13.6384 113.692 12.1788 115.699C10.7192 117.615 9.03148 119.166 7.11572 120.352C5.19998 121.446 2.82812 121.994 0.00012207 121.994V126.509H17.2418C19.8874 124.137 22.1224 121.766 23.9469 119.394C25.6802 117.022 27.5047 114.331 29.4205 111.32L38.5887 96.6785C39.7746 94.7627 41.143 92.5733 42.6938 90.1102C44.1535 87.5559 45.8412 85.4121 47.7569 83.6788C49.2165 83.77 50.7673 83.8156 52.4094 83.8156C53.9603 83.8156 55.5111 83.77 57.0619 83.6788V110.226C57.0619 112.689 57.1075 114.832 57.1988 116.657C57.1988 118.39 57.29 119.85 57.4725 121.036C56.3777 120.945 55.283 120.899 54.1883 120.899C53.0936 120.808 51.9989 120.717 50.9042 120.625C49.8095 120.534 48.7148 120.488 47.6201 120.488V126.509H78.4088ZM48.5779 78.6157C43.5605 78.4333 39.1817 77.6123 35.4414 76.1526C31.6099 74.693 28.5994 72.3668 26.41 69.1739C24.2206 65.9809 23.1259 61.7846 23.1259 56.5847C23.1259 53.1181 23.6276 50.1076 24.6311 47.5533C25.5434 44.9078 27.003 42.7183 29.01 40.985C31.0169 39.2517 33.5713 37.9746 36.6729 37.1535C39.7746 36.2413 43.4237 35.7852 47.6201 35.7852C50.9954 35.7852 53.3673 36.4694 54.7357 37.8377C56.0128 39.2061 56.7426 41.1219 56.9251 43.585C57.0163 45.9569 57.0619 48.7849 57.0619 52.069V78.3421C55.6023 78.4333 54.2339 78.5245 52.9568 78.6157C51.5884 78.707 50.1288 78.707 48.5779 78.6157Z" stroke="white"/>
</svg>
