<svg width="465" height="329" viewBox="0 0 465 329" fill="none" xmlns="http://www.w3.org/2000/svg">
<path fill-rule="evenodd" clip-rule="evenodd" d="M101.804 142.059L121.379 171.944C127.889 181.882 114.815 192.912 106.115 184.82L110.106 180.53C113.737 183.907 119.195 179.303 116.477 175.154L96.9023 145.27L101.804 142.059Z" fill="#042245"/>
<path fill-rule="evenodd" clip-rule="evenodd" d="M51.6762 155.211C58.7871 146.261 70.0518 141.668 81.3933 143.096C86.1879 143.7 91.0566 142.999 95.4866 141.068L97.5929 140.15L99.934 145.522L97.8277 146.44C92.4318 148.791 86.5016 149.645 80.6616 148.91C71.3502 147.738 62.1019 151.508 56.264 158.856L49.7923 167.001L45.2045 163.356L51.6762 155.211Z" fill="#042245"/>
<path fill-rule="evenodd" clip-rule="evenodd" d="M139.88 116.768C128.484 115.885 117.451 121.01 110.776 130.29C107.955 134.213 104.127 137.302 99.6971 139.233L97.5908 140.151L99.9318 145.522L102.038 144.604C107.434 142.253 112.096 138.49 115.533 133.711C121.013 126.093 130.071 121.885 139.427 122.61L149.8 123.415L150.253 117.573L139.88 116.768Z" fill="#042245"/>
<path fill-rule="evenodd" clip-rule="evenodd" d="M125.614 243.707L118.214 243.557L118.333 237.699L125.733 237.849C135.534 238.048 144.919 233.887 151.352 226.489L155.784 221.394L160.205 225.239L155.774 230.335C148.2 239.043 137.152 243.941 125.614 243.707Z" fill="#042245"/>
<path fill-rule="evenodd" clip-rule="evenodd" d="M166.522 174.186C165.144 163.937 174.195 154.788 187.786 154.045C198.155 153.478 207.602 161.494 210.587 172.069C214.208 184.894 206.405 198.425 193.335 202.31C180.511 206.121 172.573 202.655 162.747 198.364C159.757 197.058 156.593 195.676 153.063 194.4C147.256 192.3 142.198 190.661 137.087 190.256C131.865 189.842 126.756 190.722 120.763 193.334L123.104 198.705C128.342 196.422 132.49 195.769 136.624 196.097C140.867 196.433 145.26 197.809 151.071 199.91C153.939 200.947 156.717 202.17 159.499 203.395C169.692 207.883 179.95 212.4 195.004 207.927C210.965 203.183 220.768 186.565 216.226 170.477C212.666 157.865 201.153 147.446 187.466 148.194C171.877 149.047 158.711 160.07 160.715 174.967C161.308 179.377 162.761 183.157 165.295 186.219C167.828 189.281 171.27 191.417 175.491 192.824C179.097 194.026 184.464 194.454 189.34 192.807C194.423 191.089 198.942 187.094 200.151 179.806C201.451 171.974 196.281 166.46 190.655 164.936C187.837 164.173 184.675 164.332 181.98 165.873C179.204 167.461 177.292 170.307 176.712 174.158L182.506 175.029C182.855 172.715 183.865 171.545 184.889 170.96C185.994 170.328 187.508 170.154 189.124 170.592C192.366 171.47 195.094 174.488 194.371 178.847C193.557 183.75 190.75 186.145 187.464 187.255C183.972 188.435 179.928 188.127 177.344 187.265C173.914 186.122 171.494 184.52 169.809 182.484C168.125 180.448 167.004 177.77 166.522 174.186Z" fill="#042245"/>
<path fill-rule="evenodd" clip-rule="evenodd" d="M75.6041 213.811C69.0348 205.825 56.1713 206.227 46.375 215.676C38.9007 222.886 38.3422 235.263 44.0562 244.648C50.9859 256.031 66.2096 259.527 77.9526 252.597C89.4743 245.798 92.3386 237.623 95.8844 227.504C96.9632 224.426 98.1049 221.167 99.5727 217.713C101.988 212.029 104.23 207.208 107.413 203.188C110.665 199.082 114.787 195.938 120.78 193.326L123.121 198.698C117.883 200.981 114.581 203.575 112.007 206.826C109.365 210.162 107.382 214.318 104.966 220.004C103.773 222.812 102.778 225.678 101.781 228.55C98.1302 239.072 94.4556 249.662 80.9306 257.643C66.5904 266.106 47.7441 261.974 39.0513 247.695C32.2368 236.502 32.4412 220.976 42.3071 211.459C53.5436 200.621 70.5805 198.48 80.1294 210.089C82.9556 213.525 84.7355 217.163 85.2539 221.104C85.7723 225.044 84.9938 229.018 83.1512 233.068C81.5768 236.529 78.2371 240.751 73.7107 243.202C68.9927 245.756 62.9893 246.346 56.8277 242.271C50.206 237.891 49.6862 230.35 52.3998 225.193C53.759 222.609 56.0277 220.4 58.9919 219.476C62.0443 218.523 65.4309 219.059 68.6461 221.256L65.3404 226.094C63.4078 224.774 61.8634 224.718 60.7371 225.069C59.5226 225.448 58.3649 226.439 57.5854 227.921C56.0215 230.893 56.3749 234.946 60.0601 237.384C64.2054 240.125 67.8711 239.7 70.9211 238.049C74.1627 236.294 76.6897 233.121 77.8178 230.642C79.3149 227.351 79.7891 224.487 79.4445 221.868C79.0999 219.248 77.901 216.604 75.6041 213.811Z" fill="#042245"/>
<path fill-rule="evenodd" clip-rule="evenodd" d="M220.514 190.244C222.024 193.771 222.26 197.647 222.02 200.832C221.554 207.011 218.097 212.737 212.817 217.136C207.537 221.533 200.622 224.432 193.692 225.005C186.001 225.64 180.087 223.423 174.489 219.908C171.649 218.125 168.915 216.023 166.044 213.761C165.667 213.464 165.287 213.164 164.905 212.862C162.409 210.89 159.795 208.824 157.026 206.889C151.869 203.285 146.294 199.994 140.604 198.196C134.871 196.385 128.85 196.039 123.024 198.579L125.365 203.95C129.532 202.134 134.025 202.263 138.839 203.784C143.695 205.318 148.701 208.219 153.67 211.691C156.287 213.52 158.754 215.47 161.258 217.449C161.644 217.753 162.03 218.058 162.417 218.364C165.292 220.629 168.243 222.905 171.373 224.871C177.715 228.852 184.881 231.611 194.174 230.844C202.335 230.17 210.385 226.787 216.567 221.638C222.748 216.489 227.25 209.402 227.863 201.273C228.145 197.54 227.91 192.631 225.901 187.938C223.852 183.152 220.013 178.736 213.417 176.101L211.243 181.542C216.317 183.569 219.044 186.809 220.514 190.244Z" fill="#042245"/>
<path fill-rule="evenodd" clip-rule="evenodd" d="M50.6156 264.292C52.1716 267.799 54.8499 270.611 57.3467 272.603C62.1903 276.468 68.7382 277.834 75.5545 276.96C82.3698 276.086 89.2007 272.994 94.3378 268.307C100.038 263.106 102.44 257.265 103.677 250.771C104.304 247.478 104.625 244.043 104.923 240.4C104.962 239.922 105.001 239.44 105.04 238.954C105.294 235.783 105.56 232.462 106.027 229.117C106.898 222.885 108.283 216.562 110.839 211.17C113.415 205.737 117.261 201.091 123.087 198.552L125.428 203.923C121.261 205.74 118.296 209.119 116.134 213.68C113.952 218.282 112.669 223.923 111.83 229.927C111.389 233.089 111.137 236.223 110.882 239.405C110.842 239.895 110.803 240.385 110.763 240.877C110.465 244.525 110.124 248.236 109.433 251.867C108.032 259.223 105.175 266.351 98.2872 272.635C92.2379 278.155 84.2802 281.749 76.2995 282.772C68.3198 283.795 60.0644 282.268 53.6921 277.183C50.7661 274.849 47.33 271.335 45.2596 266.668C43.1482 261.909 42.5269 256.09 45.0869 249.465L50.5525 251.577C48.5833 256.673 49.1005 260.877 50.6156 264.292Z" fill="#042245"/>
<path fill-rule="evenodd" clip-rule="evenodd" d="M226.518 221.016C226.93 225.354 225.665 229.679 224.119 232.29C217.412 243.617 203.132 249.928 189.382 247.374C181.795 245.964 176.672 242.271 172.195 237.408C169.924 234.941 167.838 232.194 165.663 229.257C165.378 228.871 165.09 228.482 164.801 228.09C162.911 225.531 160.933 222.85 158.77 220.255C154.618 215.273 148.866 210.234 143.011 206.87C140.08 205.187 137.025 203.866 134.053 203.223C131.088 202.582 128.009 202.577 125.228 203.789L127.569 209.16C128.866 208.595 130.602 208.472 132.814 208.95C135.019 209.427 137.5 210.462 140.092 211.951C145.281 214.932 150.511 219.498 154.269 224.006C156.313 226.459 158.18 228.988 160.076 231.556C160.368 231.951 160.66 232.347 160.954 232.744C163.132 235.685 165.381 238.657 167.884 241.377C172.956 246.886 179.145 251.432 188.312 253.135C204.339 256.112 221.129 248.839 229.161 235.275C231.293 231.675 232.889 226.12 232.351 220.461C231.8 214.666 228.983 208.69 222.256 204.809L219.328 209.885C224.172 212.679 226.118 216.815 226.518 221.016Z" fill="#042245"/>
<path fill-rule="evenodd" clip-rule="evenodd" d="M69.0728 289.632C71.9692 292.887 75.9985 294.905 78.9639 295.55C91.8271 298.348 106.171 292.184 113.66 280.373C117.793 273.856 118.575 267.589 118.06 260.998C117.799 257.656 117.206 254.258 116.536 250.665C116.447 250.193 116.358 249.718 116.268 249.239C115.679 246.113 115.063 242.839 114.634 239.488C113.811 233.055 114.035 225.411 115.557 218.832C116.319 215.54 117.431 212.402 118.984 209.787C120.532 207.179 122.625 204.92 125.406 203.708L127.747 209.079C126.45 209.644 125.177 210.833 124.022 212.778C122.871 214.718 121.94 217.241 121.266 220.153C119.917 225.983 119.702 232.923 120.446 238.744C120.851 241.911 121.433 245 122.023 248.138C122.114 248.62 122.205 249.104 122.295 249.589C122.967 253.187 123.614 256.857 123.902 260.542C124.485 268.008 123.602 275.636 118.609 283.51C109.88 297.277 93.1222 304.626 77.7187 301.276C73.6304 300.386 68.4743 297.774 64.6955 293.528C60.8255 289.179 58.3654 283.047 60.1024 275.478L65.8134 276.788C64.5627 282.239 66.2675 286.48 69.0728 289.632Z" fill="#042245"/>
<path d="M262.016 195.481L260.228 191.378C263.306 189.839 265.154 188.195 265.773 186.446C266.355 184.614 266.2 182.561 265.307 180.287C264.462 177.894 263.406 175.246 262.142 172.345L238.732 118.631C238.009 116.973 237.364 115.38 236.797 113.852C236.193 112.241 235.662 110.796 235.203 109.516C233.747 110.249 232.291 110.983 230.835 111.716C229.379 112.449 227.923 113.182 226.467 113.915L224.083 108.444L252.059 96.2515L253.847 100.355C250.816 101.774 248.968 103.418 248.303 105.286C247.721 107.118 247.834 109.19 248.644 111.5C249.536 113.774 250.633 116.403 251.933 119.387L275.181 172.728C276.157 174.967 276.946 176.891 277.55 178.502C278.236 180.077 278.731 181.44 279.035 182.589L302.124 172.083C307.31 169.724 310.525 166.35 311.768 161.961C313.095 157.536 312.168 151.676 308.989 144.382L313.217 142.539L323.688 168.603L262.016 195.481Z" fill="#042245"/>
<path d="M325.73 69.0257C322.699 70.4453 320.851 72.0892 320.186 73.9574C319.604 75.7894 319.717 77.8606 320.527 80.171C321.419 82.4452 322.516 85.0743 323.816 88.0585L346.847 140.902C347.823 143.14 348.63 145.106 349.27 146.8C349.957 148.375 350.452 149.738 350.756 150.887C352.211 150.154 353.667 149.421 355.123 148.688C356.579 147.955 358.035 147.222 359.491 146.488L361.876 151.959L333.899 164.152L332.111 160.049C335.189 158.51 337.037 156.866 337.655 155.117C338.238 153.285 338.083 151.232 337.19 148.958C336.345 146.565 335.289 143.917 334.025 141.016L310.615 87.3022C309.892 85.6443 309.247 84.0513 308.68 82.5231C308.076 80.912 307.545 79.4668 307.086 78.1872C305.63 78.9204 304.174 79.6536 302.718 80.3868C301.262 81.12 299.806 81.8531 298.35 82.5863L295.966 77.1154L323.942 64.9225L325.73 69.0257Z" fill="#042245"/>
<path d="M375.548 146L373.76 141.897C376.837 140.359 378.685 138.715 379.304 136.966C379.886 135.134 379.731 133.08 378.839 130.806C377.993 128.413 376.938 125.766 375.673 122.864L352.263 69.1504C351.541 67.4926 350.896 65.8996 350.328 64.3714C349.725 62.7603 349.193 61.315 348.734 60.0355C347.278 60.7687 345.822 61.5019 344.367 62.235C342.911 62.9682 341.455 63.7014 339.999 64.4346L337.614 58.9637C342.22 56.8577 346.867 54.7336 351.556 52.5915C356.328 50.4132 361.154 48.3593 366.034 46.4297C374.11 43.0083 380.991 41.1436 386.677 40.8357C392.409 40.4088 397.158 41.3475 400.924 43.6516C404.654 45.8728 407.531 49.3044 409.554 53.9464C411.046 57.143 411.869 60.7297 412.024 64.7063C412.226 68.5639 411.205 72.5595 408.963 76.6933C406.803 80.7909 402.862 84.8757 397.141 88.9476C399.304 89.3856 401.405 90.2454 403.443 91.5271C405.482 92.8089 407.812 94.3085 410.435 96.0259L424.688 105.645C427.073 107.269 429.325 108.704 431.446 109.949C433.531 111.112 435.679 111.853 437.889 112.172C440.064 112.408 442.436 111.966 445.005 110.846L446.794 114.949L431.127 121.777C427.784 120.67 424.814 119.4 422.217 117.967C419.702 116.498 416.979 114.775 414.046 112.799L399.917 103.125C398.08 101.854 395.97 100.407 393.585 98.7827C391.248 97.0398 388.865 95.7601 386.438 94.9438C385.148 95.6048 383.757 96.2604 382.265 96.9107C380.855 97.5248 379.428 98.0975 377.983 98.6288L388.496 122.75C389.471 124.988 390.279 126.955 390.919 128.649C391.605 130.223 392.1 131.586 392.404 132.736C393.363 132.219 394.339 131.744 395.334 131.311C396.292 130.794 397.251 130.278 398.21 129.762C399.168 129.245 400.145 128.77 401.14 128.337L403.524 133.807L375.548 146ZM383.687 90.6685C388.174 88.5157 391.827 86.0356 394.648 83.2281C397.551 80.3845 399.365 77.0785 400.09 73.3103C400.815 69.542 400.148 65.2954 398.089 60.5706C396.716 57.4207 395.068 54.8839 393.145 52.9604C391.268 50.9178 389.075 49.5064 386.565 48.7262C384.055 47.9461 381.228 47.7971 378.084 48.2794C374.905 48.6788 371.409 49.7095 367.596 51.3713C364.529 52.708 362.644 54.269 361.943 56.0543C361.324 57.8035 361.42 59.8332 362.229 62.1436C363.086 64.3349 364.164 66.9226 365.465 69.9067L375.869 93.7796C377.232 93.2845 378.511 92.8255 379.708 92.4026C380.988 91.9436 382.314 91.3655 383.687 90.6685Z" fill="#042245"/>
<path d="M262.016 195.481L260.228 191.378C263.306 189.839 265.154 188.195 265.773 186.446C266.355 184.614 266.2 182.561 265.307 180.287C264.462 177.894 263.406 175.246 262.142 172.345L238.732 118.631C238.009 116.973 237.364 115.38 236.797 113.852C236.193 112.241 235.662 110.796 235.203 109.516C233.747 110.249 232.291 110.983 230.835 111.716C229.379 112.449 227.923 113.182 226.467 113.915L224.083 108.444L252.059 96.2515L253.847 100.355C250.816 101.774 248.968 103.418 248.303 105.286C247.721 107.118 247.834 109.19 248.644 111.5C249.536 113.774 250.633 116.403 251.933 119.387L275.181 172.728C276.157 174.967 276.946 176.891 277.55 178.502C278.236 180.077 278.731 181.44 279.035 182.589L302.124 172.083C307.31 169.724 310.525 166.35 311.768 161.961C313.095 157.536 312.168 151.676 308.989 144.382L313.217 142.539L323.688 168.603L262.016 195.481Z" stroke="white"/>
<path d="M325.73 69.0257C322.699 70.4453 320.851 72.0892 320.186 73.9574C319.604 75.7894 319.717 77.8606 320.527 80.171C321.419 82.4452 322.516 85.0743 323.816 88.0585L346.847 140.902C347.823 143.14 348.63 145.106 349.27 146.8C349.957 148.375 350.452 149.738 350.756 150.887C352.211 150.154 353.667 149.421 355.123 148.688C356.579 147.955 358.035 147.222 359.491 146.488L361.876 151.959L333.899 164.152L332.111 160.049C335.189 158.51 337.037 156.866 337.655 155.117C338.238 153.285 338.083 151.232 337.19 148.958C336.345 146.565 335.289 143.917 334.025 141.016L310.615 87.3022C309.892 85.6443 309.247 84.0513 308.68 82.5231C308.076 80.912 307.545 79.4668 307.086 78.1872C305.63 78.9204 304.174 79.6536 302.718 80.3868C301.262 81.12 299.806 81.8531 298.35 82.5863L295.966 77.1154L323.942 64.9225L325.73 69.0257Z" stroke="white"/>
<path d="M375.548 146L373.76 141.897C376.837 140.359 378.685 138.715 379.304 136.966C379.886 135.134 379.731 133.08 378.839 130.806C377.993 128.413 376.938 125.766 375.673 122.864L352.263 69.1504C351.541 67.4926 350.896 65.8996 350.328 64.3714C349.725 62.7603 349.193 61.315 348.734 60.0355C347.278 60.7687 345.822 61.5019 344.367 62.235C342.911 62.9682 341.455 63.7014 339.999 64.4346L337.614 58.9637C342.22 56.8577 346.867 54.7336 351.556 52.5915C356.328 50.4132 361.154 48.3593 366.034 46.4297C374.11 43.0083 380.991 41.1436 386.677 40.8357C392.409 40.4088 397.158 41.3475 400.924 43.6516C404.654 45.8728 407.531 49.3044 409.554 53.9464C411.046 57.143 411.869 60.7297 412.024 64.7063C412.226 68.5639 411.205 72.5595 408.963 76.6933C406.803 80.7909 402.862 84.8757 397.141 88.9476C399.304 89.3856 401.405 90.2454 403.443 91.5271C405.482 92.8089 407.812 94.3085 410.435 96.0259L424.688 105.645C427.073 107.269 429.325 108.704 431.446 109.949C433.531 111.112 435.679 111.853 437.889 112.172C440.064 112.408 442.436 111.966 445.005 110.846L446.794 114.949L431.127 121.777C427.784 120.67 424.814 119.4 422.217 117.967C419.702 116.498 416.979 114.775 414.046 112.799L399.917 103.125C398.08 101.854 395.97 100.407 393.585 98.7827C391.248 97.0398 388.865 95.7601 386.438 94.9438C385.148 95.6048 383.757 96.2604 382.265 96.9107C380.855 97.5248 379.428 98.0975 377.983 98.6288L388.496 122.75C389.471 124.988 390.279 126.955 390.919 128.649C391.605 130.223 392.1 131.586 392.404 132.736C393.363 132.219 394.339 131.744 395.334 131.311C396.292 130.794 397.251 130.278 398.21 129.762C399.168 129.245 400.145 128.77 401.14 128.337L403.524 133.807L375.548 146ZM383.687 90.6685C388.174 88.5157 391.827 86.0356 394.648 83.2281C397.551 80.3845 399.365 77.0785 400.09 73.3103C400.815 69.542 400.148 65.2954 398.089 60.5706C396.716 57.4207 395.068 54.8839 393.145 52.9604C391.268 50.9178 389.075 49.5064 386.565 48.7262C384.055 47.9461 381.228 47.7971 378.084 48.2794C374.905 48.6788 371.409 49.7095 367.596 51.3713C364.529 52.708 362.644 54.269 361.943 56.0543C361.324 57.8035 361.42 59.8332 362.229 62.1436C363.086 64.3349 364.164 66.9226 365.465 69.9067L375.869 93.7796C377.232 93.2845 378.511 92.8255 379.708 92.4026C380.988 91.9436 382.314 91.3655 383.687 90.6685Z" stroke="white"/>
</svg>
