<svg width="324" height="325" viewBox="0 0 324 325" fill="none" xmlns="http://www.w3.org/2000/svg">
<rect x="0.5" y="323.926" width="323" height="323" transform="rotate(-90 0.5 323.926)" stroke="black"/>
<path fill-rule="evenodd" clip-rule="evenodd" d="M240.236 283.68L241.384 290.409C241.765 292.647 238.633 293.58 237.727 291.499L238.754 291.052C239.132 291.921 240.439 291.531 240.28 290.597L239.133 283.868L240.236 283.68Z" fill="#042245"/>
<path fill-rule="evenodd" clip-rule="evenodd" d="M230.452 282.157C232.381 281.132 234.705 281.188 236.582 282.304C237.376 282.775 238.282 283.024 239.205 283.024H239.644V284.144H239.205C238.081 284.144 236.977 283.841 236.01 283.266C234.469 282.35 232.561 282.304 230.977 283.146L229.222 284.078L228.697 283.09L230.452 282.157Z" fill="#042245"/>
<path fill-rule="evenodd" clip-rule="evenodd" d="M248.836 282.157C246.908 281.132 244.584 281.188 242.706 282.304C241.913 282.775 241.007 283.024 240.083 283.024H239.644V284.144H240.083C241.208 284.144 242.312 283.841 243.278 283.266C244.82 282.35 246.728 282.304 248.311 283.146L250.066 284.078L250.592 283.09L248.836 282.157Z" fill="#042245"/>
<path fill-rule="evenodd" clip-rule="evenodd" d="M236.647 303.302L235.362 302.711L235.83 301.694L237.115 302.285C238.817 303.068 240.778 303.056 242.47 302.251L243.635 301.697L244.116 302.708L242.951 303.262C240.959 304.209 238.65 304.224 236.647 303.302Z" fill="#042245"/>
<path fill-rule="evenodd" clip-rule="evenodd" d="M249.12 294.248C249.661 292.347 251.944 291.436 254.382 292.343C256.241 293.035 257.284 295.161 256.999 297.241C256.655 299.763 254.255 301.538 251.669 301.221C249.132 300.909 248.006 299.696 246.613 298.194C246.189 297.737 245.74 297.254 245.219 296.761C244.362 295.95 243.602 295.276 242.737 294.815C241.854 294.344 240.892 294.108 239.643 294.108V295.228C240.735 295.228 241.511 295.43 242.21 295.803C242.928 296.186 243.592 296.762 244.45 297.574C244.873 297.975 245.266 298.401 245.66 298.828C247.102 300.392 248.554 301.966 251.533 302.332C254.691 302.719 257.676 300.557 258.109 297.392C258.448 294.912 257.227 292.208 254.772 291.294C251.977 290.253 248.829 291.179 248.043 293.941C247.81 294.759 247.776 295.532 247.986 296.262C248.196 296.991 248.636 297.628 249.268 298.197C249.808 298.683 250.715 299.167 251.695 299.251C252.716 299.338 253.813 298.983 254.581 297.799C255.406 296.527 254.922 295.166 254.053 294.47C253.618 294.121 253.052 293.907 252.462 293.972C251.854 294.038 251.302 294.39 250.907 295.021L251.855 295.616C252.093 295.237 252.359 295.109 252.583 295.085C252.825 295.058 253.103 295.144 253.353 295.344C253.854 295.745 254.101 296.482 253.642 297.19C253.125 297.987 252.45 298.192 251.79 298.136C251.088 298.076 250.404 297.713 250.017 297.365C249.503 296.903 249.202 296.437 249.062 295.952C248.922 295.467 248.93 294.912 249.12 294.248Z" fill="#042245"/>
<path fill-rule="evenodd" clip-rule="evenodd" d="M230.17 294.248C229.629 292.347 227.345 291.436 224.908 292.343C223.048 293.035 222.006 295.161 222.29 297.241C222.635 299.763 225.035 301.538 227.62 301.221C230.158 300.909 231.283 299.696 232.677 298.194C233.101 297.737 233.55 297.254 234.07 296.761C234.927 295.95 235.688 295.276 236.552 294.815C237.435 294.344 238.397 294.108 239.646 294.108V295.228C238.555 295.228 237.778 295.43 237.079 295.803C236.362 296.186 235.697 296.762 234.84 297.574C234.417 297.975 234.024 298.401 233.63 298.828C232.187 300.392 230.735 301.966 227.757 302.332C224.599 302.719 221.613 300.557 221.181 297.392C220.842 294.912 222.063 292.208 224.517 291.294C227.313 290.253 230.46 291.179 231.247 293.941C231.479 294.759 231.513 295.532 231.303 296.262C231.093 296.991 230.654 297.628 230.022 298.197C229.482 298.683 228.575 299.167 227.595 299.251C226.573 299.338 225.477 298.983 224.709 297.799C223.883 296.527 224.368 295.166 225.237 294.47C225.672 294.121 226.238 293.907 226.828 293.972C227.435 294.038 227.987 294.39 228.383 295.021L227.435 295.616C227.197 295.237 226.931 295.109 226.706 295.085C226.465 295.058 226.186 295.144 225.937 295.344C225.436 295.745 225.188 296.482 225.648 297.19C226.165 297.987 226.839 298.192 227.499 298.136C228.201 298.076 228.886 297.713 229.273 297.365C229.786 296.903 230.088 296.437 230.228 295.952C230.367 295.467 230.359 294.912 230.17 294.248Z" fill="#042245"/>
<path fill-rule="evenodd" clip-rule="evenodd" d="M257.35 301.182C257.345 301.916 257.091 302.612 256.806 303.152C256.252 304.199 255.21 304.938 253.949 305.305C252.689 305.672 251.256 305.652 249.999 305.223C248.603 304.748 247.736 303.908 247.024 302.865C246.663 302.336 246.344 301.759 246.014 301.143C245.971 301.063 245.927 300.981 245.883 300.899C245.597 300.363 245.297 299.802 244.959 299.251C244.331 298.226 243.606 297.225 242.747 296.475C241.881 295.72 240.852 295.2 239.638 295.2L239.638 296.32C240.507 296.32 241.284 296.685 242.011 297.319C242.744 297.959 243.4 298.849 244.005 299.836C244.324 300.356 244.607 300.886 244.895 301.424C244.939 301.507 244.983 301.59 245.028 301.673C245.358 302.289 245.701 302.913 246.1 303.496C246.907 304.678 247.951 305.708 249.637 306.283C251.118 306.788 252.786 306.81 254.262 306.38C255.738 305.95 257.068 305.052 257.796 303.675C258.13 303.043 258.463 302.165 258.47 301.19C258.476 300.195 258.141 299.128 257.187 298.163L256.391 298.951C257.125 299.693 257.355 300.469 257.35 301.182Z" fill="#042245"/>
<path fill-rule="evenodd" clip-rule="evenodd" d="M221.939 301.182C221.944 301.916 222.199 302.612 222.484 303.152C223.037 304.199 224.08 304.938 225.34 305.305C226.601 305.672 228.033 305.652 229.291 305.223C230.686 304.748 231.553 303.908 232.265 302.865C232.627 302.336 232.945 301.759 233.275 301.143C233.319 301.063 233.362 300.981 233.406 300.899C233.693 300.363 233.993 299.802 234.33 299.251C234.958 298.226 235.684 297.225 236.543 296.475C237.409 295.72 238.437 295.2 239.652 295.2L239.652 296.32C238.783 296.32 238.006 296.685 237.279 297.319C236.545 297.959 235.89 298.849 235.285 299.836C234.966 300.356 234.683 300.886 234.395 301.424C234.351 301.507 234.306 301.59 234.262 301.673C233.931 302.289 233.588 302.913 233.19 303.496C232.383 304.678 231.338 305.708 229.652 306.283C228.171 306.788 226.503 306.81 225.027 306.38C223.551 305.95 222.222 305.052 221.494 303.675C221.16 303.043 220.826 302.165 220.82 301.19C220.813 300.195 221.149 299.128 222.103 298.163L222.899 298.951C222.165 299.693 221.935 300.469 221.939 301.182Z" fill="#042245"/>
<path fill-rule="evenodd" clip-rule="evenodd" d="M256.053 307.031C255.794 307.822 255.243 308.483 254.773 308.822C252.733 310.294 249.75 310.309 247.537 308.812C246.315 307.986 245.7 306.948 245.287 305.755C245.078 305.149 244.922 304.509 244.765 303.828C244.745 303.739 244.724 303.649 244.703 303.558C244.568 302.966 244.426 302.345 244.245 301.725C243.898 300.536 243.275 299.214 242.506 298.178C242.122 297.659 241.687 297.195 241.216 296.855C240.745 296.517 240.207 296.281 239.627 296.281L239.627 297.4C239.897 297.4 240.211 297.511 240.562 297.764C240.911 298.016 241.267 298.387 241.607 298.845C242.289 299.763 242.856 300.962 243.17 302.039C243.341 302.625 243.475 303.21 243.611 303.805C243.632 303.896 243.653 303.988 243.674 304.08C243.831 304.761 243.998 305.453 244.229 306.121C244.697 307.473 245.434 308.742 246.909 309.74C249.489 311.485 252.985 311.493 255.428 309.73C256.076 309.262 256.78 308.411 257.117 307.379C257.463 306.321 257.426 305.06 256.544 303.866L255.644 304.532C256.279 305.391 256.304 306.264 256.053 307.031Z" fill="#042245"/>
<path fill-rule="evenodd" clip-rule="evenodd" d="M223.238 307.03C223.497 307.821 224.048 308.482 224.518 308.821C226.558 310.293 229.541 310.308 231.754 308.811C232.976 307.985 233.591 306.947 234.004 305.754C234.213 305.148 234.369 304.508 234.526 303.827C234.546 303.738 234.567 303.648 234.588 303.557C234.723 302.965 234.865 302.344 235.046 301.725C235.393 300.535 236.016 299.213 236.785 298.177C237.169 297.659 237.604 297.194 238.075 296.854C238.546 296.516 239.084 296.28 239.664 296.28L239.664 297.399C239.394 297.399 239.08 297.51 238.729 297.763C238.38 298.015 238.024 298.386 237.684 298.844C237.002 299.762 236.435 300.961 236.121 302.038C235.95 302.624 235.816 303.209 235.68 303.804C235.659 303.895 235.638 303.987 235.617 304.079C235.46 304.76 235.293 305.452 235.062 306.12C234.594 307.472 233.857 308.741 232.382 309.739C229.802 311.484 226.306 311.492 223.863 309.729C223.215 309.261 222.511 308.41 222.174 307.378C221.828 306.32 221.865 305.059 222.747 303.866L223.647 304.531C223.012 305.39 222.987 306.263 223.238 307.03Z" fill="#042245"/>
<path d="M264.22 305.268V304.412C264.877 304.378 265.326 304.231 265.568 303.972C265.81 303.695 265.939 303.324 265.957 302.857C265.991 302.374 266.008 301.829 266.008 301.225V290.029C266.008 289.684 266.017 289.356 266.034 289.045C266.052 288.716 266.069 288.423 266.086 288.163C265.775 288.181 265.464 288.198 265.153 288.215C264.842 288.233 264.531 288.25 264.22 288.267V287.127H270.051V287.982C269.412 287.999 268.963 288.146 268.704 288.423C268.462 288.699 268.323 289.071 268.289 289.537C268.272 290.003 268.263 290.548 268.263 291.17V302.287C268.263 302.754 268.254 303.151 268.237 303.479C268.237 303.808 268.22 304.084 268.185 304.309L273.031 304.231C274.12 304.214 274.941 303.868 275.493 303.194C276.064 302.521 276.349 301.423 276.349 299.903H277.23L277.074 305.268H264.22Z" fill="#042245"/>
<path d="M285.033 287.982C284.394 287.999 283.945 288.146 283.686 288.423C283.444 288.699 283.306 289.071 283.271 289.537C283.254 290.003 283.245 290.548 283.245 291.17V302.184C283.245 302.65 283.237 303.056 283.219 303.402C283.219 303.73 283.202 304.006 283.168 304.231C283.479 304.214 283.79 304.196 284.101 304.179C284.411 304.162 284.722 304.145 285.033 304.127V305.268H279.203V304.412C279.859 304.378 280.308 304.231 280.55 303.972C280.792 303.695 280.922 303.324 280.939 302.857C280.973 302.374 280.991 301.829 280.991 301.225V290.029C280.991 289.684 280.999 289.356 281.017 289.045C281.034 288.716 281.051 288.423 281.068 288.163C280.757 288.181 280.446 288.198 280.135 288.215C279.824 288.233 279.513 288.25 279.203 288.267V287.127H285.033V287.982Z" fill="#042245"/>
<path d="M287.883 305.268V304.412C288.54 304.378 288.989 304.231 289.231 303.972C289.473 303.695 289.602 303.324 289.619 302.857C289.654 302.374 289.671 301.829 289.671 301.225V290.029C289.671 289.684 289.68 289.356 289.697 289.045C289.714 288.716 289.732 288.423 289.749 288.163C289.438 288.181 289.127 288.198 288.816 288.215C288.505 288.233 288.194 288.25 287.883 288.267V287.127C288.851 287.11 289.827 287.092 290.812 287.075C291.814 287.058 292.816 287.066 293.818 287.101C295.494 287.118 296.841 287.317 297.861 287.697C298.897 288.06 299.657 288.587 300.141 289.278C300.625 289.952 300.867 290.772 300.867 291.74C300.884 292.414 300.754 293.105 300.478 293.813C300.219 294.504 299.735 295.126 299.027 295.679C298.336 296.232 297.334 296.646 296.021 296.923C296.366 297.165 296.668 297.476 296.928 297.856C297.187 298.236 297.48 298.676 297.809 299.177L299.571 301.95C299.865 302.417 300.15 302.84 300.426 303.22C300.703 303.583 301.022 303.877 301.385 304.101C301.748 304.309 302.197 304.412 302.733 304.412V305.268H299.467C298.966 304.818 298.543 304.369 298.197 303.92C297.869 303.471 297.524 302.961 297.161 302.391L295.424 299.618C295.2 299.255 294.941 298.841 294.647 298.374C294.371 297.89 294.051 297.484 293.688 297.156C293.412 297.173 293.118 297.182 292.807 297.182C292.513 297.182 292.22 297.173 291.926 297.156V302.184C291.926 302.65 291.917 303.056 291.9 303.402C291.9 303.73 291.883 304.006 291.848 304.231C292.055 304.214 292.263 304.205 292.47 304.205C292.677 304.188 292.885 304.171 293.092 304.153C293.299 304.136 293.507 304.127 293.714 304.127V305.268H287.883ZM293.533 296.197C294.483 296.163 295.312 296.007 296.021 295.731C296.746 295.454 297.316 295.014 297.731 294.409C298.146 293.804 298.353 293.01 298.353 292.025C298.353 291.368 298.258 290.798 298.068 290.314C297.895 289.813 297.619 289.399 297.239 289.071C296.858 288.742 296.375 288.5 295.787 288.345C295.2 288.172 294.509 288.086 293.714 288.086C293.075 288.086 292.626 288.215 292.366 288.474C292.125 288.734 291.986 289.096 291.952 289.563C291.935 290.012 291.926 290.548 291.926 291.17V296.145C292.202 296.163 292.461 296.18 292.703 296.197C292.963 296.215 293.239 296.215 293.533 296.197Z" fill="#042245"/>
<path d="M264.22 305.268V304.412C264.877 304.378 265.326 304.231 265.568 303.972C265.81 303.695 265.939 303.324 265.957 302.857C265.991 302.374 266.008 301.829 266.008 301.225V290.029C266.008 289.684 266.017 289.356 266.034 289.045C266.052 288.716 266.069 288.423 266.086 288.163C265.775 288.181 265.464 288.198 265.153 288.215C264.842 288.233 264.531 288.25 264.22 288.267V287.127H270.051V287.982C269.412 287.999 268.963 288.146 268.704 288.423C268.462 288.699 268.323 289.071 268.289 289.537C268.272 290.003 268.263 290.548 268.263 291.17V302.287C268.263 302.754 268.254 303.151 268.237 303.479C268.237 303.808 268.22 304.084 268.185 304.309L273.031 304.231C274.12 304.214 274.941 303.868 275.493 303.194C276.064 302.521 276.349 301.423 276.349 299.903H277.23L277.074 305.268H264.22Z" stroke="white"/>
<path d="M285.033 287.982C284.394 287.999 283.945 288.146 283.686 288.423C283.444 288.699 283.306 289.071 283.271 289.537C283.254 290.003 283.245 290.548 283.245 291.17V302.184C283.245 302.65 283.237 303.056 283.219 303.402C283.219 303.73 283.202 304.006 283.168 304.231C283.479 304.214 283.79 304.196 284.101 304.179C284.411 304.162 284.722 304.145 285.033 304.127V305.268H279.203V304.412C279.859 304.378 280.308 304.231 280.55 303.972C280.792 303.695 280.922 303.324 280.939 302.857C280.973 302.374 280.991 301.829 280.991 301.225V290.029C280.991 289.684 280.999 289.356 281.017 289.045C281.034 288.716 281.051 288.423 281.068 288.163C280.757 288.181 280.446 288.198 280.135 288.215C279.824 288.233 279.513 288.25 279.203 288.267V287.127H285.033V287.982Z" stroke="white"/>
<path d="M287.883 305.268V304.412C288.54 304.378 288.989 304.231 289.231 303.972C289.473 303.695 289.602 303.324 289.619 302.857C289.654 302.374 289.671 301.829 289.671 301.225V290.029C289.671 289.684 289.68 289.356 289.697 289.045C289.714 288.716 289.732 288.423 289.749 288.163C289.438 288.181 289.127 288.198 288.816 288.215C288.505 288.233 288.194 288.25 287.883 288.267V287.127C288.851 287.11 289.827 287.092 290.812 287.075C291.814 287.058 292.816 287.066 293.818 287.101C295.494 287.118 296.841 287.317 297.861 287.697C298.897 288.06 299.657 288.587 300.141 289.278C300.625 289.952 300.867 290.772 300.867 291.74C300.884 292.414 300.754 293.105 300.478 293.813C300.219 294.504 299.735 295.126 299.027 295.679C298.336 296.232 297.334 296.646 296.021 296.923C296.366 297.165 296.668 297.476 296.928 297.856C297.187 298.236 297.48 298.676 297.809 299.177L299.571 301.95C299.865 302.417 300.15 302.84 300.426 303.22C300.703 303.583 301.022 303.877 301.385 304.101C301.748 304.309 302.197 304.412 302.733 304.412V305.268H299.467C298.966 304.818 298.543 304.369 298.197 303.92C297.869 303.471 297.524 302.961 297.161 302.391L295.424 299.618C295.2 299.255 294.941 298.841 294.647 298.374C294.371 297.89 294.051 297.484 293.688 297.156C293.412 297.173 293.118 297.182 292.807 297.182C292.513 297.182 292.22 297.173 291.926 297.156V302.184C291.926 302.65 291.917 303.056 291.9 303.402C291.9 303.73 291.883 304.006 291.848 304.231C292.055 304.214 292.263 304.205 292.47 304.205C292.677 304.188 292.885 304.171 293.092 304.153C293.299 304.136 293.507 304.127 293.714 304.127V305.268H287.883ZM293.533 296.197C294.483 296.163 295.312 296.007 296.021 295.731C296.746 295.454 297.316 295.014 297.731 294.409C298.146 293.804 298.353 293.01 298.353 292.025C298.353 291.368 298.258 290.798 298.068 290.314C297.895 289.813 297.619 289.399 297.239 289.071C296.858 288.742 296.375 288.5 295.787 288.345C295.2 288.172 294.509 288.086 293.714 288.086C293.075 288.086 292.626 288.215 292.366 288.474C292.125 288.734 291.986 289.096 291.952 289.563C291.935 290.012 291.926 290.548 291.926 291.17V296.145C292.202 296.163 292.461 296.18 292.703 296.197C292.963 296.215 293.239 296.215 293.533 296.197Z" stroke="white"/>
</svg>
