<svg width="433" height="175" viewBox="0 0 433 175" fill="none" xmlns="http://www.w3.org/2000/svg">
<path fill-rule="evenodd" clip-rule="evenodd" d="M330.116 12.3472L336.312 48.6808C338.372 60.764 321.46 65.8061 316.567 54.5673L322.11 52.1542C324.153 56.8459 331.213 54.7411 330.352 49.6969L324.157 13.3633L330.116 12.3472Z" fill="#042245"/>
<path fill-rule="evenodd" clip-rule="evenodd" d="M277.286 4.12338C287.701 -1.41042 300.248 -1.11041 310.386 4.91483C314.672 7.462 319.566 8.80636 324.552 8.80636H326.922V14.8517H324.552C318.479 14.8517 312.518 13.2142 307.298 10.1116C298.974 5.16495 288.673 4.91864 280.123 9.46187L270.644 14.4983L267.808 9.15976L277.286 4.12338Z" fill="#042245"/>
<path fill-rule="evenodd" clip-rule="evenodd" d="M376.555 4.12338C366.14 -1.41042 353.593 -1.11041 343.455 4.91483C339.169 7.462 334.276 8.80636 329.29 8.80636H326.919V14.8517H329.29C335.363 14.8517 341.323 13.2142 346.543 10.1116C354.867 5.16495 365.168 4.91864 373.719 9.46187L383.197 14.4983L386.034 9.15976L376.555 4.12338Z" fill="#042245"/>
<path fill-rule="evenodd" clip-rule="evenodd" d="M310.736 118.3L303.799 115.108L306.327 109.616L313.264 112.809C322.452 117.037 333.043 116.97 342.177 112.626L348.469 109.633L351.066 115.092L344.774 118.085C334.021 123.199 321.553 123.278 310.736 118.3Z" fill="#042245"/>
<path fill-rule="evenodd" clip-rule="evenodd" d="M378.083 69.4109C381.004 59.1492 393.336 54.2273 406.497 59.1264C416.538 62.8643 422.168 74.3399 420.632 85.5721C418.77 99.1941 405.813 108.776 391.85 107.062C378.15 105.381 372.071 98.8303 364.546 90.7212C362.257 88.2543 359.834 85.6431 357.022 82.9809C352.395 78.6007 348.287 74.9656 343.619 72.4755C338.852 69.9321 333.657 68.6581 326.912 68.6581V74.7034C332.807 74.7034 337 75.7958 340.774 77.8093C344.648 79.8762 348.237 82.9886 352.866 87.371C355.151 89.5345 357.274 91.8359 359.4 94.1413C367.191 102.588 375.031 111.089 391.113 113.063C408.165 115.155 424.286 103.479 426.622 86.3909C428.453 72.9954 421.86 58.3948 408.606 53.4609C393.511 47.8416 376.515 52.8399 372.269 67.7558C371.012 72.1705 370.828 76.345 371.962 80.2855C373.096 84.2261 375.471 87.6642 378.883 90.7351C381.799 93.3591 386.698 95.9757 391.989 96.4275C397.504 96.8984 403.425 94.9824 407.573 88.5879C412.031 81.7161 409.414 74.3699 404.721 70.6101C402.371 68.7269 399.315 67.5732 396.13 67.9204C392.85 68.2779 389.868 70.1809 387.733 73.584L392.854 76.7971C394.137 74.7514 395.575 74.062 396.785 73.9301C398.09 73.7878 399.593 74.2479 400.941 75.3279C403.646 77.4948 404.982 81.4736 402.501 85.2981C399.711 89.6 396.069 90.7086 392.503 90.4041C388.714 90.0806 385.016 88.1217 382.927 86.2417C380.155 83.7465 378.526 81.2334 377.772 78.6136C377.018 75.9938 377.062 72.9987 378.083 69.4109Z" fill="#042245"/>
<path fill-rule="evenodd" clip-rule="evenodd" d="M275.76 69.4109C272.839 59.1492 260.507 54.2273 247.346 59.1264C237.305 62.8643 231.675 74.3399 233.211 85.5721C235.073 99.1941 248.03 108.776 261.993 107.062C275.693 105.381 281.772 98.8303 289.297 90.7212C291.586 88.2543 294.009 85.6431 296.821 82.9809C301.448 78.6007 305.556 74.9656 310.224 72.4755C314.992 69.9321 320.187 68.6581 326.931 68.6581V74.7034C321.037 74.7034 316.844 75.7958 313.069 77.8093C309.195 79.8762 305.607 82.9886 300.977 87.371C298.692 89.5345 296.569 91.8359 294.443 94.1413C286.652 102.588 278.812 111.089 262.73 113.063C245.679 115.155 229.557 103.479 227.221 86.3909C225.39 72.9954 231.984 58.3948 245.237 53.4609C260.333 47.8416 277.328 52.8399 281.574 67.7558C282.831 72.1705 283.015 76.345 281.881 80.2855C280.747 84.2261 278.372 87.6642 274.96 90.7351C272.045 93.3591 267.145 95.9757 261.854 96.4275C256.339 96.8984 250.418 94.9824 246.27 88.5879C241.813 81.7161 244.429 74.3699 249.122 70.6101C251.473 68.7269 254.529 67.5732 257.713 67.9204C260.993 68.2779 263.975 70.1809 266.11 73.584L260.99 76.7971C259.706 74.7514 258.268 74.062 257.058 73.9301C255.753 73.7878 254.25 74.2479 252.902 75.3279C250.198 77.4948 248.861 81.4736 251.342 85.2981C254.132 89.6 257.775 90.7086 261.34 90.4041C265.129 90.0806 268.827 88.1217 270.916 86.2417C273.688 83.7465 275.317 81.2334 276.071 78.6136C276.825 75.9938 276.781 72.9987 275.76 69.4109Z" fill="#042245"/>
<path fill-rule="evenodd" clip-rule="evenodd" d="M422.529 106.854C422.503 110.813 421.129 114.576 419.589 117.489C416.601 123.141 410.971 127.132 404.164 129.115C397.358 131.099 389.623 130.99 382.832 128.674C375.297 126.105 370.617 121.571 366.771 115.939C364.82 113.082 363.1 109.967 361.317 106.643C361.083 106.207 360.848 105.767 360.611 105.324C359.064 102.43 357.443 99.3985 355.622 96.4266C352.23 90.8921 348.313 85.4823 343.673 81.4362C338.997 77.3596 333.445 74.551 326.887 74.551L326.887 80.5963C331.578 80.5963 335.774 82.5701 339.7 85.9929C343.661 89.4461 347.199 94.2525 350.467 99.5855C352.188 102.394 353.718 105.254 355.271 108.159C355.51 108.605 355.75 109.053 355.99 109.502C357.776 112.829 359.628 116.198 361.779 119.348C366.136 125.728 371.776 131.291 380.881 134.396C388.878 137.123 397.885 137.242 405.855 134.919C413.824 132.598 421.002 127.751 424.933 120.315C426.738 116.901 428.54 112.161 428.575 106.894C428.61 101.522 426.799 95.763 421.647 90.5522L417.348 94.8026C421.311 98.8109 422.555 103 422.529 106.854Z" fill="#042245"/>
<path fill-rule="evenodd" clip-rule="evenodd" d="M231.318 106.854C231.344 110.813 232.718 114.576 234.259 117.489C237.247 123.141 242.877 127.132 249.684 129.115C256.49 131.099 264.225 130.99 271.016 128.674C278.551 126.105 283.231 121.571 287.077 115.939C289.027 113.082 290.747 109.967 292.53 106.643C292.764 106.207 293 105.767 293.237 105.324C294.784 102.43 296.405 99.3985 298.226 96.4266C301.618 90.8921 305.534 85.4823 310.175 81.4362C314.851 77.3596 320.403 74.551 326.96 74.551L326.96 80.5963C322.27 80.5963 318.074 82.5701 314.148 85.9929C310.187 89.4461 306.649 94.2525 303.38 99.5855C301.659 102.394 300.13 105.254 298.576 108.159C298.337 108.605 298.098 109.053 297.857 109.502C296.072 112.829 294.22 116.198 292.069 119.348C287.712 125.728 282.072 131.291 272.967 134.396C264.97 137.123 255.962 137.242 247.993 134.919C240.024 132.598 232.845 127.751 228.914 120.315C227.109 116.901 225.308 112.161 225.273 106.894C225.238 101.522 227.049 95.763 232.201 90.5522L236.5 94.8026C232.537 98.8109 231.293 103 231.318 106.854Z" fill="#042245"/>
<path fill-rule="evenodd" clip-rule="evenodd" d="M415.525 138.434C414.127 142.706 411.148 146.275 408.609 148.108C397.596 156.056 381.489 156.139 369.537 148.055C362.943 143.595 359.62 137.99 357.39 131.545C356.259 128.276 355.419 124.818 354.572 121.143C354.461 120.66 354.35 120.174 354.237 119.684C353.505 116.485 352.739 113.134 351.763 109.788C349.89 103.364 346.527 96.2269 342.375 90.6323C340.298 87.8324 337.952 85.3231 335.406 83.4901C332.867 81.6617 329.957 80.3876 326.827 80.3875L326.827 86.4328C328.286 86.4328 329.979 87.0321 331.874 88.3962C333.763 89.7559 335.683 91.7582 337.521 94.2347C341.2 99.1929 344.264 105.668 345.959 111.48C346.881 114.642 347.605 117.804 348.34 121.015C348.453 121.509 348.567 122.004 348.681 122.5C349.529 126.179 350.43 129.917 351.677 133.521C354.203 140.823 358.182 147.673 366.15 153.063C380.081 162.485 398.959 162.528 412.147 153.01C415.647 150.483 419.447 145.887 421.27 140.313C423.138 134.605 422.937 127.792 418.174 121.349L413.313 124.942C416.743 129.582 416.879 134.296 415.525 138.434Z" fill="#042245"/>
<path fill-rule="evenodd" clip-rule="evenodd" d="M238.33 138.429C239.727 142.702 242.707 146.271 245.245 148.103C256.258 156.052 272.365 156.135 284.317 148.051C290.912 143.59 294.235 137.986 296.465 131.54C297.596 128.271 298.436 124.813 299.283 121.138C299.394 120.656 299.505 120.169 299.617 119.679C300.349 116.48 301.116 113.13 302.092 109.783C303.965 103.36 307.328 96.2225 311.479 90.628C313.557 87.828 315.902 85.3187 318.448 83.4857C320.988 81.6573 323.898 80.3832 327.028 80.3832L327.028 86.4285C325.568 86.4285 323.875 87.0277 321.98 88.3919C320.092 89.7515 318.171 91.7538 316.334 94.2303C312.655 99.1885 309.59 105.663 307.895 111.476C306.973 114.638 306.249 117.8 305.514 121.01C305.401 121.504 305.288 121.999 305.174 122.495C304.326 126.175 303.425 129.913 302.178 133.517C299.652 140.818 295.672 147.669 287.704 153.058C273.773 162.481 254.895 162.523 241.708 153.005C238.207 150.479 234.408 145.883 232.584 140.309C230.717 134.601 230.917 127.787 235.68 121.344L240.541 124.938C237.112 129.577 236.976 134.291 238.33 138.429Z" fill="#042245"/>
<path d="M0 136.679V132.061C3.54505 131.875 5.97061 131.082 7.27668 129.683C8.58276 128.19 9.28244 126.184 9.37573 123.665C9.56231 121.053 9.6556 118.114 9.6556 114.849V54.3968C9.6556 52.531 9.70224 50.7585 9.79554 49.0793C9.88883 47.3067 9.98212 45.7208 10.0754 44.3214C8.39617 44.4147 6.71694 44.508 5.0377 44.6013C3.35847 44.6946 1.67923 44.7879 0 44.8812V38.724H31.4856V43.3419C28.0339 43.4352 25.6083 44.2281 24.209 45.7208C22.9029 47.2134 22.1566 49.2192 21.97 51.738C21.8767 54.2569 21.8301 57.1956 21.8301 60.554V120.587C21.8301 123.106 21.7834 125.251 21.6901 127.024C21.6901 128.796 21.5968 130.289 21.4102 131.502L47.5783 131.082C53.4556 130.989 57.887 129.123 60.8723 125.484C63.9509 121.846 65.4902 115.922 65.4902 107.713H70.248L69.4084 136.679H0Z" fill="#042245"/>
<path d="M112.386 43.3419C108.935 43.4352 106.509 44.2281 105.11 45.7208C103.804 47.2134 103.057 49.2192 102.871 51.738C102.777 54.2569 102.731 57.1956 102.731 60.554V120.027C102.731 122.546 102.684 124.738 102.591 126.604C102.591 128.376 102.497 129.869 102.311 131.082C103.99 130.989 105.669 130.895 107.349 130.802C109.028 130.709 110.707 130.615 112.386 130.522V136.679H80.9006V132.061C84.4457 131.875 86.8712 131.082 88.1773 129.683C89.4834 128.19 90.1831 126.184 90.2764 123.665C90.4629 121.053 90.5562 118.114 90.5562 114.849V54.3968C90.5562 52.531 90.6029 50.7585 90.6962 49.0793C90.7895 47.3067 90.8827 45.7208 90.976 44.3214C89.2968 44.4147 87.6176 44.508 85.9383 44.6013C84.2591 44.6946 82.5799 44.7879 80.9006 44.8812V38.724H112.386V43.3419Z" fill="#042245"/>
<path d="M127.774 136.679V132.061C131.319 131.875 133.744 131.082 135.05 129.683C136.357 128.19 137.056 126.184 137.15 123.665C137.336 121.053 137.429 118.114 137.429 114.849V54.3968C137.429 52.531 137.476 50.7585 137.569 49.0793C137.663 47.3067 137.756 45.7208 137.849 44.3214C136.17 44.4147 134.491 44.508 132.811 44.6013C131.132 44.6946 129.453 44.7879 127.774 44.8812V38.724C132.998 38.6307 138.269 38.5374 143.587 38.4441C148.997 38.3508 154.408 38.3975 159.819 38.584C168.868 38.6773 176.145 39.7502 181.649 41.8026C187.247 43.7617 191.351 46.6071 193.964 50.3387C196.576 53.977 197.882 58.4083 197.882 63.6326C197.975 67.271 197.275 71.0026 195.783 74.8275C194.383 78.5592 191.771 81.9176 187.946 84.9029C184.215 87.8882 178.804 90.1272 171.714 91.6199C173.58 92.9259 175.212 94.6052 176.612 96.6576C178.011 98.71 179.597 101.089 181.369 103.794L190.885 118.768C192.471 121.286 194.01 123.572 195.503 125.624C196.996 127.583 198.721 129.169 200.681 130.382C202.64 131.502 205.065 132.061 207.957 132.061V136.679H190.325C187.62 134.254 185.334 131.828 183.468 129.403C181.696 126.977 179.83 124.225 177.871 121.146L168.495 106.173C167.282 104.214 165.883 101.975 164.297 99.4563C162.804 96.8442 161.079 94.6518 159.12 92.8793C157.627 92.9726 156.041 93.0192 154.362 93.0192C152.776 93.0192 151.19 92.9726 149.604 92.8793V120.027C149.604 122.546 149.557 124.738 149.464 126.604C149.464 128.376 149.371 129.869 149.184 131.082C150.304 130.989 151.423 130.942 152.542 130.942C153.662 130.849 154.781 130.755 155.901 130.662C157.02 130.569 158.14 130.522 159.259 130.522V136.679H127.774ZM158.28 87.7017C163.411 87.5151 167.889 86.6755 171.714 85.1828C175.632 83.6902 178.711 81.3112 180.95 78.0461C183.189 74.7809 184.308 70.4895 184.308 65.1719C184.308 61.6269 183.795 58.5483 182.769 55.9361C181.836 53.2307 180.343 50.9917 178.291 49.2192C176.238 47.4467 173.626 46.1406 170.454 45.301C167.282 44.3681 163.551 43.9016 159.259 43.9016C155.808 43.9016 153.382 44.6013 151.983 46.0007C150.677 47.4 149.93 49.3591 149.744 51.878C149.65 54.3035 149.604 57.1956 149.604 60.554V87.4218C151.096 87.5151 152.496 87.6084 153.802 87.7017C155.201 87.795 156.694 87.795 158.28 87.7017Z" fill="#042245"/>
<path d="M0 136.679V132.061C3.54505 131.875 5.97061 131.082 7.27668 129.683C8.58276 128.19 9.28244 126.184 9.37573 123.665C9.56231 121.053 9.6556 118.114 9.6556 114.849V54.3968C9.6556 52.531 9.70224 50.7585 9.79554 49.0793C9.88883 47.3067 9.98212 45.7208 10.0754 44.3214C8.39617 44.4147 6.71694 44.508 5.0377 44.6013C3.35847 44.6946 1.67923 44.7879 0 44.8812V38.724H31.4856V43.3419C28.0339 43.4352 25.6083 44.2281 24.209 45.7208C22.9029 47.2134 22.1566 49.2192 21.97 51.738C21.8767 54.2569 21.8301 57.1956 21.8301 60.554V120.587C21.8301 123.106 21.7834 125.251 21.6901 127.024C21.6901 128.796 21.5968 130.289 21.4102 131.502L47.5783 131.082C53.4556 130.989 57.887 129.123 60.8723 125.484C63.9509 121.846 65.4902 115.922 65.4902 107.713H70.248L69.4084 136.679H0Z" stroke="white"/>
<path d="M112.386 43.3419C108.935 43.4352 106.509 44.2281 105.11 45.7208C103.804 47.2134 103.057 49.2192 102.871 51.738C102.777 54.2569 102.731 57.1956 102.731 60.554V120.027C102.731 122.546 102.684 124.738 102.591 126.604C102.591 128.376 102.497 129.869 102.311 131.082C103.99 130.989 105.669 130.895 107.349 130.802C109.028 130.709 110.707 130.615 112.386 130.522V136.679H80.9006V132.061C84.4457 131.875 86.8712 131.082 88.1773 129.683C89.4834 128.19 90.1831 126.184 90.2764 123.665C90.4629 121.053 90.5562 118.114 90.5562 114.849V54.3968C90.5562 52.531 90.6029 50.7585 90.6962 49.0793C90.7895 47.3067 90.8827 45.7208 90.976 44.3214C89.2968 44.4147 87.6176 44.508 85.9383 44.6013C84.2591 44.6946 82.5799 44.7879 80.9006 44.8812V38.724H112.386V43.3419Z" stroke="white"/>
<path d="M127.774 136.679V132.061C131.319 131.875 133.744 131.082 135.05 129.683C136.357 128.19 137.056 126.184 137.15 123.665C137.336 121.053 137.429 118.114 137.429 114.849V54.3968C137.429 52.531 137.476 50.7585 137.569 49.0793C137.663 47.3067 137.756 45.7208 137.849 44.3214C136.17 44.4147 134.491 44.508 132.811 44.6013C131.132 44.6946 129.453 44.7879 127.774 44.8812V38.724C132.998 38.6307 138.269 38.5374 143.587 38.4441C148.997 38.3508 154.408 38.3975 159.819 38.584C168.868 38.6773 176.145 39.7502 181.649 41.8026C187.247 43.7617 191.351 46.6071 193.964 50.3387C196.576 53.977 197.882 58.4083 197.882 63.6326C197.975 67.271 197.275 71.0026 195.783 74.8275C194.383 78.5592 191.771 81.9176 187.946 84.9029C184.215 87.8882 178.804 90.1272 171.714 91.6199C173.58 92.9259 175.212 94.6052 176.612 96.6576C178.011 98.71 179.597 101.089 181.369 103.794L190.885 118.768C192.471 121.286 194.01 123.572 195.503 125.624C196.996 127.583 198.721 129.169 200.681 130.382C202.64 131.502 205.065 132.061 207.957 132.061V136.679H190.325C187.62 134.254 185.334 131.828 183.468 129.403C181.696 126.977 179.83 124.225 177.871 121.146L168.495 106.173C167.282 104.214 165.883 101.975 164.297 99.4563C162.804 96.8442 161.079 94.6518 159.12 92.8793C157.627 92.9726 156.041 93.0192 154.362 93.0192C152.776 93.0192 151.19 92.9726 149.604 92.8793V120.027C149.604 122.546 149.557 124.738 149.464 126.604C149.464 128.376 149.371 129.869 149.184 131.082C150.304 130.989 151.423 130.942 152.542 130.942C153.662 130.849 154.781 130.755 155.901 130.662C157.02 130.569 158.14 130.522 159.259 130.522V136.679H127.774ZM158.28 87.7017C163.411 87.5151 167.889 86.6755 171.714 85.1828C175.632 83.6902 178.711 81.3112 180.95 78.0461C183.189 74.7809 184.308 70.4895 184.308 65.1719C184.308 61.6269 183.795 58.5483 182.769 55.9361C181.836 53.2307 180.343 50.9917 178.291 49.2192C176.238 47.4467 173.626 46.1406 170.454 45.301C167.282 44.3681 163.551 43.9016 159.259 43.9016C155.808 43.9016 153.382 44.6013 151.983 46.0007C150.677 47.4 149.93 49.3591 149.744 51.878C149.65 54.3035 149.604 57.1956 149.604 60.554V87.4218C151.096 87.5151 152.496 87.6084 153.802 87.7017C155.201 87.795 156.694 87.795 158.28 87.7017Z" stroke="white"/>
</svg>
