<svg width="211" height="285" viewBox="0 0 211 285" fill="none" xmlns="http://www.w3.org/2000/svg">
<path fill-rule="evenodd" clip-rule="evenodd" d="M79.5861 129.817L78.0068 132.8C75.4331 137.661 72.2018 142.145 68.4042 146.124L66.8377 147.766C61.9328 152.905 55.9785 156.928 49.3798 159.561L43.8503 161.767C40.3043 163.181 36.4761 163.745 32.6728 163.413L27.651 162.974C14.5341 161.828 5.94466 148.847 9.82922 136.417C3.15192 128.984 0.600975 118.526 3.40425 108.658L4.08618 106.257C0.252112 98.9499 -0.948821 90.4998 0.75946 82.3506L1.16354 80.423C2.44054 74.3312 5.60513 68.7968 10.2075 64.6065C16.6956 58.6994 25.4698 55.9747 34.1627 57.1676L39.9743 57.9651C46.0157 58.7942 51.44 62.0992 54.947 67.0879C58.1181 71.5989 59.4753 77.1381 58.7486 82.604L58.6341 83.4655C57.6674 90.737 53.0663 97.0166 46.4242 100.13L41.5007 102.437C36.0791 104.978 29.6408 103.779 25.4975 99.4566C17.2163 90.8173 22.9321 76.4449 34.8848 75.8524L38.7047 75.6631L39.0661 82.9555L35.2463 83.1448C29.5448 83.4275 26.8183 90.2832 30.7685 94.4042C32.7449 96.4661 35.8159 97.038 38.4021 95.826L43.3256 93.5184C47.7161 91.4606 50.7574 87.3098 51.3964 82.5033L51.5109 81.6418C51.9959 77.9941 51.0901 74.2974 48.9738 71.2869C46.6334 67.9576 43.0135 65.752 38.9816 65.1987L33.1701 64.4012C26.6211 63.5025 20.0109 65.5552 15.123 70.0054C11.6557 73.1623 9.27165 77.3316 8.3096 81.921L7.90552 83.8486C6.34907 91.2735 7.82874 99.0125 12.0145 105.339L13.4896 107.569C15.9328 111.262 19.4174 114.147 23.5018 115.857C29.5852 118.405 36.4831 118.138 42.3509 115.126L47.115 112.681C50.0748 111.162 52.7948 109.216 55.1873 106.904L60.9245 101.36C72.7249 89.9579 87.2766 81.8051 103.163 77.6956C103.163 77.6956 104.655 77.2661 105.632 77.285C106.508 77.3019 107.837 77.6956 107.837 77.6956C123.723 81.8051 138.275 89.9579 150.076 101.36L155.813 106.904C158.205 109.216 160.925 111.162 163.885 112.681L168.649 115.126C174.517 118.138 181.415 118.405 187.498 115.857C191.583 114.147 195.067 111.262 197.51 107.569L198.986 105.339C203.171 99.0125 204.651 91.2735 203.095 83.8486L202.69 81.921C201.728 77.3316 199.344 73.1623 195.877 70.0054C190.989 65.5552 184.379 63.5025 177.83 64.4012L172.018 65.1987C167.987 65.752 164.367 67.9576 162.026 71.2869C159.91 74.2974 159.004 77.9941 159.489 81.6418L159.604 82.5033C160.243 87.3098 163.284 91.4606 167.674 93.5184L172.598 95.826C175.184 97.038 178.255 96.4661 180.232 94.4042C184.182 90.2832 181.455 83.4275 175.754 83.1448L171.934 82.9555L172.295 75.6631L176.115 75.8524C188.068 76.4449 193.784 90.8173 185.503 99.4566C181.359 103.779 174.921 104.978 169.499 102.437L164.576 100.13C157.934 97.0166 153.333 90.737 152.366 83.4655L152.251 82.604C151.525 77.1381 152.882 71.5989 156.053 67.0879C159.56 62.0992 164.984 58.7942 171.026 57.9651L176.837 57.1676C185.53 55.9747 194.304 58.6994 200.793 64.6065C205.395 68.7968 208.56 74.3312 209.837 80.423L210.241 82.3506C211.949 90.5003 210.748 98.9509 206.913 106.258L207.595 108.658C210.398 118.525 207.847 128.984 201.171 136.416C205.056 148.846 196.466 161.828 183.349 162.974L178.327 163.413C174.524 163.745 170.696 163.181 167.15 161.767L161.62 159.561C155.022 156.928 149.067 152.905 144.162 147.766L142.596 146.124C138.798 142.145 135.567 137.661 132.993 132.8L131.698 130.354C114.975 137.014 96.248 136.853 79.5861 129.817ZM105.5 95.5745L106.845 96.808C115.378 104.632 122.598 113.769 128.235 123.869C113.696 129.435 97.5331 129.277 83.0554 123.352C88.6489 113.457 95.7677 104.498 104.155 96.808L105.5 95.5745ZM139.446 129.384L138.311 127.239L137.393 125.474L137.158 125.061L135.833 122.559C130.452 112.394 123.589 103.098 115.478 94.9708C123.365 100.386 130.174 107.275 135.513 115.288L136.14 116.229C141.951 124.953 149.482 132.4 158.27 138.114L163.663 141.62C165.798 143.008 168.107 144.107 170.531 144.888C178.707 147.521 187.593 146.358 194.784 141.795C195.172 148.694 190.038 155.061 182.714 155.7L177.692 156.139C175.025 156.372 172.341 155.977 169.855 154.985L164.326 152.779C158.701 150.535 153.625 147.106 149.444 142.725L147.878 141.083C144.543 137.589 141.706 133.652 139.446 129.384ZM190.319 122.592C194.569 120.812 198.329 118.074 201.317 114.612C202.044 122.238 198.773 129.826 192.473 134.512L192.189 134.724C186.615 138.871 179.381 140.068 172.769 137.938C170.96 137.355 169.236 136.535 167.643 135.499L162.25 131.992C154.294 126.82 147.477 120.078 142.216 112.181L141.589 111.24C136.236 103.204 129.535 96.2 121.814 90.5181C130.328 94.5801 138.165 100.005 145.002 106.611L150.739 112.155C153.647 114.965 156.954 117.331 160.551 119.177L165.315 121.622C173.099 125.617 182.249 125.972 190.319 122.592ZM18.5257 134.512C12.2262 129.826 8.95421 122.237 9.68234 114.611C12.6705 118.074 16.4311 120.812 20.6813 122.592C28.751 125.972 37.9009 125.617 45.6846 121.622L50.4486 119.177C54.0464 117.331 57.3527 114.965 60.2608 112.155L65.9981 106.611C72.8341 100.005 80.6702 94.5813 89.1834 90.5196C81.4632 96.2011 74.7628 103.205 69.4098 111.24L68.783 112.181C63.5217 120.078 56.7048 126.82 48.7491 131.992L43.3562 135.499C41.7627 136.535 40.0388 137.355 38.2296 137.938C31.6176 140.068 24.3839 138.871 18.8104 134.724L18.5257 134.512ZM16.2162 141.796C15.8287 148.695 20.9624 155.061 28.2864 155.7L33.3082 156.139C35.9747 156.372 38.6587 155.977 41.1448 154.985L46.6743 152.779C52.2991 150.535 57.3746 147.106 61.5557 142.725L63.1222 141.083C66.4568 137.589 69.2941 133.652 71.554 129.384L75.1671 122.559C80.549 112.393 87.4126 103.096 95.5249 94.9684C87.6356 100.384 80.8256 107.274 75.4862 115.288L74.8595 116.229C69.0476 124.953 61.5173 132.4 52.7292 138.114L47.3363 141.62C45.2014 143.008 42.8919 144.107 40.4682 144.888C32.2924 147.521 23.4072 146.358 16.2162 141.796Z" fill="#042245"/>
<path fill-rule="evenodd" clip-rule="evenodd" d="M89.0805 6.37844C77.5453 -0.476934 63.2696 -0.81828 51.4199 5.47795L40.7007 11.1736L44.1266 17.6213L54.8459 11.9257C64.4439 6.82583 76.007 7.10231 85.3503 12.655C91.1752 16.1168 97.8099 17.9755 104.581 18.046L111.07 56.1006C111.996 61.5344 104.391 63.8018 102.191 58.7477L95.4962 61.6621C101.139 74.6237 120.643 68.8089 118.267 54.8733L111.988 18.048C117.955 18.03 123.834 16.603 129.145 13.8825C138.076 9.30878 148.681 9.4057 157.527 14.1419L164.014 17.6158L167.461 11.1791L160.973 7.70518C150.016 1.83839 136.879 1.71833 125.817 7.3839C121.502 9.5941 116.722 10.7467 111.874 10.7467H104.981C99.3846 10.7467 93.8915 9.23767 89.0805 6.37844Z" fill="#042245"/>
<path d="M10.8379 284.603V280.398C14.0653 280.229 16.2735 279.507 17.4626 278.233C18.6516 276.874 19.2886 275.048 19.3736 272.755C19.5434 270.376 19.6284 267.701 19.6284 264.728V209.693C19.6284 207.994 19.6708 206.38 19.7557 204.851C19.8407 203.238 19.9256 201.794 20.0105 200.52C18.4818 200.605 16.953 200.69 15.4242 200.775C13.8954 200.86 12.3667 200.945 10.8379 201.029V195.424H39.5024V199.628C36.36 199.713 34.1517 200.435 32.8777 201.794C31.6887 203.153 31.0092 204.979 30.8394 207.272C30.7544 209.565 30.712 212.241 30.712 215.298V269.952C30.712 272.245 30.6695 274.198 30.5846 275.812C30.5846 277.426 30.4996 278.785 30.3298 279.889L54.1532 279.507C59.5039 279.422 63.5382 277.723 66.256 274.411C69.0588 271.098 70.4602 265.705 70.4602 258.231H74.7917L74.0273 284.603H10.8379Z" fill="#042245"/>
<path d="M113.154 199.628C110.012 199.713 107.804 200.435 106.53 201.794C105.341 203.153 104.661 204.979 104.491 207.272C104.406 209.565 104.364 212.241 104.364 215.298V269.442C104.364 271.735 104.321 273.731 104.237 275.43C104.237 277.044 104.152 278.403 103.982 279.507C105.511 279.422 107.039 279.337 108.568 279.252C110.097 279.167 111.626 279.082 113.154 278.997V284.603H84.4899V280.398C87.7173 280.229 89.9255 279.507 91.1145 278.233C92.3036 276.874 92.9406 275.048 93.0255 272.755C93.1954 270.376 93.2803 267.701 93.2803 264.728V209.693C93.2803 207.994 93.3228 206.38 93.4077 204.851C93.4926 203.238 93.5776 201.794 93.6625 200.52C92.1337 200.605 90.605 200.69 89.0762 200.775C87.5474 200.86 86.0186 200.945 84.4899 201.029V195.424H113.154V199.628Z" fill="#042245"/>
<path d="M127.163 284.603V280.398C130.391 280.229 132.599 279.507 133.788 278.233C134.977 276.874 135.614 275.048 135.699 272.755C135.869 270.376 135.954 267.701 135.954 264.728V209.693C135.954 207.994 135.996 206.38 136.081 204.851C136.166 203.238 136.251 201.794 136.336 200.52C134.807 200.605 133.278 200.69 131.75 200.775C130.221 200.86 128.692 200.945 127.163 201.029V195.424C131.919 195.339 136.718 195.254 141.559 195.169C146.485 195.084 151.411 195.127 156.337 195.297C164.576 195.382 171.2 196.358 176.211 198.227C181.307 200.01 185.044 202.601 187.422 205.998C189.801 209.31 190.99 213.345 190.99 218.101C191.075 221.413 190.438 224.81 189.079 228.293C187.805 231.69 185.427 234.747 181.944 237.465C178.547 240.183 173.621 242.222 167.166 243.58C168.865 244.769 170.351 246.298 171.625 248.167C172.899 250.035 174.343 252.201 175.957 254.664L184.62 268.296C186.064 270.589 187.465 272.67 188.824 274.538C190.183 276.322 191.754 277.766 193.538 278.87C195.321 279.889 197.529 280.398 200.162 280.398V284.603H184.11C181.647 282.394 179.566 280.186 177.868 277.978C176.254 275.77 174.555 273.264 172.772 270.461L164.236 256.83C163.132 255.046 161.858 253.008 160.414 250.715C159.055 248.337 157.484 246.341 155.7 244.727C154.341 244.812 152.898 244.854 151.369 244.854C149.925 244.854 148.481 244.812 147.037 244.727V269.442C147.037 271.735 146.995 273.731 146.91 275.43C146.91 277.044 146.825 278.403 146.655 279.507C147.674 279.422 148.693 279.379 149.713 279.379C150.732 279.294 151.751 279.209 152.77 279.124C153.789 279.04 154.809 278.997 155.828 278.997V284.603H127.163ZM154.936 240.013C159.607 239.843 163.684 239.079 167.166 237.72C170.733 236.361 173.536 234.195 175.574 231.223C177.613 228.25 178.632 224.343 178.632 219.502C178.632 216.275 178.165 213.472 177.231 211.094C176.381 208.631 175.022 206.593 173.154 204.979C171.285 203.365 168.907 202.176 166.02 201.412C163.132 200.562 159.735 200.138 155.828 200.138C152.685 200.138 150.477 200.775 149.203 202.049C148.014 203.323 147.335 205.106 147.165 207.399C147.08 209.608 147.037 212.241 147.037 215.298V239.758C148.396 239.843 149.67 239.928 150.859 240.013C152.133 240.098 153.492 240.098 154.936 240.013Z" fill="#042245"/>
<path d="M10.8379 284.603V280.398C14.0653 280.229 16.2735 279.507 17.4626 278.233C18.6516 276.874 19.2886 275.048 19.3736 272.755C19.5434 270.376 19.6284 267.701 19.6284 264.728V209.693C19.6284 207.994 19.6708 206.38 19.7557 204.851C19.8407 203.238 19.9256 201.794 20.0105 200.52C18.4818 200.605 16.953 200.69 15.4242 200.775C13.8954 200.86 12.3667 200.945 10.8379 201.029V195.424H39.5024V199.628C36.36 199.713 34.1517 200.435 32.8777 201.794C31.6887 203.153 31.0092 204.979 30.8394 207.272C30.7544 209.565 30.712 212.241 30.712 215.298V269.952C30.712 272.245 30.6695 274.198 30.5846 275.812C30.5846 277.426 30.4996 278.785 30.3298 279.889L54.1532 279.507C59.5039 279.422 63.5382 277.723 66.256 274.411C69.0588 271.098 70.4602 265.705 70.4602 258.231H74.7917L74.0273 284.603H10.8379Z" stroke="white"/>
<path d="M113.154 199.628C110.012 199.713 107.804 200.435 106.53 201.794C105.341 203.153 104.661 204.979 104.491 207.272C104.406 209.565 104.364 212.241 104.364 215.298V269.442C104.364 271.735 104.321 273.731 104.237 275.43C104.237 277.044 104.152 278.403 103.982 279.507C105.511 279.422 107.039 279.337 108.568 279.252C110.097 279.167 111.626 279.082 113.154 278.997V284.603H84.4899V280.398C87.7173 280.229 89.9255 279.507 91.1145 278.233C92.3036 276.874 92.9406 275.048 93.0255 272.755C93.1954 270.376 93.2803 267.701 93.2803 264.728V209.693C93.2803 207.994 93.3228 206.38 93.4077 204.851C93.4926 203.238 93.5776 201.794 93.6625 200.52C92.1337 200.605 90.605 200.69 89.0762 200.775C87.5474 200.86 86.0186 200.945 84.4899 201.029V195.424H113.154V199.628Z" stroke="white"/>
<path d="M127.163 284.603V280.398C130.391 280.229 132.599 279.507 133.788 278.233C134.977 276.874 135.614 275.048 135.699 272.755C135.869 270.376 135.954 267.701 135.954 264.728V209.693C135.954 207.994 135.996 206.38 136.081 204.851C136.166 203.238 136.251 201.794 136.336 200.52C134.807 200.605 133.278 200.69 131.75 200.775C130.221 200.86 128.692 200.945 127.163 201.029V195.424C131.919 195.339 136.718 195.254 141.559 195.169C146.485 195.084 151.411 195.127 156.337 195.297C164.576 195.382 171.2 196.358 176.211 198.227C181.307 200.01 185.044 202.601 187.422 205.998C189.801 209.31 190.99 213.345 190.99 218.101C191.075 221.413 190.438 224.81 189.079 228.293C187.805 231.69 185.427 234.747 181.944 237.465C178.547 240.183 173.621 242.222 167.166 243.58C168.865 244.769 170.351 246.298 171.625 248.167C172.899 250.035 174.343 252.201 175.957 254.664L184.62 268.296C186.064 270.589 187.465 272.67 188.824 274.538C190.183 276.322 191.754 277.766 193.538 278.87C195.321 279.889 197.529 280.398 200.162 280.398V284.603H184.11C181.647 282.394 179.566 280.186 177.868 277.978C176.254 275.77 174.555 273.264 172.772 270.461L164.236 256.83C163.132 255.046 161.858 253.008 160.414 250.715C159.055 248.337 157.484 246.341 155.7 244.727C154.341 244.812 152.898 244.854 151.369 244.854C149.925 244.854 148.481 244.812 147.037 244.727V269.442C147.037 271.735 146.995 273.731 146.91 275.43C146.91 277.044 146.825 278.403 146.655 279.507C147.674 279.422 148.693 279.379 149.713 279.379C150.732 279.294 151.751 279.209 152.77 279.124C153.789 279.04 154.809 278.997 155.828 278.997V284.603H127.163ZM154.936 240.013C159.607 239.843 163.684 239.079 167.166 237.72C170.733 236.361 173.536 234.195 175.574 231.223C177.613 228.25 178.632 224.343 178.632 219.502C178.632 216.275 178.165 213.472 177.231 211.094C176.381 208.631 175.022 206.593 173.154 204.979C171.285 203.365 168.907 202.176 166.02 201.412C163.132 200.562 159.735 200.138 155.828 200.138C152.685 200.138 150.477 200.775 149.203 202.049C148.014 203.323 147.335 205.106 147.165 207.399C147.08 209.608 147.037 212.241 147.037 215.298V239.758C148.396 239.843 149.67 239.928 150.859 240.013C152.133 240.098 153.492 240.098 154.936 240.013Z" stroke="white"/>
</svg>
