<svg width="632" height="179" viewBox="0 0 632 179" fill="none" xmlns="http://www.w3.org/2000/svg">
<path fill-rule="evenodd" clip-rule="evenodd" d="M106.614 20.7261L112.66 56.1787C114.67 67.969 98.1682 72.8888 93.394 61.9225L98.8025 59.5679C100.795 64.1458 107.684 62.0921 106.845 57.1702L100.8 21.7176L106.614 20.7261Z" fill="#042245"/>
<path fill-rule="evenodd" clip-rule="evenodd" d="M55.0676 12.7049C65.2298 7.30526 77.4726 7.598 87.3651 13.4771C91.5472 15.9625 96.322 17.2743 101.187 17.2743H103.5V23.173H101.187C95.2613 23.173 89.4454 21.5753 84.3515 18.5479C76.2298 13.7212 66.1785 13.4809 57.8354 17.9139L48.5866 22.8282L45.8188 17.6192L55.0676 12.7049Z" fill="#042245"/>
<path fill-rule="evenodd" clip-rule="evenodd" d="M151.929 12.701C141.767 7.30136 129.524 7.59409 119.631 13.4732C115.449 15.9586 110.675 17.2704 105.81 17.2704H103.497V23.1691H105.81C111.735 23.1691 117.551 21.5714 122.645 18.544C130.767 13.7173 140.818 13.477 149.161 17.91L158.41 22.8243L161.178 17.6152L151.929 12.701Z" fill="#042245"/>
<path fill-rule="evenodd" clip-rule="evenodd" d="M87.7069 124.111L80.938 120.996L83.404 115.638L90.1729 118.753C99.1385 122.879 109.473 122.813 118.385 118.574L124.525 115.654L127.058 120.981L120.919 123.901C110.427 128.891 98.2613 128.968 87.7069 124.111Z" fill="#042245"/>
<path fill-rule="evenodd" clip-rule="evenodd" d="M153.425 76.4053C156.276 66.3924 168.309 61.5899 181.15 66.3702C190.948 70.0174 196.441 81.2148 194.943 92.1746C193.126 105.466 180.483 114.816 166.858 113.144C153.491 111.503 147.559 105.111 140.217 97.1989C137.983 94.7918 135.619 92.2439 132.875 89.6462C128.36 85.3723 124.352 81.8253 119.797 79.3956C115.145 76.9139 110.076 75.6708 103.495 75.6708V81.5695C109.247 81.5695 113.338 82.6354 117.021 84.6001C120.801 86.6169 124.303 89.6538 128.82 93.9299C131.05 96.041 133.121 98.2865 135.196 100.536C142.797 108.778 150.448 117.073 166.14 118.999C182.778 121.041 198.508 109.647 200.787 92.9735C202.574 79.9029 196.14 65.6563 183.208 60.8421C168.479 55.359 151.895 60.2361 147.752 74.7903C146.526 79.098 146.347 83.1712 147.453 87.0162C148.56 90.8613 150.877 94.216 154.206 97.2125C157.051 99.7728 161.831 102.326 166.994 102.767C172.375 103.226 178.153 101.357 182.2 95.1173C186.55 88.4122 183.996 81.2441 179.418 77.5755C177.124 75.7379 174.142 74.6122 171.034 74.9509C167.834 75.2997 164.925 77.1566 162.841 80.4773L167.838 83.6124C169.09 81.6163 170.493 80.9436 171.674 80.8149C172.947 80.6761 174.414 81.125 175.729 82.1789C178.368 84.2932 179.672 88.1756 177.252 91.9073C174.529 96.1048 170.975 97.1866 167.496 96.8895C163.799 96.5738 160.19 94.6624 158.152 92.828C155.447 90.3933 153.857 87.9411 153.122 85.3849C152.386 82.8286 152.429 79.9061 153.425 76.4053Z" fill="#042245"/>
<path fill-rule="evenodd" clip-rule="evenodd" d="M53.5799 76.4053C50.7297 66.3924 38.6966 61.5899 25.8553 66.3702C16.0577 70.0174 10.5642 81.2148 12.0624 92.1746C13.8794 105.466 26.5226 114.816 40.147 113.144C53.5148 111.503 59.446 105.111 66.7884 97.1989C69.0221 94.7918 71.3864 92.2439 74.1304 89.6462C78.6452 85.3723 82.6537 81.8253 87.2081 79.3956C91.8602 76.9139 96.9292 75.6708 103.51 75.6708V81.5695C97.7586 81.5695 93.6674 82.6354 89.9845 84.6001C86.204 86.6169 82.7027 89.6538 78.1857 93.9299C75.9557 96.041 73.8845 98.2865 71.8098 100.536C64.2081 108.778 56.5577 117.073 40.8656 118.999C24.2278 121.041 8.49735 109.647 6.21807 92.9735C4.4313 79.9029 10.8649 65.6563 23.7974 60.8421C38.5266 55.359 55.1103 60.2361 59.2532 74.7903C60.4795 79.098 60.6588 83.1712 59.5523 87.0162C58.4458 90.8613 56.1288 94.216 52.7993 97.2125C49.9545 99.7728 45.1742 102.326 40.0114 102.767C34.63 103.226 28.8522 101.357 24.8051 95.1173C20.4557 88.4122 23.009 81.2441 27.5878 77.5755C29.8814 75.7379 32.8634 74.6122 35.9709 74.9509C39.1709 75.2997 42.0807 77.1566 44.1642 80.4773L39.1677 83.6124C37.9152 81.6163 36.5125 80.9436 35.3317 80.8149C34.0584 80.6761 32.5915 81.125 31.2761 82.1789C28.6373 84.2932 27.3333 88.1756 29.7538 91.9073C32.4766 96.1048 36.0307 97.1866 39.5095 96.8895C43.2069 96.5738 46.815 94.6624 48.8533 92.828C51.5585 90.3933 53.148 87.9411 53.8837 85.3849C54.6193 82.8286 54.5765 79.9061 53.5799 76.4053Z" fill="#042245"/>
<path fill-rule="evenodd" clip-rule="evenodd" d="M196.793 112.944C196.768 116.807 195.427 120.479 193.924 123.322C191.009 128.837 185.515 132.731 178.873 134.666C172.232 136.601 164.685 136.495 158.058 134.235C150.706 131.728 146.14 127.304 142.387 121.809C140.483 119.021 138.805 115.981 137.065 112.739C136.837 112.313 136.607 111.884 136.376 111.451C134.866 108.627 133.285 105.669 131.508 102.77C128.198 97.3693 124.377 92.0907 119.848 88.1427C115.286 84.1649 109.869 81.4244 103.47 81.4244L103.47 87.3231C108.047 87.3231 112.141 89.2491 115.972 92.5888C119.837 95.9583 123.289 100.648 126.478 105.852C128.158 108.592 129.65 111.383 131.166 114.217C131.399 114.653 131.633 115.09 131.868 115.528C133.61 118.774 135.417 122.062 137.515 125.135C141.767 131.36 147.27 136.789 156.155 139.818C163.957 142.479 172.747 142.595 180.523 140.329C188.299 138.064 195.303 133.334 199.139 126.079C200.9 122.747 202.658 118.122 202.692 112.983C202.726 107.742 200.959 102.122 195.932 97.0376L191.737 101.185C195.604 105.096 196.818 109.184 196.793 112.944Z" fill="#042245"/>
<path fill-rule="evenodd" clip-rule="evenodd" d="M10.2167 112.944C10.242 116.807 11.5828 120.479 13.0857 123.322C16.0012 128.837 21.4948 132.731 28.1367 134.666C34.7776 136.601 42.3252 136.495 48.9514 134.235C56.3041 131.728 60.8702 127.304 64.623 121.809C66.5265 119.021 68.2046 115.981 69.9445 112.739C70.1728 112.313 70.4024 111.884 70.6337 111.451C72.1436 108.627 73.7249 105.669 75.5021 102.77C78.8116 97.3693 82.6331 92.0907 87.1613 88.1427C91.7237 84.1649 97.1411 81.4244 103.54 81.4244L103.54 87.3231C98.963 87.3231 94.8683 89.2491 91.0377 92.5888C87.173 95.9583 83.7205 100.648 80.5314 105.852C78.8521 108.592 77.3594 111.383 75.8438 114.217C75.6108 114.653 75.3771 115.09 75.1422 115.528C73.4002 118.774 71.5928 122.062 69.4943 125.135C65.2431 131.36 59.7395 136.789 50.8552 139.818C43.0525 142.479 34.2631 142.595 26.4866 140.329C18.711 138.064 11.7065 133.334 7.87088 126.079C6.10967 122.747 4.35181 118.122 4.31809 112.983C4.2837 107.742 6.05075 102.122 11.0781 97.0376L15.2726 101.185C11.4055 105.096 10.192 109.184 10.2167 112.944Z" fill="#042245"/>
<path fill-rule="evenodd" clip-rule="evenodd" d="M189.954 143.753C188.59 147.922 185.683 151.405 183.206 153.192C172.46 160.948 156.743 161.029 145.081 153.141C138.647 148.789 135.404 143.32 133.228 137.031C132.125 133.841 131.305 130.467 130.479 126.881C130.37 126.411 130.262 125.936 130.152 125.458C129.438 122.336 128.69 119.067 127.738 115.802C125.91 109.534 122.629 102.57 118.578 97.1108C116.551 94.3787 114.262 91.9302 111.778 90.1417C109.3 88.3576 106.46 87.1144 103.406 87.1144L103.406 93.0131C104.83 93.0131 106.483 93.5978 108.331 94.9289C110.174 96.2555 112.048 98.2093 113.841 100.626C117.431 105.464 120.421 111.781 122.075 117.453C122.975 120.539 123.681 123.624 124.398 126.757C124.509 127.238 124.619 127.721 124.731 128.206C125.558 131.796 126.437 135.443 127.654 138.96C130.119 146.084 134.001 152.768 141.777 158.027C155.37 167.221 173.79 167.263 186.658 157.976C190.073 155.511 193.781 151.026 195.56 145.587C197.382 140.017 197.187 133.369 192.539 127.082L187.796 130.589C191.142 135.116 191.275 139.715 189.954 143.753Z" fill="#042245"/>
<path fill-rule="evenodd" clip-rule="evenodd" d="M17.0613 143.751C18.4251 147.919 21.3321 151.402 23.8094 153.19C34.5551 160.946 50.2718 161.027 61.9338 153.139C68.3686 148.787 71.6109 143.318 73.7867 137.029C74.8904 133.839 75.7102 130.465 76.5363 126.879C76.6447 126.408 76.7533 125.933 76.8627 125.455C77.577 122.334 78.325 119.064 79.2772 115.799C81.1051 109.531 84.3865 102.567 88.4371 97.1083C90.4643 94.3763 92.753 91.9278 95.2372 90.1393C97.7153 88.3552 100.555 87.1119 103.609 87.1119L103.609 93.0106C102.185 93.0106 100.532 93.5954 98.6837 94.9264C96.8409 96.2531 94.9672 98.2069 93.1742 100.623C89.5843 105.461 86.5941 111.779 84.94 117.451C84.0402 120.536 83.334 123.621 82.6168 126.754C82.5065 127.236 82.396 127.719 82.2844 128.203C81.4573 131.793 80.5779 135.441 79.3612 138.957C76.8965 146.082 73.0137 152.766 65.2385 158.025C51.6455 167.219 33.2252 167.26 20.3572 157.973C16.942 155.508 13.2343 151.024 11.455 145.585C9.63277 140.015 9.82862 133.367 14.4761 127.08L19.2194 130.586C15.873 135.113 15.7404 139.713 17.0613 143.751Z" fill="#042245"/>
<path d="M232.985 134.465V129.959C236.444 129.777 238.811 129.003 240.086 127.638C241.36 126.181 242.043 124.224 242.134 121.766C242.316 119.217 242.407 116.35 242.407 113.164V54.1774C242.407 52.3568 242.452 50.6272 242.543 48.9887C242.634 47.2592 242.725 45.7117 242.816 44.3462C241.178 44.4373 239.539 44.5283 237.901 44.6193C236.262 44.7104 234.624 44.8014 232.985 44.8924V38.8845H263.708V43.3904C260.339 43.4815 257.973 44.2552 256.607 45.7117C255.333 47.1681 254.605 49.1253 254.423 51.583C254.332 54.0408 254.286 56.9082 254.286 60.1853V118.762C254.286 121.22 254.241 123.314 254.15 125.043C254.15 126.773 254.059 128.229 253.876 129.413L279.41 129.003C285.145 128.912 289.469 127.091 292.382 123.541C295.386 119.991 296.888 114.211 296.888 106.2H301.53L300.711 134.465H232.985Z" fill="#042245"/>
<path d="M342.647 43.3904C339.279 43.4815 336.912 44.2552 335.546 45.7117C334.272 47.1681 333.544 49.1253 333.362 51.583C333.271 54.0408 333.225 56.9082 333.225 60.1853V118.216C333.225 120.674 333.18 122.813 333.089 124.634C333.089 126.363 332.998 127.82 332.815 129.003C334.454 128.912 336.092 128.821 337.731 128.73C339.37 128.639 341.008 128.548 342.647 128.457V134.465H311.924V129.959C315.383 129.777 317.75 129.003 319.025 127.638C320.299 126.181 320.982 124.224 321.073 121.766C321.255 119.217 321.346 116.35 321.346 113.164V54.1774C321.346 52.3568 321.391 50.6272 321.482 48.9887C321.573 47.2592 321.664 45.7117 321.755 44.3462C320.117 44.4373 318.478 44.5283 316.84 44.6193C315.201 44.7104 313.563 44.8014 311.924 44.8924V38.8845H342.647V43.3904Z" fill="#042245"/>
<path d="M357.661 134.465V129.959C361.12 129.777 363.487 129.003 364.761 127.638C366.036 126.181 366.718 124.224 366.809 121.766C366.991 119.217 367.082 116.35 367.082 113.164V54.1774C367.082 52.3568 367.128 50.6272 367.219 48.9887C367.31 47.2592 367.401 45.7117 367.492 44.3462C365.854 44.4373 364.215 44.5283 362.577 44.6193C360.938 44.7104 359.299 44.8014 357.661 44.8924V38.8845C362.759 38.7935 367.902 38.7025 373.09 38.6114C378.37 38.5204 383.65 38.5659 388.929 38.748C397.759 38.839 404.859 39.8858 410.23 41.8885C415.692 43.8001 419.697 46.5765 422.246 50.2176C424.795 53.7677 426.069 58.0916 426.069 63.1892C426.16 66.7393 425.477 70.3805 424.021 74.1127C422.656 77.7538 420.107 81.0308 416.375 83.9438C412.733 86.8567 407.454 89.0414 400.536 90.4978C402.356 91.7723 403.949 93.4108 405.315 95.4134C406.68 97.416 408.227 99.7373 409.957 102.377L419.242 116.987C420.789 119.445 422.291 121.675 423.748 123.678C425.204 125.589 426.888 127.137 428.8 128.32C430.712 129.413 433.078 129.959 435.9 129.959V134.465H418.696C416.056 132.098 413.826 129.731 412.005 127.365C410.276 124.998 408.455 122.312 406.543 119.308L397.395 104.698C396.212 102.787 394.846 100.602 393.299 98.1443C391.842 95.5955 390.158 93.4563 388.247 91.7267C386.79 91.8178 385.243 91.8633 383.604 91.8633C382.057 91.8633 380.509 91.8178 378.962 91.7267V118.216C378.962 120.674 378.916 122.813 378.825 124.634C378.825 126.363 378.734 127.82 378.552 129.003C379.644 128.912 380.737 128.866 381.829 128.866C382.921 128.775 384.014 128.684 385.106 128.593C386.199 128.502 387.291 128.457 388.383 128.457V134.465H357.661ZM387.427 86.6746C392.434 86.4926 396.803 85.6733 400.536 84.2169C404.359 82.7604 407.363 80.4392 409.547 77.2532C411.732 74.0671 412.824 69.8798 412.824 64.6912C412.824 61.2321 412.324 58.2281 411.322 55.6793C410.412 53.0395 408.956 50.8548 406.953 49.1253C404.95 47.3957 402.402 46.1213 399.307 45.302C396.212 44.3918 392.571 43.9366 388.383 43.9366C385.015 43.9366 382.648 44.6193 381.283 45.9848C380.009 47.3502 379.28 49.2618 379.098 51.7196C379.007 54.0863 378.962 56.9082 378.962 60.1853V86.4016C380.418 86.4926 381.784 86.5836 383.058 86.6746C384.423 86.7657 385.88 86.7657 387.427 86.6746Z" fill="#042245"/>
<path d="M232.985 134.465V129.959C236.444 129.777 238.811 129.003 240.086 127.638C241.36 126.181 242.043 124.224 242.134 121.766C242.316 119.217 242.407 116.35 242.407 113.164V54.1774C242.407 52.3568 242.452 50.6272 242.543 48.9887C242.634 47.2592 242.725 45.7117 242.816 44.3462C241.178 44.4373 239.539 44.5283 237.901 44.6193C236.262 44.7104 234.624 44.8014 232.985 44.8924V38.8845H263.708V43.3904C260.339 43.4815 257.973 44.2552 256.607 45.7117C255.333 47.1681 254.605 49.1253 254.423 51.583C254.332 54.0408 254.286 56.9082 254.286 60.1853V118.762C254.286 121.22 254.241 123.314 254.15 125.043C254.15 126.773 254.059 128.229 253.876 129.413L279.41 129.003C285.145 128.912 289.469 127.091 292.382 123.541C295.386 119.991 296.888 114.211 296.888 106.2H301.53L300.711 134.465H232.985Z" stroke="white"/>
<path d="M342.647 43.3904C339.279 43.4815 336.912 44.2552 335.546 45.7117C334.272 47.1681 333.544 49.1253 333.362 51.583C333.271 54.0408 333.225 56.9082 333.225 60.1853V118.216C333.225 120.674 333.18 122.813 333.089 124.634C333.089 126.363 332.998 127.82 332.815 129.003C334.454 128.912 336.092 128.821 337.731 128.73C339.37 128.639 341.008 128.548 342.647 128.457V134.465H311.924V129.959C315.383 129.777 317.75 129.003 319.025 127.638C320.299 126.181 320.982 124.224 321.073 121.766C321.255 119.217 321.346 116.35 321.346 113.164V54.1774C321.346 52.3568 321.391 50.6272 321.482 48.9887C321.573 47.2592 321.664 45.7117 321.755 44.3462C320.117 44.4373 318.478 44.5283 316.84 44.6193C315.201 44.7104 313.563 44.8014 311.924 44.8924V38.8845H342.647V43.3904Z" stroke="white"/>
<path d="M357.661 134.465V129.959C361.12 129.777 363.487 129.003 364.761 127.638C366.036 126.181 366.718 124.224 366.809 121.766C366.991 119.217 367.082 116.35 367.082 113.164V54.1774C367.082 52.3568 367.128 50.6272 367.219 48.9887C367.31 47.2592 367.401 45.7117 367.492 44.3462C365.854 44.4373 364.215 44.5283 362.577 44.6193C360.938 44.7104 359.299 44.8014 357.661 44.8924V38.8845C362.759 38.7935 367.902 38.7025 373.09 38.6114C378.37 38.5204 383.65 38.5659 388.929 38.748C397.759 38.839 404.859 39.8858 410.23 41.8885C415.692 43.8001 419.697 46.5765 422.246 50.2176C424.795 53.7677 426.069 58.0916 426.069 63.1892C426.16 66.7393 425.477 70.3805 424.021 74.1127C422.656 77.7538 420.107 81.0308 416.375 83.9438C412.733 86.8567 407.454 89.0414 400.536 90.4978C402.356 91.7723 403.949 93.4108 405.315 95.4134C406.68 97.416 408.227 99.7373 409.957 102.377L419.242 116.987C420.789 119.445 422.291 121.675 423.748 123.678C425.204 125.589 426.888 127.137 428.8 128.32C430.712 129.413 433.078 129.959 435.9 129.959V134.465H418.696C416.056 132.098 413.826 129.731 412.005 127.365C410.276 124.998 408.455 122.312 406.543 119.308L397.395 104.698C396.212 102.787 394.846 100.602 393.299 98.1443C391.842 95.5955 390.158 93.4563 388.247 91.7267C386.79 91.8178 385.243 91.8633 383.604 91.8633C382.057 91.8633 380.509 91.8178 378.962 91.7267V118.216C378.962 120.674 378.916 122.813 378.825 124.634C378.825 126.363 378.734 127.82 378.552 129.003C379.644 128.912 380.737 128.866 381.829 128.866C382.921 128.775 384.014 128.684 385.106 128.593C386.199 128.502 387.291 128.457 388.383 128.457V134.465H357.661ZM387.427 86.6746C392.434 86.4926 396.803 85.6733 400.536 84.2169C404.359 82.7604 407.363 80.4392 409.547 77.2532C411.732 74.0671 412.824 69.8798 412.824 64.6912C412.824 61.2321 412.324 58.2281 411.322 55.6793C410.412 53.0395 408.956 50.8548 406.953 49.1253C404.95 47.3957 402.402 46.1213 399.307 45.302C396.212 44.3918 392.571 43.9366 388.383 43.9366C385.015 43.9366 382.648 44.6193 381.283 45.9848C380.009 47.3502 379.28 49.2618 379.098 51.7196C379.007 54.0863 378.962 56.9082 378.962 60.1853V86.4016C380.418 86.4926 381.784 86.5836 383.058 86.6746C384.423 86.7657 385.88 86.7657 387.427 86.6746Z" stroke="white"/>
<circle cx="542.888" cy="89.9441" r="70.3755" stroke="black" stroke-width="6.21611"/>
<circle cx="542.89" cy="89.9477" r="19.3757" stroke="black" stroke-width="6.21611"/>
<path d="M542.892 0.559082V31.817" stroke="black" stroke-width="6.21611"/>
<path d="M542.89 147.523V178.781" stroke="black" stroke-width="6.21611"/>
<path d="M453.776 89.6699H485.034" stroke="black" stroke-width="6.21611"/>
<path d="M600.74 89.6729H631.998" stroke="black" stroke-width="6.21611"/>
</svg>
