<svg width="437" height="171" viewBox="0 0 437 171" fill="none" xmlns="http://www.w3.org/2000/svg">
<path fill-rule="evenodd" clip-rule="evenodd" d="M106.889 12.2451L112.949 47.787C114.965 59.607 98.4214 64.5392 93.6353 53.5453L99.0573 51.1848C101.055 55.7742 107.961 53.7153 107.12 48.781L101.06 13.2391L106.889 12.2451Z" fill="url(#paint0_linear_566_133)"/>
<path fill-rule="evenodd" clip-rule="evenodd" d="M55.2086 4.19994C65.3963 -1.21328 77.67 -0.919807 87.5874 4.97414C91.78 7.46581 96.5669 8.78088 101.444 8.78088H103.763V14.6944H101.444C95.5035 14.6944 89.673 13.0927 84.5662 10.0577C76.4241 5.21881 66.3474 4.97787 57.9833 9.4221L48.7113 14.3487L45.9365 9.12658L55.2086 4.19994Z" fill="url(#paint1_linear_566_133)"/>
<path fill-rule="evenodd" clip-rule="evenodd" d="M152.315 4.19994C142.128 -1.21328 129.854 -0.919807 119.936 4.97414C115.744 7.46581 110.957 8.78088 106.08 8.78088H103.761V14.6944H106.08C112.02 14.6944 117.851 13.0927 122.958 10.0577C131.1 5.21881 141.176 4.97787 149.541 9.4221L158.813 14.3487L161.587 9.12658L152.315 4.19994Z" fill="url(#paint2_linear_566_133)"/>
<path fill-rule="evenodd" clip-rule="evenodd" d="M87.9305 115.889L81.1445 112.766L83.6168 107.394L90.4027 110.517C99.3909 114.653 109.751 114.588 118.686 110.338L124.841 107.411L127.381 112.751L121.226 115.678C110.708 120.681 98.5115 120.758 87.9305 115.889Z" fill="url(#paint3_linear_566_133)"/>
<path fill-rule="evenodd" clip-rule="evenodd" d="M153.811 68.0647C156.668 58.0267 168.732 53.212 181.605 58.0044C191.428 61.6608 196.935 72.8863 195.433 83.8738C193.611 97.199 180.936 106.572 167.278 104.896C153.876 103.251 147.93 96.8432 140.569 88.9108C138.33 86.4976 135.96 83.9433 133.209 81.3391C128.683 77.0544 124.664 73.4984 120.098 71.0626C115.434 68.5746 110.352 67.3284 103.755 67.3284V73.242C109.521 73.242 113.623 74.3105 117.315 76.2802C121.105 78.302 124.615 81.3466 129.143 85.6335C131.379 87.7499 133.455 90.0011 135.535 92.2562C143.156 100.519 150.826 108.834 166.557 110.765C183.237 112.813 199.007 101.39 201.292 84.6747C203.083 71.5711 196.634 57.2887 183.668 52.4623C168.902 46.9655 152.277 51.8548 148.123 66.4457C146.894 70.7643 146.714 74.8477 147.824 78.7024C148.933 82.5571 151.256 85.9203 154.594 88.9243C157.445 91.4911 162.238 94.0507 167.414 94.4927C172.809 94.9534 178.601 93.079 182.658 86.8239C187.019 80.1019 184.459 72.9157 179.868 69.2379C177.569 67.3957 174.58 66.2671 171.464 66.6067C168.256 66.9564 165.339 68.8179 163.25 72.147L168.26 75.29C169.515 73.2889 170.921 72.6145 172.105 72.4855C173.382 72.3463 174.852 72.7963 176.171 73.8529C178.816 75.9725 180.124 79.8647 177.697 83.6058C174.967 87.8139 171.404 88.8984 167.917 88.6005C164.21 88.284 160.593 86.3679 158.549 84.5288C155.837 82.088 154.244 79.6296 153.506 77.0669C152.769 74.5042 152.812 71.5744 153.811 68.0647Z" fill="url(#paint4_linear_566_133)"/>
<path fill-rule="evenodd" clip-rule="evenodd" d="M53.7173 68.0647C50.8599 58.0267 38.7966 53.212 25.9229 58.0044C16.1006 61.6608 10.5933 72.8863 12.0953 83.8738C13.9169 97.199 26.5919 106.572 40.2506 104.896C53.6521 103.251 59.5982 96.8432 66.9591 88.9108C69.1984 86.4976 71.5687 83.9433 74.3196 81.3391C78.8457 77.0544 82.8643 73.4984 87.4303 71.0626C92.0941 68.5746 97.1758 67.3284 103.773 67.3284V73.242C98.0073 73.242 93.9058 74.3105 90.2137 76.2802C86.4236 78.302 82.9135 81.3466 78.3851 85.6335C76.1494 87.7499 74.0731 90.0011 71.9932 92.2562C64.3723 100.519 56.7027 108.834 40.971 110.765C24.2914 112.813 8.52125 101.39 6.23623 84.6747C4.44496 71.5711 10.8947 57.2887 23.8598 52.4623C38.6261 46.9655 55.2516 51.8548 59.405 66.4457C60.6343 70.7643 60.8141 74.8477 59.7048 78.7024C58.5955 82.5571 56.2726 85.9203 52.9348 88.9243C50.0828 91.4911 45.2905 94.0507 40.1146 94.4927C34.7197 94.9534 28.9274 93.079 24.87 86.8239C20.5098 80.1019 23.0694 72.9157 27.6598 69.2379C29.9591 67.3957 32.9487 66.2671 36.064 66.6067C39.272 66.9564 42.1892 68.8179 44.278 72.147L39.2688 75.29C38.0132 73.2889 36.6069 72.6145 35.4232 72.4855C34.1467 72.3463 32.6761 72.7963 31.3574 73.8529C28.7119 75.9725 27.4046 79.8647 29.8313 83.6058C32.5609 87.8139 36.1239 88.8984 39.6115 88.6005C43.3182 88.284 46.9354 86.3679 48.9788 84.5288C51.6909 82.088 53.2844 79.6296 54.0219 77.0669C54.7594 74.5042 54.7164 71.5744 53.7173 68.0647Z" fill="url(#paint5_linear_566_133)"/>
<path fill-rule="evenodd" clip-rule="evenodd" d="M197.288 104.693C197.263 108.565 195.919 112.246 194.412 115.096C191.489 120.625 185.982 124.529 179.323 126.469C172.666 128.409 165.099 128.302 158.456 126.037C151.085 123.524 146.507 119.089 142.745 113.579C140.837 110.785 139.154 107.737 137.41 104.486C137.181 104.06 136.951 103.629 136.719 103.196C135.206 100.364 133.62 97.3992 131.839 94.4921C128.521 89.0782 124.69 83.7863 120.15 79.8283C115.576 75.8406 110.145 73.0931 103.731 73.0931L103.731 79.0067C108.319 79.0067 112.424 80.9375 116.264 84.2857C120.138 87.6637 123.599 92.3653 126.797 97.5821C128.48 100.329 129.977 103.127 131.496 105.969C131.73 106.405 131.964 106.843 132.199 107.282C133.946 110.537 135.758 113.833 137.861 116.914C142.123 123.155 147.641 128.597 156.548 131.634C164.37 134.302 173.181 134.418 180.977 132.146C188.773 129.875 195.795 125.134 199.64 117.86C201.406 114.52 203.168 109.884 203.202 104.731C203.236 99.4769 201.465 93.843 196.425 88.7457L192.22 92.9035C196.097 96.8244 197.313 100.922 197.288 104.693Z" fill="url(#paint6_linear_566_133)"/>
<path fill-rule="evenodd" clip-rule="evenodd" d="M10.2429 104.693C10.2683 108.565 11.6125 112.246 13.1192 115.096C16.042 120.625 21.5494 124.529 28.208 126.469C34.8657 128.409 42.4323 128.302 49.0751 126.037C56.4464 123.524 61.024 119.089 64.7862 113.579C66.6945 110.785 68.3769 107.737 70.1211 104.486C70.35 104.06 70.5802 103.629 70.812 103.196C72.3257 100.364 73.9111 97.3992 75.6927 94.4921C79.0106 89.0782 82.8417 83.7863 87.3813 79.8283C91.9552 75.8406 97.3862 73.0931 103.801 73.0931L103.801 79.0067C99.2127 79.0067 95.1077 80.9375 91.2675 84.2857C87.393 87.6637 83.9318 92.3653 80.7347 97.5821C79.0511 100.329 77.5547 103.127 76.0353 105.969C75.8017 106.405 75.5674 106.843 75.3319 107.282C73.5855 110.537 71.7736 113.833 69.6698 116.914C65.4079 123.155 59.8904 128.597 50.9837 131.634C43.1614 134.302 34.3499 134.418 26.5538 132.146C18.7586 129.875 11.7365 125.134 7.89118 117.86C6.12554 114.52 4.36325 109.884 4.32944 104.731C4.29497 99.4769 6.06646 93.843 11.1064 88.7457L15.3116 92.9035C11.4347 96.8244 10.2181 100.922 10.2429 104.693Z" fill="url(#paint7_linear_566_133)"/>
<path fill-rule="evenodd" clip-rule="evenodd" d="M190.435 135.583C189.068 139.762 186.154 143.253 183.67 145.046C172.898 152.821 157.141 152.902 145.45 144.994C138.999 140.631 135.748 135.149 133.567 128.844C132.461 125.646 131.639 122.263 130.811 118.668C130.702 118.196 130.593 117.721 130.483 117.241C129.767 114.112 129.017 110.834 128.063 107.561C126.23 101.277 122.941 94.2955 118.88 88.8228C116.847 86.0838 114.553 83.6292 112.063 81.8362C109.578 80.0476 106.732 78.8012 103.67 78.8012L103.67 84.7148C105.098 84.7148 106.754 85.301 108.607 86.6354C110.455 87.9654 112.333 89.9241 114.131 92.3466C117.73 97.1968 120.727 103.53 122.386 109.216C123.288 112.31 123.996 115.403 124.715 118.543C124.825 119.026 124.936 119.51 125.048 119.996C125.877 123.595 126.759 127.252 127.979 130.777C130.449 137.919 134.342 144.621 142.137 149.893C155.764 159.11 174.231 159.151 187.131 149.841C190.555 147.37 194.272 142.874 196.056 137.421C197.883 131.837 197.686 125.172 193.027 118.87L188.272 122.385C191.627 126.923 191.76 131.535 190.435 135.583Z" fill="url(#paint8_linear_566_133)"/>
<path fill-rule="evenodd" clip-rule="evenodd" d="M17.1013 135.58C18.4686 139.759 21.3828 143.25 23.8663 145.043C34.6391 152.818 50.3954 152.899 62.0868 144.991C68.5378 140.628 71.7882 135.146 73.9696 128.841C75.076 125.643 75.8979 122.26 76.726 118.665C76.8347 118.194 76.9436 117.718 77.0533 117.238C77.7694 114.109 78.5193 110.831 79.4739 107.558C81.3064 101.274 84.5961 94.2925 88.6569 88.8199C90.6892 86.0809 92.9836 83.6263 95.4741 81.8333C97.9585 80.0447 100.805 78.7983 103.867 78.7983L103.867 84.7119C102.439 84.7119 100.783 85.2981 98.9292 86.6325C97.0818 87.9625 95.2034 89.9212 93.4059 92.3437C89.807 97.1939 86.8092 103.527 85.151 109.213C84.2489 112.307 83.5408 115.4 82.8219 118.54C82.7113 119.023 82.6005 119.507 82.4886 119.993C81.6595 123.592 80.7779 127.249 79.5581 130.774C77.0871 137.916 73.1946 144.618 65.3998 149.89C51.7726 159.107 33.3058 159.149 20.4055 149.838C16.9817 147.367 13.2646 142.871 11.4808 137.418C9.65403 131.834 9.85037 125.17 14.5095 118.867L19.2648 122.382C15.91 126.92 15.7771 131.532 17.1013 135.58Z" fill="url(#paint9_linear_566_133)"/>
<path d="M233.574 126.272V121.755C237.042 121.572 239.415 120.797 240.692 119.428C241.97 117.968 242.654 116.006 242.746 113.542C242.928 110.986 243.019 108.112 243.019 104.918V45.7826C243.019 43.9574 243.065 42.2235 243.156 40.5809C243.248 38.847 243.339 37.2956 243.43 35.9267C241.787 36.018 240.145 36.1092 238.502 36.2005C236.86 36.2918 235.217 36.383 233.574 36.4743V30.4512H264.374V34.9685C260.997 35.0598 258.625 35.8355 257.256 37.2956C255.978 38.7557 255.248 40.7178 255.065 43.1817C254.974 45.6457 254.929 48.5203 254.929 51.8056V110.53C254.929 112.994 254.883 115.093 254.792 116.827C254.792 118.561 254.7 120.021 254.518 121.207L280.116 120.797C285.865 120.705 290.2 118.88 293.12 115.321C296.132 111.762 297.637 105.967 297.637 97.9366H302.292L301.47 126.272H233.574Z" fill="url(#paint10_linear_566_133)"/>
<path d="M343.512 34.9685C340.135 35.0598 337.762 35.8355 336.393 37.2956C335.116 38.7557 334.386 40.7178 334.203 43.1817C334.112 45.6457 334.066 48.5203 334.066 51.8056V109.983C334.066 112.447 334.021 114.591 333.93 116.416C333.93 118.15 333.838 119.61 333.656 120.797C335.298 120.705 336.941 120.614 338.584 120.523C340.226 120.432 341.869 120.34 343.512 120.249V126.272H312.712V121.755C316.18 121.572 318.553 120.797 319.83 119.428C321.108 117.968 321.792 116.006 321.883 113.542C322.066 110.986 322.157 108.112 322.157 104.918V45.7826C322.157 43.9574 322.203 42.2235 322.294 40.5809C322.385 38.847 322.477 37.2956 322.568 35.9267C320.925 36.018 319.283 36.1092 317.64 36.2005C315.997 36.2918 314.355 36.383 312.712 36.4743V30.4512H343.512V34.9685Z" fill="url(#paint11_linear_566_133)"/>
<path d="M358.564 126.272V121.755C362.032 121.572 364.404 120.797 365.682 119.428C366.96 117.968 367.644 116.006 367.735 113.542C367.918 110.986 368.009 108.112 368.009 104.918V45.7826C368.009 43.9574 368.055 42.2235 368.146 40.5809C368.237 38.847 368.328 37.2956 368.42 35.9267C366.777 36.018 365.134 36.1092 363.492 36.2005C361.849 36.2918 360.206 36.383 358.564 36.4743V30.4512C363.674 30.36 368.83 30.2687 374.032 30.1775C379.325 30.0862 384.618 30.1318 389.911 30.3143C398.763 30.4056 405.881 31.4551 411.265 33.4628C416.741 35.3792 420.756 38.1625 423.311 41.8129C425.867 45.3719 427.144 49.7067 427.144 54.8171C427.236 58.3762 426.551 62.0265 425.091 65.7681C423.722 69.4184 421.167 72.7037 417.425 75.624C413.775 78.5442 408.482 80.7344 401.546 82.1945C403.372 83.4722 404.969 85.1148 406.337 87.1225C407.706 89.1302 409.258 91.4572 410.992 94.1037L420.3 108.751C421.851 111.215 423.357 113.45 424.817 115.458C426.277 117.375 427.966 118.926 429.882 120.112C431.798 121.207 434.171 121.755 437 121.755V126.272H419.752C417.106 123.899 414.87 121.527 413.045 119.154C411.311 116.781 409.486 114.089 407.569 111.078L398.398 96.4308C397.212 94.5144 395.843 92.3242 394.291 89.8602C392.831 87.305 391.143 85.1604 389.227 83.4265C387.766 83.5178 386.215 83.5634 384.572 83.5634C383.021 83.5634 381.47 83.5178 379.918 83.4265V109.983C379.918 112.447 379.873 114.591 379.781 116.416C379.781 118.15 379.69 119.61 379.508 120.797C380.603 120.705 381.698 120.66 382.793 120.66C383.888 120.569 384.983 120.477 386.078 120.386C387.173 120.295 388.268 120.249 389.363 120.249V126.272H358.564ZM388.405 78.3617C393.424 78.1792 397.805 77.3579 401.546 75.8977C405.379 74.4376 408.391 72.1105 410.581 68.9165C412.771 65.7225 413.866 61.5246 413.866 56.3229C413.866 52.8551 413.364 49.8436 412.36 47.2883C411.448 44.6419 409.988 42.4517 407.98 40.7178C405.972 38.9839 403.417 37.7062 400.314 36.8849C397.212 35.9723 393.561 35.5161 389.363 35.5161C385.987 35.5161 383.614 36.2005 382.245 37.5694C380.968 38.9382 380.238 40.8547 380.055 43.3186C379.964 45.6913 379.918 48.5203 379.918 51.8056V78.0879C381.378 78.1792 382.747 78.2705 384.025 78.3617C385.394 78.453 386.854 78.453 388.405 78.3617Z" fill="url(#paint12_linear_566_133)"/>
<path d="M233.574 126.272V121.755C237.042 121.572 239.415 120.797 240.692 119.428C241.97 117.968 242.654 116.006 242.746 113.542C242.928 110.986 243.019 108.112 243.019 104.918V45.7826C243.019 43.9574 243.065 42.2235 243.156 40.5809C243.248 38.847 243.339 37.2956 243.43 35.9267C241.787 36.018 240.145 36.1092 238.502 36.2005C236.86 36.2918 235.217 36.383 233.574 36.4743V30.4512H264.374V34.9685C260.997 35.0598 258.625 35.8355 257.256 37.2956C255.978 38.7557 255.248 40.7178 255.065 43.1817C254.974 45.6457 254.929 48.5203 254.929 51.8056V110.53C254.929 112.994 254.883 115.093 254.792 116.827C254.792 118.561 254.7 120.021 254.518 121.207L280.116 120.797C285.865 120.705 290.2 118.88 293.12 115.321C296.132 111.762 297.637 105.967 297.637 97.9366H302.292L301.47 126.272H233.574Z" stroke="white"/>
<path d="M343.512 34.9685C340.135 35.0598 337.762 35.8355 336.393 37.2956C335.116 38.7557 334.386 40.7178 334.203 43.1817C334.112 45.6457 334.066 48.5203 334.066 51.8056V109.983C334.066 112.447 334.021 114.591 333.93 116.416C333.93 118.15 333.838 119.61 333.656 120.797C335.298 120.705 336.941 120.614 338.584 120.523C340.226 120.432 341.869 120.34 343.512 120.249V126.272H312.712V121.755C316.18 121.572 318.553 120.797 319.83 119.428C321.108 117.968 321.792 116.006 321.883 113.542C322.066 110.986 322.157 108.112 322.157 104.918V45.7826C322.157 43.9574 322.203 42.2235 322.294 40.5809C322.385 38.847 322.477 37.2956 322.568 35.9267C320.925 36.018 319.283 36.1092 317.64 36.2005C315.997 36.2918 314.355 36.383 312.712 36.4743V30.4512H343.512V34.9685Z" stroke="white"/>
<path d="M358.564 126.272V121.755C362.032 121.572 364.404 120.797 365.682 119.428C366.96 117.968 367.644 116.006 367.735 113.542C367.918 110.986 368.009 108.112 368.009 104.918V45.7826C368.009 43.9574 368.055 42.2235 368.146 40.5809C368.237 38.847 368.328 37.2956 368.42 35.9267C366.777 36.018 365.134 36.1092 363.492 36.2005C361.849 36.2918 360.206 36.383 358.564 36.4743V30.4512C363.674 30.36 368.83 30.2687 374.032 30.1775C379.325 30.0862 384.618 30.1318 389.911 30.3143C398.763 30.4056 405.881 31.4551 411.265 33.4628C416.741 35.3792 420.756 38.1625 423.311 41.8129C425.867 45.3719 427.144 49.7067 427.144 54.8171C427.236 58.3762 426.551 62.0265 425.091 65.7681C423.722 69.4184 421.167 72.7037 417.425 75.624C413.775 78.5442 408.482 80.7344 401.546 82.1945C403.372 83.4722 404.969 85.1148 406.337 87.1225C407.706 89.1302 409.258 91.4572 410.992 94.1037L420.3 108.751C421.851 111.215 423.357 113.45 424.817 115.458C426.277 117.375 427.966 118.926 429.882 120.112C431.798 121.207 434.171 121.755 437 121.755V126.272H419.752C417.106 123.899 414.87 121.527 413.045 119.154C411.311 116.781 409.486 114.089 407.569 111.078L398.398 96.4308C397.212 94.5144 395.843 92.3242 394.291 89.8602C392.831 87.305 391.143 85.1604 389.227 83.4265C387.766 83.5178 386.215 83.5634 384.572 83.5634C383.021 83.5634 381.47 83.5178 379.918 83.4265V109.983C379.918 112.447 379.873 114.591 379.781 116.416C379.781 118.15 379.69 119.61 379.508 120.797C380.603 120.705 381.698 120.66 382.793 120.66C383.888 120.569 384.983 120.477 386.078 120.386C387.173 120.295 388.268 120.249 389.363 120.249V126.272H358.564ZM388.405 78.3617C393.424 78.1792 397.805 77.3579 401.546 75.8977C405.379 74.4376 408.391 72.1105 410.581 68.9165C412.771 65.7225 413.866 61.5246 413.866 56.3229C413.866 52.8551 413.364 49.8436 412.36 47.2883C411.448 44.6419 409.988 42.4517 407.98 40.7178C405.972 38.9839 403.417 37.7062 400.314 36.8849C397.212 35.9723 393.561 35.5161 389.363 35.5161C385.987 35.5161 383.614 36.2005 382.245 37.5694C380.968 38.9382 380.238 40.8547 380.055 43.3186C379.964 45.6913 379.918 48.5203 379.918 51.8056V78.0879C381.378 78.1792 382.747 78.2705 384.025 78.3617C385.394 78.453 386.854 78.453 388.405 78.3617Z" stroke="white"/>
<defs>
<linearGradient id="paint0_linear_566_133" x1="103.377" y1="12.2451" x2="103.377" y2="59.6774" gradientUnits="userSpaceOnUse">
<stop stop-color="#47EFFA"/>
<stop offset="1" stop-color="#0372F4"/>
</linearGradient>
<linearGradient id="paint1_linear_566_133" x1="74.8497" y1="0.337402" x2="74.8497" y2="14.6944" gradientUnits="userSpaceOnUse">
<stop stop-color="#47EFFA"/>
<stop offset="1" stop-color="#0372F4"/>
</linearGradient>
<linearGradient id="paint2_linear_566_133" x1="132.674" y1="0.337402" x2="132.674" y2="14.6944" gradientUnits="userSpaceOnUse">
<stop stop-color="#47EFFA"/>
<stop offset="1" stop-color="#0372F4"/>
</linearGradient>
<linearGradient id="paint3_linear_566_133" x1="104.263" y1="107.394" x2="104.263" y2="119.487" gradientUnits="userSpaceOnUse">
<stop stop-color="#47EFFA"/>
<stop offset="1" stop-color="#0372F4"/>
</linearGradient>
<linearGradient id="paint4_linear_566_133" x1="152.671" y1="50.2676" x2="152.671" y2="111.002" gradientUnits="userSpaceOnUse">
<stop stop-color="#47EFFA"/>
<stop offset="1" stop-color="#0372F4"/>
</linearGradient>
<linearGradient id="paint5_linear_566_133" x1="54.8577" y1="50.2676" x2="54.8577" y2="111.002" gradientUnits="userSpaceOnUse">
<stop stop-color="#47EFFA"/>
<stop offset="1" stop-color="#0372F4"/>
</linearGradient>
<linearGradient id="paint6_linear_566_133" x1="156.798" y1="78.0778" x2="143.316" y2="128.157" gradientUnits="userSpaceOnUse">
<stop stop-color="#47EFFA"/>
<stop offset="1" stop-color="#0372F4"/>
</linearGradient>
<linearGradient id="paint7_linear_566_133" x1="50.733" y1="78.0778" x2="64.2148" y2="128.157" gradientUnits="userSpaceOnUse">
<stop stop-color="#47EFFA"/>
<stop offset="1" stop-color="#0372F4"/>
</linearGradient>
<linearGradient id="paint8_linear_566_133" x1="156.406" y1="97.4609" x2="129.884" y2="142.828" gradientUnits="userSpaceOnUse">
<stop stop-color="#47EFFA"/>
<stop offset="1" stop-color="#0372F4"/>
</linearGradient>
<linearGradient id="paint9_linear_566_133" x1="51.1301" y1="97.458" x2="77.6525" y2="142.825" gradientUnits="userSpaceOnUse">
<stop stop-color="#47EFFA"/>
<stop offset="1" stop-color="#0372F4"/>
</linearGradient>
<linearGradient id="paint10_linear_566_133" x1="335.287" y1="30.1318" x2="335.287" y2="126.272" gradientUnits="userSpaceOnUse">
<stop stop-color="#47EFFA"/>
<stop offset="1" stop-color="#0372F4"/>
</linearGradient>
<linearGradient id="paint11_linear_566_133" x1="335.287" y1="30.1318" x2="335.287" y2="126.272" gradientUnits="userSpaceOnUse">
<stop stop-color="#47EFFA"/>
<stop offset="1" stop-color="#0372F4"/>
</linearGradient>
<linearGradient id="paint12_linear_566_133" x1="335.287" y1="30.1318" x2="335.287" y2="126.272" gradientUnits="userSpaceOnUse">
<stop stop-color="#47EFFA"/>
<stop offset="1" stop-color="#0372F4"/>
</linearGradient>
</defs>
</svg>
