<svg width="314" height="413" viewBox="0 0 314 413" fill="none" xmlns="http://www.w3.org/2000/svg">
<path d="M18.0572 18.5659L12.2492 10.2619H14.1692L19.0172 17.4379L24.0332 10.2619H25.8572L20.0012 18.6139L26.1932 27.3979H24.2252L19.0172 19.8379L13.7372 27.3979H11.9132L18.0572 18.5659Z" fill="#042245"/>
<path d="M18.0572 243.675L12.2492 235.371H14.1692L19.0172 242.547L24.0332 235.371H25.8572L20.0012 243.723L26.1932 252.507H24.2252L19.0172 244.947L13.7372 252.507H11.9132L18.0572 243.675Z" fill="#042245"/>
<path d="M18.0572 393.109L12.2492 384.805H14.1692L19.0172 391.981L24.0332 384.805H25.8572L20.0012 393.157L26.1932 401.941H24.2252L19.0172 394.381L13.7372 401.941H11.9132L18.0572 393.109Z" fill="#042245"/>
<path d="M36.8071 376.385V371.037C40.912 370.821 43.7206 369.903 45.233 368.283C46.7453 366.554 47.5555 364.232 47.6635 361.315C47.8796 358.291 47.9876 354.888 47.9876 351.107V281.108C47.9876 278.947 48.0416 276.895 48.1496 274.95C48.2576 272.898 48.3657 271.061 48.4737 269.441C46.5293 269.549 44.5848 269.657 42.6404 269.765C40.696 269.873 38.7516 269.981 36.8071 270.089V262.96H73.2651V268.307C69.2683 268.415 66.4596 269.333 64.8393 271.061C63.327 272.79 62.4628 275.112 62.2467 278.029C62.1387 280.946 62.0847 284.348 62.0847 288.237V357.75C62.0847 360.667 62.0307 363.152 61.9226 365.204C61.9226 367.257 61.8146 368.985 61.5986 370.389L91.8992 369.903C98.7047 369.795 103.836 367.635 107.293 363.422C110.857 359.209 112.64 352.349 112.64 342.843H118.149L117.177 376.385H36.8071Z" fill="#042245"/>
<path d="M166.942 268.307C162.945 268.415 160.136 269.333 158.516 271.061C157.004 272.79 156.14 275.112 155.924 278.029C155.816 280.946 155.762 284.348 155.762 288.237V357.102C155.762 360.019 155.708 362.558 155.599 364.718C155.599 366.77 155.491 368.499 155.275 369.903C157.22 369.795 159.164 369.687 161.109 369.579C163.053 369.471 164.998 369.363 166.942 369.255V376.385H130.484V371.037C134.589 370.821 137.397 369.903 138.91 368.283C140.422 366.554 141.232 364.232 141.34 361.315C141.556 358.291 141.664 354.888 141.664 351.107V281.108C141.664 278.947 141.718 276.895 141.826 274.95C141.934 272.898 142.043 271.061 142.151 269.441C140.206 269.549 138.262 269.657 136.317 269.765C134.373 269.873 132.428 269.981 130.484 270.089V262.96H166.942V268.307Z" fill="#042245"/>
<path d="M184.76 376.385V371.037C188.864 370.821 191.673 369.903 193.185 368.283C194.698 366.554 195.508 364.232 195.616 361.315C195.832 358.291 195.94 354.888 195.94 351.107V281.108C195.94 278.947 195.994 276.895 196.102 274.95C196.21 272.898 196.318 271.061 196.426 269.441C194.482 269.549 192.537 269.657 190.593 269.765C188.648 269.873 186.704 269.981 184.76 270.089V262.96C190.809 262.852 196.912 262.744 203.07 262.636C209.335 262.528 215.6 262.582 221.866 262.798C232.344 262.906 240.77 264.148 247.143 266.524C253.625 268.793 258.378 272.088 261.402 276.409C264.427 280.622 265.939 285.753 265.939 291.802C266.047 296.015 265.237 300.336 263.509 304.765C261.889 309.086 258.864 312.975 254.435 316.431C250.114 319.888 243.849 322.481 235.639 324.209C237.799 325.721 239.69 327.666 241.31 330.042C242.93 332.419 244.767 335.174 246.819 338.306L257.838 355.644C259.674 358.561 261.456 361.207 263.185 363.584C264.913 365.852 266.912 367.689 269.18 369.093C271.449 370.389 274.257 371.037 277.606 371.037V376.385H257.189C254.057 373.576 251.41 370.767 249.25 367.959C247.197 365.15 245.037 361.963 242.768 358.399L231.912 341.061C230.508 338.792 228.887 336.2 227.051 333.283C225.322 330.258 223.324 327.72 221.056 325.667C219.327 325.775 217.491 325.829 215.546 325.829C213.71 325.829 211.874 325.775 210.037 325.667V357.102C210.037 360.019 209.983 362.558 209.875 364.718C209.875 366.77 209.767 368.499 209.551 369.903C210.847 369.795 212.144 369.741 213.44 369.741C214.736 369.633 216.032 369.525 217.329 369.417C218.625 369.309 219.921 369.255 221.218 369.255V376.385H184.76ZM220.083 319.672C226.025 319.456 231.21 318.484 235.639 316.755C240.176 315.027 243.741 312.272 246.333 308.492C248.926 304.711 250.222 299.742 250.222 293.584C250.222 289.479 249.628 285.915 248.44 282.89C247.359 279.757 245.631 277.165 243.254 275.112C240.878 273.06 237.853 271.548 234.18 270.575C230.508 269.495 226.187 268.955 221.218 268.955C217.221 268.955 214.412 269.765 212.792 271.385C211.279 273.006 210.415 275.274 210.199 278.191C210.091 281 210.037 284.348 210.037 288.237V319.348C211.766 319.456 213.386 319.564 214.898 319.672C216.519 319.78 218.247 319.78 220.083 319.672Z" fill="#042245"/>
<path d="M36.8071 376.385V371.037C40.912 370.821 43.7206 369.903 45.233 368.283C46.7453 366.554 47.5555 364.232 47.6635 361.315C47.8796 358.291 47.9876 354.888 47.9876 351.107V281.108C47.9876 278.947 48.0416 276.895 48.1496 274.95C48.2576 272.898 48.3657 271.061 48.4737 269.441C46.5293 269.549 44.5848 269.657 42.6404 269.765C40.696 269.873 38.7516 269.981 36.8071 270.089V262.96H73.2651V268.307C69.2683 268.415 66.4596 269.333 64.8393 271.061C63.327 272.79 62.4628 275.112 62.2467 278.029C62.1387 280.946 62.0847 284.348 62.0847 288.237V357.75C62.0847 360.667 62.0307 363.152 61.9226 365.204C61.9226 367.257 61.8146 368.985 61.5986 370.389L91.8992 369.903C98.7047 369.795 103.836 367.635 107.293 363.422C110.857 359.209 112.64 352.349 112.64 342.843H118.149L117.177 376.385H36.8071Z" stroke="white"/>
<path d="M166.942 268.307C162.945 268.415 160.136 269.333 158.516 271.061C157.004 272.79 156.14 275.112 155.924 278.029C155.816 280.946 155.762 284.348 155.762 288.237V357.102C155.762 360.019 155.708 362.558 155.599 364.718C155.599 366.77 155.491 368.499 155.275 369.903C157.22 369.795 159.164 369.687 161.109 369.579C163.053 369.471 164.998 369.363 166.942 369.255V376.385H130.484V371.037C134.589 370.821 137.397 369.903 138.91 368.283C140.422 366.554 141.232 364.232 141.34 361.315C141.556 358.291 141.664 354.888 141.664 351.107V281.108C141.664 278.947 141.718 276.895 141.826 274.95C141.934 272.898 142.043 271.061 142.151 269.441C140.206 269.549 138.262 269.657 136.317 269.765C134.373 269.873 132.428 269.981 130.484 270.089V262.96H166.942V268.307Z" stroke="white"/>
<path d="M184.76 376.385V371.037C188.864 370.821 191.673 369.903 193.185 368.283C194.698 366.554 195.508 364.232 195.616 361.315C195.832 358.291 195.94 354.888 195.94 351.107V281.108C195.94 278.947 195.994 276.895 196.102 274.95C196.21 272.898 196.318 271.061 196.426 269.441C194.482 269.549 192.537 269.657 190.593 269.765C188.648 269.873 186.704 269.981 184.76 270.089V262.96C190.809 262.852 196.912 262.744 203.07 262.636C209.335 262.528 215.6 262.582 221.866 262.798C232.344 262.906 240.77 264.148 247.143 266.524C253.625 268.793 258.378 272.088 261.402 276.409C264.427 280.622 265.939 285.753 265.939 291.802C266.047 296.015 265.237 300.336 263.509 304.765C261.889 309.086 258.864 312.975 254.435 316.431C250.114 319.888 243.849 322.481 235.639 324.209C237.799 325.721 239.69 327.666 241.31 330.042C242.93 332.419 244.767 335.174 246.819 338.306L257.838 355.644C259.674 358.561 261.456 361.207 263.185 363.584C264.913 365.852 266.912 367.689 269.18 369.093C271.449 370.389 274.257 371.037 277.606 371.037V376.385H257.189C254.057 373.576 251.41 370.767 249.25 367.959C247.197 365.15 245.037 361.963 242.768 358.399L231.912 341.061C230.508 338.792 228.887 336.2 227.051 333.283C225.322 330.258 223.324 327.72 221.056 325.667C219.327 325.775 217.491 325.829 215.546 325.829C213.71 325.829 211.874 325.775 210.037 325.667V357.102C210.037 360.019 209.983 362.558 209.875 364.718C209.875 366.77 209.767 368.499 209.551 369.903C210.847 369.795 212.144 369.741 213.44 369.741C214.736 369.633 216.032 369.525 217.329 369.417C218.625 369.309 219.921 369.255 221.218 369.255V376.385H184.76ZM220.083 319.672C226.025 319.456 231.21 318.484 235.639 316.755C240.176 315.027 243.741 312.272 246.333 308.492C248.926 304.711 250.222 299.742 250.222 293.584C250.222 289.479 249.628 285.915 248.44 282.89C247.359 279.757 245.631 277.165 243.254 275.112C240.878 273.06 237.853 271.548 234.18 270.575C230.508 269.495 226.187 268.955 221.218 268.955C217.221 268.955 214.412 269.765 212.792 271.385C211.279 273.006 210.415 275.274 210.199 278.191C210.091 281 210.037 284.348 210.037 288.237V319.348C211.766 319.456 213.386 319.564 214.898 319.672C216.519 319.78 218.247 319.78 220.083 319.672Z" stroke="white"/>
<rect x="37.3071" y="37.2437" width="239.799" height="338.641" stroke="black"/>
<rect x="1.12256" y="1.38037" width="312.188" height="410.579" stroke="black"/>
<path d="M157.465 51.23L164.821 94.3703C166.555 104.538 152.323 108.781 148.206 99.3238V99.3238" stroke="#042245" stroke-width="7"/>
<path d="M154.716 50.0099H157.207H154.392C147.827 50.0099 141.383 48.2397 135.739 44.8857V44.8857C124.779 38.372 111.215 38.0476 99.9559 44.03L88.7017 50.0099" stroke="#042245" stroke-width="7"/>
<path d="M159.698 50.0095H157.207H160.022C166.587 50.0095 173.03 48.2392 178.674 44.8852V44.8852C189.634 38.3715 203.199 38.0471 214.458 44.0296L225.712 50.0095" stroke="#042245" stroke-width="7"/>
<path d="M131.25 169.377L139.951 173.381C151.533 178.711 164.883 178.627 176.397 173.151L184.329 169.378" stroke="#042245" stroke-width="7"/>
<path fill-rule="evenodd" clip-rule="evenodd" d="M217.868 118.353C221.356 106.101 236.066 100.256 251.721 106.083C263.69 110.539 270.389 124.21 268.562 137.578C266.344 153.803 250.912 165.211 234.288 163.171C217.987 161.17 210.744 153.365 201.804 143.73C199.089 140.803 196.216 137.707 192.885 134.554C187.392 129.354 182.522 125.045 176.991 122.095C171.345 119.083 165.191 117.573 157.196 117.573V124.573C164.207 124.573 169.2 125.872 173.696 128.271C178.308 130.731 182.576 134.434 188.073 139.638C190.794 142.213 193.318 144.95 195.846 147.69C205.093 157.716 214.376 167.779 233.435 170.119C253.636 172.598 272.731 158.764 275.497 138.526C277.667 122.653 269.853 105.363 254.163 99.5228C236.268 92.8614 216.157 98.7949 211.135 116.437C209.647 121.666 209.43 126.605 210.771 131.265C212.112 135.924 214.921 139.993 218.963 143.631C222.412 146.735 228.211 149.832 234.472 150.367C240.991 150.924 247.988 148.66 252.893 141.099C258.157 132.984 255.068 124.311 249.526 119.871C246.75 117.647 243.144 116.287 239.39 116.696C235.527 117.117 232.009 119.359 229.486 123.38L235.415 127.1C236.952 124.651 238.682 123.815 240.149 123.655C241.726 123.483 243.534 124.039 245.149 125.334C248.389 127.93 249.995 132.704 247.02 137.289C243.687 142.428 239.329 143.756 235.067 143.392C230.546 143.006 226.138 140.671 223.645 138.427C220.344 135.456 218.399 132.459 217.498 129.329C216.597 126.199 216.652 122.625 217.868 118.353Z" fill="#042245"/>
<path fill-rule="evenodd" clip-rule="evenodd" d="M96.5453 118.353C93.0575 106.101 78.3466 100.256 62.6923 106.083C50.7228 110.539 44.0239 124.21 45.8514 137.578C48.0694 153.803 63.5007 165.211 80.1249 163.171C96.4261 161.17 103.669 153.365 112.609 143.73C115.325 140.803 118.197 137.707 121.528 134.554C127.021 129.354 131.892 125.045 137.422 122.095C143.068 119.083 149.222 117.573 157.217 117.573V124.573C150.206 124.573 145.213 125.872 140.717 128.271C136.105 130.731 131.837 134.434 126.34 139.638C123.619 142.213 121.095 144.95 118.568 147.69C109.32 157.716 100.037 167.779 80.9777 170.119C60.7775 172.598 41.6825 158.764 38.9159 138.526C36.746 122.653 44.5605 105.363 60.2502 99.5228C78.1448 92.8614 98.256 98.7949 103.278 116.437C104.767 121.666 104.983 126.605 103.642 131.265C102.301 135.924 99.4925 139.993 95.4505 143.631C92.001 146.735 86.2017 149.832 79.9414 150.367C73.4218 150.924 66.4247 148.66 61.5199 141.099C56.2565 132.984 59.3446 124.311 64.8871 119.871C67.6632 117.647 71.269 116.287 75.0227 116.696C78.8862 117.117 82.4043 119.359 84.9271 123.38L78.9977 127.1C77.4611 124.651 75.7314 123.815 74.2642 123.655C72.6872 123.483 70.8793 124.039 69.264 125.334C66.0236 127.93 64.418 132.704 67.3926 137.289C70.7257 142.428 75.084 143.756 79.3459 143.392C83.8671 143.006 88.2753 140.671 90.7677 138.427C94.069 135.456 96.0141 132.459 96.9149 129.329C97.8156 126.199 97.7614 122.625 96.5453 118.353Z" fill="#042245"/>
<path fill-rule="evenodd" clip-rule="evenodd" d="M270.809 162.836C270.778 167.556 269.141 172.038 267.308 175.505C263.746 182.242 257.039 186.993 248.939 189.353C240.841 191.712 231.638 191.583 223.558 188.828C214.587 185.769 209.017 180.371 204.443 173.672C202.124 170.276 200.08 166.573 197.963 162.628C197.685 162.11 197.405 161.587 197.124 161.061C195.286 157.624 193.364 154.027 191.203 150.501C187.177 143.933 182.533 137.518 177.032 132.723C171.492 127.892 164.92 124.57 157.161 124.57L157.161 131.57C162.757 131.57 167.76 133.926 172.432 137.999C177.145 142.108 181.352 147.824 185.234 154.159C187.279 157.496 189.097 160.895 190.941 164.343C191.224 164.873 191.509 165.405 191.795 165.937C193.914 169.888 196.112 173.885 198.662 177.62C203.828 185.184 210.511 191.775 221.298 195.453C230.775 198.685 241.452 198.826 250.898 196.073C260.342 193.322 268.843 187.579 273.496 178.777C275.636 174.73 277.768 169.117 277.809 162.882C277.851 156.527 275.709 149.712 269.609 143.542L264.631 148.464C269.355 153.241 270.84 158.238 270.809 162.836Z" fill="#042245"/>
<path fill-rule="evenodd" clip-rule="evenodd" d="M43.6037 162.836C43.6347 167.556 45.2725 172.038 47.1052 175.505C50.6667 182.242 57.3743 186.993 65.4736 189.353C73.5717 191.712 82.7747 191.583 90.8554 188.828C99.8256 185.769 105.396 180.371 109.97 173.672C112.289 170.276 114.333 166.573 116.45 162.628C116.728 162.11 117.008 161.587 117.289 161.061C119.127 157.624 121.05 154.027 123.211 150.501C127.236 143.933 131.881 137.518 137.381 132.723C142.921 127.892 149.494 124.57 157.252 124.57L157.252 131.57C151.656 131.57 146.653 133.926 141.981 137.999C137.268 142.108 133.061 147.824 129.179 154.159C127.134 157.496 125.316 160.895 123.472 164.343C123.189 164.873 122.904 165.405 122.619 165.937C120.499 169.888 118.301 173.885 115.751 177.62C110.585 185.184 103.902 191.775 93.1147 195.453C83.6377 198.685 72.9612 198.826 63.5154 196.073C54.0709 193.322 45.5703 187.579 40.9167 178.777C38.7775 174.73 36.6448 169.117 36.6039 162.882C36.5622 156.527 38.704 149.712 44.804 143.542L49.7817 148.464C45.0585 153.241 43.5735 158.238 43.6037 162.836Z" fill="#042245"/>
<path fill-rule="evenodd" clip-rule="evenodd" d="M262.491 200.358C260.825 205.45 257.276 209.703 254.247 211.889C241.139 221.349 221.974 221.446 207.754 211.828C199.903 206.518 195.948 199.845 193.296 192.18C191.952 188.293 190.953 184.184 189.948 179.82C189.816 179.247 189.684 178.669 189.551 178.087C188.681 174.289 187.772 170.313 186.614 166.343C184.392 158.725 180.404 150.26 175.482 143.627C173.018 140.307 170.24 137.335 167.226 135.166C164.22 133.002 160.783 131.499 157.091 131.499L157.091 138.499C158.849 138.499 160.877 139.22 163.137 140.847C165.389 142.468 167.675 144.853 169.86 147.798C174.235 153.695 177.878 161.392 179.894 168.303C180.989 172.06 181.85 175.817 182.722 179.629C182.856 180.215 182.991 180.802 183.127 181.392C184.133 185.76 185.202 190.194 186.681 194.469C189.676 203.125 194.391 211.241 203.832 217.626C220.343 228.794 242.717 228.843 258.344 217.565C262.485 214.576 266.985 209.134 269.144 202.535C271.354 195.78 271.116 187.721 265.481 180.098L259.852 184.259C263.943 189.794 264.106 195.422 262.491 200.358Z" fill="#042245"/>
<path fill-rule="evenodd" clip-rule="evenodd" d="M51.934 200.353C53.5998 205.445 57.1492 209.698 60.1778 211.884C73.2857 221.344 92.4512 221.441 106.671 211.823C114.522 206.513 118.477 199.84 121.129 192.175C122.473 188.289 123.472 184.179 124.477 179.815C124.609 179.242 124.741 178.665 124.874 178.083C125.743 174.284 126.653 170.308 127.811 166.338C130.033 158.72 134.021 150.255 138.943 143.622C141.406 140.302 144.185 137.33 147.198 135.161C150.204 132.997 153.642 131.494 157.333 131.494L157.333 138.494C155.576 138.494 153.548 139.215 151.288 140.842C149.036 142.463 146.75 144.848 144.565 147.793C140.189 153.69 136.546 161.387 134.531 168.298C133.435 172.055 132.575 175.812 131.703 179.624C131.568 180.21 131.434 180.798 131.298 181.387C130.292 185.755 129.223 190.19 127.744 194.464C124.749 203.12 120.034 211.236 110.593 217.621C94.0814 228.789 71.7074 228.838 56.0812 217.56C51.9395 214.571 47.4398 209.129 45.281 202.53C43.0712 195.775 43.3085 187.716 48.9442 180.093L54.5731 184.254C50.4814 189.789 50.3191 195.417 51.934 200.353Z" fill="#042245"/>
<rect x="1.22607" y="226.49" width="312.275" height="36.0362" stroke="black"/>
<rect x="277.202" y="1.38037" width="36.1092" height="36.0362" stroke="black"/>
<rect x="1.12256" y="1.38037" width="36.1092" height="36.0362" stroke="black"/>
<rect x="1.12256" y="375.922" width="36.1092" height="36.0362" stroke="black"/>
<rect x="277.105" y="375.922" width="36.1092" height="36.0362" stroke="black"/>
</svg>
