<svg width="587" height="261" viewBox="0 0 587 261" fill="none" xmlns="http://www.w3.org/2000/svg">
<path d="M7.70413 134.066C7.86413 135.218 8.32013 136.082 9.07213 136.658C9.84013 137.218 10.7761 137.498 11.8801 137.498C12.5041 137.498 13.0641 137.386 13.5601 137.162C14.0721 136.938 14.5041 136.634 14.8561 136.25C15.2081 135.85 15.4721 135.394 15.6481 134.882C15.8401 134.354 15.9361 133.786 15.9361 133.178C15.9361 132.554 15.8321 131.978 15.6241 131.45C15.4321 130.922 15.1521 130.466 14.7841 130.082C14.4321 129.698 13.9921 129.402 13.4641 129.194C12.9521 128.986 12.3761 128.882 11.7361 128.882C10.9681 128.882 10.2801 129.026 9.67213 129.314C9.06413 129.586 8.52813 130.026 8.06413 130.634L6.79213 130.466L8.16013 121.706H16.5601V123.002H9.45613L8.40013 128.69C8.73613 128.482 9.04013 128.306 9.31213 128.162C9.60013 128.018 9.88813 127.906 10.1761 127.826C10.4641 127.73 10.7601 127.666 11.0641 127.634C11.3841 127.602 11.7361 127.586 12.1201 127.586C12.8881 127.586 13.6001 127.714 14.2561 127.97C14.9121 128.226 15.4801 128.594 15.9601 129.074C16.4401 129.554 16.8081 130.146 17.0641 130.85C17.3361 131.538 17.4721 132.314 17.4721 133.178C17.4721 134.074 17.3201 134.874 17.0161 135.578C16.7281 136.266 16.3361 136.85 15.8401 137.33C15.3441 137.81 14.7681 138.178 14.1121 138.434C13.4721 138.674 12.8081 138.794 12.1201 138.794C11.3201 138.794 10.5681 138.714 9.86413 138.554C9.17613 138.394 8.56813 138.13 8.04013 137.762C7.51213 137.378 7.08013 136.89 6.74413 136.298C6.42413 135.69 6.23213 134.946 6.16813 134.066H7.70413ZM24.5441 129.626L18.7361 121.322H20.6561L25.5041 128.498L30.5201 121.322H32.3441L26.4881 129.674L32.6801 138.458H30.7121L25.5041 130.898L20.2241 138.458H18.4001L24.5441 129.626Z" fill="#042245"/>
<path d="M283.632 129.05C284.352 129.05 285.008 129.01 285.6 128.93C286.192 128.834 286.696 128.666 287.112 128.426C287.544 128.17 287.88 127.834 288.12 127.418C288.36 127.002 288.48 126.466 288.48 125.81C288.48 125.282 288.384 124.834 288.192 124.466C288 124.082 287.736 123.77 287.4 123.53C287.08 123.29 286.696 123.114 286.248 123.002C285.816 122.89 285.36 122.834 284.88 122.834C284.336 122.834 283.84 122.922 283.392 123.098C282.96 123.274 282.584 123.53 282.264 123.866C281.944 124.186 281.696 124.57 281.52 125.018C281.344 125.45 281.256 125.93 281.256 126.458H279.72C279.72 125.69 279.848 125.002 280.104 124.394C280.376 123.77 280.792 123.194 281.352 122.666C281.88 122.186 282.472 121.882 283.128 121.754C283.8 121.61 284.488 121.538 285.192 121.538C285.864 121.538 286.488 121.626 287.064 121.802C287.656 121.962 288.168 122.218 288.6 122.57C289.032 122.906 289.376 123.338 289.632 123.866C289.888 124.394 290.016 125.01 290.016 125.714C290.016 126.594 289.816 127.354 289.416 127.994C289.032 128.634 288.432 129.13 287.616 129.482C288.224 129.674 288.72 129.93 289.104 130.25C289.504 130.554 289.816 130.898 290.04 131.282C290.264 131.65 290.416 132.042 290.496 132.458C290.576 132.874 290.616 133.274 290.616 133.658C290.616 134.362 290.496 135.018 290.256 135.626C290.016 136.234 289.664 136.77 289.2 137.234C288.736 137.698 288.16 138.074 287.472 138.362C286.8 138.634 286.032 138.778 285.168 138.794C284.192 138.794 283.344 138.706 282.624 138.53C281.904 138.354 281.304 138.066 280.824 137.666C280.344 137.25 279.968 136.714 279.696 136.058C279.424 135.386 279.24 134.554 279.144 133.562H280.68C280.68 134.858 281.064 135.842 281.832 136.514C282.616 137.17 283.632 137.498 284.88 137.498C285.488 137.498 286.056 137.394 286.584 137.186C287.112 136.978 287.56 136.698 287.928 136.346C288.312 135.994 288.6 135.586 288.792 135.122C289 134.658 289.096 134.178 289.08 133.682C289.048 132.994 288.888 132.426 288.6 131.978C288.312 131.514 287.92 131.154 287.424 130.898C286.944 130.626 286.376 130.45 285.72 130.37C285.064 130.274 284.368 130.25 283.632 130.298V129.05ZM297.544 129.626L291.736 121.322H293.656L298.504 128.498L303.52 121.322H305.344L299.488 129.674L305.68 138.458H303.712L298.504 130.898L293.224 138.458H291.4L297.544 129.626Z" fill="#042245"/>
<path d="M18.2081 18.6265L12.4001 10.3225H14.3201L19.1681 17.4985L24.1841 10.3225H26.0081L20.1521 18.6745L26.3441 27.4585H24.3761L19.1681 19.8985L13.8881 27.4585H12.0641L18.2081 18.6265Z" fill="#042245"/>
<path d="M291.208 54.6265L285.4 46.3225H287.32L292.168 53.4985L297.184 46.3225H299.008L293.152 54.6745L299.344 63.4585H297.376L292.168 55.8985L286.888 63.4585H285.064L291.208 54.6265Z" fill="#042245"/>
<rect x="37.9434" y="37.4585" width="512" height="186" stroke="black"/>
<rect x="1.44336" y="0.958496" width="585" height="259" stroke="black"/>
<path fill-rule="evenodd" clip-rule="evenodd" d="M159.856 52.2881L167.03 94.3597C169.416 108.351 149.833 114.19 144.167 101.176L150.586 98.3817C152.951 103.814 161.126 101.377 160.13 95.5363L152.956 53.4647L159.856 52.2881Z" fill="#042245"/>
<path fill-rule="evenodd" clip-rule="evenodd" d="M98.6796 42.764C110.739 36.3563 125.268 36.7037 137.007 43.6805C141.97 46.6299 147.636 48.1866 153.409 48.1866H156.154V55.1866H153.409C146.377 55.1866 139.476 53.2905 133.431 49.698C123.793 43.9701 111.865 43.6849 101.964 48.9456L90.9886 54.7774L87.7041 48.5958L98.6796 42.764Z" fill="#042245"/>
<path fill-rule="evenodd" clip-rule="evenodd" d="M213.63 42.7636C201.57 36.3558 187.041 36.7032 175.302 43.68C170.339 46.6294 164.673 48.1861 158.9 48.1861H156.155V55.1861H158.9C165.932 55.1861 172.833 53.29 178.878 49.6975C188.516 43.9696 200.444 43.6844 210.345 48.9451L221.32 54.7769L224.605 48.5953L213.63 42.7636Z" fill="#042245"/>
<path fill-rule="evenodd" clip-rule="evenodd" d="M137.41 174.973L129.377 171.276L132.304 164.917L140.337 168.614C150.976 173.51 163.24 173.432 173.816 168.402L181.102 164.937L184.108 171.258L176.823 174.723C164.372 180.645 149.935 180.737 137.41 174.973Z" fill="#042245"/>
<path fill-rule="evenodd" clip-rule="evenodd" d="M215.396 118.36C218.779 106.478 233.058 100.778 248.297 106.451C259.924 110.779 266.443 124.067 264.665 137.073C262.509 152.847 247.505 163.942 231.337 161.957C215.474 160.01 208.435 152.425 199.722 143.036C197.071 140.179 194.265 137.155 191.009 134.073C185.651 129.001 180.895 124.792 175.49 121.908C169.969 118.963 163.954 117.488 156.144 117.488V124.488C162.969 124.488 167.825 125.753 172.195 128.085C176.681 130.478 180.836 134.082 186.197 139.156C188.843 141.661 191.301 144.326 193.763 146.996C202.784 156.776 211.863 166.62 230.484 168.905C250.228 171.329 268.896 157.808 271.601 138.021C273.721 122.51 266.086 105.604 250.739 99.8909C233.26 93.3842 213.58 99.1718 208.664 116.443C207.209 121.555 206.996 126.389 208.309 130.952C209.622 135.515 212.372 139.496 216.323 143.052C219.699 146.09 225.371 149.12 231.498 149.643C237.884 150.188 244.741 147.97 249.543 140.565C254.705 132.608 251.675 124.102 246.241 119.748C243.519 117.568 239.981 116.232 236.293 116.634C232.495 117.048 229.042 119.251 226.57 123.192L232.499 126.912C233.986 124.544 235.65 123.745 237.051 123.593C238.562 123.428 240.303 123.961 241.864 125.211C244.996 127.72 246.543 132.328 243.671 136.756C240.44 141.737 236.222 143.021 232.094 142.668C227.706 142.294 223.424 140.026 221.005 137.849C217.795 134.959 215.909 132.049 215.036 129.016C214.163 125.982 214.214 122.514 215.396 118.36Z" fill="#042245"/>
<path fill-rule="evenodd" clip-rule="evenodd" d="M96.9123 118.36C93.5299 106.478 79.2503 100.778 64.0115 106.451C52.3847 110.779 45.8656 124.067 47.6435 137.073C49.7997 152.847 64.8034 163.942 80.9715 161.957C96.835 160.01 103.874 152.425 112.587 143.036C115.237 140.179 118.043 137.155 121.3 134.073C126.657 129.001 131.414 124.792 136.819 121.908C142.34 118.963 148.355 117.488 156.165 117.488V124.488C149.339 124.488 144.484 125.753 140.114 128.085C135.627 130.478 131.472 134.082 126.112 139.156C123.466 141.661 121.008 144.326 118.546 146.996C109.525 156.776 100.446 166.62 81.8242 168.905C62.0802 171.329 43.4128 157.808 40.708 138.021C38.5876 122.51 46.2224 105.604 61.5694 99.8909C79.0484 93.3842 98.7283 99.1718 103.645 116.443C105.1 121.555 105.313 126.389 104 130.952C102.687 135.515 99.937 139.496 95.986 143.052C92.61 146.09 86.9372 149.12 80.8105 149.643C74.4244 150.188 67.5679 147.97 62.7652 140.565C57.6038 132.608 60.6338 124.102 66.0675 119.748C68.7892 117.568 72.328 116.232 76.0156 116.634C79.8131 117.048 83.2661 119.251 85.7387 123.192L79.8092 126.912C78.323 124.544 76.6583 123.745 75.2571 123.593C73.7461 123.428 72.0053 123.961 70.4444 125.211C67.3128 127.72 65.7654 132.328 68.6379 136.756C71.8689 141.737 76.0866 143.021 80.2149 142.668C84.6026 142.294 88.8844 140.026 91.3032 137.849C94.5135 134.959 96.3998 132.049 97.2727 129.016C98.1457 125.982 98.0949 122.514 96.9123 118.36Z" fill="#042245"/>
<path fill-rule="evenodd" clip-rule="evenodd" d="M266.856 161.718C266.826 166.302 265.235 170.659 263.452 174.033C259.992 180.578 253.473 185.199 245.591 187.495C237.71 189.791 228.753 189.666 220.89 186.984C212.164 184.009 206.746 178.759 202.292 172.237C200.033 168.929 198.042 165.322 195.977 161.474C195.706 160.969 195.434 160.46 195.159 159.946C193.368 156.595 191.491 153.085 189.382 149.644C185.455 143.235 180.92 136.971 175.546 132.286C170.132 127.566 163.703 124.314 156.11 124.314L156.11 131.314C161.541 131.314 166.4 133.599 170.946 137.562C175.532 141.561 179.629 147.126 183.414 153.302C185.407 156.553 187.178 159.866 188.977 163.229C189.253 163.746 189.53 164.264 189.809 164.784C191.876 168.637 194.021 172.538 196.512 176.185C201.556 183.573 208.088 190.015 218.631 193.61C227.89 196.767 238.32 196.905 247.549 194.216C256.776 191.527 265.088 185.915 269.64 177.305C271.73 173.351 273.816 167.863 273.856 161.764C273.897 155.544 271.8 148.875 265.834 142.842L260.856 147.763C265.445 152.405 266.886 157.255 266.856 161.718Z" fill="#042245"/>
<path fill-rule="evenodd" clip-rule="evenodd" d="M45.4529 161.718C45.4829 166.302 47.0741 170.659 48.8575 174.033C52.3173 180.578 58.8366 185.199 66.7185 187.495C74.5993 189.791 83.5561 189.666 91.4193 186.984C100.145 184.009 105.563 178.759 110.017 172.237C112.276 168.929 114.267 165.322 116.332 161.474C116.603 160.969 116.875 160.46 117.15 159.946C118.941 156.595 120.818 153.085 122.927 149.644C126.854 143.235 131.389 136.971 136.763 132.286C142.177 127.566 148.606 124.314 156.199 124.314L156.199 131.314C150.768 131.314 145.909 133.599 141.363 137.562C136.777 141.561 132.68 147.126 128.895 153.302C126.902 156.553 125.131 159.866 123.333 163.229C123.056 163.746 122.779 164.264 122.5 164.784C120.433 168.637 118.288 172.538 115.798 176.185C110.753 183.573 104.221 190.015 93.6785 193.61C84.4191 196.767 73.9888 196.905 64.7604 194.216C55.5331 191.527 47.2208 185.915 42.6691 177.305C40.5791 173.351 38.493 167.863 38.453 161.764C38.4122 155.544 40.5092 148.875 46.4751 142.842L51.4527 147.763C46.8637 152.405 45.4236 157.255 45.4529 161.718Z" fill="#042245"/>
<path fill-rule="evenodd" clip-rule="evenodd" d="M258.748 198.283C257.13 203.23 253.68 207.363 250.74 209.485C237.988 218.688 219.337 218.784 205.498 209.424C197.862 204.259 194.014 197.769 191.432 190.306C190.122 186.521 189.15 182.516 188.169 178.261C188.041 177.703 187.912 177.139 187.782 176.572C186.934 172.867 186.047 168.988 184.917 165.113C182.747 157.675 178.853 149.411 174.047 142.932C171.641 139.69 168.925 136.785 165.977 134.662C163.036 132.545 159.667 131.07 156.042 131.07L156.042 138.07C157.732 138.07 159.693 138.764 161.887 140.343C164.074 141.918 166.297 144.236 168.425 147.104C172.685 152.845 176.234 160.342 178.197 167.073C179.264 170.734 180.102 174.396 180.954 178.113C181.084 178.685 181.216 179.258 181.348 179.833C182.33 184.093 183.373 188.421 184.817 192.595C187.742 201.049 192.35 208.981 201.576 215.222C217.707 226.132 239.567 226.182 254.837 215.161C258.89 212.236 263.29 206.914 265.401 200.459C267.564 193.849 267.331 185.96 261.816 178.5L256.187 182.661C260.158 188.033 260.316 193.491 258.748 198.283Z" fill="#042245"/>
<path fill-rule="evenodd" clip-rule="evenodd" d="M53.5721 198.278C55.1906 203.225 58.6403 207.358 61.58 209.48C74.332 218.683 92.983 218.779 106.822 209.419C114.458 204.254 118.306 197.764 120.888 190.301C122.198 186.516 123.171 182.512 124.151 178.256C124.28 177.698 124.409 177.134 124.538 176.567C125.386 172.862 126.274 168.983 127.404 165.108C129.573 157.67 133.467 149.406 138.274 142.928C140.679 139.685 143.395 136.78 146.343 134.657C149.284 132.54 152.654 131.065 156.278 131.065L156.278 138.065C154.588 138.065 152.627 138.759 150.433 140.338C148.247 141.913 146.023 144.231 143.895 147.099C139.635 152.84 136.087 160.337 134.124 167.068C133.056 170.729 132.218 174.391 131.367 178.108C131.236 178.68 131.105 179.253 130.972 179.828C129.991 184.088 128.947 188.417 127.503 192.59C124.578 201.044 119.971 208.977 110.744 215.217C94.6131 226.127 72.7538 226.177 57.4834 215.156C53.4306 212.231 49.0306 206.909 46.9191 200.454C44.7567 193.845 44.9891 185.955 50.5043 178.495L56.1332 182.656C52.162 188.028 52.0046 193.486 53.5721 198.278Z" fill="#042245"/>
<path d="M309.815 187.262V181.914C313.92 181.698 316.729 180.78 318.241 179.16C319.754 177.431 320.564 175.109 320.672 172.192C320.888 169.168 320.996 165.765 320.996 161.984V91.9846C320.996 89.8241 321.05 87.7716 321.158 85.8272C321.266 83.7748 321.374 81.9384 321.482 80.318C319.538 80.426 317.593 80.534 315.649 80.6421C313.704 80.7501 311.76 80.8581 309.815 80.9661V73.8366H346.273V79.1837C342.277 79.2918 339.468 80.21 337.848 81.9384C336.335 83.6667 335.471 85.9893 335.255 88.9059C335.147 91.8225 335.093 95.2253 335.093 99.1141V168.627C335.093 171.544 335.039 174.029 334.931 176.081C334.931 178.134 334.823 179.862 334.607 181.266L364.908 180.78C371.713 180.672 376.844 178.512 380.301 174.299C383.866 170.086 385.648 163.226 385.648 153.72H391.157L390.185 187.262H309.815Z" fill="#042245"/>
<path d="M439.95 79.1837C435.953 79.2918 433.145 80.21 431.524 81.9384C430.012 83.6667 429.148 85.9893 428.932 88.9059C428.824 91.8225 428.77 95.2253 428.77 99.1141V167.979C428.77 170.896 428.716 173.434 428.608 175.595C428.608 177.647 428.5 179.376 428.284 180.78C430.228 180.672 432.173 180.564 434.117 180.456C436.061 180.348 438.006 180.24 439.95 180.132V187.262H403.492V181.914C407.597 181.698 410.406 180.78 411.918 179.16C413.43 177.431 414.241 175.109 414.349 172.192C414.565 169.168 414.673 165.765 414.673 161.984V91.9846C414.673 89.8241 414.727 87.7716 414.835 85.8272C414.943 83.7748 415.051 81.9384 415.159 80.318C413.214 80.426 411.27 80.534 409.326 80.6421C407.381 80.7501 405.437 80.8581 403.492 80.9661V73.8366H439.95V79.1837Z" fill="#042245"/>
<path d="M457.768 187.262V181.914C461.873 181.698 464.681 180.78 466.194 179.16C467.706 177.431 468.516 175.109 468.624 172.192C468.84 169.168 468.948 165.765 468.948 161.984V91.9846C468.948 89.8241 469.002 87.7716 469.11 85.8272C469.218 83.7748 469.326 81.9384 469.434 80.318C467.49 80.426 465.546 80.534 463.601 80.6421C461.657 80.7501 459.712 80.8581 457.768 80.9661V73.8366C463.817 73.7285 469.921 73.6205 476.078 73.5125C482.343 73.4045 488.609 73.4585 494.874 73.6745C505.352 73.7826 513.778 75.0248 520.152 77.4014C526.633 79.6699 531.386 82.9646 534.411 87.2855C537.435 91.4985 538.948 96.6296 538.948 102.679C539.056 106.892 538.246 111.213 536.517 115.642C534.897 119.963 531.872 123.852 527.443 127.308C523.122 130.765 516.857 133.358 508.647 135.086C510.808 136.598 512.698 138.543 514.318 140.919C515.939 143.296 517.775 146.05 519.827 149.183L530.846 166.521C532.682 169.438 534.465 172.084 536.193 174.461C537.921 176.729 539.92 178.566 542.188 179.97C544.457 181.266 547.266 181.914 550.614 181.914V187.262H530.198C527.065 184.453 524.419 181.644 522.258 178.836C520.206 176.027 518.045 172.84 515.777 169.276L504.92 151.938C503.516 149.669 501.896 147.077 500.059 144.16C498.331 141.135 496.332 138.597 494.064 136.544C492.335 136.652 490.499 136.706 488.555 136.706C486.718 136.706 484.882 136.652 483.045 136.544V167.979C483.045 170.896 482.991 173.434 482.883 175.595C482.883 177.647 482.775 179.376 482.559 180.78C483.856 180.672 485.152 180.618 486.448 180.618C487.744 180.51 489.041 180.402 490.337 180.294C491.633 180.186 492.93 180.132 494.226 180.132V187.262H457.768ZM493.092 130.549C499.033 130.333 504.218 129.361 508.647 127.632C513.184 125.904 516.749 123.149 519.341 119.369C521.934 115.588 523.23 110.619 523.23 104.461C523.23 100.356 522.636 96.7916 521.448 93.767C520.368 90.6343 518.639 88.0417 516.263 85.9893C513.886 83.9368 510.862 82.4245 507.189 81.4522C503.516 80.372 499.195 79.8319 494.226 79.8319C490.229 79.8319 487.42 80.6421 485.8 82.2624C484.288 83.8828 483.423 86.1513 483.207 89.0679C483.099 91.8765 483.045 95.2253 483.045 99.1141V130.225C484.774 130.333 486.394 130.441 487.906 130.549C489.527 130.657 491.255 130.657 493.092 130.549Z" fill="#042245"/>
<path d="M309.815 187.262V181.914C313.92 181.698 316.729 180.78 318.241 179.16C319.754 177.431 320.564 175.109 320.672 172.192C320.888 169.168 320.996 165.765 320.996 161.984V91.9846C320.996 89.8241 321.05 87.7716 321.158 85.8272C321.266 83.7748 321.374 81.9384 321.482 80.318C319.538 80.426 317.593 80.534 315.649 80.6421C313.704 80.7501 311.76 80.8581 309.815 80.9661V73.8366H346.273V79.1837C342.277 79.2918 339.468 80.21 337.848 81.9384C336.335 83.6667 335.471 85.9893 335.255 88.9059C335.147 91.8225 335.093 95.2253 335.093 99.1141V168.627C335.093 171.544 335.039 174.029 334.931 176.081C334.931 178.134 334.823 179.862 334.607 181.266L364.908 180.78C371.713 180.672 376.844 178.512 380.301 174.299C383.866 170.086 385.648 163.226 385.648 153.72H391.157L390.185 187.262H309.815Z" stroke="white"/>
<path d="M439.95 79.1837C435.953 79.2918 433.145 80.21 431.524 81.9384C430.012 83.6667 429.148 85.9893 428.932 88.9059C428.824 91.8225 428.77 95.2253 428.77 99.1141V167.979C428.77 170.896 428.716 173.434 428.608 175.595C428.608 177.647 428.5 179.376 428.284 180.78C430.228 180.672 432.173 180.564 434.117 180.456C436.061 180.348 438.006 180.24 439.95 180.132V187.262H403.492V181.914C407.597 181.698 410.406 180.78 411.918 179.16C413.43 177.431 414.241 175.109 414.349 172.192C414.565 169.168 414.673 165.765 414.673 161.984V91.9846C414.673 89.8241 414.727 87.7716 414.835 85.8272C414.943 83.7748 415.051 81.9384 415.159 80.318C413.214 80.426 411.27 80.534 409.326 80.6421C407.381 80.7501 405.437 80.8581 403.492 80.9661V73.8366H439.95V79.1837Z" stroke="white"/>
<path d="M457.768 187.262V181.914C461.873 181.698 464.681 180.78 466.194 179.16C467.706 177.431 468.516 175.109 468.624 172.192C468.84 169.168 468.948 165.765 468.948 161.984V91.9846C468.948 89.8241 469.002 87.7716 469.11 85.8272C469.218 83.7748 469.326 81.9384 469.434 80.318C467.49 80.426 465.546 80.534 463.601 80.6421C461.657 80.7501 459.712 80.8581 457.768 80.9661V73.8366C463.817 73.7285 469.921 73.6205 476.078 73.5125C482.343 73.4045 488.609 73.4585 494.874 73.6745C505.352 73.7826 513.778 75.0248 520.152 77.4014C526.633 79.6699 531.386 82.9646 534.411 87.2855C537.435 91.4985 538.948 96.6296 538.948 102.679C539.056 106.892 538.246 111.213 536.517 115.642C534.897 119.963 531.872 123.852 527.443 127.308C523.122 130.765 516.857 133.358 508.647 135.086C510.808 136.598 512.698 138.543 514.318 140.919C515.939 143.296 517.775 146.05 519.827 149.183L530.846 166.521C532.682 169.438 534.465 172.084 536.193 174.461C537.921 176.729 539.92 178.566 542.188 179.97C544.457 181.266 547.266 181.914 550.614 181.914V187.262H530.198C527.065 184.453 524.419 181.644 522.258 178.836C520.206 176.027 518.045 172.84 515.777 169.276L504.92 151.938C503.516 149.669 501.896 147.077 500.059 144.16C498.331 141.135 496.332 138.597 494.064 136.544C492.335 136.652 490.499 136.706 488.555 136.706C486.718 136.706 484.882 136.652 483.045 136.544V167.979C483.045 170.896 482.991 173.434 482.883 175.595C482.883 177.647 482.775 179.376 482.559 180.78C483.856 180.672 485.152 180.618 486.448 180.618C487.744 180.51 489.041 180.402 490.337 180.294C491.633 180.186 492.93 180.132 494.226 180.132V187.262H457.768ZM493.092 130.549C499.033 130.333 504.218 129.361 508.647 127.632C513.184 125.904 516.749 123.149 519.341 119.369C521.934 115.588 523.23 110.619 523.23 104.461C523.23 100.356 522.636 96.7916 521.448 93.767C520.368 90.6343 518.639 88.0417 516.263 85.9893C513.886 83.9368 510.862 82.4245 507.189 81.4522C503.516 80.372 499.195 79.8319 494.226 79.8319C490.229 79.8319 487.42 80.6421 485.8 82.2624C484.288 83.8828 483.423 86.1513 483.207 89.0679C483.099 91.8765 483.045 95.2253 483.045 99.1141V130.225C484.774 130.333 486.394 130.441 487.906 130.549C489.527 130.657 491.255 130.657 493.092 130.549Z" stroke="white"/>
<path d="M273.943 73.4585L550.943 73.4585" stroke="black"/>
<path d="M1.94336 37.4585L586.943 37.4585" stroke="black"/>
<path d="M1.94336 223.458L586.943 223.459" stroke="black"/>
<path d="M273.943 187.458L549.943 187.459" stroke="black"/>
<path d="M273.943 37.4585V223.458" stroke="black"/>
<path d="M309.943 37.4585V223.458" stroke="black"/>
<path d="M37.9434 1.4585L37.9434 259.458" stroke="black"/>
<path d="M549.943 1.4585L549.943 259.458" stroke="black"/>
</svg>
