<svg width="437" height="251" viewBox="0 0 437 251" fill="none" xmlns="http://www.w3.org/2000/svg">
<path fill-rule="evenodd" clip-rule="evenodd" d="M106.889 18.0894L112.95 70.2296C114.965 87.5696 98.4219 94.8052 93.6357 78.677L99.0578 75.2142C101.056 81.9468 107.962 78.9264 107.12 71.6878L101.06 19.5476L106.889 18.0894Z" fill="#042245"/>
<path fill-rule="evenodd" clip-rule="evenodd" d="M55.2085 6.28551C65.3962 -1.65572 77.6699 -1.2252 87.5872 7.42127C91.7798 11.0766 96.5666 13.0058 101.444 13.0058H103.763V21.681H101.444C95.5033 21.681 89.6727 19.3312 84.5661 14.8789C76.4239 7.78021 66.3473 7.42674 57.9833 13.9465L48.7113 21.1739L45.9365 13.5129L55.2085 6.28551Z" fill="#042245"/>
<path fill-rule="evenodd" clip-rule="evenodd" d="M152.315 6.28502C142.128 -1.65621 129.854 -1.22568 119.937 7.42078C115.744 11.0761 110.957 13.0053 106.08 13.0053H103.761V21.6805H106.08C112.021 21.6805 117.851 19.3307 122.958 14.8784C131.1 7.77972 141.177 7.42626 149.541 13.946L158.813 21.1734L161.587 13.5124L152.315 6.28502Z" fill="#042245"/>
<path fill-rule="evenodd" clip-rule="evenodd" d="M87.93 170.134L81.144 165.553L83.6163 157.672L90.4022 162.253C99.3903 168.321 109.75 168.225 118.685 161.991L124.84 157.696L127.38 165.53L121.226 169.825C110.707 177.164 98.5109 177.277 87.93 170.134Z" fill="#042245"/>
<path fill-rule="evenodd" clip-rule="evenodd" d="M153.812 99.9748C156.669 85.2489 168.732 78.1857 181.606 85.2161C191.428 90.5801 196.936 107.048 195.434 123.167C193.612 142.715 180.937 156.466 167.278 154.006C153.877 151.593 147.931 142.193 140.57 130.556C138.331 127.016 135.96 123.269 133.21 119.448C128.683 113.163 124.665 107.946 120.099 104.373C115.435 100.723 110.353 98.8946 103.756 98.8946V107.57C109.522 107.57 113.623 109.137 117.316 112.027C121.106 114.993 124.616 119.459 129.144 125.748C131.38 128.853 133.456 132.156 135.536 135.464C143.157 147.585 150.826 159.784 166.558 162.617C183.238 165.62 199.008 148.863 201.293 124.342C203.084 105.119 196.634 84.1663 183.669 77.0859C168.903 69.022 152.278 76.1947 148.124 97.5996C146.895 103.935 146.715 109.925 147.824 115.58C148.934 121.235 151.256 126.169 154.594 130.576C157.446 134.341 162.239 138.096 167.414 138.745C172.809 139.421 178.602 136.671 182.659 127.495C187.019 117.633 184.459 107.091 179.869 101.696C177.57 98.9932 174.58 97.3377 171.465 97.8359C168.257 98.3488 165.34 101.08 163.251 105.963L168.26 110.574C169.516 107.639 170.922 106.649 172.106 106.46C173.382 106.256 174.853 106.916 176.172 108.466C178.817 111.576 180.124 117.285 177.698 122.774C174.968 128.947 171.405 130.538 167.917 130.101C164.211 129.637 160.594 126.826 158.55 124.128C155.838 120.547 154.245 116.941 153.507 113.181C152.77 109.422 152.813 105.124 153.812 99.9748Z" fill="#042245"/>
<path fill-rule="evenodd" clip-rule="evenodd" d="M53.7195 99.9748C50.8621 85.2489 38.7988 78.1857 25.9252 85.2161C16.103 90.5801 10.5957 107.048 12.0977 123.167C13.9193 142.715 26.5942 156.466 40.2529 154.006C53.6543 151.593 59.6004 142.193 66.9612 130.556C69.2005 127.016 71.5708 123.269 74.3217 119.448C78.8478 113.163 82.8664 107.946 87.4323 104.373C92.0961 100.723 97.1778 98.8946 103.775 98.8946V107.57C98.0093 107.57 93.9078 109.137 90.2157 112.027C86.4256 114.993 82.9156 119.459 78.3871 125.748C76.1515 128.853 74.0752 132.156 71.9953 135.464C64.3744 147.585 56.7048 159.784 40.9733 162.617C24.2937 165.62 8.52366 148.863 6.23865 124.342C4.44738 105.119 10.8971 84.1663 23.8622 77.0859C38.6283 69.022 55.2537 76.1947 59.4071 97.5996C60.6364 103.935 60.8162 109.925 59.707 115.58C58.5976 121.235 56.2748 126.169 52.937 130.576C50.085 134.341 45.2927 138.096 40.1169 138.745C34.722 139.421 28.9297 136.671 24.8723 127.495C20.5121 117.633 23.0718 107.091 27.6621 101.696C29.9614 98.9932 32.951 97.3377 36.0662 97.8359C39.2743 98.3488 42.1914 101.08 44.2802 105.963L39.2711 110.574C38.0155 107.639 36.6092 106.649 35.4255 106.46C34.149 106.256 32.6783 106.916 31.3597 108.466C28.7142 111.576 27.4069 117.285 29.8336 122.774C32.5631 128.947 36.1262 130.538 39.6138 130.101C43.3204 129.637 46.9377 126.826 48.9811 124.128C51.6931 120.547 53.2866 116.941 54.0241 113.181C54.7616 109.422 54.7186 105.124 53.7195 99.9748Z" fill="#042245"/>
<path fill-rule="evenodd" clip-rule="evenodd" d="M197.286 153.71C197.261 159.391 195.916 164.791 194.41 168.972C191.487 177.083 185.98 182.81 179.321 185.656C172.663 188.502 165.097 188.346 158.454 185.023C151.083 181.335 146.505 174.829 142.743 166.747C140.835 162.647 139.152 158.176 137.408 153.408C137.179 152.782 136.949 152.15 136.717 151.514C135.203 147.361 133.618 143.011 131.836 138.746C128.519 130.804 124.688 123.04 120.148 117.234C115.574 111.384 110.143 107.354 103.729 107.354L103.729 116.029C108.317 116.029 112.422 118.861 116.262 123.773C120.136 128.729 123.597 135.626 126.794 143.279C128.478 147.309 129.974 151.414 131.494 155.582C131.728 156.223 131.962 156.865 132.197 157.509C133.944 162.284 135.756 167.119 137.859 171.639C142.121 180.795 147.639 188.778 156.545 193.234C164.368 197.147 173.179 197.317 180.975 193.985C188.77 190.653 195.792 183.697 199.638 173.027C201.403 168.127 203.166 161.325 203.199 153.767C203.234 146.059 201.462 137.794 196.422 130.316L192.217 136.415C196.094 142.168 197.311 148.179 197.286 153.71Z" fill="#042245"/>
<path fill-rule="evenodd" clip-rule="evenodd" d="M10.2424 153.71C10.2678 159.391 11.612 164.791 13.1186 168.972C16.0414 177.083 21.5488 182.81 28.2074 185.656C34.8651 188.502 42.4316 188.346 49.0744 185.023C56.4456 181.335 61.0232 174.829 64.7854 166.747C66.6937 162.647 68.3761 158.176 70.1203 153.408C70.3492 152.782 70.5794 152.15 70.8112 151.514C72.3249 147.361 73.9102 143.011 75.6918 138.746C79.0097 130.804 82.8408 123.04 87.3804 117.234C91.9542 111.384 97.3852 107.354 103.8 107.354L103.8 116.029C99.2118 116.029 95.1068 118.861 91.2666 123.773C87.3921 128.729 83.931 135.626 80.7339 143.279C79.0503 147.309 77.5539 151.414 76.0345 155.582C75.8008 156.223 75.5666 156.865 75.3311 157.509C73.5847 162.284 71.7727 167.119 69.669 171.639C65.4071 180.795 59.8896 188.778 50.983 193.234C43.1607 197.147 34.3493 197.317 26.5532 193.985C18.7581 190.653 11.7359 183.697 7.89067 173.027C6.12502 168.127 4.36275 161.325 4.32894 153.767C4.29447 146.059 6.06595 137.794 11.1059 130.316L15.311 136.415C11.4342 142.168 10.2176 148.179 10.2424 153.71Z" fill="#042245"/>
<path fill-rule="evenodd" clip-rule="evenodd" d="M190.437 199.027C189.07 205.159 186.155 210.281 183.672 212.91C172.899 224.316 157.143 224.435 145.452 212.835C139.001 206.434 135.75 198.391 133.569 189.142C132.462 184.45 131.641 179.488 130.812 174.214C130.704 173.522 130.595 172.824 130.485 172.12C129.769 167.529 129.019 162.721 128.065 157.919C126.232 148.701 122.942 138.459 118.882 130.43C116.849 126.412 114.555 122.811 112.064 120.181C109.58 117.557 106.734 115.729 103.672 115.729L103.672 124.404C105.1 124.404 106.756 125.264 108.609 127.222C110.457 129.173 112.335 132.046 114.133 135.6C117.732 142.715 120.729 152.007 122.388 160.348C123.29 164.886 123.998 169.423 124.717 174.031C124.827 174.739 124.938 175.449 125.05 176.162C125.879 181.442 126.761 186.806 127.98 191.978C130.451 202.455 134.344 212.286 142.139 220.021C155.766 233.542 174.232 233.603 187.133 219.944C190.557 216.319 194.274 209.724 196.057 201.725C197.884 193.533 197.688 183.756 193.029 174.51L188.273 179.667C191.628 186.324 191.761 193.089 190.437 199.027Z" fill="#042245"/>
<path fill-rule="evenodd" clip-rule="evenodd" d="M17.1026 199.019C18.4699 205.15 21.3842 210.272 23.8676 212.901C34.6404 224.307 50.3966 224.426 62.0879 212.826C68.5389 206.425 71.7893 198.382 73.9707 189.133C75.0771 184.441 75.8989 179.479 76.7271 174.205C76.8358 173.513 76.9447 172.815 77.0544 172.112C77.7704 167.521 78.5204 162.712 79.4749 157.91C81.3074 148.692 84.5971 138.45 88.6579 130.422C90.6902 126.404 92.9846 122.803 95.4751 120.172C97.9594 117.548 100.806 115.72 103.868 115.72L103.868 124.395C102.44 124.395 100.784 125.255 98.9302 127.213C97.0828 129.164 95.2044 132.037 93.4069 135.591C89.808 142.706 86.8102 151.998 85.152 160.339C84.2499 164.877 83.5419 169.414 82.823 174.022C82.7124 174.73 82.6015 175.441 82.4897 176.153C81.6605 181.433 80.7789 186.797 79.5592 191.969C77.0882 202.447 73.1957 212.278 65.401 220.012C51.7737 233.533 33.3071 233.594 20.4069 219.936C16.983 216.311 13.266 209.715 11.4822 201.716C9.65542 193.524 9.85176 183.747 14.5109 174.501L19.2662 179.658C15.9114 186.315 15.7784 193.08 17.1026 199.019Z" fill="#042245"/>
<path d="M233.575 185.365V178.738C237.042 178.47 239.415 177.332 240.693 175.324C241.97 173.182 242.655 170.304 242.746 166.689C242.929 162.941 243.02 158.723 243.02 154.038V67.286C243.02 64.6084 243.065 62.0648 243.157 59.655C243.248 57.1113 243.339 54.8355 243.431 52.8273C241.788 52.9612 240.145 53.0951 238.503 53.2289C236.86 53.3628 235.217 53.4967 233.575 53.6306V44.7947H264.374V51.4216C260.998 51.5555 258.625 52.6934 257.256 54.8355C255.978 56.9775 255.248 59.8558 255.066 63.4705C254.975 67.0851 254.929 71.3022 254.929 76.1218V162.271C254.929 165.886 254.883 168.965 254.792 171.509C254.792 174.052 254.701 176.194 254.518 177.935L280.116 177.332C285.865 177.198 290.2 174.521 293.12 169.3C296.132 164.078 297.638 155.577 297.638 143.796H302.292L301.47 185.365H233.575Z" fill="#042245"/>
<path d="M343.512 51.4216C340.135 51.5555 337.762 52.6934 336.393 54.8355C335.116 56.9775 334.386 59.8558 334.203 63.4705C334.112 67.0851 334.066 71.3022 334.066 76.1218V161.468C334.066 165.083 334.021 168.229 333.93 170.906C333.93 173.45 333.838 175.592 333.656 177.332C335.298 177.198 336.941 177.064 338.584 176.931C340.226 176.797 341.869 176.663 343.512 176.529V185.365H312.712V178.738C316.18 178.47 318.553 177.332 319.83 175.324C321.108 173.182 321.792 170.304 321.884 166.689C322.066 162.941 322.157 158.723 322.157 154.038V67.286C322.157 64.6084 322.203 62.0648 322.294 59.655C322.385 57.1113 322.477 54.8355 322.568 52.8273C320.925 52.9612 319.283 53.0951 317.64 53.2289C315.997 53.3628 314.355 53.4967 312.712 53.6306V44.7947H343.512V51.4216Z" fill="#042245"/>
<path d="M358.564 185.365V178.738C362.032 178.47 364.404 177.332 365.682 175.324C366.959 173.182 367.644 170.304 367.735 166.689C367.918 162.941 368.009 158.723 368.009 154.038V67.286C368.009 64.6084 368.055 62.0648 368.146 59.655C368.237 57.1113 368.328 54.8355 368.42 52.8273C366.777 52.9612 365.134 53.0951 363.492 53.2289C361.849 53.3628 360.206 53.4967 358.564 53.6306V44.7947C363.674 44.6609 368.83 44.527 374.032 44.3931C379.325 44.2592 384.618 44.3262 389.911 44.5939C398.763 44.7278 405.881 46.2674 411.265 49.2127C416.74 52.0241 420.756 56.1073 423.311 61.4623C425.866 66.6835 427.144 73.0426 427.144 80.5397C427.235 85.7609 426.551 91.1159 425.091 96.6048C423.722 101.96 421.166 106.779 417.425 111.063C413.775 115.348 408.482 118.561 401.546 120.703C403.371 122.577 404.968 124.987 406.337 127.932C407.706 130.877 409.257 134.291 410.991 138.173L420.299 159.661C421.851 163.275 423.357 166.555 424.817 169.5C426.277 172.312 427.965 174.588 429.882 176.328C431.798 177.935 434.171 178.738 437 178.738V185.365H419.752C417.105 181.884 414.87 178.403 413.045 174.922C411.311 171.442 409.485 167.492 407.569 163.074L398.398 141.587C397.211 138.776 395.842 135.563 394.291 131.948C392.831 128.2 391.143 125.054 389.226 122.51C387.766 122.644 386.215 122.711 384.572 122.711C383.021 122.711 381.469 122.644 379.918 122.51V161.468C379.918 165.083 379.872 168.229 379.781 170.906C379.781 173.45 379.69 175.592 379.507 177.332C380.602 177.198 381.698 177.131 382.793 177.131C383.888 176.998 384.983 176.864 386.078 176.73C387.173 176.596 388.268 176.529 389.363 176.529V185.365H358.564ZM388.405 115.08C393.424 114.812 397.804 113.607 401.546 111.465C405.379 109.323 408.39 105.909 410.581 101.224C412.771 96.5379 413.866 90.3796 413.866 82.7486C413.866 77.6614 413.364 73.2434 412.36 69.4949C411.447 65.6125 409.987 62.3995 407.98 59.8558C405.972 57.3122 403.417 55.4379 400.314 54.233C397.211 52.8942 393.561 52.2249 389.363 52.2249C385.987 52.2249 383.614 53.2289 382.245 55.2371C380.967 57.2452 380.237 60.0566 380.055 63.6713C379.964 67.1521 379.918 71.3022 379.918 76.1218V114.678C381.378 114.812 382.747 114.946 384.025 115.08C385.393 115.214 386.854 115.214 388.405 115.08Z" fill="#042245"/>
<path d="M233.575 185.365V178.738C237.042 178.47 239.415 177.332 240.693 175.324C241.97 173.182 242.655 170.304 242.746 166.689C242.929 162.941 243.02 158.723 243.02 154.038V67.286C243.02 64.6084 243.065 62.0648 243.157 59.655C243.248 57.1113 243.339 54.8355 243.431 52.8273C241.788 52.9612 240.145 53.0951 238.503 53.2289C236.86 53.3628 235.217 53.4967 233.575 53.6306V44.7947H264.374V51.4216C260.998 51.5555 258.625 52.6934 257.256 54.8355C255.978 56.9775 255.248 59.8558 255.066 63.4705C254.975 67.0851 254.929 71.3022 254.929 76.1218V162.271C254.929 165.886 254.883 168.965 254.792 171.509C254.792 174.052 254.701 176.194 254.518 177.935L280.116 177.332C285.865 177.198 290.2 174.521 293.12 169.3C296.132 164.078 297.638 155.577 297.638 143.796H302.292L301.47 185.365H233.575Z" stroke="white"/>
<path d="M343.512 51.4216C340.135 51.5555 337.762 52.6934 336.393 54.8355C335.116 56.9775 334.386 59.8558 334.203 63.4705C334.112 67.0851 334.066 71.3022 334.066 76.1218V161.468C334.066 165.083 334.021 168.229 333.93 170.906C333.93 173.45 333.838 175.592 333.656 177.332C335.298 177.198 336.941 177.064 338.584 176.931C340.226 176.797 341.869 176.663 343.512 176.529V185.365H312.712V178.738C316.18 178.47 318.553 177.332 319.83 175.324C321.108 173.182 321.792 170.304 321.884 166.689C322.066 162.941 322.157 158.723 322.157 154.038V67.286C322.157 64.6084 322.203 62.0648 322.294 59.655C322.385 57.1113 322.477 54.8355 322.568 52.8273C320.925 52.9612 319.283 53.0951 317.64 53.2289C315.997 53.3628 314.355 53.4967 312.712 53.6306V44.7947H343.512V51.4216Z" stroke="white"/>
<path d="M358.564 185.365V178.738C362.032 178.47 364.404 177.332 365.682 175.324C366.959 173.182 367.644 170.304 367.735 166.689C367.918 162.941 368.009 158.723 368.009 154.038V67.286C368.009 64.6084 368.055 62.0648 368.146 59.655C368.237 57.1113 368.328 54.8355 368.42 52.8273C366.777 52.9612 365.134 53.0951 363.492 53.2289C361.849 53.3628 360.206 53.4967 358.564 53.6306V44.7947C363.674 44.6609 368.83 44.527 374.032 44.3931C379.325 44.2592 384.618 44.3262 389.911 44.5939C398.763 44.7278 405.881 46.2674 411.265 49.2127C416.74 52.0241 420.756 56.1073 423.311 61.4623C425.866 66.6835 427.144 73.0426 427.144 80.5397C427.235 85.7609 426.551 91.1159 425.091 96.6048C423.722 101.96 421.166 106.779 417.425 111.063C413.775 115.348 408.482 118.561 401.546 120.703C403.371 122.577 404.968 124.987 406.337 127.932C407.706 130.877 409.257 134.291 410.991 138.173L420.299 159.661C421.851 163.275 423.357 166.555 424.817 169.5C426.277 172.312 427.965 174.588 429.882 176.328C431.798 177.935 434.171 178.738 437 178.738V185.365H419.752C417.105 181.884 414.87 178.403 413.045 174.922C411.311 171.442 409.485 167.492 407.569 163.074L398.398 141.587C397.211 138.776 395.842 135.563 394.291 131.948C392.831 128.2 391.143 125.054 389.226 122.51C387.766 122.644 386.215 122.711 384.572 122.711C383.021 122.711 381.469 122.644 379.918 122.51V161.468C379.918 165.083 379.872 168.229 379.781 170.906C379.781 173.45 379.69 175.592 379.507 177.332C380.602 177.198 381.698 177.131 382.793 177.131C383.888 176.998 384.983 176.864 386.078 176.73C387.173 176.596 388.268 176.529 389.363 176.529V185.365H358.564ZM388.405 115.08C393.424 114.812 397.804 113.607 401.546 111.465C405.379 109.323 408.39 105.909 410.581 101.224C412.771 96.5379 413.866 90.3796 413.866 82.7486C413.866 77.6614 413.364 73.2434 412.36 69.4949C411.447 65.6125 409.987 62.3995 407.98 59.8558C405.972 57.3122 403.417 55.4379 400.314 54.233C397.211 52.8942 393.561 52.2249 389.363 52.2249C385.987 52.2249 383.614 53.2289 382.245 55.2371C380.967 57.2452 380.237 60.0566 380.055 63.6713C379.964 67.1521 379.918 71.3022 379.918 76.1218V114.678C381.378 114.812 382.747 114.946 384.025 115.08C385.393 115.214 386.854 115.214 388.405 115.08Z" stroke="white"/>
</svg>
