<svg width="1003" height="251" viewBox="0 0 1003 251" fill="none" xmlns="http://www.w3.org/2000/svg">
<path fill-rule="evenodd" clip-rule="evenodd" d="M895.241 12.5225L889.182 48.0519C887.168 59.8677 903.705 64.7982 908.49 53.8081L903.07 51.4484C901.072 56.0362 894.169 53.978 895.01 49.0455L901.068 13.5161L895.241 12.5225Z" fill="#042245"/>
<path fill-rule="evenodd" clip-rule="evenodd" d="M946.903 4.48032C936.718 -0.930996 924.449 -0.637627 914.535 5.25425C910.344 7.74504 905.559 9.05965 900.683 9.05965H898.365V14.9711H900.683C906.622 14.9711 912.45 13.3699 917.555 10.336C925.695 5.49883 935.768 5.25798 944.129 9.70065L953.398 14.6256L956.171 9.40523L946.903 4.48032Z" fill="#042245"/>
<path fill-rule="evenodd" clip-rule="evenodd" d="M849.832 4.47983C860.016 -0.931484 872.285 -0.638116 882.199 5.25376C886.39 7.74455 891.176 9.05916 896.051 9.05916H898.369V14.9707H896.051C890.113 14.9707 884.284 13.3694 879.179 10.3356C871.04 5.49835 860.967 5.25749 852.606 9.70016L843.337 14.6251L840.563 9.40474L849.832 4.47983Z" fill="#042245"/>
<path fill-rule="evenodd" clip-rule="evenodd" d="M914.192 116.131L920.976 113.009L918.505 107.639L911.721 110.761C902.736 114.895 892.38 114.83 883.448 110.582L877.295 107.655L874.756 112.994L880.909 115.92C891.423 120.921 903.615 120.998 914.192 116.131Z" fill="#042245"/>
<path fill-rule="evenodd" clip-rule="evenodd" d="M848.336 68.3226C845.48 58.2881 833.421 53.4751 820.551 58.2658C810.733 61.9209 805.227 73.1425 806.729 84.1261C808.55 97.4467 821.22 106.817 834.874 105.141C848.271 103.496 854.215 97.0909 861.573 89.1613C863.812 86.749 866.181 84.1956 868.931 81.5923C873.456 77.3091 877.473 73.7544 882.037 71.3194C886.699 68.8323 891.779 67.5866 898.375 67.5866V73.498C892.61 73.498 888.51 74.5662 884.82 76.5352C881.031 78.5563 877.522 81.5998 872.995 85.8853C870.76 88.0009 868.685 90.2513 866.605 92.5056C858.987 100.765 851.32 109.078 835.594 111.008C818.92 113.055 803.156 101.636 800.872 84.9268C799.081 71.8278 805.528 57.5504 818.489 52.7257C833.25 47.2308 849.87 52.1184 854.022 66.7042C855.251 71.0212 855.43 75.1032 854.321 78.9565C853.212 82.8099 850.89 86.1719 847.554 89.1749C844.703 91.7408 839.912 94.2995 834.738 94.7413C829.345 95.2018 823.555 93.3281 819.499 87.0752C815.14 80.3555 817.699 73.1719 822.288 69.4953C824.586 67.6538 827.575 66.5257 830.689 66.8651C833.896 67.2147 836.812 69.0756 838.9 72.4034L833.893 75.5453C832.637 73.545 831.232 72.8708 830.048 72.7418C828.772 72.6027 827.302 73.0526 825.984 74.1087C823.339 76.2276 822.033 80.1184 824.458 83.8582C827.187 88.0649 830.749 89.1489 834.235 88.8512C837.941 88.5348 841.556 86.6193 843.599 84.7809C846.31 82.3409 847.903 79.8834 848.64 77.3217C849.378 74.7598 849.335 71.8311 848.336 68.3226Z" fill="#042245"/>
<path fill-rule="evenodd" clip-rule="evenodd" d="M948.393 68.3226C951.249 58.2881 963.309 53.4751 976.178 58.2658C985.996 61.9209 991.502 73.1425 990 84.1261C988.179 97.4467 975.509 106.817 961.855 105.141C948.458 103.496 942.514 97.0909 935.156 89.1613C932.917 86.749 930.548 84.1956 927.798 81.5923C923.273 77.3091 919.256 73.7544 914.692 71.3194C910.03 68.8323 904.95 67.5866 898.354 67.5866V73.498C904.119 73.498 908.219 74.5662 911.91 76.5352C915.698 78.5563 919.207 81.5998 923.734 85.8853C925.969 88.0009 928.044 90.2513 930.124 92.5056C937.742 100.765 945.409 109.078 961.135 111.008C977.809 113.055 993.573 101.636 995.857 84.9268C997.648 71.8278 991.201 57.5504 978.24 52.7257C963.479 47.2308 946.859 52.1184 942.707 66.7042C941.478 71.0212 941.299 75.1032 942.408 78.9565C943.517 82.8099 945.839 86.1719 949.175 89.1749C952.026 91.7408 956.817 94.2995 961.991 94.7413C967.384 95.2018 973.174 93.3281 977.23 87.0752C981.589 80.3555 979.03 73.1719 974.441 69.4953C972.143 67.6538 969.154 66.5257 966.04 66.8651C962.833 67.2147 959.917 69.0756 957.829 72.4034L962.836 75.5453C964.092 73.545 965.497 72.8708 966.681 72.7418C967.957 72.6027 969.427 73.0526 970.745 74.1087C973.39 76.2276 974.696 80.1184 972.271 83.8582C969.542 88.0649 965.98 89.1489 962.494 88.8512C958.789 88.5348 955.173 86.6193 953.13 84.7809C950.419 82.3409 948.826 79.8834 948.089 77.3217C947.351 74.7598 947.394 71.8311 948.393 68.3226Z" fill="#042245"/>
<path fill-rule="evenodd" clip-rule="evenodd" d="M804.874 104.936C804.899 108.807 806.243 112.487 807.749 115.336C810.671 120.863 816.177 124.765 822.833 126.705C829.488 128.644 837.052 128.538 843.693 126.273C851.061 123.761 855.637 119.327 859.398 113.82C861.306 111.026 862.988 107.98 864.731 104.73C864.96 104.304 865.19 103.873 865.422 103.44C866.935 100.61 868.52 97.6455 870.301 94.7394C873.618 89.3274 877.447 84.0373 881.985 80.0807C886.558 76.0944 891.987 73.3479 898.399 73.3479L898.399 79.2594C893.813 79.2594 889.709 81.1895 885.87 84.5365C881.997 87.9133 878.537 92.6133 875.341 97.8283C873.658 100.575 872.162 103.372 870.643 106.212C870.41 106.648 870.176 107.086 869.94 107.525C868.194 110.779 866.383 114.074 864.28 117.153C860.02 123.392 854.504 128.832 845.601 131.868C837.781 134.535 828.973 134.651 821.179 132.38C813.387 130.11 806.367 125.37 802.523 118.099C800.758 114.76 798.997 110.125 798.963 104.975C798.928 99.7224 800.699 94.0905 805.737 88.9949L809.941 93.1513C806.065 97.0708 804.849 101.167 804.874 104.936Z" fill="#042245"/>
<path fill-rule="evenodd" clip-rule="evenodd" d="M991.852 104.936C991.827 108.807 990.483 112.487 988.977 115.336C986.055 120.863 980.549 124.765 973.893 126.705C967.238 128.644 959.674 128.538 953.033 126.273C945.665 123.761 941.089 119.327 937.328 113.82C935.42 111.026 933.738 107.98 931.995 104.73C931.766 104.304 931.536 103.873 931.304 103.44C929.791 100.61 928.206 97.6455 926.425 94.7394C923.108 89.3274 919.279 84.0373 914.741 80.0807C910.168 76.0944 904.739 73.3479 898.327 73.3479L898.327 79.2594C902.913 79.2594 907.017 81.1895 910.856 84.5365C914.729 87.9133 918.189 92.6133 921.385 97.8283C923.068 100.575 924.564 103.372 926.083 106.212C926.316 106.648 926.55 107.086 926.786 107.525C928.532 110.779 930.343 114.074 932.446 117.153C936.706 123.392 942.222 128.832 951.125 131.868C958.945 134.535 967.753 134.651 975.547 132.38C983.339 130.11 990.359 125.37 994.203 118.099C995.968 114.76 997.73 110.125 997.763 104.975C997.798 99.7224 996.027 94.0905 990.989 88.9949L986.785 93.1513C990.661 97.0708 991.877 101.167 991.852 104.936Z" fill="#042245"/>
<path fill-rule="evenodd" clip-rule="evenodd" d="M811.723 135.817C813.09 139.995 816.003 143.485 818.486 145.277C829.255 153.049 845.006 153.131 856.693 145.226C863.142 140.864 866.391 135.383 868.571 129.081C869.677 125.884 870.499 122.503 871.327 118.909C871.436 118.437 871.544 117.961 871.654 117.482C872.37 114.354 873.12 111.077 874.074 107.805C875.906 101.524 879.194 94.5446 883.254 89.0739C885.285 86.3359 887.579 83.8821 890.068 82.0898C892.552 80.3018 895.397 79.0558 898.458 79.0558L898.458 84.9673C897.031 84.9673 895.375 85.5534 893.522 86.8873C891.676 88.2168 889.798 90.1748 888.001 92.5965C884.403 97.445 881.407 103.776 879.749 109.46C878.847 112.552 878.139 115.644 877.421 118.784C877.31 119.267 877.199 119.751 877.088 120.236C876.259 123.834 875.377 127.489 874.158 131.014C871.688 138.153 867.797 144.852 860.005 150.122C846.382 159.336 827.922 159.378 815.026 150.071C811.604 147.6 807.888 143.106 806.105 137.655C804.279 132.073 804.475 125.411 809.132 119.11L813.886 122.624C810.532 127.161 810.399 131.771 811.723 135.817Z" fill="#042245"/>
<path fill-rule="evenodd" clip-rule="evenodd" d="M984.998 135.812C983.631 139.99 980.717 143.48 978.235 145.272C967.466 153.045 951.715 153.126 940.028 145.221C933.579 140.859 930.33 135.379 928.149 129.076C927.043 125.879 926.222 122.498 925.394 118.904C925.285 118.432 925.176 117.957 925.067 117.477C924.351 114.349 923.601 111.073 922.647 107.8C920.815 101.519 917.526 94.5398 913.467 89.069C911.436 86.331 909.142 83.8772 906.652 82.0849C904.169 80.2969 901.323 79.051 898.262 79.051L898.262 84.9625C899.69 84.9625 901.346 85.5485 903.198 86.8824C905.045 88.2119 906.923 90.1699 908.72 92.5916C912.317 97.4401 915.314 103.771 916.972 109.455C917.874 112.548 918.581 115.639 919.3 118.779C919.411 119.262 919.521 119.746 919.633 120.231C920.462 123.829 921.343 127.484 922.563 131.009C925.033 138.148 928.924 144.847 936.716 150.117C950.338 159.331 968.799 159.373 981.694 150.066C985.117 147.595 988.833 143.101 990.616 137.65C992.442 132.068 992.246 125.406 987.588 119.105L982.835 122.62C986.188 127.156 986.321 131.766 984.998 135.812Z" fill="#042245"/>
<path d="M768.601 126.509V121.994C765.134 121.811 762.762 121.036 761.485 119.667C760.208 118.208 759.524 116.246 759.432 113.783C759.25 111.229 759.159 108.355 759.159 105.162V46.0481C759.159 44.2236 759.113 42.4903 759.022 40.8482C758.931 39.1149 758.839 37.5641 758.748 36.1957C760.39 36.2869 762.032 36.3781 763.674 36.4694C765.316 36.5606 766.959 36.6518 768.601 36.743V30.7221H737.812V35.2378C741.187 35.329 743.559 36.1045 744.927 37.5641C746.205 39.0237 746.934 40.985 747.117 43.4481C747.208 45.9112 747.254 48.7849 747.254 52.069V110.773C747.254 113.236 747.299 115.334 747.391 117.067C747.391 118.801 747.482 120.26 747.664 121.446L722.075 121.036C716.328 120.945 711.995 119.12 709.076 115.562C706.065 112.004 704.56 106.212 704.56 98.1837H699.907L700.728 126.509H768.601Z" fill="#042245"/>
<path d="M658.702 35.2378C662.077 35.329 664.449 36.1045 665.817 37.5641C667.095 39.0237 667.824 40.985 668.007 43.4481C668.098 45.9112 668.144 48.7849 668.144 52.069V110.226C668.144 112.689 668.189 114.832 668.281 116.657C668.281 118.39 668.372 119.85 668.554 121.036C666.912 120.945 665.27 120.853 663.628 120.762C661.986 120.671 660.344 120.58 658.702 120.488V126.509H689.491V121.994C686.024 121.811 683.652 121.036 682.375 119.667C681.098 118.208 680.414 116.246 680.322 113.783C680.14 111.229 680.049 108.355 680.049 105.162V46.0481C680.049 44.2236 680.003 42.4903 679.912 40.8482C679.821 39.1149 679.729 37.5641 679.638 36.1957C681.28 36.2869 682.922 36.3781 684.564 36.4694C686.206 36.5606 687.849 36.6518 689.491 36.743V30.7221H658.702V35.2378Z" fill="#042245"/>
<path d="M643.655 126.509V121.994C640.188 121.811 637.816 121.036 636.539 119.667C635.262 118.208 634.578 116.246 634.487 113.783C634.304 111.229 634.213 108.355 634.213 105.162V46.0481C634.213 44.2236 634.167 42.4903 634.076 40.8482C633.985 39.1149 633.894 37.5641 633.802 36.1957C635.445 36.2869 637.087 36.3781 638.729 36.4694C640.371 36.5606 642.013 36.6518 643.655 36.743V30.7221C638.546 30.6309 633.392 30.5397 628.192 30.4484C622.901 30.3572 617.61 30.4028 612.319 30.5853C603.47 30.6765 596.354 31.7256 590.972 33.7326C585.498 35.6483 581.484 38.4307 578.93 42.0798C576.376 45.6376 575.099 49.9708 575.099 55.0795C575.007 58.6373 575.692 62.2863 577.151 66.0266C578.52 69.6756 581.074 72.9597 584.814 75.879C588.463 78.7982 593.754 80.9876 600.687 82.4472C598.863 83.7244 597.267 85.3665 595.898 87.3734C594.53 89.3804 592.979 91.7067 591.246 94.3522L581.941 108.994C580.39 111.457 578.884 113.692 577.425 115.699C575.965 117.615 574.278 119.166 572.362 120.352C570.446 121.446 568.074 121.994 565.246 121.994V126.509H582.488C585.133 124.137 587.368 121.766 589.193 119.394C590.926 117.022 592.751 114.331 594.667 111.32L603.835 96.6785C605.021 94.7627 606.389 92.5733 607.94 90.1102C609.4 87.5559 611.087 85.4121 613.003 83.6788C614.463 83.77 616.013 83.8156 617.656 83.8156C619.206 83.8156 620.757 83.77 622.308 83.6788V110.226C622.308 112.689 622.354 114.832 622.445 116.657C622.445 118.39 622.536 119.85 622.719 121.036C621.624 120.945 620.529 120.899 619.434 120.899C618.34 120.808 617.245 120.717 616.15 120.625C615.056 120.534 613.961 120.488 612.866 120.488V126.509H643.655ZM613.824 78.6157C608.807 78.4333 604.428 77.6123 600.687 76.1526C596.856 74.693 593.846 72.3668 591.656 69.1739C589.467 65.9809 588.372 61.7846 588.372 56.5847C588.372 53.1181 588.874 50.1076 589.877 47.5533C590.789 44.9078 592.249 42.7183 594.256 40.985C596.263 39.2517 598.817 37.9746 601.919 37.1535C605.021 36.2413 608.67 35.7852 612.866 35.7852C616.242 35.7852 618.613 36.4694 619.982 37.8377C621.259 39.2061 621.989 41.1219 622.171 43.585C622.262 45.9569 622.308 48.7849 622.308 52.069V78.3421C620.848 78.4333 619.48 78.5245 618.203 78.6157C616.834 78.707 615.375 78.707 613.824 78.6157Z" fill="#042245"/>
<path d="M768.601 126.509V121.994C765.134 121.811 762.762 121.036 761.485 119.667C760.208 118.208 759.524 116.246 759.432 113.783C759.25 111.229 759.159 108.355 759.159 105.162V46.0481C759.159 44.2236 759.113 42.4903 759.022 40.8482C758.931 39.1149 758.839 37.5641 758.748 36.1957C760.39 36.2869 762.032 36.3781 763.674 36.4694C765.316 36.5606 766.959 36.6518 768.601 36.743V30.7221H737.812V35.2378C741.187 35.329 743.559 36.1045 744.927 37.5641C746.205 39.0237 746.934 40.985 747.117 43.4481C747.208 45.9112 747.254 48.7849 747.254 52.069V110.773C747.254 113.236 747.299 115.334 747.391 117.067C747.391 118.801 747.482 120.26 747.664 121.446L722.075 121.036C716.328 120.945 711.995 119.12 709.076 115.562C706.065 112.004 704.56 106.212 704.56 98.1837H699.907L700.728 126.509H768.601Z" stroke="white"/>
<path d="M658.702 35.2378C662.077 35.329 664.449 36.1045 665.817 37.5641C667.095 39.0237 667.824 40.985 668.007 43.4481C668.098 45.9112 668.144 48.7849 668.144 52.069V110.226C668.144 112.689 668.189 114.832 668.281 116.657C668.281 118.39 668.372 119.85 668.554 121.036C666.912 120.945 665.27 120.853 663.628 120.762C661.986 120.671 660.344 120.58 658.702 120.488V126.509H689.491V121.994C686.024 121.811 683.652 121.036 682.375 119.667C681.098 118.208 680.414 116.246 680.322 113.783C680.14 111.229 680.049 108.355 680.049 105.162V46.0481C680.049 44.2236 680.003 42.4903 679.912 40.8482C679.821 39.1149 679.729 37.5641 679.638 36.1957C681.28 36.2869 682.922 36.3781 684.564 36.4694C686.206 36.5606 687.849 36.6518 689.491 36.743V30.7221H658.702V35.2378Z" stroke="white"/>
<path d="M643.655 126.509V121.994C640.188 121.811 637.816 121.036 636.539 119.667C635.262 118.208 634.578 116.246 634.487 113.783C634.304 111.229 634.213 108.355 634.213 105.162V46.0481C634.213 44.2236 634.167 42.4903 634.076 40.8482C633.985 39.1149 633.894 37.5641 633.802 36.1957C635.445 36.2869 637.087 36.3781 638.729 36.4694C640.371 36.5606 642.013 36.6518 643.655 36.743V30.7221C638.546 30.6309 633.392 30.5397 628.192 30.4484C622.901 30.3572 617.61 30.4028 612.319 30.5853C603.47 30.6765 596.354 31.7256 590.972 33.7326C585.498 35.6483 581.484 38.4307 578.93 42.0798C576.376 45.6376 575.099 49.9708 575.099 55.0795C575.007 58.6373 575.692 62.2863 577.151 66.0266C578.52 69.6756 581.074 72.9597 584.814 75.879C588.463 78.7982 593.754 80.9876 600.687 82.4472C598.863 83.7244 597.267 85.3665 595.898 87.3734C594.53 89.3804 592.979 91.7067 591.246 94.3522L581.941 108.994C580.39 111.457 578.884 113.692 577.425 115.699C575.965 117.615 574.278 119.166 572.362 120.352C570.446 121.446 568.074 121.994 565.246 121.994V126.509H582.488C585.133 124.137 587.368 121.766 589.193 119.394C590.926 117.022 592.751 114.331 594.667 111.32L603.835 96.6785C605.021 94.7627 606.389 92.5733 607.94 90.1102C609.4 87.5559 611.087 85.4121 613.003 83.6788C614.463 83.77 616.013 83.8156 617.656 83.8156C619.206 83.8156 620.757 83.77 622.308 83.6788V110.226C622.308 112.689 622.354 114.832 622.445 116.657C622.445 118.39 622.536 119.85 622.719 121.036C621.624 120.945 620.529 120.899 619.434 120.899C618.34 120.808 617.245 120.717 616.15 120.625C615.056 120.534 613.961 120.488 612.866 120.488V126.509H643.655ZM613.824 78.6157C608.807 78.4333 604.428 77.6123 600.687 76.1526C596.856 74.693 593.846 72.3668 591.656 69.1739C589.467 65.9809 588.372 61.7846 588.372 56.5847C588.372 53.1181 588.874 50.1076 589.877 47.5533C590.789 44.9078 592.249 42.7183 594.256 40.985C596.263 39.2517 598.817 37.9746 601.919 37.1535C605.021 36.2413 608.67 35.7852 612.866 35.7852C616.242 35.7852 618.613 36.4694 619.982 37.8377C621.259 39.2061 621.989 41.1219 622.171 43.585C622.262 45.9569 622.308 48.7849 622.308 52.069V78.3421C620.848 78.4333 619.48 78.5245 618.203 78.6157C616.834 78.707 615.375 78.707 613.824 78.6157Z" stroke="white"/>
<path fill-rule="evenodd" clip-rule="evenodd" d="M107.135 18.0894L113.196 70.2296C115.211 87.5696 98.668 94.8052 93.8818 78.677L99.3039 75.2142C101.302 81.9468 108.208 78.9264 107.366 71.6878L101.306 19.5476L107.135 18.0894Z" fill="#042245"/>
<path fill-rule="evenodd" clip-rule="evenodd" d="M55.4546 6.28551C65.6423 -1.65572 77.916 -1.2252 87.8333 7.42127C92.0259 11.0766 96.8127 13.0058 101.69 13.0058H104.009V21.681H101.69C95.7494 21.681 89.9188 19.3312 84.8122 14.8789C76.67 7.78021 66.5934 7.42674 58.2294 13.9465L48.9574 21.1739L46.1826 13.5129L55.4546 6.28551Z" fill="#042245"/>
<path fill-rule="evenodd" clip-rule="evenodd" d="M152.562 6.28502C142.374 -1.65621 130.1 -1.22568 120.183 7.42078C115.99 11.0761 111.203 13.0053 106.326 13.0053H104.007V21.6805H106.326C112.267 21.6805 118.097 19.3307 123.204 14.8784C131.346 7.77972 141.423 7.42626 149.787 13.946L159.059 21.1734L161.833 13.5124L152.562 6.28502Z" fill="#042245"/>
<path fill-rule="evenodd" clip-rule="evenodd" d="M88.1761 170.134L81.3901 165.553L83.8624 157.672L90.6483 162.253C99.6364 168.321 109.997 168.225 118.932 161.991L125.086 157.696L127.626 165.53L121.472 169.825C110.953 177.164 98.757 177.277 88.1761 170.134Z" fill="#042245"/>
<path fill-rule="evenodd" clip-rule="evenodd" d="M154.058 99.9748C156.915 85.2489 168.979 78.1857 181.852 85.2161C191.674 90.5801 197.182 107.048 195.68 123.167C193.858 142.715 181.183 156.466 167.524 154.006C154.123 151.593 148.177 142.193 140.816 130.556C138.577 127.016 136.207 123.269 133.456 119.448C128.93 113.163 124.911 107.946 120.345 104.373C115.681 100.723 110.6 98.8946 104.002 98.8946V107.57C109.768 107.57 113.87 109.137 117.562 112.027C121.352 114.993 124.862 119.459 129.39 125.748C131.626 128.853 133.702 132.156 135.782 135.464C143.403 147.585 151.073 159.784 166.804 162.617C183.484 165.62 199.254 148.863 201.539 124.342C203.33 105.119 196.88 84.1663 183.915 77.0859C169.149 69.022 152.524 76.1947 148.37 97.5996C147.141 103.935 146.961 109.925 148.07 115.58C149.18 121.235 151.503 126.169 154.84 130.576C157.692 134.341 162.485 138.096 167.66 138.745C173.055 139.421 178.848 136.671 182.905 127.495C187.265 117.633 184.706 107.091 180.115 101.696C177.816 98.9932 174.826 97.3377 171.711 97.8359C168.503 98.3488 165.586 101.08 163.497 105.963L168.506 110.574C169.762 107.639 171.168 106.649 172.352 106.46C173.628 106.256 175.099 106.916 176.418 108.466C179.063 111.576 180.37 117.285 177.944 122.774C175.214 128.947 171.651 130.538 168.164 130.101C164.457 129.637 160.84 126.826 158.796 124.128C156.084 120.547 154.491 116.941 153.753 113.181C153.016 109.422 153.059 105.124 154.058 99.9748Z" fill="#042245"/>
<path fill-rule="evenodd" clip-rule="evenodd" d="M53.9656 99.9748C51.1082 85.2489 39.0449 78.1857 26.1713 85.2161C16.3491 90.5801 10.8418 107.048 12.3438 123.167C14.1654 142.715 26.8403 156.466 40.499 154.006C53.9003 151.593 59.8465 142.193 67.2073 130.556C69.4466 127.016 71.8169 123.269 74.5678 119.448C79.0939 113.163 83.1125 107.946 87.6784 104.373C92.3422 100.723 97.4239 98.8946 104.021 98.8946V107.57C98.2554 107.57 94.1539 109.137 90.4618 112.027C86.6717 114.993 83.1616 119.459 78.6332 125.748C76.3976 128.853 74.3213 132.156 72.2414 135.464C64.6205 147.585 56.9509 159.784 41.2194 162.617C24.5398 165.62 8.76975 148.863 6.48474 124.342C4.69347 105.119 11.1432 84.1663 24.1083 77.0859C38.8744 69.022 55.4998 76.1947 59.6532 97.5996C60.8825 103.935 61.0623 109.925 59.953 115.58C58.8437 121.235 56.5209 126.169 53.1831 130.576C50.3311 134.341 45.5388 138.096 40.363 138.745C34.9681 139.421 29.1758 136.671 25.1184 127.495C20.7582 117.633 23.3179 107.091 27.9082 101.696C30.2075 98.9932 33.197 97.3377 36.3123 97.8359C39.5204 98.3488 42.4375 101.08 44.5263 105.963L39.5172 110.574C38.2616 107.639 36.8553 106.649 35.6716 106.46C34.3951 106.256 32.9244 106.916 31.6058 108.466C28.9603 111.576 27.653 117.285 30.0797 122.774C32.8092 128.947 36.3723 130.538 39.8599 130.101C43.5665 129.637 47.1838 126.826 49.2271 124.128C51.9392 120.547 53.5327 116.941 54.2701 113.181C55.0076 109.422 54.9647 105.124 53.9656 99.9748Z" fill="#042245"/>
<path fill-rule="evenodd" clip-rule="evenodd" d="M197.532 153.71C197.507 159.391 196.162 164.791 194.656 168.972C191.733 177.083 186.226 182.81 179.567 185.656C172.909 188.502 165.343 188.346 158.7 185.023C151.329 181.335 146.751 174.829 142.989 166.747C141.081 162.647 139.398 158.176 137.654 153.408C137.425 152.782 137.195 152.15 136.963 151.514C135.45 147.361 133.864 143.011 132.083 138.746C128.765 130.804 124.934 123.04 120.394 117.234C115.82 111.384 110.389 107.354 103.975 107.354L103.975 116.029C108.563 116.029 112.668 118.861 116.508 123.773C120.382 128.729 123.843 135.626 127.041 143.279C128.724 147.309 130.221 151.414 131.74 155.582C131.974 156.223 132.208 156.865 132.443 157.509C134.19 162.284 136.002 167.119 138.105 171.639C142.367 180.795 147.885 188.778 156.791 193.234C164.614 197.147 173.425 197.317 181.221 193.985C189.016 190.653 196.038 183.697 199.884 173.027C201.649 168.127 203.412 161.325 203.445 153.767C203.48 146.059 201.708 137.794 196.669 130.316L192.463 136.415C196.34 142.168 197.557 148.179 197.532 153.71Z" fill="#042245"/>
<path fill-rule="evenodd" clip-rule="evenodd" d="M10.4885 153.71C10.5139 159.391 11.8581 164.791 13.3647 168.972C16.2875 177.083 21.7949 182.81 28.4535 185.656C35.1112 188.502 42.6777 188.346 49.3205 185.023C56.6917 181.335 61.2693 174.829 65.0315 166.747C66.9398 162.647 68.6222 158.176 70.3664 153.408C70.5953 152.782 70.8255 152.15 71.0573 151.514C72.571 147.361 74.1563 143.011 75.9379 138.746C79.2558 130.804 83.0869 123.04 87.6265 117.234C92.2003 111.384 97.6313 107.354 104.046 107.354L104.046 116.029C99.4579 116.029 95.3529 118.861 91.5127 123.773C87.6382 128.729 84.177 135.626 80.98 143.279C79.2964 147.309 77.8 151.414 76.2806 155.582C76.0469 156.223 75.8127 156.865 75.5772 157.509C73.8308 162.284 72.0188 167.119 69.9151 171.639C65.6532 180.795 60.1357 188.778 51.2291 193.234C43.4068 197.147 34.5954 197.317 26.7993 193.985C19.0041 190.653 11.982 183.697 8.13676 173.027C6.37112 168.127 4.60884 161.325 4.57503 153.767C4.54056 146.059 6.31205 137.794 11.352 130.316L15.5571 136.415C11.6803 142.168 10.4637 148.179 10.4885 153.71Z" fill="#042245"/>
<path fill-rule="evenodd" clip-rule="evenodd" d="M190.683 199.027C189.316 205.159 186.401 210.281 183.918 212.91C173.145 224.316 157.389 224.435 145.698 212.835C139.247 206.434 135.996 198.391 133.815 189.142C132.709 184.45 131.887 179.488 131.059 174.214C130.95 173.522 130.841 172.824 130.731 172.12C130.015 167.529 129.265 162.721 128.311 157.919C126.478 148.701 123.189 138.459 119.128 130.43C117.095 126.412 114.801 122.811 112.311 120.181C109.826 117.557 106.98 115.729 103.918 115.729L103.918 124.404C105.346 124.404 107.002 125.264 108.855 127.222C110.703 129.173 112.581 132.046 114.379 135.6C117.978 142.715 120.975 152.007 122.634 160.348C123.536 164.886 124.244 169.423 124.963 174.031C125.073 174.739 125.184 175.449 125.296 176.162C126.125 181.442 127.007 186.806 128.226 191.978C130.697 202.455 134.59 212.286 142.385 220.021C156.012 233.542 174.479 233.603 187.379 219.944C190.803 216.319 194.52 209.724 196.303 201.725C198.13 193.533 197.934 183.756 193.275 174.51L188.519 179.667C191.874 186.324 192.007 193.089 190.683 199.027Z" fill="#042245"/>
<path fill-rule="evenodd" clip-rule="evenodd" d="M17.3487 199.019C18.716 205.15 21.6303 210.272 24.1137 212.901C34.8865 224.307 50.6427 224.426 62.334 212.826C68.785 206.425 72.0354 198.382 74.2167 189.133C75.3231 184.441 76.145 179.479 76.9732 174.205C77.0819 173.513 77.1908 172.815 77.3005 172.112C78.0165 167.521 78.7665 162.712 79.721 157.91C81.5535 148.692 84.8432 138.45 88.904 130.422C90.9363 126.404 93.2307 122.803 95.7212 120.172C98.2055 117.548 101.052 115.72 104.114 115.72L104.114 124.395C102.686 124.395 101.03 125.255 99.1763 127.213C97.3289 129.164 95.4505 132.037 93.653 135.591C90.0541 142.706 87.0563 151.998 85.3981 160.339C84.496 164.877 83.788 169.414 83.0691 174.022C82.9585 174.73 82.8476 175.441 82.7358 176.153C81.9066 181.433 81.025 186.797 79.8053 191.969C77.3343 202.447 73.4418 212.278 65.6471 220.012C52.0198 233.533 33.5532 233.594 20.6529 219.936C17.2291 216.311 13.5121 209.715 11.7283 201.716C9.90151 193.524 10.0979 183.747 14.757 174.501L19.5123 179.658C16.1575 186.315 16.0245 193.08 17.3487 199.019Z" fill="#042245"/>
<path d="M233.821 185.365V178.738C237.289 178.47 239.661 177.332 240.939 175.324C242.216 173.182 242.901 170.304 242.992 166.689C243.175 162.941 243.266 158.723 243.266 154.038V67.286C243.266 64.6084 243.312 62.0648 243.403 59.655C243.494 57.1113 243.585 54.8355 243.677 52.8273C242.034 52.9612 240.391 53.0951 238.749 53.2289C237.106 53.3628 235.463 53.4967 233.821 53.6306V44.7947H264.62V51.4216C261.244 51.5555 258.871 52.6934 257.502 54.8355C256.225 56.9775 255.494 59.8558 255.312 63.4705C255.221 67.0851 255.175 71.3022 255.175 76.1218V162.271C255.175 165.886 255.129 168.965 255.038 171.509C255.038 174.052 254.947 176.194 254.764 177.935L280.362 177.332C286.111 177.198 290.446 174.521 293.366 169.3C296.378 164.078 297.884 155.577 297.884 143.796H302.538L301.716 185.365H233.821Z" fill="#042245"/>
<path d="M343.758 51.4216C340.381 51.5555 338.008 52.6934 336.64 54.8355C335.362 56.9775 334.632 59.8558 334.449 63.4705C334.358 67.0851 334.313 71.3022 334.313 76.1218V161.468C334.313 165.083 334.267 168.229 334.176 170.906C334.176 173.45 334.084 175.592 333.902 177.332C335.544 177.198 337.187 177.064 338.83 176.931C340.472 176.797 342.115 176.663 343.758 176.529V185.365H312.958V178.738C316.426 178.47 318.799 177.332 320.076 175.324C321.354 173.182 322.038 170.304 322.13 166.689C322.312 162.941 322.403 158.723 322.403 154.038V67.286C322.403 64.6084 322.449 62.0648 322.54 59.655C322.632 57.1113 322.723 54.8355 322.814 52.8273C321.171 52.9612 319.529 53.0951 317.886 53.2289C316.244 53.3628 314.601 53.4967 312.958 53.6306V44.7947H343.758V51.4216Z" fill="#042245"/>
<path d="M358.81 185.365V178.738C362.278 178.47 364.65 177.332 365.928 175.324C367.206 173.182 367.89 170.304 367.981 166.689C368.164 162.941 368.255 158.723 368.255 154.038V67.286C368.255 64.6084 368.301 62.0648 368.392 59.655C368.483 57.1113 368.574 54.8355 368.666 52.8273C367.023 52.9612 365.38 53.0951 363.738 53.2289C362.095 53.3628 360.452 53.4967 358.81 53.6306V44.7947C363.92 44.6609 369.076 44.527 374.278 44.3931C379.571 44.2592 384.864 44.3262 390.157 44.5939C399.009 44.7278 406.127 46.2674 411.511 49.2127C416.987 52.0241 421.002 56.1073 423.557 61.4623C426.112 66.6835 427.39 73.0426 427.39 80.5397C427.481 85.7609 426.797 91.1159 425.337 96.6048C423.968 101.96 421.413 106.779 417.671 111.063C414.021 115.348 408.728 118.561 401.792 120.703C403.617 122.577 405.214 124.987 406.583 127.932C407.952 130.877 409.503 134.291 411.237 138.173L420.546 159.661C422.097 163.275 423.603 166.555 425.063 169.5C426.523 172.312 428.211 174.588 430.128 176.328C432.044 177.935 434.417 178.738 437.246 178.738V185.365H419.998C417.352 181.884 415.116 178.403 413.291 174.922C411.557 171.442 409.732 167.492 407.815 163.074L398.644 141.587C397.457 138.776 396.089 135.563 394.537 131.948C393.077 128.2 391.389 125.054 389.472 122.51C388.012 122.644 386.461 122.711 384.818 122.711C383.267 122.711 381.715 122.644 380.164 122.51V161.468C380.164 165.083 380.118 168.229 380.027 170.906C380.027 173.45 379.936 175.592 379.753 177.332C380.849 177.198 381.944 177.131 383.039 177.131C384.134 176.998 385.229 176.864 386.324 176.73C387.419 176.596 388.514 176.529 389.609 176.529V185.365H358.81ZM388.651 115.08C393.67 114.812 398.051 113.607 401.792 111.465C405.625 109.323 408.636 105.909 410.827 101.224C413.017 96.5379 414.112 90.3796 414.112 82.7486C414.112 77.6614 413.61 73.2434 412.606 69.4949C411.694 65.6125 410.233 62.3995 408.226 59.8558C406.218 57.3122 403.663 55.4379 400.56 54.233C397.457 52.8942 393.807 52.2249 389.609 52.2249C386.233 52.2249 383.86 53.2289 382.491 55.2371C381.214 57.2452 380.483 60.0566 380.301 63.6713C380.21 67.1521 380.164 71.3022 380.164 76.1218V114.678C381.624 114.812 382.993 114.946 384.271 115.08C385.64 115.214 387.1 115.214 388.651 115.08Z" fill="#042245"/>
<path d="M233.821 185.365V178.738C237.289 178.47 239.661 177.332 240.939 175.324C242.216 173.182 242.901 170.304 242.992 166.689C243.175 162.941 243.266 158.723 243.266 154.038V67.286C243.266 64.6084 243.312 62.0648 243.403 59.655C243.494 57.1113 243.585 54.8355 243.677 52.8273C242.034 52.9612 240.391 53.0951 238.749 53.2289C237.106 53.3628 235.463 53.4967 233.821 53.6306V44.7947H264.62V51.4216C261.244 51.5555 258.871 52.6934 257.502 54.8355C256.225 56.9775 255.494 59.8558 255.312 63.4705C255.221 67.0851 255.175 71.3022 255.175 76.1218V162.271C255.175 165.886 255.129 168.965 255.038 171.509C255.038 174.052 254.947 176.194 254.764 177.935L280.362 177.332C286.111 177.198 290.446 174.521 293.366 169.3C296.378 164.078 297.884 155.577 297.884 143.796H302.538L301.716 185.365H233.821Z" stroke="white"/>
<path d="M343.758 51.4216C340.381 51.5555 338.008 52.6934 336.64 54.8355C335.362 56.9775 334.632 59.8558 334.449 63.4705C334.358 67.0851 334.313 71.3022 334.313 76.1218V161.468C334.313 165.083 334.267 168.229 334.176 170.906C334.176 173.45 334.084 175.592 333.902 177.332C335.544 177.198 337.187 177.064 338.83 176.931C340.472 176.797 342.115 176.663 343.758 176.529V185.365H312.958V178.738C316.426 178.47 318.799 177.332 320.076 175.324C321.354 173.182 322.038 170.304 322.13 166.689C322.312 162.941 322.403 158.723 322.403 154.038V67.286C322.403 64.6084 322.449 62.0648 322.54 59.655C322.632 57.1113 322.723 54.8355 322.814 52.8273C321.171 52.9612 319.529 53.0951 317.886 53.2289C316.244 53.3628 314.601 53.4967 312.958 53.6306V44.7947H343.758V51.4216Z" stroke="white"/>
<path d="M358.81 185.365V178.738C362.278 178.47 364.65 177.332 365.928 175.324C367.206 173.182 367.89 170.304 367.981 166.689C368.164 162.941 368.255 158.723 368.255 154.038V67.286C368.255 64.6084 368.301 62.0648 368.392 59.655C368.483 57.1113 368.574 54.8355 368.666 52.8273C367.023 52.9612 365.38 53.0951 363.738 53.2289C362.095 53.3628 360.452 53.4967 358.81 53.6306V44.7947C363.92 44.6609 369.076 44.527 374.278 44.3931C379.571 44.2592 384.864 44.3262 390.157 44.5939C399.009 44.7278 406.127 46.2674 411.511 49.2127C416.987 52.0241 421.002 56.1073 423.557 61.4623C426.112 66.6835 427.39 73.0426 427.39 80.5397C427.481 85.7609 426.797 91.1159 425.337 96.6048C423.968 101.96 421.413 106.779 417.671 111.063C414.021 115.348 408.728 118.561 401.792 120.703C403.617 122.577 405.214 124.987 406.583 127.932C407.952 130.877 409.503 134.291 411.237 138.173L420.546 159.661C422.097 163.275 423.603 166.555 425.063 169.5C426.523 172.312 428.211 174.588 430.128 176.328C432.044 177.935 434.417 178.738 437.246 178.738V185.365H419.998C417.352 181.884 415.116 178.403 413.291 174.922C411.557 171.442 409.732 167.492 407.815 163.074L398.644 141.587C397.457 138.776 396.089 135.563 394.537 131.948C393.077 128.2 391.389 125.054 389.472 122.51C388.012 122.644 386.461 122.711 384.818 122.711C383.267 122.711 381.715 122.644 380.164 122.51V161.468C380.164 165.083 380.118 168.229 380.027 170.906C380.027 173.45 379.936 175.592 379.753 177.332C380.849 177.198 381.944 177.131 383.039 177.131C384.134 176.998 385.229 176.864 386.324 176.73C387.419 176.596 388.514 176.529 389.609 176.529V185.365H358.81ZM388.651 115.08C393.67 114.812 398.051 113.607 401.792 111.465C405.625 109.323 408.636 105.909 410.827 101.224C413.017 96.5379 414.112 90.3796 414.112 82.7486C414.112 77.6614 413.61 73.2434 412.606 69.4949C411.694 65.6125 410.233 62.3995 408.226 59.8558C406.218 57.3122 403.663 55.4379 400.56 54.233C397.457 52.8942 393.807 52.2249 389.609 52.2249C386.233 52.2249 383.86 53.2289 382.491 55.2371C381.214 57.2452 380.483 60.0566 380.301 63.6713C380.21 67.1521 380.164 71.3022 380.164 76.1218V114.678C381.624 114.812 382.993 114.946 384.271 115.08C385.64 115.214 387.1 115.214 388.651 115.08Z" stroke="white"/>
</svg>
