<svg width="337" height="337" viewBox="0 0 337 337" fill="none" xmlns="http://www.w3.org/2000/svg">
<path fill-rule="evenodd" clip-rule="evenodd" d="M172.255 101.363L178.177 136.091C180.146 147.64 163.982 152.459 159.305 141.717L164.603 139.411C166.555 143.895 173.303 141.883 172.481 137.062L166.56 102.335L172.255 101.363Z" fill="#083B4A"/>
<path fill-rule="evenodd" clip-rule="evenodd" d="M121.759 93.5006C131.714 88.2114 143.706 88.4982 153.396 94.2571C157.493 96.6917 162.17 97.9766 166.935 97.9766H169.201V103.755H166.935C161.131 103.755 155.434 102.19 150.444 99.2242C142.489 94.4961 132.643 94.2607 124.47 98.6031L115.411 103.417L112.699 98.3144L121.759 93.5006Z" fill="#083B4A"/>
<path fill-rule="evenodd" clip-rule="evenodd" d="M216.641 93.5006C206.686 88.2114 194.694 88.4982 185.004 94.2571C180.907 96.6917 176.23 97.9766 171.465 97.9766H169.199V103.755H171.465C177.269 103.755 182.966 102.19 187.956 99.2242C195.911 94.4961 205.757 94.2607 213.93 98.6031L222.989 103.417L225.7 98.3144L216.641 93.5006Z" fill="#083B4A"/>
<path fill-rule="evenodd" clip-rule="evenodd" d="M153.725 202.634L147.095 199.583L149.51 194.334L156.141 197.385C164.923 201.427 175.046 201.363 183.776 197.21L189.79 194.35L192.272 199.568L186.258 202.428C175.981 207.317 164.064 207.392 153.725 202.634Z" fill="#083B4A"/>
<path fill-rule="evenodd" clip-rule="evenodd" d="M218.1 155.907C220.892 146.099 232.679 141.395 245.258 146.077C254.855 149.65 260.237 160.618 258.769 171.354C256.989 184.374 244.605 193.532 231.259 191.894C218.164 190.287 212.354 184.026 205.162 176.276C202.974 173.918 200.658 171.422 197.97 168.877C193.548 164.691 189.621 161.216 185.16 158.836C180.603 156.405 175.637 155.188 169.191 155.188V160.966C174.825 160.966 178.833 162.01 182.44 163.934C186.143 165.91 189.573 168.885 193.998 173.073C196.182 175.141 198.211 177.341 200.243 179.544C207.69 187.618 215.183 195.743 230.555 197.629C246.852 199.63 262.261 188.469 264.494 172.137C266.244 159.333 259.942 145.378 247.274 140.662C232.846 135.291 216.601 140.068 212.543 154.325C211.342 158.545 211.166 162.535 212.25 166.301C213.334 170.067 215.604 173.354 218.865 176.289C221.652 178.797 226.334 181.298 231.392 181.73C236.663 182.18 242.322 180.348 246.287 174.236C250.547 167.668 248.046 160.647 243.561 157.053C241.314 155.253 238.393 154.151 235.349 154.482C232.215 154.824 229.365 156.643 227.324 159.896L232.218 162.967C233.445 161.012 234.819 160.353 235.976 160.226C237.223 160.091 238.66 160.53 239.948 161.563C242.533 163.634 243.81 167.437 241.439 171.092C238.772 175.204 235.291 176.263 231.883 175.972C228.261 175.663 224.727 173.791 222.73 171.994C220.08 169.609 218.523 167.207 217.803 164.703C217.082 162.199 217.124 159.336 218.1 155.907Z" fill="#083B4A"/>
<path fill-rule="evenodd" clip-rule="evenodd" d="M120.301 155.907C117.509 146.099 105.722 141.395 93.1429 146.077C83.5456 149.65 78.1645 160.618 79.632 171.354C81.4119 184.374 93.7965 193.532 107.142 191.894C120.237 190.287 126.047 184.026 133.239 176.276C135.427 173.918 137.743 171.422 140.431 168.877C144.853 164.691 148.78 161.216 153.241 158.836C157.798 156.405 162.764 155.188 169.21 155.188V160.966C163.576 160.966 159.568 162.01 155.961 163.934C152.258 165.91 148.828 168.885 144.403 173.073C142.219 175.141 140.19 177.341 138.158 179.544C130.711 187.618 123.218 195.743 107.846 197.629C91.5487 199.63 76.1399 188.469 73.9072 172.137C72.157 159.333 78.459 145.378 91.1271 140.662C105.555 135.291 121.8 140.068 125.858 154.325C127.059 158.545 127.235 162.535 126.151 166.301C125.067 170.067 122.797 173.354 119.536 176.289C116.749 178.797 112.067 181.298 107.01 181.73C101.738 182.18 96.0785 180.348 92.1141 174.236C87.8537 167.668 90.3548 160.647 94.84 157.053C97.0866 155.253 100.008 154.151 103.052 154.482C106.186 154.824 109.037 156.643 111.077 159.896L106.183 162.967C104.956 161.012 103.582 160.353 102.426 160.226C101.178 160.091 99.7413 160.53 98.4529 161.563C95.868 163.634 94.5906 167.437 96.9617 171.092C99.6288 175.204 103.11 176.263 106.518 175.972C110.14 175.663 113.674 173.791 115.671 171.994C118.321 169.609 119.878 167.207 120.598 164.703C121.319 162.199 121.277 159.336 120.301 155.907Z" fill="#083B4A"/>
<path fill-rule="evenodd" clip-rule="evenodd" d="M260.579 191.696C260.554 195.479 259.241 199.076 257.769 201.861C254.913 207.263 249.531 211.077 243.025 212.973C236.52 214.868 229.127 214.765 222.636 212.551C215.434 210.095 210.961 205.762 207.285 200.379C205.42 197.648 203.777 194.67 202.072 191.494C201.849 191.077 201.624 190.657 201.397 190.233C199.918 187.467 198.369 184.57 196.628 181.729C193.387 176.439 189.643 171.268 185.208 167.401C180.739 163.505 175.432 160.82 169.164 160.82L169.164 166.598C173.647 166.598 177.658 168.485 181.41 171.756C185.196 175.057 188.578 179.651 191.702 184.748C193.347 187.432 194.809 190.166 196.294 192.942C196.522 193.369 196.751 193.797 196.981 194.226C198.687 197.406 200.458 200.627 202.513 203.637C206.678 209.735 212.069 215.053 220.771 218.02C228.415 220.627 237.024 220.74 244.642 218.52C252.258 216.301 259.12 211.668 262.877 204.561C264.602 201.298 266.324 196.768 266.357 191.734C266.391 186.6 264.66 181.095 259.735 176.114L255.626 180.177C259.414 184.008 260.603 188.012 260.579 191.696Z" fill="#083B4A"/>
<path fill-rule="evenodd" clip-rule="evenodd" d="M78.0612 191.696C78.086 195.479 79.3994 199.076 80.8716 201.861C83.7274 207.263 89.1087 211.077 95.6148 212.973C102.12 214.868 109.513 214.765 116.004 212.551C123.206 210.095 127.679 205.762 131.355 200.379C133.22 197.648 134.863 194.67 136.568 191.494C136.791 191.077 137.016 190.657 137.243 190.233C138.722 187.467 140.271 184.57 142.012 181.729C145.254 176.439 148.997 171.268 153.433 167.401C157.902 163.505 163.208 160.82 169.476 160.82L169.476 166.598C164.993 166.598 160.982 168.485 157.23 171.756C153.444 175.057 150.062 179.651 146.938 184.748C145.293 187.432 143.831 190.166 142.346 192.942C142.118 193.369 141.889 193.797 141.659 194.226C139.953 197.406 138.182 200.627 136.127 203.637C131.962 209.735 126.571 215.053 117.869 218.02C110.226 220.627 101.616 220.74 93.9984 218.52C86.3819 216.301 79.5206 211.668 75.7634 204.561C74.0382 201.298 72.3162 196.768 72.2832 191.734C72.2495 186.6 73.9805 181.095 78.905 176.114L83.0138 180.177C79.2257 184.008 78.037 188.012 78.0612 191.696Z" fill="#083B4A"/>
<path fill-rule="evenodd" clip-rule="evenodd" d="M253.881 221.88C252.545 225.963 249.697 229.375 247.271 231.126C236.745 238.723 221.35 238.802 209.926 231.076C203.623 226.813 200.447 221.456 198.315 215.295C197.234 212.171 196.431 208.865 195.622 205.353C195.516 204.892 195.409 204.427 195.302 203.958C194.603 200.901 193.87 197.698 192.937 194.5C191.147 188.36 187.932 181.538 183.965 176.191C181.979 173.515 179.737 171.116 177.303 169.365C174.876 167.617 172.095 166.399 169.103 166.399L169.103 172.177C170.498 172.177 172.116 172.75 173.928 174.054C175.733 175.353 177.568 177.267 179.324 179.634C182.841 184.373 185.77 190.562 187.39 196.118C188.272 199.14 188.963 202.162 189.666 205.231C189.774 205.703 189.882 206.176 189.991 206.65C190.802 210.167 191.663 213.74 192.855 217.184C195.269 224.163 199.073 230.711 206.689 235.862C220.004 244.868 238.048 244.909 250.652 235.811C253.998 233.397 257.63 229.004 259.373 223.676C261.158 218.22 260.966 211.708 256.413 205.55L251.767 208.985C255.045 213.419 255.175 217.925 253.881 221.88Z" fill="#083B4A"/>
<path fill-rule="evenodd" clip-rule="evenodd" d="M84.523 221.874C85.8589 225.957 88.7064 229.369 91.133 231.12C101.659 238.717 117.054 238.796 128.478 231.07C134.781 226.807 137.957 221.45 140.088 215.289C141.17 212.165 141.973 208.86 142.782 205.347C142.888 204.886 142.994 204.421 143.102 203.953C143.801 200.895 144.534 197.692 145.467 194.494C147.257 188.354 150.472 181.533 154.439 176.185C156.425 173.509 158.667 171.111 161.1 169.359C163.528 167.611 166.309 166.393 169.301 166.393L169.301 172.171C167.906 172.171 166.287 172.744 164.476 174.048C162.671 175.347 160.836 177.261 159.08 179.628C155.563 184.367 152.634 190.556 151.014 196.112C150.132 199.134 149.441 202.156 148.738 205.225C148.63 205.697 148.522 206.17 148.412 206.644C147.602 210.161 146.741 213.734 145.549 217.179C143.135 224.157 139.331 230.705 131.715 235.856C118.4 244.862 100.356 244.903 87.7515 235.806C84.4061 233.391 80.7742 228.998 79.0313 223.67C77.2463 218.214 77.4381 211.702 81.9906 205.544L86.6369 208.979C83.359 213.413 83.2291 217.919 84.523 221.874Z" fill="#083B4A"/>
<circle cx="168.823" cy="167.579" r="135.642" stroke="#083B4A" stroke-width="5.87305"/>
<circle cx="168.828" cy="168.195" r="106.054" stroke="#083B4A"/>
<circle cx="168.829" cy="168.196" r="167.524" stroke="#083B4A"/>
<path d="M320.935 164.059L315.127 155.755H317.047L321.895 162.931L326.911 155.755H328.735L322.879 164.107L329.071 172.891H327.103L321.895 165.331L316.615 172.891H314.791L320.935 164.059Z" fill="#083B4A"/>
<mask id="path-15-inside-1_640_3533" fill="white">
<path d="M305.184 147.328H335.906V182.452H305.184V147.328Z"/>
</mask>
<path d="M335.906 181.452H305.184V183.452H335.906V181.452Z" fill="#083B4A" mask="url(#path-15-inside-1_640_3533)"/>
<mask id="path-17-inside-2_640_3533" fill="white">
<path d="M335.309 182.453L305.182 182.453L305.182 147.33L335.309 147.33L335.309 182.453Z"/>
</mask>
<path d="M305.182 148.33L335.309 148.33L335.309 146.33L305.182 146.33L305.182 148.33Z" fill="#083B4A" mask="url(#path-17-inside-2_640_3533)"/>
</svg>
