<svg width="663" height="257" viewBox="0 0 663 257" fill="none" xmlns="http://www.w3.org/2000/svg">
<path d="M350.168 193.514V186.584C355.488 186.304 359.128 185.114 361.088 183.014C363.048 180.774 364.098 177.764 364.238 173.984C364.518 170.064 364.658 165.654 364.658 160.754V70.0344C364.658 67.2344 364.728 64.5744 364.868 62.0544C365.008 59.3944 365.148 57.0144 365.288 54.9144C362.768 55.0544 360.248 55.1944 357.728 55.3344C355.208 55.4744 352.688 55.6144 350.168 55.7544V46.5144H397.418V53.4444C392.238 53.5844 388.598 54.7744 386.498 57.0144C384.538 59.2544 383.418 62.2644 383.138 66.0444C382.998 69.8244 382.928 74.2344 382.928 79.2744V169.364C382.928 173.144 382.858 176.364 382.718 179.024C382.718 181.684 382.578 183.924 382.298 185.744L421.568 185.114C430.388 184.974 437.038 182.174 441.518 176.714C446.138 171.254 448.448 162.364 448.448 150.044H455.588L454.328 193.514H350.168Z" fill="#042245"/>
<path d="M518.824 53.4444C513.644 53.5844 510.004 54.7744 507.904 57.0144C505.944 59.2544 504.824 62.2644 504.544 66.0444C504.404 69.8244 504.335 74.2344 504.335 79.2744V168.524C504.335 172.304 504.264 175.594 504.124 178.394C504.124 181.054 503.984 183.294 503.704 185.114C506.224 184.974 508.744 184.834 511.264 184.694C513.784 184.554 516.304 184.414 518.824 184.274V193.514H471.575V186.584C476.895 186.304 480.535 185.114 482.495 183.014C484.455 180.774 485.505 177.764 485.645 173.984C485.925 170.064 486.065 165.654 486.065 160.754V70.0344C486.065 67.2344 486.135 64.5744 486.275 62.0544C486.415 59.3944 486.555 57.0144 486.695 54.9144C484.175 55.0544 481.655 55.1944 479.135 55.3344C476.615 55.4744 474.095 55.6144 471.575 55.7544V46.5144H518.824V53.4444Z" fill="#042245"/>
<path d="M541.916 193.514V186.584C547.236 186.304 550.876 185.114 552.836 183.014C554.796 180.774 555.846 177.764 555.986 173.984C556.266 170.064 556.406 165.654 556.406 160.754V70.0344C556.406 67.2344 556.476 64.5744 556.616 62.0544C556.756 59.3944 556.896 57.0144 557.036 54.9144C554.516 55.0544 551.996 55.1944 549.476 55.3344C546.956 55.4744 544.436 55.6144 541.916 55.7544V46.5144C549.756 46.3744 557.666 46.2344 565.646 46.0944C573.766 45.9544 581.886 46.0244 590.006 46.3044C603.586 46.4444 614.506 48.0544 622.766 51.1344C631.166 54.0744 637.326 58.3444 641.246 63.9444C645.166 69.4044 647.126 76.0544 647.126 83.8944C647.266 89.3544 646.216 94.9544 643.976 100.694C641.876 106.294 637.956 111.334 632.216 115.814C626.616 120.294 618.496 123.654 607.856 125.894C610.656 127.854 613.106 130.374 615.206 133.454C617.306 136.534 619.686 140.104 622.346 144.164L636.626 166.634C639.006 170.414 641.316 173.844 643.556 176.924C645.796 179.864 648.386 182.244 651.326 184.064C654.266 185.744 657.906 186.584 662.246 186.584V193.514H635.786C631.726 189.874 628.296 186.234 625.496 182.594C622.836 178.954 620.036 174.824 617.096 170.204L603.026 147.734C601.206 144.794 599.106 141.434 596.726 137.654C594.486 133.734 591.896 130.444 588.956 127.784C586.716 127.924 584.336 127.994 581.816 127.994C579.436 127.994 577.056 127.924 574.676 127.784V168.524C574.676 172.304 574.606 175.594 574.466 178.394C574.466 181.054 574.326 183.294 574.046 185.114C575.726 184.974 577.406 184.904 579.086 184.904C580.766 184.764 582.446 184.624 584.126 184.484C585.806 184.344 587.486 184.274 589.166 184.274V193.514H541.916ZM587.696 120.014C595.396 119.734 602.116 118.474 607.856 116.234C613.736 113.994 618.356 110.424 621.716 105.524C625.076 100.624 626.756 94.1844 626.756 86.2044C626.756 80.8844 625.986 76.2644 624.446 72.3444C623.046 68.2844 620.806 64.9244 617.726 62.2644C614.646 59.6044 610.726 57.6444 605.966 56.3844C601.206 54.9844 595.606 54.2844 589.166 54.2844C583.986 54.2844 580.346 55.3344 578.246 57.4344C576.286 59.5344 575.166 62.4744 574.886 66.2544C574.746 69.8944 574.676 74.2344 574.676 79.2744V119.594C576.916 119.734 579.016 119.874 580.976 120.014C583.076 120.154 585.316 120.154 587.696 120.014Z" fill="#042245"/>
<path d="M350.168 193.514V186.584C355.488 186.304 359.128 185.114 361.088 183.014C363.048 180.774 364.098 177.764 364.238 173.984C364.518 170.064 364.658 165.654 364.658 160.754V70.0344C364.658 67.2344 364.728 64.5744 364.868 62.0544C365.008 59.3944 365.148 57.0144 365.288 54.9144C362.768 55.0544 360.248 55.1944 357.728 55.3344C355.208 55.4744 352.688 55.6144 350.168 55.7544V46.5144H397.418V53.4444C392.238 53.5844 388.598 54.7744 386.498 57.0144C384.538 59.2544 383.418 62.2644 383.138 66.0444C382.998 69.8244 382.928 74.2344 382.928 79.2744V169.364C382.928 173.144 382.858 176.364 382.718 179.024C382.718 181.684 382.578 183.924 382.298 185.744L421.568 185.114C430.388 184.974 437.038 182.174 441.518 176.714C446.138 171.254 448.448 162.364 448.448 150.044H455.588L454.328 193.514H350.168Z" stroke="#042245"/>
<path d="M518.824 53.4444C513.644 53.5844 510.004 54.7744 507.904 57.0144C505.944 59.2544 504.824 62.2644 504.544 66.0444C504.404 69.8244 504.335 74.2344 504.335 79.2744V168.524C504.335 172.304 504.264 175.594 504.124 178.394C504.124 181.054 503.984 183.294 503.704 185.114C506.224 184.974 508.744 184.834 511.264 184.694C513.784 184.554 516.304 184.414 518.824 184.274V193.514H471.575V186.584C476.895 186.304 480.535 185.114 482.495 183.014C484.455 180.774 485.505 177.764 485.645 173.984C485.925 170.064 486.065 165.654 486.065 160.754V70.0344C486.065 67.2344 486.135 64.5744 486.275 62.0544C486.415 59.3944 486.555 57.0144 486.695 54.9144C484.175 55.0544 481.655 55.1944 479.135 55.3344C476.615 55.4744 474.095 55.6144 471.575 55.7544V46.5144H518.824V53.4444Z" stroke="#042245"/>
<path d="M541.916 193.514V186.584C547.236 186.304 550.876 185.114 552.836 183.014C554.796 180.774 555.846 177.764 555.986 173.984C556.266 170.064 556.406 165.654 556.406 160.754V70.0344C556.406 67.2344 556.476 64.5744 556.616 62.0544C556.756 59.3944 556.896 57.0144 557.036 54.9144C554.516 55.0544 551.996 55.1944 549.476 55.3344C546.956 55.4744 544.436 55.6144 541.916 55.7544V46.5144C549.756 46.3744 557.666 46.2344 565.646 46.0944C573.766 45.9544 581.886 46.0244 590.006 46.3044C603.586 46.4444 614.506 48.0544 622.766 51.1344C631.166 54.0744 637.326 58.3444 641.246 63.9444C645.166 69.4044 647.126 76.0544 647.126 83.8944C647.266 89.3544 646.216 94.9544 643.976 100.694C641.876 106.294 637.956 111.334 632.216 115.814C626.616 120.294 618.496 123.654 607.856 125.894C610.656 127.854 613.106 130.374 615.206 133.454C617.306 136.534 619.686 140.104 622.346 144.164L636.626 166.634C639.006 170.414 641.316 173.844 643.556 176.924C645.796 179.864 648.386 182.244 651.326 184.064C654.266 185.744 657.906 186.584 662.246 186.584V193.514H635.786C631.726 189.874 628.296 186.234 625.496 182.594C622.836 178.954 620.036 174.824 617.096 170.204L603.026 147.734C601.206 144.794 599.106 141.434 596.726 137.654C594.486 133.734 591.896 130.444 588.956 127.784C586.716 127.924 584.336 127.994 581.816 127.994C579.436 127.994 577.056 127.924 574.676 127.784V168.524C574.676 172.304 574.606 175.594 574.466 178.394C574.466 181.054 574.326 183.294 574.046 185.114C575.726 184.974 577.406 184.904 579.086 184.904C580.766 184.764 582.446 184.624 584.126 184.484C585.806 184.344 587.486 184.274 589.166 184.274V193.514H541.916ZM587.696 120.014C595.396 119.734 602.116 118.474 607.856 116.234C613.736 113.994 618.356 110.424 621.716 105.524C625.076 100.624 626.756 94.1844 626.756 86.2044C626.756 80.8844 625.986 76.2644 624.446 72.3444C623.046 68.2844 620.806 64.9244 617.726 62.2644C614.646 59.6044 610.726 57.6444 605.966 56.3844C601.206 54.9844 595.606 54.2844 589.166 54.2844C583.986 54.2844 580.346 55.3344 578.246 57.4344C576.286 59.5344 575.166 62.4744 574.886 66.2544C574.746 69.8944 574.676 74.2344 574.676 79.2744V119.594C576.916 119.734 579.016 119.874 580.976 120.014C583.076 120.154 585.316 120.154 587.696 120.014Z" stroke="#042245"/>
<path fill-rule="evenodd" clip-rule="evenodd" d="M160.171 18.8448L169.253 72.1067C172.273 89.8196 147.482 97.2109 140.31 80.7358L148.435 77.1985C151.429 84.076 161.778 80.9905 160.517 73.5962L151.435 20.3344L160.171 18.8448Z" fill="#042245" stroke="#042245" stroke-width="2"/>
<path fill-rule="evenodd" clip-rule="evenodd" d="M82.7302 6.79431C97.9973 -1.31776 116.39 -0.877969 131.252 7.9545C137.535 11.6884 144.708 13.6591 152.017 13.6591H155.492V22.521H152.017C143.115 22.521 134.377 20.1206 126.725 15.5726C114.523 8.32116 99.4226 7.96009 86.8884 14.6201L72.9936 22.003L68.8354 14.1772L82.7302 6.79431Z" fill="#042245" stroke="#042245" stroke-width="2"/>
<path fill-rule="evenodd" clip-rule="evenodd" d="M228.249 6.78838C212.982 -1.32368 194.589 -0.883889 179.727 7.94858C173.444 11.6825 166.271 13.6532 158.962 13.6532H155.487V22.5151H158.962C167.864 22.5151 176.602 20.1147 184.254 15.5667C196.456 8.31524 211.556 7.95417 224.091 14.6141L237.985 21.997L242.144 14.1713L228.249 6.78838Z" fill="#042245" stroke="#042245" stroke-width="2"/>
<path fill-rule="evenodd" clip-rule="evenodd" d="M131.766 174.164L121.597 169.485L125.301 161.434L135.471 166.114C148.94 172.313 164.466 172.215 177.855 165.846L187.078 161.459L190.885 169.462L181.662 173.849C165.899 181.346 147.622 181.462 131.766 174.164Z" fill="#042245" stroke="#042245" stroke-width="2"/>
<path fill-rule="evenodd" clip-rule="evenodd" d="M230.497 102.494C234.779 87.4511 252.857 80.236 272.149 87.4176C286.868 92.897 295.121 109.719 292.871 126.185C290.141 146.153 271.146 160.2 250.678 157.688C230.595 155.223 221.684 145.62 210.654 133.733C207.298 130.117 203.746 126.289 199.623 122.386C192.841 115.965 186.819 110.636 179.976 106.986C172.987 103.258 165.372 101.39 155.485 101.39V110.252C164.126 110.252 170.272 111.853 175.805 114.805C181.485 117.835 186.745 122.398 193.531 128.822C196.881 131.993 199.993 135.367 203.11 138.746C214.53 151.128 226.024 163.59 249.598 166.483C274.594 169.551 298.227 152.434 301.651 127.385C304.335 107.748 294.67 86.3452 275.241 79.1125C253.112 70.8751 228.198 78.2022 221.974 100.068C220.132 106.539 219.862 112.659 221.525 118.435C223.187 124.212 226.668 129.251 231.67 133.753C235.944 137.6 243.125 141.435 250.882 142.098C258.966 142.788 267.647 139.979 273.727 130.606C280.261 120.532 276.425 109.763 269.546 104.252C266.1 101.491 261.62 99.8 256.952 100.309C252.144 100.833 247.773 103.622 244.643 108.611L252.149 113.321C254.031 110.322 256.138 109.312 257.912 109.119C259.825 108.91 262.029 109.584 264.005 111.168C267.97 114.344 269.929 120.177 266.292 125.783C262.202 132.089 256.862 133.714 251.636 133.268C246.081 132.794 240.66 129.922 237.598 127.166C233.534 123.508 231.146 119.824 230.041 115.984C228.936 112.144 229 107.753 230.497 102.494Z" fill="#042245" stroke="#042245" stroke-width="2"/>
<path fill-rule="evenodd" clip-rule="evenodd" d="M80.4955 102.494C76.2134 87.4511 58.1357 80.236 38.8437 87.4176C24.1244 92.897 15.8713 109.719 18.1221 126.185C20.8519 146.153 39.8462 160.2 60.3147 157.688C80.3976 155.223 89.3083 145.62 100.339 133.733C103.695 130.117 107.247 126.289 111.369 122.386C118.152 115.965 124.174 110.636 131.016 106.986C138.006 103.258 145.621 101.39 155.508 101.39V110.252C146.867 110.252 140.721 111.853 135.188 114.805C129.508 117.835 124.248 122.398 117.462 128.822C114.111 131.993 111 135.367 107.883 138.746C96.4626 151.128 84.9692 163.59 61.3943 166.483C36.3987 169.551 12.7662 152.434 9.3419 127.385C6.65756 107.748 16.323 86.3452 35.752 79.1125C57.8802 70.8751 82.7946 78.2022 89.0187 100.068C90.861 106.539 91.1304 112.659 89.4681 118.435C87.8057 124.212 84.3247 129.251 79.3228 133.753C75.0489 137.6 67.8673 141.435 60.1109 142.098C52.0263 142.788 43.3461 139.979 37.2659 130.606C30.7317 120.532 34.5676 109.763 41.4466 104.252C44.8922 101.491 49.3722 99.8 54.0407 100.309C58.8482 100.833 63.2197 103.622 66.3499 108.611L58.8434 113.321C56.9618 110.322 54.8544 109.312 53.0805 109.119C51.1676 108.91 48.9637 109.584 46.9876 111.168C43.0231 114.344 41.0641 120.177 44.7006 125.783C48.7911 132.089 54.1306 133.714 59.3569 133.268C64.9116 132.794 70.3323 129.922 73.3945 127.166C77.4587 123.508 79.8467 119.824 80.9518 115.984C82.057 112.144 81.9926 107.753 80.4955 102.494Z" fill="#042245" stroke="#042245" stroke-width="2"/>
<path fill-rule="evenodd" clip-rule="evenodd" d="M295.65 157.388C295.612 163.191 293.598 168.707 291.34 172.978C286.96 181.263 278.707 187.113 268.728 190.021C258.751 192.928 247.412 192.768 237.458 189.374C226.411 185.607 219.552 178.961 213.914 170.705C211.054 166.517 208.533 161.95 205.919 157.079C205.576 156.439 205.231 155.794 204.883 155.144C202.615 150.902 200.239 146.458 197.569 142.102C192.597 133.989 186.856 126.058 180.053 120.127C173.199 114.151 165.06 110.034 155.448 110.034L155.448 118.896C162.323 118.896 168.475 121.789 174.23 126.807C180.036 131.869 185.223 138.915 190.014 146.732C192.537 150.849 194.779 155.042 197.056 159.3C197.406 159.955 197.757 160.611 198.11 161.269C200.727 166.146 203.443 171.085 206.595 175.702C212.982 185.055 221.25 193.21 234.597 197.762C246.32 201.759 259.524 201.933 271.207 198.529C282.889 195.125 293.412 188.02 299.175 177.12C301.82 172.115 304.461 165.167 304.512 157.446C304.564 149.572 301.909 141.129 294.356 133.49L288.055 139.721C293.864 145.597 295.687 151.738 295.65 157.388Z" fill="#042245" stroke="#042245" stroke-width="2"/>
<path fill-rule="evenodd" clip-rule="evenodd" d="M15.3487 157.388C15.3868 163.191 17.4011 168.707 19.659 172.978C24.039 181.263 32.2922 187.113 42.2706 190.021C52.2476 192.928 63.5867 192.768 73.5414 189.374C84.5877 185.607 91.4475 178.961 97.0855 170.705C99.9452 166.517 102.466 161.95 105.08 157.079C105.423 156.439 105.768 155.794 106.116 155.144C108.384 150.902 110.76 146.458 113.43 142.102C118.402 133.989 124.143 126.058 130.946 120.127C137.8 114.151 145.939 110.034 155.551 110.034L155.551 118.896C148.676 118.896 142.524 121.789 136.769 126.807C130.963 131.869 125.776 138.915 120.985 146.732C118.462 150.849 116.22 155.042 113.943 159.3C113.593 159.955 113.242 160.611 112.889 161.269C110.272 166.146 107.556 171.085 104.404 175.702C98.0171 185.055 89.7487 193.21 76.4015 197.762C64.6792 201.759 51.4747 201.933 39.7916 198.529C28.1101 195.125 17.5869 188.02 11.8245 177.12C9.17857 172.115 6.53767 165.167 6.48701 157.446C6.43535 149.572 9.09005 141.129 16.6428 133.49L22.9444 139.721C17.1347 145.597 15.3116 151.738 15.3487 157.388Z" fill="#042245" stroke="#042245" stroke-width="2"/>
<path fill-rule="evenodd" clip-rule="evenodd" d="M285.375 203.673C283.327 209.936 278.959 215.168 275.238 217.854C259.094 229.506 235.482 229.627 217.962 217.777C208.294 211.239 203.424 203.023 200.155 193.575C198.497 188.782 197.265 183.713 196.024 178.326C195.861 177.619 195.698 176.906 195.533 176.187C194.46 171.498 193.337 166.586 191.906 161.681C189.16 152.264 184.23 141.802 178.145 133.601C175.099 129.496 171.661 125.818 167.929 123.131C164.206 120.45 159.94 118.583 155.352 118.583L155.352 127.444C157.491 127.444 159.973 128.323 162.751 130.323C165.519 132.316 168.334 135.251 171.028 138.881C176.421 146.15 180.914 155.641 183.399 164.162C184.75 168.797 185.811 173.432 186.889 178.139C187.055 178.862 187.221 179.588 187.388 180.315C188.631 185.709 189.952 191.189 191.78 196.472C195.483 207.175 201.316 217.217 212.997 225.118C233.418 238.93 261.092 238.993 280.424 225.04C285.555 221.337 291.125 214.6 293.798 206.429C296.536 198.061 296.241 188.073 289.259 178.628L282.133 183.896C287.161 190.697 287.36 197.607 285.375 203.673Z" fill="#042245" stroke="#042245" stroke-width="2"/>
<path fill-rule="evenodd" clip-rule="evenodd" d="M25.6318 203.669C27.6808 209.932 32.048 215.164 35.7697 217.85C51.9134 229.502 75.5252 229.624 93.0456 217.773C102.713 211.235 107.584 203.019 110.853 193.571C112.511 188.778 113.742 183.709 114.983 178.322C115.146 177.615 115.309 176.902 115.474 176.183C116.547 171.494 117.671 166.582 119.101 161.677C121.847 152.26 126.777 141.798 132.863 133.597C135.908 129.492 139.346 125.814 143.079 123.127C146.802 120.447 151.067 118.579 155.656 118.579L155.656 127.441C153.516 127.441 151.034 128.319 148.256 130.319C145.488 132.312 142.673 135.247 139.979 138.877C134.586 146.146 130.094 155.637 127.609 164.158C126.257 168.793 125.196 173.428 124.118 178.135C123.953 178.858 123.787 179.584 123.619 180.312C122.376 185.705 121.055 191.185 119.227 196.468C115.525 207.171 109.691 217.213 98.0104 225.114C77.589 238.926 49.9154 238.989 30.5834 225.036C25.4526 221.333 19.8823 214.596 17.2092 206.425C14.4716 198.057 14.7659 188.069 21.748 178.624L28.8741 183.892C23.8466 190.693 23.6474 197.603 25.6318 203.669Z" fill="#042245" stroke="#042245" stroke-width="2"/>
</svg>
