<svg width="212" height="302" viewBox="0 0 212 302" fill="none" xmlns="http://www.w3.org/2000/svg">
<path fill-rule="evenodd" clip-rule="evenodd" d="M109.19 139.658L115.381 175.965C117.44 188.039 100.54 193.078 95.6509 181.847L101.19 179.436C103.231 184.124 110.285 182.021 109.426 176.98L103.235 140.673L109.19 139.658Z" fill="#042245"/>
<path fill-rule="evenodd" clip-rule="evenodd" d="M56.3975 131.44C66.8046 125.911 79.3426 126.21 89.4735 132.231C93.7564 134.777 98.6463 136.12 103.628 136.12H105.997V142.161H103.628C97.5601 142.161 91.604 140.525 86.3873 137.424C78.0698 132.481 67.7762 132.235 59.232 136.775L49.7603 141.808L46.9258 136.473L56.3975 131.44Z" fill="#042245"/>
<path fill-rule="evenodd" clip-rule="evenodd" d="M155.594 131.438C145.187 125.909 132.649 126.208 122.518 132.229C118.235 134.775 113.345 136.118 108.363 136.118H105.994V142.159H108.363C114.432 142.159 120.388 140.523 125.604 137.422C133.922 132.479 144.216 132.233 152.76 136.773L162.231 141.806L165.066 136.471L155.594 131.438Z" fill="#042245"/>
<path fill-rule="evenodd" clip-rule="evenodd" d="M89.8242 245.534L82.8921 242.344L85.4175 236.856L92.3496 240.046C101.531 244.272 112.115 244.205 121.242 239.863L127.529 236.873L130.124 242.328L123.837 245.319C113.092 250.429 100.633 250.508 89.8242 245.534Z" fill="#042245"/>
<path fill-rule="evenodd" clip-rule="evenodd" d="M157.123 196.678C160.042 186.424 172.365 181.505 185.516 186.401C195.549 190.136 201.175 201.603 199.641 212.827C197.78 226.44 184.832 236.015 170.879 234.302C157.189 232.622 151.115 226.076 143.596 217.973C141.308 215.508 138.887 212.898 136.077 210.238C131.453 205.861 127.348 202.229 122.684 199.74C117.92 197.199 112.728 195.926 105.989 195.926V201.967C111.879 201.967 116.069 203.058 119.841 205.07C123.712 207.136 127.298 210.246 131.924 214.625C134.208 216.787 136.329 219.087 138.453 221.39C146.238 229.831 154.073 238.326 170.143 240.298C187.182 242.389 203.292 230.721 205.626 213.646C207.456 200.26 200.867 185.67 187.623 180.74C172.539 175.124 155.555 180.119 151.313 195.024C150.057 199.436 149.873 203.607 151.006 207.545C152.14 211.482 154.512 214.918 157.922 217.987C160.835 220.609 165.731 223.223 171.018 223.675C176.529 224.146 182.446 222.231 186.591 215.841C191.045 208.974 188.43 201.633 183.741 197.876C181.392 195.994 178.339 194.842 175.156 195.189C171.879 195.546 168.899 197.447 166.765 200.848L171.882 204.059C173.165 202.015 174.602 201.326 175.811 201.194C177.115 201.052 178.617 201.511 179.964 202.591C182.667 204.756 184.002 208.732 181.523 212.554C178.735 216.852 175.095 217.96 171.532 217.656C167.746 217.333 164.051 215.375 161.963 213.497C159.193 211.003 157.565 208.492 156.812 205.874C156.058 203.256 156.102 200.263 157.123 196.678Z" fill="#042245"/>
<path fill-rule="evenodd" clip-rule="evenodd" d="M54.8744 196.678C51.9554 186.424 39.6323 181.505 26.4815 186.401C16.4477 190.136 10.8218 201.603 12.3561 212.827C14.2169 226.44 27.1648 236.015 41.1177 234.302C54.8077 232.622 60.8819 226.076 68.4013 217.973C70.6888 215.508 73.1101 212.898 75.9203 210.238C80.5438 205.861 84.649 202.229 89.3132 199.74C94.0775 197.199 99.2687 195.926 106.008 195.926V201.967C100.118 201.967 95.9282 203.058 92.1566 205.07C88.2849 207.136 84.6992 210.246 80.0733 214.625C77.7895 216.787 75.6685 219.087 73.5437 221.39C65.7588 229.831 57.924 238.326 41.8536 240.298C24.8148 242.389 8.70512 230.721 6.3709 213.646C4.54106 200.26 11.1297 185.67 24.374 180.74C39.4582 175.124 56.4416 180.119 60.6845 195.024C61.9403 199.436 62.1239 203.607 60.9908 207.545C59.8576 211.482 57.4847 214.918 54.075 217.987C51.1616 220.609 46.2661 223.223 40.9788 223.675C35.4677 224.146 29.5506 222.231 25.4059 215.841C20.9518 208.974 23.5666 201.633 28.2558 197.876C30.6046 195.994 33.6585 194.842 36.8409 195.189C40.118 195.546 43.098 197.447 45.2318 200.848L40.1147 204.059C38.8321 202.015 37.3955 201.326 36.1863 201.194C34.8823 201.052 33.38 201.511 32.033 202.591C29.3305 204.756 27.9951 208.732 30.474 212.554C33.2624 216.852 36.9021 217.96 40.4648 217.656C44.2513 217.333 47.9465 215.375 50.0339 213.497C52.8043 211.003 54.4321 208.492 55.1855 205.874C55.9389 203.256 55.895 200.263 54.8744 196.678Z" fill="#042245"/>
<path fill-rule="evenodd" clip-rule="evenodd" d="M201.536 234.097C201.51 238.053 200.137 241.813 198.598 244.725C195.612 250.373 189.986 254.36 183.184 256.342C176.383 258.324 168.653 258.215 161.867 255.901C154.337 253.334 149.661 248.803 145.818 243.175C143.869 240.32 142.15 237.207 140.368 233.887C140.134 233.451 139.899 233.011 139.662 232.568C138.116 229.676 136.497 226.647 134.677 223.677C131.287 218.147 127.374 212.741 122.736 208.698C118.064 204.624 112.516 201.817 105.963 201.817L105.963 207.858C110.65 207.858 114.844 209.831 118.767 213.251C122.724 216.702 126.26 221.505 129.526 226.834C131.246 229.64 132.775 232.498 134.327 235.401C134.565 235.847 134.805 236.294 135.045 236.743C136.829 240.068 138.68 243.435 140.829 246.582C145.183 252.957 150.819 258.517 159.918 261.619C167.908 264.344 176.91 264.463 184.874 262.142C192.837 259.822 200.01 254.978 203.938 247.548C205.742 244.136 207.542 239.4 207.577 234.137C207.612 228.769 205.802 223.014 200.654 217.807L196.358 222.054C200.318 226.06 201.561 230.246 201.536 234.097Z" fill="#042245"/>
<path fill-rule="evenodd" clip-rule="evenodd" d="M10.4637 234.097C10.4897 238.053 11.8628 241.813 13.4019 244.725C16.3877 250.373 22.0137 254.36 28.8157 256.342C35.6167 258.324 43.3463 258.215 50.1321 255.901C57.6621 253.334 62.3382 248.803 66.1815 243.175C68.1309 240.32 69.8495 237.207 71.6312 233.887C71.8651 233.451 72.1002 233.011 72.337 232.568C73.8833 229.676 75.5028 226.647 77.3228 223.677C80.7122 218.147 84.6257 212.741 89.2631 208.698C93.9354 204.624 99.4834 201.817 106.036 201.817L106.036 207.858C101.349 207.858 97.1559 209.831 93.233 213.251C89.2751 216.702 85.7394 221.505 82.4734 226.834C80.7535 229.64 79.2249 232.498 77.6728 235.401C77.4341 235.847 77.1949 236.294 76.9543 236.743C75.1703 240.068 73.3193 243.435 71.1702 246.582C66.8166 252.957 61.1802 258.517 52.0818 261.619C44.091 264.344 35.0898 264.463 27.1258 262.142C19.1628 259.822 11.9895 254.978 8.06138 247.548C6.25771 244.136 4.45748 239.4 4.42294 234.137C4.38772 228.769 6.19736 223.014 11.3459 217.807L15.6415 222.054C11.6812 226.06 10.4384 230.246 10.4637 234.097Z" fill="#042245"/>
<path fill-rule="evenodd" clip-rule="evenodd" d="M194.536 265.65C193.139 269.919 190.162 273.486 187.625 275.317C176.621 283.259 160.525 283.342 148.582 275.264C141.992 270.807 138.672 265.207 136.443 258.766C135.313 255.499 134.473 252.044 133.627 248.371C133.516 247.889 133.405 247.403 133.293 246.914C132.562 243.717 131.796 240.369 130.82 237.025C128.949 230.606 125.588 223.474 121.44 217.883C119.364 215.085 117.02 212.578 114.476 210.746C111.938 208.919 109.03 207.646 105.902 207.646L105.902 213.687C107.361 213.687 109.053 214.286 110.946 215.649C112.833 217.007 114.752 219.008 116.588 221.483C120.265 226.438 123.327 232.908 125.021 238.716C125.943 241.876 126.666 245.035 127.4 248.244C127.513 248.737 127.627 249.232 127.741 249.728C128.588 253.404 129.488 257.14 130.734 260.741C133.259 268.037 137.235 274.883 145.198 280.268C159.118 289.684 177.983 289.726 191.161 280.215C194.658 277.691 198.455 273.098 200.278 267.528C202.144 261.824 201.943 255.016 197.184 248.577L192.326 252.168C195.753 256.804 195.889 261.515 194.536 265.65Z" fill="#042245"/>
<path fill-rule="evenodd" clip-rule="evenodd" d="M17.4678 265.647C18.8645 269.917 21.8416 273.483 24.3785 275.314C35.3833 283.257 51.4788 283.34 63.422 275.262C70.0119 270.805 73.3323 265.204 75.5606 258.764C76.6908 255.497 77.5304 252.041 78.3764 248.369C78.4875 247.887 78.5987 247.401 78.7107 246.911C79.4422 243.714 80.2083 240.366 81.1834 237.022C83.0554 230.603 86.4159 223.471 90.5641 217.881C92.6402 215.083 94.9841 212.575 97.5282 210.744C100.066 208.917 102.974 207.644 106.102 207.644L106.102 213.684C104.643 213.684 102.951 214.283 101.058 215.646C99.1705 217.005 97.2516 219.006 95.4154 221.481C91.739 226.435 88.6767 232.905 86.9828 238.714C86.0613 241.873 85.338 245.033 84.6036 248.241C84.4906 248.735 84.3774 249.229 84.2631 249.725C83.4161 253.402 82.5155 257.137 81.2695 260.739C78.7453 268.035 74.7689 274.88 66.8064 280.266C52.8856 289.681 34.0213 289.724 20.8432 280.213C17.3457 277.689 13.5485 273.096 11.7264 267.526C9.86021 261.821 10.0608 255.013 14.8203 248.575L19.678 252.166C16.2509 256.802 16.1151 261.513 17.4678 265.647Z" fill="#042245"/>
<path d="M2.12012 98.3853V93.7707C5.66259 93.5843 8.08639 92.7919 9.39151 91.3935C10.6966 89.902 11.3958 87.8977 11.489 85.3806C11.6755 82.7704 11.7687 79.8339 11.7687 76.5711V16.1626C11.7687 14.2981 11.8153 12.5268 11.9085 10.8488C12.0018 9.0776 12.095 7.49281 12.1882 6.09447C10.5102 6.18769 8.83217 6.28091 7.15416 6.37413C5.47615 6.46736 3.79813 6.56058 2.12012 6.6538V0.501079H33.5829V5.11562C30.1336 5.20885 27.7098 6.00124 26.3115 7.49281C25.0064 8.98438 24.2606 10.9887 24.0741 13.5057C23.9809 16.0227 23.9343 18.9592 23.9343 22.3153V82.3043C23.9343 84.8213 23.8877 86.9654 23.7945 88.7367C23.7945 90.5079 23.7012 91.9995 23.5148 93.2114L49.6639 92.7919C55.5369 92.6987 59.965 90.8342 62.9481 87.1985C66.0245 83.5628 67.5627 77.6431 67.5627 69.4395H72.3171L71.478 98.3853H2.12012Z" fill="#042245"/>
<path d="M114.425 5.11562C110.975 5.20885 108.552 6.00124 107.153 7.49281C105.848 8.98438 105.102 10.9887 104.916 13.5057C104.823 16.0227 104.776 18.9592 104.776 22.3153V81.7449C104.776 84.262 104.73 86.4527 104.636 88.3172C104.636 90.0884 104.543 91.58 104.357 92.7919C106.035 92.6987 107.713 92.6054 109.391 92.5122C111.069 92.419 112.747 92.3258 114.425 92.2325V98.3853H82.962V93.7707C86.5044 93.5843 88.9282 92.7919 90.2333 91.3935C91.5385 89.902 92.2376 87.8977 92.3309 85.3806C92.5173 82.7704 92.6105 79.8339 92.6105 76.5711V16.1626C92.6105 14.2981 92.6571 12.5268 92.7504 10.8488C92.8436 9.0776 92.9368 7.49281 93.03 6.09447C91.352 6.18769 89.674 6.28091 87.996 6.37413C86.318 6.46736 84.64 6.56058 82.962 6.6538V0.501079H114.425V5.11562Z" fill="#042245"/>
<path d="M129.801 98.3853V93.7707C133.344 93.5843 135.767 92.7919 137.072 91.3935C138.378 89.902 139.077 87.8977 139.17 85.3806C139.356 82.7704 139.45 79.8339 139.45 76.5711V16.1626C139.45 14.2981 139.496 12.5268 139.589 10.8488C139.683 9.0776 139.776 7.49281 139.869 6.09447C138.191 6.18769 136.513 6.28091 134.835 6.37413C133.157 6.46736 131.479 6.56058 129.801 6.6538V0.501079C135.022 0.407857 140.289 0.314638 145.602 0.221416C151.009 0.128194 156.416 0.174804 161.823 0.361248C170.866 0.454469 178.137 1.52653 183.637 3.57744C189.231 5.53513 193.333 8.37843 195.943 12.1073C198.553 15.7431 199.858 20.1711 199.858 25.3916C199.951 29.0273 199.252 32.7563 197.761 36.5784C196.362 40.3073 193.752 43.6633 189.93 46.6465C186.201 49.6296 180.794 51.867 173.709 53.3585C175.574 54.6637 177.205 56.3417 178.603 58.3926C180.002 60.4435 181.586 62.8207 183.358 65.5241L192.866 80.4864C194.451 83.0035 195.989 85.2874 197.481 87.3383C198.973 89.296 200.697 90.8808 202.655 92.0927C204.613 93.2114 207.036 93.7707 209.926 93.7707V98.3853H192.307C189.604 95.9615 187.32 93.5377 185.455 91.1139C183.684 88.6901 181.82 85.94 179.862 82.8636L170.493 67.9013C169.281 65.9436 167.883 63.7063 166.298 61.1893C164.806 58.579 163.082 56.3883 161.124 54.6171C159.632 54.7103 158.048 54.7569 156.37 54.7569C154.785 54.7569 153.2 54.7103 151.615 54.6171V81.7449C151.615 84.262 151.569 86.4527 151.475 88.3172C151.475 90.0884 151.382 91.58 151.196 92.7919C152.314 92.6987 153.433 92.652 154.552 92.652C155.67 92.5588 156.789 92.4656 157.908 92.3724C159.026 92.2792 160.145 92.2325 161.264 92.2325V98.3853H129.801ZM160.285 49.4432C165.412 49.2567 169.887 48.4177 173.709 46.9262C177.624 45.4346 180.701 43.0574 182.938 39.7946C185.176 36.5318 186.294 32.2435 186.294 26.9298C186.294 23.3873 185.781 20.311 184.756 17.7007C183.824 14.9973 182.332 12.7599 180.281 10.9887C178.23 9.21743 175.62 7.91231 172.451 7.0733C169.281 6.14107 165.552 5.67496 161.264 5.67496C157.815 5.67496 155.391 6.37413 153.992 7.77248C152.687 9.17083 151.942 11.1285 151.755 13.6455C151.662 16.0693 151.615 18.9592 151.615 22.3153V49.1635C153.107 49.2567 154.505 49.3499 155.81 49.4432C157.209 49.5364 158.7 49.5364 160.285 49.4432Z" fill="#042245"/>
<path d="M2.12012 98.3853V93.7707C5.66259 93.5843 8.08639 92.7919 9.39151 91.3935C10.6966 89.902 11.3958 87.8977 11.489 85.3806C11.6755 82.7704 11.7687 79.8339 11.7687 76.5711V16.1626C11.7687 14.2981 11.8153 12.5268 11.9085 10.8488C12.0018 9.0776 12.095 7.49281 12.1882 6.09447C10.5102 6.18769 8.83217 6.28091 7.15416 6.37413C5.47615 6.46736 3.79813 6.56058 2.12012 6.6538V0.501079H33.5829V5.11562C30.1336 5.20885 27.7098 6.00124 26.3115 7.49281C25.0064 8.98438 24.2606 10.9887 24.0741 13.5057C23.9809 16.0227 23.9343 18.9592 23.9343 22.3153V82.3043C23.9343 84.8213 23.8877 86.9654 23.7945 88.7367C23.7945 90.5079 23.7012 91.9995 23.5148 93.2114L49.6639 92.7919C55.5369 92.6987 59.965 90.8342 62.9481 87.1985C66.0245 83.5628 67.5627 77.6431 67.5627 69.4395H72.3171L71.478 98.3853H2.12012Z" stroke="white"/>
<path d="M114.425 5.11562C110.975 5.20885 108.552 6.00124 107.153 7.49281C105.848 8.98438 105.102 10.9887 104.916 13.5057C104.823 16.0227 104.776 18.9592 104.776 22.3153V81.7449C104.776 84.262 104.73 86.4527 104.636 88.3172C104.636 90.0884 104.543 91.58 104.357 92.7919C106.035 92.6987 107.713 92.6054 109.391 92.5122C111.069 92.419 112.747 92.3258 114.425 92.2325V98.3853H82.962V93.7707C86.5044 93.5843 88.9282 92.7919 90.2333 91.3935C91.5385 89.902 92.2376 87.8977 92.3309 85.3806C92.5173 82.7704 92.6105 79.8339 92.6105 76.5711V16.1626C92.6105 14.2981 92.6571 12.5268 92.7504 10.8488C92.8436 9.0776 92.9368 7.49281 93.03 6.09447C91.352 6.18769 89.674 6.28091 87.996 6.37413C86.318 6.46736 84.64 6.56058 82.962 6.6538V0.501079H114.425V5.11562Z" stroke="white"/>
<path d="M129.801 98.3853V93.7707C133.344 93.5843 135.767 92.7919 137.072 91.3935C138.378 89.902 139.077 87.8977 139.17 85.3806C139.356 82.7704 139.45 79.8339 139.45 76.5711V16.1626C139.45 14.2981 139.496 12.5268 139.589 10.8488C139.683 9.0776 139.776 7.49281 139.869 6.09447C138.191 6.18769 136.513 6.28091 134.835 6.37413C133.157 6.46736 131.479 6.56058 129.801 6.6538V0.501079C135.022 0.407857 140.289 0.314638 145.602 0.221416C151.009 0.128194 156.416 0.174804 161.823 0.361248C170.866 0.454469 178.137 1.52653 183.637 3.57744C189.231 5.53513 193.333 8.37843 195.943 12.1073C198.553 15.7431 199.858 20.1711 199.858 25.3916C199.951 29.0273 199.252 32.7563 197.761 36.5784C196.362 40.3073 193.752 43.6633 189.93 46.6465C186.201 49.6296 180.794 51.867 173.709 53.3585C175.574 54.6637 177.205 56.3417 178.603 58.3926C180.002 60.4435 181.586 62.8207 183.358 65.5241L192.866 80.4864C194.451 83.0035 195.989 85.2874 197.481 87.3383C198.973 89.296 200.697 90.8808 202.655 92.0927C204.613 93.2114 207.036 93.7707 209.926 93.7707V98.3853H192.307C189.604 95.9615 187.32 93.5377 185.455 91.1139C183.684 88.6901 181.82 85.94 179.862 82.8636L170.493 67.9013C169.281 65.9436 167.883 63.7063 166.298 61.1893C164.806 58.579 163.082 56.3883 161.124 54.6171C159.632 54.7103 158.048 54.7569 156.37 54.7569C154.785 54.7569 153.2 54.7103 151.615 54.6171V81.7449C151.615 84.262 151.569 86.4527 151.475 88.3172C151.475 90.0884 151.382 91.58 151.196 92.7919C152.314 92.6987 153.433 92.652 154.552 92.652C155.67 92.5588 156.789 92.4656 157.908 92.3724C159.026 92.2792 160.145 92.2325 161.264 92.2325V98.3853H129.801ZM160.285 49.4432C165.412 49.2567 169.887 48.4177 173.709 46.9262C177.624 45.4346 180.701 43.0574 182.938 39.7946C185.176 36.5318 186.294 32.2435 186.294 26.9298C186.294 23.3873 185.781 20.311 184.756 17.7007C183.824 14.9973 182.332 12.7599 180.281 10.9887C178.23 9.21743 175.62 7.91231 172.451 7.0733C169.281 6.14107 165.552 5.67496 161.264 5.67496C157.815 5.67496 155.391 6.37413 153.992 7.77248C152.687 9.17083 151.942 11.1285 151.755 13.6455C151.662 16.0693 151.615 18.9592 151.615 22.3153V49.1635C153.107 49.2567 154.505 49.3499 155.81 49.4432C157.209 49.5364 158.7 49.5364 160.285 49.4432Z" stroke="white"/>
</svg>
