<svg width="662" height="241" viewBox="0 0 662 241" fill="none" xmlns="http://www.w3.org/2000/svg">
<path fill-rule="evenodd" clip-rule="evenodd" d="M117.219 190.414L114.893 194.808C111.102 201.968 106.343 208.571 100.749 214.432L98.4422 216.85C91.218 224.42 82.4482 230.345 72.7292 234.222L64.5851 237.471C59.3624 239.555 53.724 240.385 48.1223 239.896L40.7259 239.25C21.4066 237.562 8.75562 218.442 14.477 200.135C4.64231 189.188 0.885148 173.784 5.01397 159.249L6.01835 155.714C0.371325 144.952 -1.39747 132.506 1.11857 120.503L1.71372 117.664C3.59456 108.692 8.25553 100.54 15.0342 94.3687C24.5902 85.6683 37.5133 81.6552 50.3167 83.4123L58.8763 84.5869C67.7745 85.8081 75.7636 90.6758 80.9289 98.0234C85.5995 104.667 87.5984 112.826 86.5281 120.876L86.3594 122.145C84.9356 132.855 78.1589 142.104 68.376 146.689L61.1244 150.088C53.1392 153.83 43.6566 152.064 37.5541 145.698C25.3571 132.973 33.7756 111.805 51.3802 110.932L57.0063 110.653L57.5387 121.394L51.9126 121.673C43.5151 122.089 39.4994 132.187 45.3175 138.256C48.2284 141.293 52.7516 142.136 56.5606 140.35L63.8122 136.952C70.2788 133.921 74.7582 127.807 75.6994 120.728L75.868 119.459C76.5823 114.087 75.2483 108.642 72.1313 104.208C68.6842 99.3044 63.3525 96.0559 57.4142 95.241L48.8546 94.0663C39.209 92.7426 29.4732 95.7659 22.274 102.321C17.1672 106.97 13.6558 113.111 12.2388 119.87L11.6437 122.71C9.35125 133.645 11.5306 145.044 17.6956 154.362L19.8682 157.646C23.4668 163.086 28.5991 167.334 34.6147 169.854C43.5747 173.606 53.7343 173.212 62.3767 168.777L69.3934 165.176C73.7529 162.939 77.7591 160.072 81.2828 156.667L89.7329 148.502C107.113 131.708 128.546 119.7 151.944 113.647C151.944 113.647 154.141 113.014 155.58 113.042C156.87 113.067 158.828 113.647 158.828 113.647C182.227 119.7 203.659 131.708 221.039 148.502L229.489 156.667C233.013 160.072 237.019 162.939 241.379 165.176L248.396 168.777C257.038 173.212 267.198 173.606 276.158 169.854C282.173 167.334 287.306 163.086 290.904 157.646L293.077 154.362C299.242 145.044 301.421 133.645 299.129 122.71L298.533 119.87C297.116 113.111 293.605 106.97 288.498 102.321C281.299 95.7659 271.563 92.7426 261.918 94.0663L253.358 95.241C247.42 96.0559 242.088 99.3044 238.641 104.208C235.524 108.642 234.19 114.087 234.904 119.459L235.073 120.728C236.014 127.807 240.493 133.921 246.96 136.952L254.212 140.35C258.021 142.136 262.544 141.293 265.455 138.256C271.273 132.187 267.257 122.089 258.86 121.673L253.234 121.394L253.766 110.653L259.392 110.932C276.997 111.805 285.415 132.973 273.218 145.698C267.116 152.064 257.633 153.83 249.648 150.088L242.396 146.689C232.613 142.104 225.837 132.855 224.413 122.145L224.244 120.876C223.174 112.826 225.173 104.667 229.843 98.0234C235.009 90.6758 242.998 85.8081 251.896 84.5869L260.456 83.4123C273.259 81.6552 286.182 85.6683 295.738 94.3687C302.517 100.54 307.178 108.692 309.059 117.664L309.654 120.503C312.17 132.506 310.401 144.953 304.753 155.716L305.757 159.249C309.885 173.783 306.129 189.187 296.295 200.133C302.017 218.441 289.366 237.562 270.046 239.25L262.65 239.896C257.048 240.385 251.41 239.555 246.187 237.471L238.043 234.222C228.324 230.345 219.554 224.42 212.33 216.85L210.023 214.432C204.43 208.571 199.67 201.968 195.88 194.808L193.972 191.205C169.341 201.014 141.759 200.777 117.219 190.414ZM155.386 139.98L157.368 141.797C169.935 153.32 180.569 166.777 188.871 181.653C167.457 189.851 143.652 189.62 122.328 180.892C130.567 166.318 141.052 153.123 153.405 141.797L155.386 139.98ZM205.384 189.776L203.711 186.617L202.36 184.018L202.013 183.41L200.062 179.724C192.136 164.753 182.028 151.061 170.081 139.091C181.699 147.067 191.728 157.213 199.59 169.015L200.514 170.401C209.074 183.25 220.165 194.218 233.108 202.634L241.051 207.798C244.196 209.843 247.597 211.461 251.167 212.611C263.209 216.49 276.297 214.776 286.888 208.056C287.459 218.218 279.898 227.594 269.11 228.537L261.714 229.183C257.787 229.526 253.834 228.944 250.172 227.483L242.028 224.234C233.743 220.929 226.268 215.878 220.11 209.425L217.803 207.008C212.891 201.861 208.712 196.063 205.384 189.776ZM280.312 179.773C286.571 177.151 292.109 173.119 296.51 168.019C297.582 179.251 292.763 190.428 283.485 197.33L283.066 197.642C274.857 203.749 264.203 205.512 254.464 202.375C251.799 201.517 249.26 200.309 246.913 198.783L238.97 193.618C227.253 185.999 217.212 176.071 209.463 164.439L208.54 163.053C200.655 151.218 190.786 140.901 179.414 132.533C191.954 138.515 203.497 146.505 213.567 156.235L222.017 164.4C226.3 168.539 231.17 172.024 236.469 174.744L243.486 178.344C254.95 184.228 268.426 184.75 280.312 179.773ZM27.2857 197.33C18.0074 190.428 13.1882 179.25 14.2607 168.018C18.6618 173.118 24.2006 177.151 30.4605 179.773C42.346 184.75 55.8225 184.228 67.2867 178.344L74.3034 174.744C79.6025 172.024 84.4721 168.539 88.7554 164.4L97.2055 156.235C107.274 146.506 118.815 138.517 131.354 132.535C119.983 140.903 110.115 151.219 102.23 163.053L101.307 164.439C93.5582 176.071 83.5179 185.999 71.8003 193.618L63.8573 198.783C61.5103 200.309 58.9713 201.517 56.3066 202.375C46.568 205.512 35.9139 203.749 27.705 197.642L27.2857 197.33ZM23.884 208.057C23.3134 218.219 30.8746 227.594 41.6618 228.537L49.0582 229.183C52.9855 229.526 56.9386 228.944 60.6003 227.483L68.7444 224.234C77.0289 220.929 84.5045 215.878 90.6625 209.425L92.9697 207.008C97.8811 201.861 102.06 196.063 105.389 189.776L110.71 179.724C118.637 164.752 128.746 151.058 140.694 139.087C129.074 147.064 119.044 157.211 111.18 169.015L110.257 170.401C101.697 183.25 90.6061 194.218 77.6623 202.634L69.7194 207.798C66.5751 209.843 63.1735 211.461 59.6037 212.611C47.562 216.49 34.4754 214.776 23.884 208.057Z" fill="#042245"/>
<path fill-rule="evenodd" clip-rule="evenodd" d="M131.203 8.60729C114.213 -1.48967 93.1868 -1.99242 75.7341 7.281L59.9461 15.6698L64.9921 25.1664L80.78 16.7775C94.9164 9.26623 111.947 9.67345 125.708 17.8518C134.288 22.9505 144.06 25.6881 154.032 25.792L163.589 81.8407C164.954 89.8439 153.753 93.1835 150.512 85.7396L140.652 90.0321C148.963 109.123 177.69 100.558 174.19 80.0331L164.942 25.7948C173.73 25.7684 182.389 23.6666 190.212 19.6597C203.365 12.9233 218.986 13.066 232.014 20.0417L241.569 25.1583L246.646 15.6779L237.09 10.5614C220.952 1.92046 201.603 1.74364 185.31 10.0882C178.954 13.3435 171.915 15.0412 164.774 15.0412H154.622C146.379 15.0412 138.289 12.8185 131.203 8.60729Z" fill="#042245"/>
<path d="M349.922 193.514V186.584C355.242 186.304 358.882 185.114 360.842 183.014C362.802 180.774 363.852 177.764 363.992 173.984C364.272 170.064 364.412 165.654 364.412 160.754V70.0344C364.412 67.2344 364.482 64.5744 364.622 62.0544C364.762 59.3944 364.902 57.0144 365.042 54.9144C362.522 55.0544 360.002 55.1944 357.482 55.3344C354.962 55.4744 352.442 55.6144 349.922 55.7544V46.5144H397.172V53.4444C391.992 53.5844 388.352 54.7744 386.252 57.0144C384.292 59.2544 383.172 62.2644 382.892 66.0444C382.752 69.8244 382.682 74.2344 382.682 79.2744V169.364C382.682 173.144 382.612 176.364 382.472 179.024C382.472 181.684 382.332 183.924 382.052 185.744L421.322 185.114C430.142 184.974 436.792 182.174 441.272 176.714C445.892 171.254 448.202 162.364 448.202 150.044H455.342L454.082 193.514H349.922Z" fill="#042245"/>
<path d="M518.578 53.4444C513.398 53.5844 509.758 54.7744 507.658 57.0144C505.698 59.2544 504.578 62.2644 504.298 66.0444C504.158 69.8244 504.088 74.2344 504.088 79.2744V168.524C504.088 172.304 504.018 175.594 503.878 178.394C503.878 181.054 503.738 183.294 503.458 185.114C505.978 184.974 508.498 184.834 511.018 184.694C513.538 184.554 516.058 184.414 518.578 184.274V193.514H471.328V186.584C476.648 186.304 480.288 185.114 482.248 183.014C484.208 180.774 485.258 177.764 485.398 173.984C485.678 170.064 485.818 165.654 485.818 160.754V70.0344C485.818 67.2344 485.888 64.5744 486.028 62.0544C486.168 59.3944 486.308 57.0144 486.448 54.9144C483.928 55.0544 481.408 55.1944 478.888 55.3344C476.368 55.4744 473.848 55.6144 471.328 55.7544V46.5144H518.578V53.4444Z" fill="#042245"/>
<path d="M541.67 193.514V186.584C546.99 186.304 550.63 185.114 552.59 183.014C554.55 180.774 555.6 177.764 555.74 173.984C556.02 170.064 556.16 165.654 556.16 160.754V70.0344C556.16 67.2344 556.23 64.5744 556.37 62.0544C556.51 59.3944 556.65 57.0144 556.79 54.9144C554.27 55.0544 551.75 55.1944 549.23 55.3344C546.71 55.4744 544.19 55.6144 541.67 55.7544V46.5144C549.51 46.3744 557.42 46.2344 565.4 46.0944C573.52 45.9544 581.64 46.0244 589.76 46.3044C603.34 46.4444 614.26 48.0544 622.52 51.1344C630.92 54.0744 637.08 58.3444 641 63.9444C644.92 69.4044 646.88 76.0544 646.88 83.8944C647.02 89.3544 645.97 94.9544 643.73 100.694C641.63 106.294 637.71 111.334 631.97 115.814C626.37 120.294 618.25 123.654 607.61 125.894C610.41 127.854 612.86 130.374 614.96 133.454C617.06 136.534 619.44 140.104 622.1 144.164L636.38 166.634C638.76 170.414 641.07 173.844 643.31 176.924C645.55 179.864 648.14 182.244 651.08 184.064C654.02 185.744 657.66 186.584 662 186.584V193.514H635.54C631.48 189.874 628.05 186.234 625.25 182.594C622.59 178.954 619.79 174.824 616.85 170.204L602.78 147.734C600.96 144.794 598.86 141.434 596.48 137.654C594.24 133.734 591.65 130.444 588.71 127.784C586.47 127.924 584.09 127.994 581.57 127.994C579.19 127.994 576.81 127.924 574.43 127.784V168.524C574.43 172.304 574.36 175.594 574.22 178.394C574.22 181.054 574.08 183.294 573.8 185.114C575.48 184.974 577.16 184.904 578.84 184.904C580.52 184.764 582.2 184.624 583.88 184.484C585.56 184.344 587.24 184.274 588.92 184.274V193.514H541.67ZM587.45 120.014C595.15 119.734 601.87 118.474 607.61 116.234C613.49 113.994 618.11 110.424 621.47 105.524C624.83 100.624 626.51 94.1844 626.51 86.2044C626.51 80.8844 625.74 76.2644 624.2 72.3444C622.8 68.2844 620.56 64.9244 617.48 62.2644C614.4 59.6044 610.48 57.6444 605.72 56.3844C600.96 54.9844 595.36 54.2844 588.92 54.2844C583.74 54.2844 580.1 55.3344 578 57.4344C576.04 59.5344 574.92 62.4744 574.64 66.2544C574.5 69.8944 574.43 74.2344 574.43 79.2744V119.594C576.67 119.734 578.77 119.874 580.73 120.014C582.83 120.154 585.07 120.154 587.45 120.014Z" fill="#042245"/>
<path d="M349.922 193.514V186.584C355.242 186.304 358.882 185.114 360.842 183.014C362.802 180.774 363.852 177.764 363.992 173.984C364.272 170.064 364.412 165.654 364.412 160.754V70.0344C364.412 67.2344 364.482 64.5744 364.622 62.0544C364.762 59.3944 364.902 57.0144 365.042 54.9144C362.522 55.0544 360.002 55.1944 357.482 55.3344C354.962 55.4744 352.442 55.6144 349.922 55.7544V46.5144H397.172V53.4444C391.992 53.5844 388.352 54.7744 386.252 57.0144C384.292 59.2544 383.172 62.2644 382.892 66.0444C382.752 69.8244 382.682 74.2344 382.682 79.2744V169.364C382.682 173.144 382.612 176.364 382.472 179.024C382.472 181.684 382.332 183.924 382.052 185.744L421.322 185.114C430.142 184.974 436.792 182.174 441.272 176.714C445.892 171.254 448.202 162.364 448.202 150.044H455.342L454.082 193.514H349.922Z" stroke="white"/>
<path d="M518.578 53.4444C513.398 53.5844 509.758 54.7744 507.658 57.0144C505.698 59.2544 504.578 62.2644 504.298 66.0444C504.158 69.8244 504.088 74.2344 504.088 79.2744V168.524C504.088 172.304 504.018 175.594 503.878 178.394C503.878 181.054 503.738 183.294 503.458 185.114C505.978 184.974 508.498 184.834 511.018 184.694C513.538 184.554 516.058 184.414 518.578 184.274V193.514H471.328V186.584C476.648 186.304 480.288 185.114 482.248 183.014C484.208 180.774 485.258 177.764 485.398 173.984C485.678 170.064 485.818 165.654 485.818 160.754V70.0344C485.818 67.2344 485.888 64.5744 486.028 62.0544C486.168 59.3944 486.308 57.0144 486.448 54.9144C483.928 55.0544 481.408 55.1944 478.888 55.3344C476.368 55.4744 473.848 55.6144 471.328 55.7544V46.5144H518.578V53.4444Z" stroke="white"/>
<path d="M541.67 193.514V186.584C546.99 186.304 550.63 185.114 552.59 183.014C554.55 180.774 555.6 177.764 555.74 173.984C556.02 170.064 556.16 165.654 556.16 160.754V70.0344C556.16 67.2344 556.23 64.5744 556.37 62.0544C556.51 59.3944 556.65 57.0144 556.79 54.9144C554.27 55.0544 551.75 55.1944 549.23 55.3344C546.71 55.4744 544.19 55.6144 541.67 55.7544V46.5144C549.51 46.3744 557.42 46.2344 565.4 46.0944C573.52 45.9544 581.64 46.0244 589.76 46.3044C603.34 46.4444 614.26 48.0544 622.52 51.1344C630.92 54.0744 637.08 58.3444 641 63.9444C644.92 69.4044 646.88 76.0544 646.88 83.8944C647.02 89.3544 645.97 94.9544 643.73 100.694C641.63 106.294 637.71 111.334 631.97 115.814C626.37 120.294 618.25 123.654 607.61 125.894C610.41 127.854 612.86 130.374 614.96 133.454C617.06 136.534 619.44 140.104 622.1 144.164L636.38 166.634C638.76 170.414 641.07 173.844 643.31 176.924C645.55 179.864 648.14 182.244 651.08 184.064C654.02 185.744 657.66 186.584 662 186.584V193.514H635.54C631.48 189.874 628.05 186.234 625.25 182.594C622.59 178.954 619.79 174.824 616.85 170.204L602.78 147.734C600.96 144.794 598.86 141.434 596.48 137.654C594.24 133.734 591.65 130.444 588.71 127.784C586.47 127.924 584.09 127.994 581.57 127.994C579.19 127.994 576.81 127.924 574.43 127.784V168.524C574.43 172.304 574.36 175.594 574.22 178.394C574.22 181.054 574.08 183.294 573.8 185.114C575.48 184.974 577.16 184.904 578.84 184.904C580.52 184.764 582.2 184.624 583.88 184.484C585.56 184.344 587.24 184.274 588.92 184.274V193.514H541.67ZM587.45 120.014C595.15 119.734 601.87 118.474 607.61 116.234C613.49 113.994 618.11 110.424 621.47 105.524C624.83 100.624 626.51 94.1844 626.51 86.2044C626.51 80.8844 625.74 76.2644 624.2 72.3444C622.8 68.2844 620.56 64.9244 617.48 62.2644C614.4 59.6044 610.48 57.6444 605.72 56.3844C600.96 54.9844 595.36 54.2844 588.92 54.2844C583.74 54.2844 580.1 55.3344 578 57.4344C576.04 59.5344 574.92 62.4744 574.64 66.2544C574.5 69.8944 574.43 74.2344 574.43 79.2744V119.594C576.67 119.734 578.77 119.874 580.73 120.014C582.83 120.154 585.07 120.154 587.45 120.014Z" stroke="white"/>
</svg>
