<svg width="436" height="325" viewBox="0 0 436 325" fill="none" xmlns="http://www.w3.org/2000/svg">
<rect x="0.5" y="323.926" width="323" height="435" transform="rotate(-90 0.5 323.926)" stroke="black"/>
<path fill-rule="evenodd" clip-rule="evenodd" d="M41.2362 21.6802L42.3836 28.4089C42.7652 30.6467 39.6332 31.5804 38.7271 29.4991L39.7535 29.0522C40.1318 29.9211 41.4393 29.5313 41.28 28.5971L40.1326 21.8684L41.2362 21.6802Z" fill="#042245"/>
<path fill-rule="evenodd" clip-rule="evenodd" d="M31.4521 20.157C33.3809 19.1322 35.7045 19.1878 37.5821 20.3036C38.3758 20.7753 39.2821 21.0243 40.2054 21.0243H40.6444V22.1438H40.2054C39.0808 22.1438 37.9769 21.8406 37.0101 21.266C35.4687 20.3499 33.561 20.3043 31.9775 21.1457L30.2221 22.0784L29.6968 21.0897L31.4521 20.157Z" fill="#042245"/>
<path fill-rule="evenodd" clip-rule="evenodd" d="M49.8364 20.157C47.9077 19.1322 45.584 19.1878 43.7065 20.3036C42.9128 20.7753 42.0065 21.0243 41.0832 21.0243H40.6442V22.1438H41.0832C42.2078 22.1438 43.3117 21.8406 44.2785 21.266C45.8199 20.3499 47.7276 20.3043 49.3111 21.1457L51.0665 22.0784L51.5918 21.0897L49.8364 20.157Z" fill="#042245"/>
<path fill-rule="evenodd" clip-rule="evenodd" d="M37.647 41.3021L36.3623 40.7109L36.8303 39.6938L38.1151 40.2851C39.8167 41.0682 41.7781 41.0558 43.4696 40.2512L44.6348 39.697L45.1157 40.708L43.9505 41.2622C41.9592 42.2094 39.6502 42.224 37.647 41.3021Z" fill="#042245"/>
<path fill-rule="evenodd" clip-rule="evenodd" d="M50.1196 32.2478C50.6606 30.3474 52.9444 29.4359 55.3816 30.3431C57.2412 31.0354 58.2838 33.1606 57.9995 35.2407C57.6546 37.7634 55.255 39.538 52.6691 39.2206C50.132 38.9092 49.0063 37.6961 47.6127 36.1943C47.1888 35.7374 46.74 35.2539 46.2192 34.7608C45.3624 33.9497 44.6016 33.2764 43.7371 32.8153C42.8542 32.3443 41.8921 32.1084 40.6431 32.1084V33.2279C41.7347 33.2279 42.5112 33.4302 43.2102 33.8031C43.9277 34.1859 44.5922 34.7623 45.4496 35.5739C45.8728 35.9745 46.2659 36.4007 46.6597 36.8277C48.1025 38.392 49.5545 39.9662 52.5328 40.3318C55.6905 40.7194 58.6761 38.5569 59.1087 35.3923C59.4478 32.9116 58.2268 30.2077 55.7722 29.2939C52.9767 28.2533 49.8292 29.1789 49.0429 31.9412C48.8101 32.7588 48.7761 33.5319 48.9861 34.2617C49.1961 34.9914 49.6359 35.6282 50.2678 36.1969C50.8077 36.6828 51.715 37.1674 52.6949 37.2511C53.7162 37.3383 54.8128 36.9834 55.581 35.7992C56.4065 34.5266 55.9219 33.1661 55.0528 32.4699C54.6175 32.1211 54.0515 31.9074 53.4618 31.9717C52.8544 32.0379 52.3021 32.3904 51.9067 33.0206L52.855 33.6156C53.0927 33.2368 53.359 33.1091 53.5831 33.0847C53.8247 33.0583 54.1032 33.1435 54.3528 33.3436C54.8536 33.7448 55.1011 34.4817 54.6417 35.19C54.125 35.9867 53.4504 36.192 52.7901 36.1356C52.0884 36.0757 51.4036 35.7129 51.0167 35.3647C50.5033 34.9026 50.2016 34.4372 50.062 33.952C49.9224 33.4669 49.9305 32.9122 50.1196 32.2478Z" fill="#042245"/>
<path fill-rule="evenodd" clip-rule="evenodd" d="M31.1699 32.2478C30.629 30.3474 28.3451 29.4359 25.9079 30.3431C24.0484 31.0354 23.0057 33.1606 23.2901 35.2407C23.6349 37.7634 26.0345 39.538 28.6204 39.2206C31.1576 38.9092 32.2833 37.6961 33.6768 36.1943C34.1008 35.7374 34.5495 35.2539 35.0703 34.7608C35.9272 33.9497 36.688 33.2764 37.5524 32.8153C38.4354 32.3443 39.3974 32.1084 40.6465 32.1084V33.2279C39.5549 33.2279 38.7784 33.4302 38.0794 33.8031C37.3618 34.1859 36.6973 34.7623 35.84 35.5739C35.4167 35.9745 35.0236 36.4007 34.6299 36.8277C33.1871 38.392 31.7351 39.9662 28.7568 40.3318C25.599 40.7194 22.6134 38.5569 22.1808 35.3923C21.8417 32.9116 23.0628 30.2077 25.5173 29.2939C28.3129 28.2533 31.4604 29.1789 32.2467 31.9412C32.4794 32.7588 32.5135 33.5319 32.3035 34.2617C32.0934 34.9914 31.6537 35.6282 31.0218 36.1969C30.4818 36.6828 29.5745 37.1674 28.5947 37.2511C27.5733 37.3383 26.4767 36.9834 25.7086 35.7992C24.8831 34.5266 25.3677 33.1661 26.2367 32.4699C26.672 32.1211 27.238 31.9074 27.8278 31.9717C28.4351 32.0379 28.9874 32.3904 29.3829 33.0206L28.4345 33.6156C28.1968 33.2368 27.9306 33.1091 27.7065 33.0847C27.4648 33.0583 27.1864 33.1435 26.9368 33.3436C26.4359 33.7448 26.1884 34.4817 26.6478 35.19C27.1646 35.9867 27.8391 36.192 28.4994 36.1356C29.2012 36.0757 29.886 35.7129 30.2728 35.3647C30.7863 34.9026 31.0879 34.4372 31.2276 33.952C31.3672 33.4669 31.3591 32.9122 31.1699 32.2478Z" fill="#042245"/>
<path fill-rule="evenodd" clip-rule="evenodd" d="M58.3503 39.1825C58.3455 39.9156 58.091 40.6125 57.8058 41.1521C57.2524 42.1988 56.2098 42.9378 54.9492 43.3051C53.6887 43.6724 52.2562 43.6523 50.9986 43.2234C49.6031 42.7475 48.7365 41.9079 48.0242 40.8649C47.6629 40.3358 47.3444 39.7588 47.0142 39.1434C46.9709 39.0627 46.9273 38.9812 46.8834 38.8991C46.5968 38.3631 46.2967 37.8017 45.9594 37.2513C45.3313 36.2264 44.606 35.2245 43.7465 34.4752C42.8806 33.7203 41.8524 33.2001 40.638 33.2001L40.638 34.3197C41.5066 34.3197 42.2838 34.6852 43.0108 35.3191C43.7443 35.9586 44.3996 36.8487 45.0049 37.8363C45.3236 38.3564 45.6069 38.8862 45.8946 39.424C45.9388 39.5068 45.9831 39.5897 46.0277 39.6728C46.3583 40.2889 46.7014 40.913 47.0997 41.4962C47.9065 42.6778 48.9511 43.7081 50.6373 44.2831C52.1182 44.788 53.7864 44.81 55.2623 44.38C56.7381 43.95 58.0675 43.0523 58.7955 41.6753C59.1298 41.043 59.4634 40.1652 59.4698 39.1898C59.4764 38.1951 59.141 37.1285 58.1868 36.1634L57.3907 36.9506C58.1247 37.6929 58.355 38.4687 58.3503 39.1825Z" fill="#042245"/>
<path fill-rule="evenodd" clip-rule="evenodd" d="M22.9392 39.1825C22.944 39.9156 23.1985 40.6125 23.4838 41.1521C24.0371 42.1988 25.0798 42.9378 26.3404 43.3051C27.6008 43.6724 29.0333 43.6523 30.2909 43.2234C31.6864 42.7475 32.5531 41.9079 33.2653 40.8649C33.6266 40.3358 33.9451 39.7588 34.2753 39.1434C34.3187 39.0627 34.3622 38.9812 34.4061 38.8991C34.6927 38.3631 34.9928 37.8017 35.3301 37.2513C35.9583 36.2264 36.6836 35.2245 37.543 34.4752C38.4089 33.7203 39.4371 33.2001 40.6515 33.2001L40.6515 34.3197C39.7829 34.3197 39.0058 34.6852 38.2787 35.3191C37.5452 35.9586 36.89 36.8487 36.2847 37.8363C35.9659 38.3564 35.6826 38.8862 35.395 39.424C35.3508 39.5068 35.3064 39.5897 35.2618 39.6728C34.9312 40.2889 34.5882 40.913 34.1899 41.4962C33.383 42.6778 32.3385 43.7081 30.6523 44.2831C29.1713 44.788 27.5032 44.81 26.0272 44.38C24.5514 43.95 23.222 43.0523 22.494 41.6753C22.1597 41.043 21.8261 40.1652 21.8197 39.1898C21.8132 38.1951 22.1486 37.1285 23.1027 36.1634L23.8988 36.9506C23.1649 37.6929 22.9346 38.4687 22.9392 39.1825Z" fill="#042245"/>
<path fill-rule="evenodd" clip-rule="evenodd" d="M57.0533 45.03C56.7944 45.8213 56.2427 46.4823 55.7725 46.8216C53.7331 48.2936 50.7501 48.3089 48.5367 46.8119C47.3154 45.9858 46.7 44.9479 46.287 43.7543C46.0776 43.1488 45.922 42.5084 45.7652 41.8278C45.7446 41.7385 45.724 41.6484 45.7032 41.5577C45.5677 40.9652 45.4257 40.3447 45.245 39.725C44.8981 38.5354 44.2752 37.2136 43.5065 36.1775C43.1217 35.659 42.6873 35.1943 42.2158 34.8548C41.7455 34.5162 41.2066 34.2803 40.6269 34.2803L40.6269 35.3998C40.8972 35.3998 41.2108 35.5108 41.5617 35.7634C41.9115 36.0152 42.2671 36.386 42.6074 36.8447C43.2887 37.7629 43.8563 38.962 44.1702 40.0384C44.341 40.624 44.475 41.2096 44.6111 41.8042C44.6321 41.8956 44.653 41.9873 44.6742 42.0792C44.8312 42.7606 44.9981 43.4529 45.229 44.1203C45.6968 45.4724 46.4338 46.7411 47.9095 47.7392C50.4894 49.4842 53.9855 49.4921 56.4277 47.7294C57.0759 47.2616 57.7796 46.4104 58.1174 45.3781C58.4632 44.321 58.426 43.0592 57.544 41.866L56.6437 42.5315C57.2788 43.3907 57.304 44.2637 57.0533 45.03Z" fill="#042245"/>
<path fill-rule="evenodd" clip-rule="evenodd" d="M24.2377 45.0295C24.4966 45.8208 25.0483 46.4818 25.5185 46.8211C27.558 48.2931 30.5409 48.3084 32.7543 46.8114C33.9756 45.9853 34.591 44.9474 35.004 43.7538C35.2134 43.1483 35.369 42.5079 35.5258 41.8274C35.5464 41.738 35.567 41.6479 35.5878 41.5572C35.7233 40.9647 35.8653 40.3442 36.046 39.7245C36.393 38.5349 37.0158 37.2131 37.7846 36.177C38.1693 35.6585 38.6037 35.1938 39.0752 34.8543C39.5455 34.5157 40.0844 34.2798 40.6641 34.2798L40.6641 35.3993C40.3938 35.3993 40.0802 35.5103 39.7293 35.7629C39.3796 36.0147 39.0239 36.3855 38.6836 36.8442C38.0023 37.7624 37.4348 38.9615 37.1208 40.0379C36.95 40.6235 36.816 41.2091 36.6799 41.8037C36.659 41.8951 36.638 41.9868 36.6168 42.0787C36.4598 42.7601 36.2929 43.4524 36.062 44.1198C35.5942 45.4719 34.8573 46.7406 33.3816 47.7387C30.8017 49.4837 27.3056 49.4916 24.8633 47.7289C24.2151 47.2611 23.5114 46.4099 23.1737 45.3777C22.8278 44.3205 22.865 43.0587 23.7471 41.8655L24.6473 42.531C24.0122 43.3902 23.987 44.2632 24.2377 45.0295Z" fill="#042245"/>
<path d="M65.2207 43.2671V42.4119C65.8772 42.3773 66.3264 42.2305 66.5683 41.9713C66.8102 41.6949 66.9398 41.3235 66.957 40.857C66.9916 40.3732 67.0089 39.829 67.0089 39.2243V28.0289C67.0089 27.6834 67.0175 27.3551 67.0348 27.0441C67.0521 26.7159 67.0693 26.4222 67.0866 26.163C66.7756 26.1803 66.4646 26.1976 66.1537 26.2148C65.8427 26.2321 65.5317 26.2494 65.2207 26.2667V25.1264H71.0516V25.9816C70.4124 25.9989 69.9632 26.1457 69.7041 26.4222C69.4622 26.6986 69.324 27.07 69.2894 27.5365C69.2721 28.003 69.2635 28.5472 69.2635 29.1692V40.2868C69.2635 40.7533 69.2549 41.1507 69.2376 41.479C69.2376 41.8072 69.2203 42.0836 69.1857 42.3082L74.0319 42.2305C75.1204 42.2132 75.941 41.8677 76.4939 41.1939C77.064 40.5201 77.3491 39.423 77.3491 37.9026H78.2302L78.0747 43.2671H65.2207Z" fill="#042245"/>
<path d="M86.0339 25.9816C85.3947 25.9989 84.9455 26.1457 84.6863 26.4222C84.4445 26.6986 84.3063 27.07 84.2717 27.5365C84.2544 28.003 84.2458 28.5472 84.2458 29.1692V40.1832C84.2458 40.6497 84.2371 41.0557 84.2199 41.4012C84.2199 41.7295 84.2026 42.0059 84.168 42.2305C84.479 42.2132 84.79 42.1959 85.101 42.1787C85.412 42.1614 85.723 42.1441 86.0339 42.1268V43.2671H80.203V42.4119C80.8595 42.3773 81.3087 42.2305 81.5506 41.9713C81.7925 41.6949 81.922 41.3235 81.9393 40.857C81.9739 40.3732 81.9911 39.829 81.9911 39.2243V28.0289C81.9911 27.6834 81.9998 27.3551 82.0171 27.0441C82.0343 26.7159 82.0516 26.4222 82.0689 26.163C81.7579 26.1803 81.4469 26.1976 81.1359 26.2148C80.825 26.2321 80.514 26.2494 80.203 26.2667V25.1264H86.0339V25.9816Z" fill="#042245"/>
<path d="M88.8836 43.2671V42.4119C89.5401 42.3773 89.9893 42.2305 90.2312 41.9713C90.4731 41.6949 90.6027 41.3235 90.6199 40.857C90.6545 40.3732 90.6718 39.829 90.6718 39.2243V28.0289C90.6718 27.6834 90.6804 27.3551 90.6977 27.0441C90.715 26.7159 90.7322 26.4222 90.7495 26.163C90.4385 26.1803 90.1275 26.1976 89.8166 26.2148C89.5056 26.2321 89.1946 26.2494 88.8836 26.2667V25.1264C89.8511 25.1091 90.8273 25.0918 91.812 25.0746C92.8141 25.0573 93.8162 25.0659 94.8182 25.1005C96.4941 25.1177 97.8417 25.3164 98.861 25.6965C99.8976 26.0593 100.658 26.5863 101.142 27.2774C101.625 27.9512 101.867 28.7718 101.867 29.7393C101.884 30.4131 101.755 31.1042 101.478 31.8125C101.219 32.5036 100.736 33.1256 100.027 33.6784C99.3361 34.2313 98.3341 34.6459 97.021 34.9224C97.3666 35.1643 97.6689 35.4752 97.9281 35.8553C98.1872 36.2354 98.4809 36.676 98.8092 37.177L100.571 39.9499C100.865 40.4164 101.15 40.8397 101.427 41.2198C101.703 41.5826 102.023 41.8763 102.385 42.1009C102.748 42.3082 103.198 42.4119 103.733 42.4119V43.2671H100.468C99.9667 42.8179 99.5434 42.3687 99.1979 41.9195C98.8696 41.4703 98.5241 40.9606 98.1613 40.3905L96.425 37.6176C96.2004 37.2548 95.9412 36.8401 95.6475 36.3736C95.3711 35.8899 95.0515 35.4839 94.6886 35.1556C94.4122 35.1729 94.1185 35.1815 93.8075 35.1815C93.5138 35.1815 93.2201 35.1729 92.9264 35.1556V40.1832C92.9264 40.6497 92.9178 41.0557 92.9005 41.4012C92.9005 41.7295 92.8832 42.0059 92.8487 42.2305C93.056 42.2132 93.2633 42.2046 93.4706 42.2046C93.6779 42.1873 93.8853 42.17 94.0926 42.1528C94.2999 42.1355 94.5072 42.1268 94.7146 42.1268V43.2671H88.8836ZM94.5331 34.1967C95.4834 34.1622 96.3127 34.0067 97.021 33.7303C97.7466 33.4538 98.3168 33.0133 98.7314 32.4086C99.1461 31.8039 99.3534 31.0092 99.3534 30.0244C99.3534 29.3679 99.2584 28.7977 99.0683 28.314C98.8956 27.8129 98.6191 27.3983 98.239 27.07C97.8589 26.7418 97.3752 26.4999 96.7878 26.3444C96.2004 26.1716 95.5093 26.0853 94.7146 26.0853C94.0753 26.0853 93.6261 26.2148 93.367 26.474C93.1251 26.7331 92.9869 27.096 92.9523 27.5624C92.935 28.0116 92.9264 28.5472 92.9264 29.1692V34.1449C93.2028 34.1622 93.462 34.1795 93.7039 34.1967C93.963 34.214 94.2394 34.214 94.5331 34.1967Z" fill="#042245"/>
<path d="M65.2207 43.2671V42.4119C65.8772 42.3773 66.3264 42.2305 66.5683 41.9713C66.8102 41.6949 66.9398 41.3235 66.957 40.857C66.9916 40.3732 67.0089 39.829 67.0089 39.2243V28.0289C67.0089 27.6834 67.0175 27.3551 67.0348 27.0441C67.0521 26.7159 67.0693 26.4222 67.0866 26.163C66.7756 26.1803 66.4646 26.1976 66.1537 26.2148C65.8427 26.2321 65.5317 26.2494 65.2207 26.2667V25.1264H71.0516V25.9816C70.4124 25.9989 69.9632 26.1457 69.7041 26.4222C69.4622 26.6986 69.324 27.07 69.2894 27.5365C69.2721 28.003 69.2635 28.5472 69.2635 29.1692V40.2868C69.2635 40.7533 69.2549 41.1507 69.2376 41.479C69.2376 41.8072 69.2203 42.0836 69.1857 42.3082L74.0319 42.2305C75.1204 42.2132 75.941 41.8677 76.4939 41.1939C77.064 40.5201 77.3491 39.423 77.3491 37.9026H78.2302L78.0747 43.2671H65.2207Z" stroke="white"/>
<path d="M86.0339 25.9816C85.3947 25.9989 84.9455 26.1457 84.6863 26.4222C84.4445 26.6986 84.3063 27.07 84.2717 27.5365C84.2544 28.003 84.2458 28.5472 84.2458 29.1692V40.1832C84.2458 40.6497 84.2371 41.0557 84.2199 41.4012C84.2199 41.7295 84.2026 42.0059 84.168 42.2305C84.479 42.2132 84.79 42.1959 85.101 42.1787C85.412 42.1614 85.723 42.1441 86.0339 42.1268V43.2671H80.203V42.4119C80.8595 42.3773 81.3087 42.2305 81.5506 41.9713C81.7925 41.6949 81.922 41.3235 81.9393 40.857C81.9739 40.3732 81.9911 39.829 81.9911 39.2243V28.0289C81.9911 27.6834 81.9998 27.3551 82.0171 27.0441C82.0343 26.7159 82.0516 26.4222 82.0689 26.163C81.7579 26.1803 81.4469 26.1976 81.1359 26.2148C80.825 26.2321 80.514 26.2494 80.203 26.2667V25.1264H86.0339V25.9816Z" stroke="white"/>
<path d="M88.8836 43.2671V42.4119C89.5401 42.3773 89.9893 42.2305 90.2312 41.9713C90.4731 41.6949 90.6027 41.3235 90.6199 40.857C90.6545 40.3732 90.6718 39.829 90.6718 39.2243V28.0289C90.6718 27.6834 90.6804 27.3551 90.6977 27.0441C90.715 26.7159 90.7322 26.4222 90.7495 26.163C90.4385 26.1803 90.1275 26.1976 89.8166 26.2148C89.5056 26.2321 89.1946 26.2494 88.8836 26.2667V25.1264C89.8511 25.1091 90.8273 25.0918 91.812 25.0746C92.8141 25.0573 93.8162 25.0659 94.8182 25.1005C96.4941 25.1177 97.8417 25.3164 98.861 25.6965C99.8976 26.0593 100.658 26.5863 101.142 27.2774C101.625 27.9512 101.867 28.7718 101.867 29.7393C101.884 30.4131 101.755 31.1042 101.478 31.8125C101.219 32.5036 100.736 33.1256 100.027 33.6784C99.3361 34.2313 98.3341 34.6459 97.021 34.9224C97.3666 35.1643 97.6689 35.4752 97.9281 35.8553C98.1872 36.2354 98.4809 36.676 98.8092 37.177L100.571 39.9499C100.865 40.4164 101.15 40.8397 101.427 41.2198C101.703 41.5826 102.023 41.8763 102.385 42.1009C102.748 42.3082 103.198 42.4119 103.733 42.4119V43.2671H100.468C99.9667 42.8179 99.5434 42.3687 99.1979 41.9195C98.8696 41.4703 98.5241 40.9606 98.1613 40.3905L96.425 37.6176C96.2004 37.2548 95.9412 36.8401 95.6475 36.3736C95.3711 35.8899 95.0515 35.4839 94.6886 35.1556C94.4122 35.1729 94.1185 35.1815 93.8075 35.1815C93.5138 35.1815 93.2201 35.1729 92.9264 35.1556V40.1832C92.9264 40.6497 92.9178 41.0557 92.9005 41.4012C92.9005 41.7295 92.8832 42.0059 92.8487 42.2305C93.056 42.2132 93.2633 42.2046 93.4706 42.2046C93.6779 42.1873 93.8853 42.17 94.0926 42.1528C94.2999 42.1355 94.5072 42.1268 94.7146 42.1268V43.2671H88.8836ZM94.5331 34.1967C95.4834 34.1622 96.3127 34.0067 97.021 33.7303C97.7466 33.4538 98.3168 33.0133 98.7314 32.4086C99.1461 31.8039 99.3534 31.0092 99.3534 30.0244C99.3534 29.3679 99.2584 28.7977 99.0683 28.314C98.8956 27.8129 98.6191 27.3983 98.239 27.07C97.8589 26.7418 97.3752 26.4999 96.7878 26.3444C96.2004 26.1716 95.5093 26.0853 94.7146 26.0853C94.0753 26.0853 93.6261 26.2148 93.367 26.474C93.1251 26.7331 92.9869 27.096 92.9523 27.5624C92.935 28.0116 92.9264 28.5472 92.9264 29.1692V34.1449C93.2028 34.1622 93.462 34.1795 93.7039 34.1967C93.963 34.214 94.2394 34.214 94.5331 34.1967Z" stroke="white"/>
</svg>
