<svg width="321" height="482" viewBox="0 0 321 482" fill="none" xmlns="http://www.w3.org/2000/svg">
<rect x="0.5" y="0.925781" width="320" height="480.5" stroke="black"/>
<path d="M141.872 456.993V456.14C142.527 456.106 142.975 455.959 143.216 455.701C143.457 455.425 143.587 455.054 143.604 454.589C143.638 454.106 143.656 453.563 143.656 452.96V441.791C143.656 441.446 143.664 441.119 143.681 440.808C143.699 440.481 143.716 440.188 143.733 439.929C143.423 439.947 143.113 439.964 142.802 439.981C142.492 439.998 142.182 440.016 141.872 440.033V438.895H147.689V439.748C147.051 439.766 146.603 439.912 146.344 440.188C146.103 440.464 145.965 440.834 145.931 441.3C145.913 441.765 145.905 442.308 145.905 442.929V454.02C145.905 454.485 145.896 454.882 145.879 455.209C145.879 455.537 145.862 455.813 145.827 456.037L150.662 455.959C151.748 455.942 152.567 455.597 153.118 454.925C153.687 454.253 153.971 453.158 153.971 451.641H154.85L154.695 456.993H141.872Z" fill="#042245"/>
<path d="M162.636 439.748C161.998 439.766 161.55 439.912 161.291 440.188C161.05 440.464 160.912 440.834 160.878 441.3C160.86 441.765 160.852 442.308 160.852 442.929V453.917C160.852 454.382 160.843 454.787 160.826 455.132C160.826 455.459 160.809 455.735 160.774 455.959C161.084 455.942 161.395 455.925 161.705 455.907C162.015 455.89 162.325 455.873 162.636 455.856V456.993H156.819V456.14C157.474 456.106 157.922 455.959 158.163 455.701C158.404 455.425 158.534 455.054 158.551 454.589C158.585 454.106 158.602 453.563 158.602 452.96V441.791C158.602 441.446 158.611 441.119 158.628 440.808C158.646 440.481 158.663 440.188 158.68 439.929C158.37 439.947 158.06 439.964 157.749 439.981C157.439 439.998 157.129 440.016 156.819 440.033V438.895H162.636V439.748Z" fill="#042245"/>
<path d="M165.479 456.993V456.14C166.134 456.106 166.582 455.959 166.823 455.701C167.064 455.425 167.194 455.054 167.211 454.589C167.245 454.106 167.263 453.563 167.263 452.96V441.791C167.263 441.446 167.271 441.119 167.288 440.808C167.306 440.481 167.323 440.188 167.34 439.929C167.03 439.947 166.72 439.964 166.409 439.981C166.099 439.998 165.789 440.016 165.479 440.033V438.895C166.444 438.878 167.418 438.861 168.4 438.844C169.4 438.826 170.4 438.835 171.399 438.869C173.071 438.887 174.416 439.085 175.433 439.464C176.467 439.826 177.225 440.352 177.708 441.041C178.19 441.713 178.432 442.532 178.432 443.497C178.449 444.17 178.32 444.859 178.044 445.566C177.785 446.255 177.303 446.876 176.596 447.427C175.907 447.979 174.907 448.392 173.597 448.668C173.942 448.909 174.243 449.22 174.502 449.599C174.76 449.978 175.053 450.418 175.381 450.917L177.139 453.684C177.432 454.149 177.716 454.572 177.992 454.951C178.268 455.313 178.587 455.606 178.949 455.83C179.311 456.037 179.759 456.14 180.293 456.14V456.993H177.036C176.536 456.545 176.113 456.097 175.769 455.649C175.441 455.201 175.096 454.692 174.734 454.123L173.002 451.357C172.778 450.995 172.52 450.581 172.227 450.116C171.951 449.633 171.632 449.228 171.27 448.901C170.994 448.918 170.701 448.927 170.391 448.927C170.098 448.927 169.805 448.918 169.512 448.901V453.917C169.512 454.382 169.503 454.787 169.486 455.132C169.486 455.459 169.469 455.735 169.434 455.959C169.641 455.942 169.848 455.933 170.055 455.933C170.262 455.916 170.469 455.899 170.675 455.882C170.882 455.864 171.089 455.856 171.296 455.856V456.993H165.479ZM171.115 447.944C172.063 447.91 172.89 447.755 173.597 447.479C174.321 447.203 174.89 446.764 175.303 446.16C175.717 445.557 175.924 444.764 175.924 443.782C175.924 443.127 175.829 442.558 175.639 442.075C175.467 441.576 175.191 441.162 174.812 440.834C174.433 440.507 173.95 440.266 173.364 440.11C172.778 439.938 172.089 439.852 171.296 439.852C170.658 439.852 170.21 439.981 169.951 440.24C169.71 440.498 169.572 440.86 169.538 441.326C169.521 441.774 169.512 442.308 169.512 442.929V447.893C169.788 447.91 170.046 447.927 170.288 447.944C170.546 447.961 170.822 447.961 171.115 447.944Z" fill="#042245"/>
<path d="M141.872 456.993V456.14C142.527 456.106 142.975 455.959 143.216 455.701C143.457 455.425 143.587 455.054 143.604 454.589C143.638 454.106 143.656 453.563 143.656 452.96V441.791C143.656 441.446 143.664 441.119 143.681 440.808C143.699 440.481 143.716 440.188 143.733 439.929C143.423 439.947 143.113 439.964 142.802 439.981C142.492 439.998 142.182 440.016 141.872 440.033V438.895H147.689V439.748C147.051 439.766 146.603 439.912 146.344 440.188C146.103 440.464 145.965 440.834 145.931 441.3C145.913 441.765 145.905 442.308 145.905 442.929V454.02C145.905 454.485 145.896 454.882 145.879 455.209C145.879 455.537 145.862 455.813 145.827 456.037L150.662 455.959C151.748 455.942 152.567 455.597 153.118 454.925C153.687 454.253 153.971 453.158 153.971 451.641H154.85L154.695 456.993H141.872Z" stroke="white"/>
<path d="M162.636 439.748C161.998 439.766 161.55 439.912 161.291 440.188C161.05 440.464 160.912 440.834 160.878 441.3C160.86 441.765 160.852 442.308 160.852 442.929V453.917C160.852 454.382 160.843 454.787 160.826 455.132C160.826 455.459 160.809 455.735 160.774 455.959C161.084 455.942 161.395 455.925 161.705 455.907C162.015 455.89 162.325 455.873 162.636 455.856V456.993H156.819V456.14C157.474 456.106 157.922 455.959 158.163 455.701C158.404 455.425 158.534 455.054 158.551 454.589C158.585 454.106 158.602 453.563 158.602 452.96V441.791C158.602 441.446 158.611 441.119 158.628 440.808C158.646 440.481 158.663 440.188 158.68 439.929C158.37 439.947 158.06 439.964 157.749 439.981C157.439 439.998 157.129 440.016 156.819 440.033V438.895H162.636V439.748Z" stroke="white"/>
<path d="M165.479 456.993V456.14C166.134 456.106 166.582 455.959 166.823 455.701C167.064 455.425 167.194 455.054 167.211 454.589C167.245 454.106 167.263 453.563 167.263 452.96V441.791C167.263 441.446 167.271 441.119 167.288 440.808C167.306 440.481 167.323 440.188 167.34 439.929C167.03 439.947 166.72 439.964 166.409 439.981C166.099 439.998 165.789 440.016 165.479 440.033V438.895C166.444 438.878 167.418 438.861 168.4 438.844C169.4 438.826 170.4 438.835 171.399 438.869C173.071 438.887 174.416 439.085 175.433 439.464C176.467 439.826 177.225 440.352 177.708 441.041C178.19 441.713 178.432 442.532 178.432 443.497C178.449 444.17 178.32 444.859 178.044 445.566C177.785 446.255 177.303 446.876 176.596 447.427C175.907 447.979 174.907 448.392 173.597 448.668C173.942 448.909 174.243 449.22 174.502 449.599C174.76 449.978 175.053 450.418 175.381 450.917L177.139 453.684C177.432 454.149 177.716 454.572 177.992 454.951C178.268 455.313 178.587 455.606 178.949 455.83C179.311 456.037 179.759 456.14 180.293 456.14V456.993H177.036C176.536 456.545 176.113 456.097 175.769 455.649C175.441 455.201 175.096 454.692 174.734 454.123L173.002 451.357C172.778 450.995 172.52 450.581 172.227 450.116C171.951 449.633 171.632 449.228 171.27 448.901C170.994 448.918 170.701 448.927 170.391 448.927C170.098 448.927 169.805 448.918 169.512 448.901V453.917C169.512 454.382 169.503 454.787 169.486 455.132C169.486 455.459 169.469 455.735 169.434 455.959C169.641 455.942 169.848 455.933 170.055 455.933C170.262 455.916 170.469 455.899 170.675 455.882C170.882 455.864 171.089 455.856 171.296 455.856V456.993H165.479ZM171.115 447.944C172.063 447.91 172.89 447.755 173.597 447.479C174.321 447.203 174.89 446.764 175.303 446.16C175.717 445.557 175.924 444.764 175.924 443.782C175.924 443.127 175.829 442.558 175.639 442.075C175.467 441.576 175.191 441.162 174.812 440.834C174.433 440.507 173.95 440.266 173.364 440.11C172.778 439.938 172.089 439.852 171.296 439.852C170.658 439.852 170.21 439.981 169.951 440.24C169.71 440.498 169.572 440.86 169.538 441.326C169.521 441.774 169.512 442.308 169.512 442.929V447.893C169.788 447.91 170.046 447.927 170.288 447.944C170.546 447.961 170.822 447.961 171.115 447.944Z" stroke="white"/>
<path d="M161.123 405.113L162.297 411.996C162.573 413.619 160.302 414.296 159.646 412.787V412.787" stroke="#042245" stroke-width="1.11691"/>
<path d="M160.684 404.919H161.081H160.632C159.584 404.919 158.556 404.637 157.656 404.102V404.102C155.907 403.062 153.743 403.01 151.946 403.965L150.15 404.919" stroke="#042245" stroke-width="1.11691"/>
<path d="M161.479 404.917H161.082H161.531C162.578 404.917 163.606 404.635 164.507 404.1V404.1C166.256 403.06 168.42 403.009 170.216 403.963L172.012 404.917" stroke="#042245" stroke-width="1.11691"/>
<path d="M156.94 423.963L158.328 424.602C160.176 425.453 162.306 425.439 164.144 424.565L165.409 423.964" stroke="#042245" stroke-width="1.11691"/>
<path fill-rule="evenodd" clip-rule="evenodd" d="M170.762 415.823C171.318 413.868 173.666 412.936 176.163 413.866C178.073 414.576 179.142 416.758 178.85 418.891C178.497 421.48 176.034 423.3 173.382 422.974C170.781 422.655 169.625 421.41 168.199 419.872C167.765 419.405 167.307 418.911 166.776 418.408C165.899 417.579 165.122 416.891 164.24 416.42C163.339 415.94 162.357 415.699 161.081 415.699V416.816C162.2 416.816 162.996 417.023 163.714 417.406C164.45 417.798 165.131 418.389 166.008 419.219C166.442 419.63 166.845 420.067 167.248 420.504C168.723 422.104 170.205 423.71 173.246 424.083C176.469 424.479 179.516 422.271 179.957 419.042C180.303 416.509 179.056 413.751 176.553 412.819C173.698 411.756 170.489 412.703 169.688 415.518C169.45 416.352 169.416 417.14 169.629 417.884C169.843 418.627 170.292 419.276 170.936 419.857C171.487 420.352 172.412 420.846 173.411 420.931C174.451 421.02 175.568 420.659 176.35 419.453C177.19 418.158 176.698 416.774 175.813 416.066C175.37 415.711 174.795 415.494 174.196 415.559C173.579 415.626 173.018 415.984 172.616 416.625L173.562 417.219C173.807 416.828 174.083 416.695 174.317 416.669C174.569 416.642 174.857 416.731 175.115 416.937C175.632 417.351 175.888 418.113 175.413 418.845C174.882 419.665 174.186 419.877 173.506 419.819C172.785 419.757 172.081 419.384 171.684 419.026C171.157 418.552 170.847 418.074 170.703 417.575C170.559 417.075 170.568 416.505 170.762 415.823Z" fill="#042245"/>
<path fill-rule="evenodd" clip-rule="evenodd" d="M151.403 415.823C150.847 413.868 148.499 412.936 146.002 413.866C144.092 414.576 143.023 416.758 143.315 418.891C143.668 421.48 146.131 423.3 148.783 422.974C151.384 422.655 152.54 421.41 153.966 419.872C154.4 419.405 154.858 418.911 155.389 418.408C156.266 417.579 157.043 416.891 157.925 416.42C158.826 415.94 159.808 415.699 161.084 415.699V416.816C159.965 416.816 159.169 417.023 158.451 417.406C157.715 417.798 157.034 418.389 156.157 419.219C155.723 419.63 155.32 420.067 154.917 420.504C153.442 422.104 151.96 423.71 148.919 424.083C145.696 424.479 142.649 422.271 142.208 419.042C141.862 416.509 143.109 413.751 145.612 412.819C148.467 411.756 151.676 412.703 152.477 415.518C152.715 416.352 152.75 417.14 152.536 417.884C152.322 418.627 151.873 419.276 151.229 419.857C150.678 420.352 149.753 420.846 148.754 420.931C147.714 421.02 146.597 420.659 145.815 419.453C144.975 418.158 145.468 416.774 146.352 416.066C146.795 415.711 147.37 415.494 147.969 415.559C148.586 415.626 149.147 415.984 149.549 416.625L148.603 417.219C148.358 416.828 148.082 416.695 147.848 416.669C147.596 416.642 147.308 416.731 147.05 416.937C146.533 417.351 146.277 418.113 146.752 418.845C147.283 419.665 147.979 419.877 148.659 419.819C149.38 419.757 150.084 419.384 150.481 419.026C151.008 418.552 151.318 418.074 151.462 417.575C151.606 417.075 151.597 416.505 151.403 415.823Z" fill="#042245"/>
<path fill-rule="evenodd" clip-rule="evenodd" d="M179.21 422.92C179.205 423.673 178.944 424.388 178.651 424.942C178.083 426.017 177.013 426.775 175.72 427.151C174.428 427.528 172.96 427.507 171.67 427.067C170.239 426.579 169.35 425.718 168.62 424.649C168.25 424.107 167.924 423.516 167.586 422.887C167.542 422.804 167.498 422.721 167.453 422.637C167.159 422.089 166.853 421.515 166.508 420.952C165.866 419.904 165.124 418.881 164.247 418.115C163.363 417.345 162.314 416.814 161.076 416.814L161.076 417.931C161.969 417.931 162.767 418.307 163.513 418.957C164.265 419.613 164.936 420.525 165.556 421.536C165.882 422.068 166.172 422.61 166.466 423.161C166.511 423.245 166.557 423.33 166.602 423.415C166.941 424.045 167.291 424.683 167.698 425.279C168.522 426.486 169.589 427.538 171.31 428.125C172.822 428.64 174.526 428.663 176.033 428.223C177.54 427.784 178.896 426.868 179.639 425.464C179.98 424.818 180.32 423.922 180.327 422.928C180.333 421.913 179.992 420.826 179.018 419.842L178.224 420.627C178.978 421.389 179.215 422.186 179.21 422.92Z" fill="#042245"/>
<path fill-rule="evenodd" clip-rule="evenodd" d="M142.953 422.92C142.958 423.673 143.219 424.388 143.511 424.942C144.08 426.017 145.15 426.775 146.442 427.151C147.734 427.528 149.203 427.507 150.492 427.067C151.923 426.579 152.812 425.718 153.542 424.649C153.912 424.107 154.238 423.516 154.576 422.887C154.62 422.804 154.665 422.721 154.71 422.637C155.003 422.089 155.31 421.515 155.655 420.952C156.297 419.904 157.038 418.881 157.916 418.115C158.8 417.345 159.848 416.814 161.086 416.814L161.086 417.931C160.193 417.931 159.395 418.307 158.65 418.957C157.898 419.613 157.227 420.525 156.607 421.536C156.281 422.068 155.991 422.61 155.697 423.161C155.651 423.245 155.606 423.33 155.56 423.415C155.222 424.045 154.871 424.683 154.464 425.279C153.64 426.486 152.574 427.538 150.853 428.125C149.341 428.64 147.637 428.663 146.13 428.223C144.623 427.784 143.267 426.868 142.524 425.464C142.183 424.818 141.842 423.922 141.836 422.928C141.829 421.913 142.171 420.826 143.144 419.842L143.939 420.627C143.185 421.389 142.948 422.186 142.953 422.92Z" fill="#042245"/>
<path fill-rule="evenodd" clip-rule="evenodd" d="M177.882 428.908C177.616 429.721 177.049 430.399 176.566 430.748C174.475 432.258 171.417 432.273 169.148 430.738C167.895 429.891 167.264 428.826 166.841 427.603C166.626 426.983 166.467 426.327 166.307 425.631C166.286 425.54 166.265 425.448 166.243 425.355C166.105 424.749 165.96 424.114 165.775 423.481C165.42 422.265 164.784 420.915 163.999 419.856C163.606 419.327 163.162 418.852 162.681 418.506C162.202 418.161 161.653 417.921 161.064 417.921L161.064 419.038C161.345 419.038 161.668 419.153 162.029 419.413C162.388 419.671 162.753 420.052 163.102 420.522C163.8 421.463 164.381 422.691 164.703 423.793C164.877 424.393 165.015 424.992 165.154 425.601C165.175 425.694 165.197 425.788 165.218 425.882C165.379 426.579 165.55 427.286 165.785 427.968C166.263 429.35 167.016 430.645 168.522 431.663C171.157 433.445 174.727 433.453 177.22 431.654C177.881 431.177 178.599 430.308 178.943 429.255C179.296 428.178 179.258 426.892 178.359 425.675L177.461 426.339C178.113 427.223 178.139 428.121 177.882 428.908Z" fill="#042245"/>
<path fill-rule="evenodd" clip-rule="evenodd" d="M144.283 428.907C144.549 429.719 145.116 430.398 145.599 430.747C147.69 432.256 150.748 432.271 153.017 430.737C154.27 429.89 154.901 428.825 155.324 427.602C155.539 426.982 155.698 426.326 155.858 425.63C155.879 425.538 155.9 425.446 155.922 425.353C156.06 424.747 156.206 424.113 156.39 423.479C156.745 422.264 157.381 420.913 158.166 419.855C158.56 419.325 159.003 418.851 159.484 418.505C159.963 418.159 160.512 417.92 161.101 417.92L161.101 419.037C160.82 419.037 160.497 419.152 160.136 419.411C159.777 419.67 159.412 420.05 159.063 420.52C158.365 421.461 157.784 422.689 157.462 423.792C157.288 424.391 157.15 424.991 157.011 425.599C156.99 425.693 156.968 425.786 156.947 425.88C156.786 426.578 156.615 427.285 156.38 427.967C155.902 429.348 155.149 430.643 153.643 431.662C151.008 433.444 147.438 433.452 144.945 431.652C144.284 431.175 143.566 430.307 143.222 429.254C142.869 428.176 142.907 426.89 143.806 425.674L144.705 426.338C144.052 427.221 144.026 428.119 144.283 428.907Z" fill="#042245"/>
</svg>
