<svg width="903" height="740" viewBox="0 0 903 740" fill="none" xmlns="http://www.w3.org/2000/svg">
<rect x="170.514" y="542.093" width="17.9191" height="49.2594" fill="black"/>
<rect x="223.796" y="443.886" width="53.366" height="49.2594" fill="black"/>
<rect x="277.079" y="394.782" width="62.6852" height="49.1034" fill="black"/>
<rect x="188.275" y="492.989" width="35.5216" height="49.1034" fill="black"/>
<rect x="664.059" y="235.149" width="47.1494" height="47.1494" fill="black"/>
<rect x="664.059" y="188" width="47.1494" height="47.1494" fill="black"/>
<rect x="615" y="282.299" width="49.0591" height="47.1494" fill="black"/>
<path d="M569.278 91.5078H900.575" stroke="#042245"/>
<path d="M570.917 188.247H902.214" stroke="#042245"/>
<path d="M570.917 377.05H902.214" stroke="#042245"/>
<path d="M570.802 282.231H902.099" stroke="#042245"/>
<path d="M570.802 471.034H902.099" stroke="#042245"/>
<path d="M570.802 377.05H902.099" stroke="#042245"/>
<path d="M570.802 565.853H902.099" stroke="#042245"/>
<path d="M615.042 653.93L615.041 0.956032" stroke="#042245"/>
<path d="M663.676 654.042L663.676 1.06837" stroke="#042245"/>
<path d="M711.784 653.875L711.784 0.901373" stroke="#042245"/>
<path d="M759.964 654.164L759.964 1.19044" stroke="#042245"/>
<path d="M807.71 654.164L807.71 1.19044" stroke="#042245"/>
<path d="M807.71 653.93L807.71 0.956061" stroke="#042245"/>
<path d="M855.456 653.93L855.456 0.956061" stroke="#042245"/>
<circle cx="170.471" cy="170.604" r="17.9301" stroke="#042245"/>
<circle cx="170.535" cy="170.606" r="53.4123" stroke="#042245"/>
<circle cx="170.126" cy="170.606" r="106.943" stroke="#042245"/>
<circle cx="170.544" cy="170.604" r="169.202" stroke="#042245"/>
<path d="M638.88 305.168L633.072 296.864H634.992L639.84 304.04L644.856 296.864H646.68L640.824 305.216L647.016 314H645.048L639.84 306.44L634.56 314H632.736L638.88 305.168Z" fill="white"/>
<path d="M178.321 564.291L172.513 555.987H174.433L179.281 563.163L184.297 555.987H186.121L180.265 564.339L186.457 573.123H184.489L179.281 565.563L174.001 573.123H172.177L178.321 564.291Z" fill="white"/>
<path d="M192.981 514.678H194.686C194.661 514.076 194.736 513.499 194.911 512.973C195.087 512.446 195.363 511.97 195.714 511.569C196.04 511.168 196.466 510.842 196.942 510.591C197.419 510.365 197.945 510.24 198.522 510.24C199.074 510.24 199.575 510.315 200.052 510.465C200.528 510.641 200.929 510.867 201.28 511.193C201.631 511.519 201.907 511.895 202.108 512.346C202.308 512.797 202.409 513.299 202.409 513.876C202.409 514.578 202.283 515.179 202.032 515.656C201.782 516.132 201.431 516.584 201.004 516.96C200.578 517.336 200.077 517.687 199.5 518.013C198.923 518.339 198.321 518.715 197.695 519.091C197.068 519.492 196.416 519.943 195.764 520.445C195.087 520.946 194.46 521.548 193.833 522.25C193.256 522.902 192.905 523.579 192.73 524.256C192.554 524.933 192.479 525.711 192.454 526.563H204.013V525.209H194.159C194.184 524.783 194.259 524.407 194.385 524.056C194.51 523.73 194.686 523.404 194.911 523.128C195.137 522.852 195.363 522.576 195.639 522.326L196.466 521.649C196.892 521.323 197.394 520.997 197.945 520.696C198.497 520.395 199.049 520.069 199.625 519.743C200.202 519.417 200.754 519.091 201.305 518.715C201.832 518.339 202.333 517.938 202.76 517.461C203.186 516.985 203.512 516.458 203.788 515.856C204.038 515.255 204.164 514.553 204.164 513.775C204.164 513.098 204.038 512.471 203.813 511.87C203.587 511.268 203.236 510.741 202.785 510.315C202.308 509.889 201.757 509.538 201.08 509.262C200.403 509.011 199.6 508.886 198.723 508.886C197.845 508.886 197.068 509.011 196.366 509.287C195.639 509.563 195.037 509.964 194.535 510.465C194.034 510.992 193.658 511.594 193.382 512.296C193.106 513.023 192.981 513.8 192.981 514.678Z" fill="white"/>
<path d="M207.264 508.66H205.259L211.326 517.336L204.907 526.563H206.813L212.329 518.665L217.77 526.563H219.827L213.357 517.386L219.476 508.66H217.57L212.329 516.157L207.264 508.66Z" fill="white"/>
<path d="M675.656 231.624C675.656 230.792 675.784 230.04 676.04 229.368C676.296 228.68 676.664 228.096 677.144 227.616C677.624 227.12 678.2 226.744 678.872 226.488C679.56 226.216 680.32 226.08 681.152 226.08C682 226.08 682.744 226.208 683.384 226.464C684.04 226.704 684.584 227.032 685.016 227.448C685.464 227.864 685.8 228.36 686.024 228.936C686.248 229.512 686.36 230.12 686.36 230.76C686.36 231.512 686.232 232.176 685.976 232.752C685.736 233.328 685.408 233.84 684.992 234.288C684.592 234.736 684.128 235.136 683.6 235.488C683.088 235.84 682.56 236.176 682.016 236.496C681.472 236.8 680.936 237.096 680.408 237.384C679.88 237.672 679.408 237.976 678.992 238.296C678.72 238.504 678.456 238.728 678.2 238.968C677.944 239.192 677.712 239.44 677.504 239.712C677.296 239.984 677.128 240.288 677 240.624C676.872 240.944 676.8 241.304 676.784 241.704H686.216V243H675.152C675.168 242.184 675.256 241.448 675.416 240.792C675.576 240.136 675.928 239.496 676.472 238.872C677.064 238.2 677.672 237.624 678.296 237.144C678.936 236.664 679.56 236.24 680.168 235.872C680.776 235.488 681.352 235.144 681.896 234.84C682.44 234.52 682.92 234.176 683.336 233.808C683.752 233.44 684.08 233.024 684.32 232.56C684.56 232.096 684.68 231.528 684.68 230.856C684.68 230.312 684.584 229.824 684.392 229.392C684.2 228.96 683.936 228.592 683.6 228.288C683.264 227.984 682.872 227.76 682.424 227.616C681.976 227.456 681.488 227.376 680.96 227.376C680.4 227.376 679.888 227.496 679.424 227.736C678.976 227.96 678.584 228.264 678.248 228.648C677.928 229.032 677.68 229.48 677.504 229.992C677.328 230.504 677.256 231.048 677.288 231.624H675.656ZM693.216 234.168L687.408 225.864H689.328L694.176 233.04L699.192 225.864H701.016L695.16 234.216L701.352 243H699.384L694.176 235.44L688.896 243H687.072L693.216 234.168Z" fill="white"/>
<path d="M240.075 465.508C240.795 465.508 241.451 465.468 242.043 465.388C242.635 465.292 243.139 465.124 243.555 464.884C243.987 464.628 244.323 464.292 244.563 463.876C244.803 463.46 244.923 462.924 244.923 462.268C244.923 461.74 244.827 461.292 244.635 460.924C244.443 460.54 244.179 460.228 243.843 459.988C243.523 459.748 243.139 459.572 242.691 459.46C242.259 459.348 241.803 459.292 241.323 459.292C240.779 459.292 240.283 459.38 239.835 459.556C239.403 459.732 239.027 459.988 238.707 460.324C238.387 460.644 238.139 461.028 237.963 461.476C237.787 461.908 237.699 462.388 237.699 462.916H236.163C236.163 462.148 236.291 461.46 236.547 460.852C236.819 460.228 237.235 459.652 237.795 459.124C238.323 458.644 238.915 458.34 239.571 458.212C240.243 458.068 240.931 457.996 241.635 457.996C242.307 457.996 242.931 458.084 243.507 458.26C244.099 458.42 244.611 458.676 245.043 459.028C245.475 459.364 245.819 459.796 246.075 460.324C246.331 460.852 246.459 461.468 246.459 462.172C246.459 463.052 246.259 463.812 245.859 464.452C245.475 465.092 244.875 465.588 244.059 465.94C244.667 466.132 245.163 466.388 245.547 466.708C245.947 467.012 246.259 467.356 246.483 467.74C246.707 468.108 246.859 468.5 246.939 468.916C247.019 469.332 247.059 469.732 247.059 470.116C247.059 470.82 246.939 471.476 246.699 472.084C246.459 472.692 246.107 473.228 245.643 473.692C245.179 474.156 244.603 474.532 243.915 474.82C243.243 475.092 242.475 475.236 241.611 475.252C240.635 475.252 239.787 475.164 239.067 474.988C238.347 474.812 237.747 474.524 237.267 474.124C236.787 473.708 236.411 473.172 236.139 472.516C235.867 471.844 235.683 471.012 235.587 470.02H237.123C237.123 471.316 237.507 472.3 238.275 472.972C239.059 473.628 240.075 473.956 241.323 473.956C241.931 473.956 242.499 473.852 243.027 473.644C243.555 473.436 244.003 473.156 244.371 472.804C244.755 472.452 245.043 472.044 245.235 471.58C245.443 471.116 245.539 470.636 245.523 470.14C245.491 469.452 245.331 468.884 245.043 468.436C244.755 467.972 244.363 467.612 243.867 467.356C243.387 467.084 242.819 466.908 242.163 466.828C241.507 466.732 240.811 466.708 240.075 466.756V465.508ZM253.987 466.084L248.179 457.78H250.099L254.947 464.956L259.963 457.78H261.787L255.931 466.132L262.123 474.916H260.155L254.947 467.356L249.667 474.916H247.843L253.987 466.084Z" fill="white"/>
<path d="M289.081 417.483V418.787C289.858 418.737 290.585 418.762 291.262 418.837C291.939 418.937 292.541 419.113 293.068 419.389C293.569 419.664 293.97 420.041 294.271 420.517C294.572 420.993 294.748 421.595 294.773 422.322C294.798 422.849 294.698 423.35 294.497 423.827C294.271 424.303 293.97 424.729 293.594 425.106C293.193 425.482 292.717 425.757 292.165 425.983C291.613 426.209 291.012 426.309 290.385 426.309C289.081 426.309 288.028 425.958 287.225 425.256C286.398 424.579 285.997 423.551 285.997 422.197H284.392C284.492 423.225 284.693 424.103 284.969 424.78C285.245 425.482 285.646 426.033 286.147 426.46C286.649 426.886 287.276 427.212 288.028 427.387C288.78 427.563 289.658 427.663 290.686 427.663C291.588 427.638 292.391 427.488 293.118 427.187C293.82 426.911 294.422 426.51 294.898 426.033C295.375 425.557 295.751 424.98 296.001 424.353C296.252 423.726 296.377 423.024 296.377 422.297C296.377 421.896 296.327 421.47 296.252 421.044C296.177 420.617 296.001 420.191 295.776 419.79C295.55 419.414 295.224 419.038 294.823 418.712C294.397 418.386 293.87 418.135 293.243 417.934C294.096 417.558 294.723 417.057 295.149 416.38C295.55 415.703 295.751 414.925 295.751 413.998C295.751 413.271 295.625 412.619 295.349 412.067C295.074 411.515 294.723 411.064 294.271 410.688C293.82 410.337 293.293 410.061 292.692 409.886C292.065 409.71 291.413 409.635 290.711 409.635C289.984 409.635 289.256 409.71 288.579 409.835C287.877 409.986 287.251 410.312 286.699 410.813C286.122 411.365 285.696 411.967 285.42 412.594C285.144 413.246 284.994 413.973 284.994 414.775H286.599C286.599 414.223 286.699 413.722 286.874 413.246C287.05 412.794 287.326 412.393 287.652 412.042C287.978 411.716 288.379 411.44 288.855 411.265C289.307 411.089 289.808 410.989 290.385 410.989C290.886 410.989 291.363 411.039 291.839 411.164C292.29 411.29 292.692 411.465 293.043 411.716C293.369 411.967 293.644 412.293 293.845 412.669C294.046 413.07 294.146 413.546 294.146 414.098C294.146 414.775 294.021 415.352 293.77 415.778C293.519 416.204 293.168 416.555 292.742 416.806C292.29 417.082 291.764 417.257 291.137 417.333C290.51 417.433 289.833 417.483 289.081 417.483Z" fill="white"/>
<path d="M301.86 428.064V425.106H300.03V427.312H300.882V428.165C300.882 428.666 300.782 429.042 300.607 429.268C300.431 429.494 300.23 429.694 300.03 429.819V430.747C300.556 430.572 301.008 430.271 301.359 429.845C301.685 429.393 301.86 428.791 301.86 428.064Z" fill="white"/>
<path d="M306.933 422.724H305.329C305.404 423.651 305.604 424.403 305.955 425.03C306.281 425.657 306.733 426.184 307.284 426.56C307.836 426.961 308.488 427.237 309.215 427.412C309.942 427.588 310.719 427.663 311.547 427.663C312.274 427.663 312.976 427.538 313.653 427.262C314.33 427.011 314.907 426.635 315.433 426.134C315.96 425.632 316.361 425.005 316.687 424.278C316.988 423.551 317.138 422.724 317.138 421.796C317.138 420.893 317.013 420.066 316.737 419.339C316.461 418.611 316.06 418.01 315.559 417.508C315.057 417.007 314.455 416.631 313.778 416.355C313.101 416.079 312.349 415.954 311.547 415.954C311.146 415.954 310.795 415.979 310.469 416.004C310.143 416.029 309.817 416.104 309.516 416.179C309.215 416.279 308.914 416.405 308.638 416.555C308.337 416.706 308.011 416.881 307.66 417.107L308.764 411.164H316.186V409.81H307.41L305.98 418.962L307.309 419.138C307.786 418.511 308.363 418.035 308.989 417.734C309.616 417.458 310.343 417.308 311.146 417.308C311.823 417.308 312.424 417.408 312.976 417.633C313.503 417.859 313.979 418.16 314.355 418.561C314.731 418.962 315.007 419.439 315.233 419.99C315.433 420.542 315.534 421.144 315.534 421.796C315.534 422.423 315.433 423.024 315.258 423.551C315.057 424.103 314.781 424.579 314.405 424.98C314.029 425.406 313.603 425.732 313.076 425.958C312.55 426.184 311.948 426.309 311.296 426.309C310.143 426.309 309.165 426.008 308.388 425.406C307.585 424.83 307.109 423.927 306.933 422.724Z" fill="white"/>
<path d="M320.465 409.409H318.459L324.527 418.085L318.108 427.312H320.014L325.53 419.414L330.971 427.312H333.027L326.558 418.135L332.676 409.409H330.77L325.53 416.906L320.465 409.409Z" fill="white"/>
<path d="M1.26416 171.827V559.075" stroke="#042245"/>
<path d="M62.9048 172.25L62.9048 591.196" stroke="#042245" stroke-linecap="round"/>
<path d="M117.231 172.25L117.231 639.254" stroke="#042245" stroke-linecap="round"/>
<path d="M152.753 172.25L152.753 690.447" stroke="#042245" stroke-linecap="round"/>
<path d="M170.514 172.25L170.514 738.506" stroke="#042245" stroke-linecap="round"/>
<path d="M277.079 171.205L277.079 592.24" stroke="#042245" stroke-linecap="round" stroke-linejoin="round"/>
<path d="M170.471 170.604L339.764 170.604" stroke="#042245"/>
<path d="M188.275 172.25L188.275 690.447" stroke="#042245" stroke-linecap="round"/>
<path d="M223.796 172.25L223.796 639.254" stroke="#042245" stroke-linecap="round"/>
<path d="M339.764 171.826V559.074" stroke="#042245"/>
<circle cx="170.471" cy="170.604" r="1.71465" fill="black"/>
<path d="M1.26416 558.809C47.2333 575.873 145.44 635.702 170.514 738.506" stroke="black" stroke-linecap="round"/>
<path d="M339.764 558.809C293.795 575.873 195.588 635.702 170.514 738.506" stroke="black" stroke-linecap="round"/>
</svg>
